<?xml version="1.0" encoding="UTF-8" standalone="no"?>
<!-- Created with Inkscape (http://www.inkscape.org/) -->

<svg
   xmlns:dc="http://purl.org/dc/elements/1.1/"
   xmlns:cc="http://creativecommons.org/ns#"
   xmlns:rdf="http://www.w3.org/1999/02/22-rdf-syntax-ns#"
   xmlns:svg="http://www.w3.org/2000/svg"
   xmlns="http://www.w3.org/2000/svg"
   xmlns:xlink="http://www.w3.org/1999/xlink"
   xmlns:sodipodi="http://sodipodi.sourceforge.net/DTD/sodipodi-0.dtd"
   xmlns:inkscape="http://www.inkscape.org/namespaces/inkscape"
   width="512"
   height="512"
   id="svg5259"
   version="1.1"
   inkscape:version="0.48.2 r9819"
   sodipodi:docname="fly.svg"
   inkscape:export-filename="/Users/sgrimault/Desktop/fly.png"
   inkscape:export-xdpi="90"
   inkscape:export-ydpi="90">
  <defs
     id="defs5261">
    <inkscape:perspective
       sodipodi:type="inkscape:persp3d"
       inkscape:vp_x="0 : 526.18109 : 1"
       inkscape:vp_y="0 : 1000 : 0"
       inkscape:vp_z="744.09448 : 526.18109 : 1"
       inkscape:persp3d-origin="372.04724 : 350.78739 : 1"
       id="perspective5267" />
    <inkscape:perspective
       id="perspective5277"
       inkscape:persp3d-origin="0.5 : 0.33333333 : 1"
       inkscape:vp_z="1 : 0.5 : 1"
       inkscape:vp_y="0 : 1000 : 0"
       inkscape:vp_x="0 : 0.5 : 1"
       sodipodi:type="inkscape:persp3d" />
    <linearGradient
       gradientTransform="translate(1876.1781,82.572546)"
       inkscape:collect="always"
       xlink:href="#linearGradient5167"
       id="linearGradient5173"
       x1="-1460"
       y1="362.36218"
       x2="-1450"
       y2="352.36218"
       gradientUnits="userSpaceOnUse" />
    <linearGradient
       id="linearGradient5167">
      <stop
         style="stop-color:#3b4e3a;stop-opacity:1;"
         offset="0"
         id="stop5169" />
      <stop
         style="stop-color:#000000;stop-opacity:1;"
         offset="1"
         id="stop5171" />
    </linearGradient>
    <linearGradient
       gradientTransform="translate(1876.1781,82.572546)"
       inkscape:collect="always"
       xlink:href="#linearGradient5151"
       id="linearGradient5165"
       x1="-1490"
       y1="407.36218"
       x2="-1475"
       y2="417.36218"
       gradientUnits="userSpaceOnUse"
       spreadMethod="reflect" />
    <linearGradient
       id="linearGradient5151">
      <stop
         style="stop-color:#053c00;stop-opacity:1;"
         offset="0"
         id="stop5153" />
      <stop
         style="stop-color:#000000;stop-opacity:1;"
         offset="1"
         id="stop5155" />
    </linearGradient>
    <radialGradient
       inkscape:collect="always"
       xlink:href="#linearGradient5151"
       id="radialGradient5157"
       cx="-1470.75"
       cy="378.21191"
       fx="-1470.75"
       fy="378.21191"
       r="17.774101"
       gradientTransform="matrix(1,0,0,1.0194244,0,-7.3465573)"
       gradientUnits="userSpaceOnUse" />
    <linearGradient
       id="linearGradient5290">
      <stop
         style="stop-color:#053c00;stop-opacity:1;"
         offset="0"
         id="stop5292" />
      <stop
         style="stop-color:#000000;stop-opacity:1;"
         offset="1"
         id="stop5294" />
    </linearGradient>
    <radialGradient
       r="17.774101"
       fy="378.21191"
       fx="-1470.75"
       cy="378.21191"
       cx="-1470.75"
       gradientTransform="matrix(1,0,0,1.0194244,1876.1781,75.225996)"
       gradientUnits="userSpaceOnUse"
       id="radialGradient5331"
       xlink:href="#linearGradient5151"
       inkscape:collect="always" />
    <radialGradient
       inkscape:collect="always"
       xlink:href="#linearGradient5151"
       id="radialGradient3069"
       gradientUnits="userSpaceOnUse"
       gradientTransform="matrix(1,0,0,1.0194244,1876.1781,75.225996)"
       cx="-1470.75"
       cy="378.21191"
       fx="-1470.75"
       fy="378.21191"
       r="17.774101" />
    <linearGradient
       inkscape:collect="always"
       xlink:href="#linearGradient5151"
       id="linearGradient3071"
       gradientUnits="userSpaceOnUse"
       gradientTransform="translate(1876.1781,82.572546)"
       spreadMethod="reflect"
       x1="-1490"
       y1="407.36218"
       x2="-1475"
       y2="417.36218" />
    <linearGradient
       inkscape:collect="always"
       xlink:href="#linearGradient5167"
       id="linearGradient3073"
       gradientUnits="userSpaceOnUse"
       gradientTransform="translate(1876.1781,82.572546)"
       x1="-1460"
       y1="362.36218"
       x2="-1450"
       y2="352.36218" />
    <linearGradient
       inkscape:collect="always"
       xlink:href="#linearGradient5167"
       id="linearGradient3098"
       gradientUnits="userSpaceOnUse"
       gradientTransform="matrix(3.7399388,0,0,3.7421373,6106.7553,-1157.9548)"
       x1="-1460"
       y1="362.36218"
       x2="-1450"
       y2="352.36218" />
    <linearGradient
       inkscape:collect="always"
       xlink:href="#linearGradient5151"
       id="linearGradient3111"
       gradientUnits="userSpaceOnUse"
       gradientTransform="matrix(3.7399388,0,0,3.7421373,6106.7553,-1157.9548)"
       spreadMethod="reflect"
       x1="-1490"
       y1="407.36218"
       x2="-1475"
       y2="417.36218" />
    <radialGradient
       inkscape:collect="always"
       xlink:href="#linearGradient5151"
       id="radialGradient3114"
       gradientUnits="userSpaceOnUse"
       gradientTransform="matrix(3.7399388,0,0,3.8148261,6106.7553,-1185.4466)"
       cx="-1470.75"
       cy="378.21191"
       fx="-1470.75"
       fy="378.21191"
       r="17.774101" />
  </defs>
  <sodipodi:namedview
     id="base"
     pagecolor="#ffffff"
     bordercolor="#666666"
     borderopacity="1.0"
     inkscape:pageopacity="0.0"
     inkscape:pageshadow="2"
     inkscape:zoom="1.07"
     inkscape:cx="111.70043"
     inkscape:cy="286.9692"
     inkscape:document-units="px"
     inkscape:current-layer="layer1"
     showgrid="false"
     showborder="true"
     inkscape:showpageshadow="false"
     inkscape:window-width="1042"
     inkscape:window-height="831"
     inkscape:window-x="248"
     inkscape:window-y="0"
     inkscape:window-maximized="0" />
  <metadata
     id="metadata5264">
    <rdf:RDF>
      <cc:Work
         rdf:about="">
        <dc:format>image/svg+xml</dc:format>
        <dc:type
           rdf:resource="http://purl.org/dc/dcmitype/StillImage" />
        <dc:title></dc:title>
      </cc:Work>
    </rdf:RDF>
  </metadata>
  <g
     inkscape:label="Layer 1"
     inkscape:groupmode="layer"
     id="layer1"
     transform="translate(-287.19731,-66.07517)">
    <path
       style="fill:url(#radialGradient3114);fill-opacity:1;stroke:#000000;stroke-width:0.66169786;stroke-linecap:round;stroke-linejoin:round;stroke-miterlimit:4;stroke-opacity:1;stroke-dasharray:none"
       d="m 630.49739,200.95108 c -6.50749,4.43776 -11.07321,-5.28989 -17.30507,-6.14171 -7.75925,-3.55458 -16.96511,-5.88586 -25.06731,-1.98921 -11.64468,4.68167 -17.47823,16.70834 -25.53107,25.53672 -8.06555,9.11876 -15.4538,19.13894 -20.03635,30.47821 -4.02492,14.66244 0.0598,30.68859 8.91564,42.80635 13.08979,11.79267 28.18082,21.20804 44.37587,28.0884 6.2745,4.34549 13.8864,5.19031 21.17816,3.13917 6.91514,-0.99174 13.19637,-4.05767 17.80846,-9.33338 7.11748,-6.47674 12.41435,-14.57169 16.52305,-23.21595 4.14984,-7.67064 7.32804,-15.87393 12.71991,-22.80927 3.24888,-5.18499 7.13505,-10.7534 7.39872,-16.99809 -1.82659,-9.35419 -7.68221,-17.14464 -13.01499,-24.78946 -6.37884,-0.16128 -10.61544,-6.16027 -10.19171,-11.6303 -4.58254,-5.90064 -11.02683,-10.10568 -17.77331,-13.14148 z"
       id="path4083-8-0-7"
       inkscape:connector-curvature="0" />
    <path
       style="fill:url(#linearGradient3111);fill-opacity:1;stroke:#000000;stroke-width:0.66169786;stroke-linecap:round;stroke-linejoin:round;stroke-miterlimit:4;stroke-opacity:1;stroke-dasharray:none"
       d="m 464.77061,457.70173 c -14.00533,-24.37385 -12.69186,-53.37691 -13.93015,-80.51163 6.52656,-34.2632 26.19341,-68.33824 58.75032,-83.49816 12.61968,-6.13351 29.03277,-8.84057 41.03723,0.13883 18.0654,10.45089 35.47781,22.88729 48.80134,39.09437 7.80562,13.3997 4.88922,29.81406 1.60854,44.11969 -5.80101,18.22922 -16.97932,34.53873 -30.3309,48.05735 -20.81874,18.82198 -48.973,25.29 -75.60174,31.14222 -9.83866,2.25579 -20.44026,4.54782 -30.33464,1.45752 z"
       id="path4085-5-6-3"
       inkscape:connector-curvature="0" />
    <path
       style="fill:#3b4e3a;fill-opacity:1;stroke:#000000;stroke-width:0.66169786;stroke-linecap:round;stroke-linejoin:round;stroke-miterlimit:4;stroke-opacity:1;stroke-dasharray:none"
       d="m 525.28955,550.87433 c 27.30529,4.22461 10.53952,-36.64499 13.91332,-52.49957 0.38035,-27.96057 23.26578,-45.84563 41.30538,-63.74697 7.57113,-5.97204 25.88337,-35.9451 11.78604,-34.59116 -2.93735,19.02065 -17.40455,31.1875 -29.98421,44.55977 -17.23738,16.9393 -33.21814,39.33169 -28.93179,64.92529 -0.40354,12.85136 6.62343,34.31974 -8.08874,41.35264 z"
       id="path4087-7-3-2"
       inkscape:connector-curvature="0" />
    <path
       style="fill:#3b4e3a;fill-opacity:1;stroke:#000000;stroke-width:0.66169786;stroke-linecap:round;stroke-linejoin:round;stroke-miterlimit:4;stroke-opacity:1;stroke-dasharray:none"
       d="m 654.54146,288.59556 c 10.72016,-0.22116 21.72381,0.65697 32.1085,-2.60034 14.51245,-9.73936 29.84209,-18.45289 42.8941,-30.19422 14.28545,-4.36617 29.39929,-1.5513 43.99739,-3.58059 6.48281,-0.37271 12.97385,-0.99615 19.32501,-2.39403 -4.03464,-6.2115 -8.06929,-12.423 -12.10394,-18.63449 2.094,5.0859 6.78949,14.02328 -0.5565,16.98915 -7.1747,2.06858 -14.49525,-0.91615 -21.77654,-0.52461 -13.13841,-0.81841 -27.68677,-1.42729 -38.85684,6.78075 -8.73164,6.09774 -16.636,13.42432 -26.24876,18.19614 -5.84104,3.54287 -12.99928,7.51523 -19.87217,4.28954 -4.23024,-5.04889 -12.92971,-5.96044 -15.15909,1.63277 -0.60325,3.63017 -2.40628,6.64488 -3.75116,10.03993 z"
       id="path4089-3-6-2"
       inkscape:connector-curvature="0" />
    <path
       style="fill:#3b4e3a;fill-opacity:1;stroke:#000000;stroke-width:0.66169786;stroke-linecap:round;stroke-linejoin:round;stroke-miterlimit:4;stroke-opacity:1;stroke-dasharray:none"
       d="m 654.54146,288.59556 c 11.28601,36.79853 18.48539,74.92833 19.98212,113.42025 3.16623,17.65178 19.10959,29.93403 22.22122,47.52129 10e-4,7.68373 -10.0279,5.45462 -5.85076,-1.77463 -2.35616,-12.14926 -12.72365,-20.88764 -15.72345,-32.95457 -8.87338,-24.78871 -6.05796,-51.72001 -12.7431,-77.01626 -2.7208,-14.62109 -8.32061,-29.22396 -12.23446,-43.02335 1.44923,-2.05758 2.89883,-4.11515 4.34843,-6.17273 z"
       id="path4091-3-1-1"
       inkscape:connector-curvature="0" />
    <path
       style="fill:#3b4e3a;fill-opacity:1;stroke:#000000;stroke-width:0.66169786;stroke-linecap:round;stroke-linejoin:round;stroke-miterlimit:4;stroke-opacity:1;stroke-dasharray:none"
       d="m 357.4022,432.46895 c -6.54676,-3.48071 -6.63503,-12.84503 0.6515,-15.64037 12.79134,-7.35315 27.93697,-8.58316 41.37756,-14.39552 13.47612,-5.17002 26.67997,-13.9273 32.54869,-27.64575 10.9251,-18.50214 15.99571,-41.19086 32.95484,-55.58732 3.45757,-2.88705 11.20074,-9.24128 13.71286,-2.78033 -4.68839,6.06597 -13.71249,7.68673 -17.44382,14.72988 -3.07648,7.19175 -7.86173,13.80792 -11.18055,21.01079 -9.34873,18.06296 -18.60433,37.14034 -34.71897,50.23063 -16.39477,8.07898 -34.84352,10.70955 -51.26933,18.71458 -8.49639,-0.0947 -1.83519,7.96776 -6.63278,11.36341 z"
       id="path4087-7-5-0-5"
       inkscape:connector-curvature="0" />
    <path
       style="fill:#3b4e3a;fill-opacity:1;stroke:#000000;stroke-width:0.66169786;stroke-linecap:round;stroke-linejoin:round;stroke-miterlimit:4;stroke-opacity:1;stroke-dasharray:none"
       d="m 558.12397,220.59572 c -3.41494,-10.17008 -7.92493,-20.25098 -8.34605,-31.13177 4.31514,-16.68151 7.08457,-33.87585 13.82057,-49.83023 1.56292,-5.96612 -1.96908,-11.55078 -3.23841,-17.22771 -3.51816,-11.88278 -7.50157,-23.653565 -10.60871,-35.642737 0.23187,-3.280919 -4.33684,-11.673223 1.72373,-8.748518 6.0774,1.446074 12.1548,2.892148 18.23221,4.33826 -5.17159,0.579469 -16.18309,-2.19308 -16.62628,4.898644 1.76488,6.833405 4.94757,13.230631 7.6781,19.729591 4.44305,10.2398 9.19987,20.88061 9.25896,32.23856 -1.00417,13.04015 -8.7077,24.57929 -9.18977,37.69851 -0.93424,6.36946 -4.38508,13.67474 0.14959,19.47352 2.87078,4.29541 6.88897,7.70731 11.59157,9.72784 -0.38035,2.20812 -3.36071,3.41028 -4.80171,5.301 -3.20512,3.05463 -6.48393,6.1389 -9.64268,9.17504 z"
       id="path4089-3-5-5-3"
       inkscape:connector-curvature="0" />
    <path
       style="fill:#3b4e3a;fill-opacity:1;stroke:#000000;stroke-width:0.66169786;stroke-linecap:round;stroke-linejoin:round;stroke-miterlimit:4;stroke-opacity:1;stroke-dasharray:none"
       d="m 558.12397,220.59572 c -38.34784,1.7566 -76.60068,7.69474 -113.24535,19.26277 -17.75386,3.06994 -34.75488,-7.91567 -52.42796,-4.92993 -7.23304,2.58155 -1.76338,11.28389 3.63709,4.91709 12.22773,-1.86377 23.93785,4.9684 36.30434,3.73825 26.31533,0.0299 50.71805,-11.67727 76.77533,-13.88146 14.74695,-3.17109 31.97461,-0.50362 45.39239,-4.0469 1.18817,-1.68662 2.37598,-3.37327 3.56416,-5.05982 z"
       id="path4091-3-3-7-3"
       inkscape:connector-curvature="0" />
    <path
       style="fill:#9cfffb;fill-opacity:0.58823532;stroke:none"
       d="m 643.53819,302.20482 c -3.29302,40.83581 -29.09224,77.85565 -64.41222,97.92484 -13.37589,21.35806 8.72303,47.34736 13.60926,69.54497 15.12506,33.99129 32.56701,68.58503 59.67334,94.49911 22.97819,9.39003 34.11273,-19.86956 35.04547,-37.81789 10.32784,-56.67209 -10.53129,-112.2523 -12.29168,-168.71572 -2.18188,-26.61236 -6.04599,-53.39974 -12.53815,-79.1315 -6.03401,0.91405 -9.66961,12.39119 -14.74396,17.53225 -1.44735,2.05466 -2.89471,4.10928 -4.34206,6.16394 z"
       id="path4043-0-3-9-6"
       inkscape:connector-curvature="0" />
    <path
       style="fill:none;stroke:#2fd7d8;stroke-width:0.66169786;stroke-linecap:round;stroke-linejoin:miter;stroke-miterlimit:4;stroke-opacity:1;stroke-dasharray:none"
       d="m 612.39796,374.40442 c -11.99922,7.37923 2.0177,26.43449 13.06323,19.74744 m 12.54376,117.05851 c 20.16388,4.53038 18.95101,39.33697 36.6974,41.02864 M 605.4514,442.80956 c 15.48297,15.07573 9.94861,56.87226 36.7894,55.12502 l 1.89802,-2.59469 m 28.53311,68.18249 c 1.05916,-29.32803 -1.72822,-58.73389 1.15864,-87.95404 -2.33111,-44.19752 -27.24695,-85.58279 -19.74912,-130.55119 1.16013,-18.31484 4.65398,-37.76786 -1.16649,-55.54791 m 2.37636,-3.3732 c 11.83167,26.55102 1.96533,56.7552 11.40868,83.96742 4.35703,26.95959 9.93066,53.8986 19.8228,79.43345 M 650.5386,292.84244 c 4.80358,28.16426 -10.44602,56.10059 -0.99669,84.31548 3.07124,44.89154 4.21304,92.11626 -12.12638,134.67941 -3.43999,6.34371 -7.82881,12.1603 -12.90241,17.28538 m -37.68699,-74.20232 c 26.12758,-6.80392 26.63547,-38.96639 39.10555,-58.36462 10.69846,-23.84467 9.52712,-50.25447 14.71591,-75.34557 m 2.76232,-18.24813 c -3.29302,40.83582 -29.09224,77.85566 -64.41222,97.92485 -13.37589,21.35806 8.72303,47.34736 13.60926,69.54497 15.12506,33.99129 32.56701,68.58503 59.67334,94.49911 22.97819,9.39003 34.11273,-19.86956 35.04547,-37.81789 10.32784,-56.67209 -10.53129,-112.2523 -12.29168,-168.71572 -2.18188,-26.61236 -6.04599,-53.39974 -12.53814,-79.1315 -6.03402,0.91405 -9.66962,12.39119 -14.74397,17.53225 -1.44735,2.05466 -2.89471,4.10928 -4.34206,6.16393 z"
       id="path4043-0-3-9"
       inkscape:connector-curvature="0" />
    <path
       style="fill:#9cfffb;fill-opacity:0.58823532;stroke:none"
       d="m 549.45329,233.34403 c -26.05391,11.46415 -46.33933,33.90391 -60.08585,58.26365 -4.09112,19.90993 -9.98265,50.09611 -37.00745,46.02155 -50.55088,2.18118 -102.22412,-3.20615 -149.41654,-22.32308 -19.78988,-14.17956 -0.742,-40.52791 16.93968,-46.22857 53.50095,-31.06408 117.30169,-30.01231 174.92891,-48.82935 22.46806,-6.51555 45.66914,-10.1519 68.90912,-12.52082 2.63628,11.50954 -11.46516,15.98043 -14.26787,25.61662 z"
       id="path4043-0-8-1-9-0"
       inkscape:connector-curvature="0" />
    <path
       style="fill:none;stroke:#2fd7d8;stroke-width:0.662;stroke-linecap:round;stroke-linejoin:miter;stroke-miterlimit:4;stroke-opacity:1;stroke-dasharray:none"
       d="m 491.80064,287.33147 c -2.50838,13.64297 -26.27008,6.98279 -22.98118,-5.67192 m -114.39799,27.53064 c -11.10388,-17.36468 -43.33804,-4.74623 -50.95555,-20.78937 m 126.28053,28.47235 c -19.35343,-9.63716 -56.77825,9.89552 -64.14967,-16.09201 l 1.70018,-2.70632 m -73.7688,-3.96752 c 24.53998,-10.43911 51.16984,-15.3034 74.73445,-28.07748 33.51471,-12.18466 69.76407,-9.3912 104.2953,-15.59065 29.4939,-7.01082 55.00664,-27.24081 85.56344,-29.84219 m 2.37636,-3.37324 c -28.38464,-2.03666 -53.03869,16.61348 -81.14059,17.23707 -27.40702,5.12654 -55.23366,8.60759 -83.15941,8.26215 m 159.54766,-18.75263 c -25.05834,2.47752 -42.32975,26.21262 -68.71801,26.29229 -46.35954,13.66883 -96.01732,26.53905 -132.67508,59.76062 -4.97711,5.28199 -9.2384,11.28562 -12.25653,17.90239 m 82.51203,10.57026 c -3.52751,-24.19314 23.55974,-35.55135 36.60278,-51.35746 17.9906,-20.04091 43.53962,-28.40065 66.00319,-41.56171 l 2.55662,-1.41176 2.59888,-1.33737 m 16.24742,-8.73763 c -26.05391,11.46415 -46.33934,33.90392 -60.08586,58.26366 -4.09112,19.90993 -9.98264,50.0961 -37.00744,46.02155 -50.55088,2.18118 -102.22412,-3.20615 -149.41654,-22.32308 -19.78989,-14.17956 -0.742,-40.52791 16.93968,-46.22857 53.50095,-31.06408 117.30168,-30.01231 174.9289,-48.82935 22.46806,-6.51555 45.66915,-10.1519 68.90913,-12.52082 2.63628,11.50954 -11.46516,15.98042 -14.26787,25.61661 z"
       id="path4043-0-8-1-9"
       inkscape:connector-curvature="0" />
    <path
       style="fill:url(#linearGradient3098);fill-opacity:1;stroke:#000000;stroke-width:0.66169786;stroke-linecap:round;stroke-linejoin:round;stroke-miterlimit:4;stroke-opacity:1;stroke-dasharray:none"
       d="m 597.18351,179.47521 c 2.02555,5.341 7.92867,7.54333 12.59013,10.06923 7.72373,3.68799 15.65726,6.90881 23.49841,10.33376 6.25281,5.53683 14.22748,8.83332 19.91219,15.0849 7.94961,7.54998 14.49637,16.62384 23.33235,23.20334 4.19546,3.66614 8.44815,-1.6123 10.17151,-5.19551 3.13295,-6.06899 4.78525,-13.52793 2.03191,-20.03974 -2.11718,-8.74608 -6.33209,-17.10052 -12.83958,-23.39539 -3.2631,-3.9627 0.50414,-10.13465 -3.63934,-13.70049 -5.03732,-5.51071 -11.68357,-9.35374 -18.57814,-12.06686 -3.83157,0.66374 -7.66351,1.32745 -11.49508,1.99119 -12.58377,-5.18986 -27.43021,-2.76619 -38.75885,4.35967 -3.31172,2.14645 -5.25125,5.61586 -6.22551,9.3559 z"
       id="path4067-3-1-4"
       inkscape:connector-curvature="0" />
    <path
       style="fill:none;stroke:#000000;stroke-width:0.66169786;stroke-linecap:round;stroke-linejoin:round;stroke-miterlimit:4;stroke-opacity:1;stroke-dasharray:none"
       d="m 642.16787,165.75964 c 1.41632,-8.08504 -4.29756,-11.77695 -8.73238,-16.25693"
       id="path4069-6-5-2"
       sodipodi:nodetypes="cc"
       inkscape:connector-curvature="0" />
    <path
       style="fill:none;stroke:#000000;stroke-width:0.66169786;stroke-linecap:round;stroke-linejoin:round;stroke-miterlimit:4;stroke-opacity:1;stroke-dasharray:none"
       d="m 647.91541,164.76405 c -1.55843,-10.72598 -5.42441,-16.80692 -9.72758,-22.00774"
       id="path4071-4-8-0"
       sodipodi:nodetypes="cc"
       inkscape:connector-curvature="0" />
    <path
       style="fill:none;stroke:#000000;stroke-width:0.66169786;stroke-linecap:round;stroke-linejoin:round;stroke-miterlimit:4;stroke-opacity:1;stroke-dasharray:none"
       d="m 675.88043,189.5358 c 9.39809,-1.65358 19.3755,-1.14835 29.73214,0.77286"
       id="path4073-0-1-2"
       sodipodi:nodetypes="cc"
       inkscape:connector-curvature="0" />
    <path
       style="fill:#3b4e3a;fill-opacity:1;stroke:#000000;stroke-width:0.66169786;stroke-linecap:round;stroke-linejoin:round;stroke-miterlimit:4;stroke-opacity:1;stroke-dasharray:none"
       d="m 673.89041,178.03415 c 6.92038,-6.83602 16.80279,-9.1081 26.12048,-10.40254 1.86772,-0.33455 6.99443,-1.07119 6.72516,-1.30283 -6.65672,0.19684 -13.31307,0.39345 -19.96978,0.59014 2.44517,-1.78025 0.51087,-6.99492 -2.62731,-5.21684 -3.37791,2.29659 -3.35959,7.03612 -5.94725,9.94952 -2.81056,2.66807 -7.38787,0.8568 -10.19694,2.04575 1.49822,1.86078 4.16778,2.6323 5.89564,4.3368 z"
       id="path4075-3-3-9"
       inkscape:connector-curvature="0" />
    <path
       style="fill:#3b4e3a;fill-opacity:1;stroke:#000000;stroke-width:0.66169786;stroke-linecap:round;stroke-linejoin:round;stroke-miterlimit:4;stroke-opacity:1;stroke-dasharray:none"
       d="m 660.40531,168.52366 c 1.80452,-2.94536 1.26597,-6.8654 2.21965,-9.62904 2.14074,-2.37686 6.12565,-2.30265 7.84265,-4.96795 1.15378,-2.7785 -1.80788,-6.19279 -4.6925,-4.90235 -3.74629,2.39721 -3.69094,-2.94342 -4.21827,-5.45559 -0.62083,-4.49517 -0.0374,-9.05968 0.9103,-13.46717 -3.05815,5.66186 -3.32069,12.4489 -2.55737,18.72237 0.35903,2.80012 1.58461,5.77988 -0.20944,8.36562 -1.31309,2.42434 -3.41045,4.28258 -5.48649,6.04074 0.71732,2.67013 4.41163,3.33679 6.19147,5.29337 z"
       id="path4077-5-3-5"
       inkscape:connector-curvature="0" />
    <path
       style="fill:none;stroke:#000000;stroke-width:0.66169786;stroke-linecap:round;stroke-linejoin:round;stroke-miterlimit:4;stroke-opacity:1;stroke-dasharray:none"
       d="m 642.16787,165.75964 c 6.19035,12.4056 -2.21068,22.22021 -12.267,31.74092"
       id="path4079-8-9-7"
       sodipodi:nodetypes="cc"
       inkscape:connector-curvature="0" />
    <path
       style="fill:none;stroke:#000000;stroke-width:0.66169786;stroke-linecap:round;stroke-linejoin:round;stroke-miterlimit:4;stroke-opacity:1;stroke-dasharray:none"
       d="m 679.25161,191.91344 c -8.76642,-0.0561 -17.17492,2.15128 -22.38092,24.60807"
       id="path4081-5-7-4"
       sodipodi:nodetypes="cc"
       inkscape:connector-curvature="0" />
    <path
       style="fill:none;stroke:#000000;stroke-width:0.2;stroke-linecap:butt;stroke-linejoin:miter;stroke-miterlimit:4;stroke-opacity:1;stroke-dasharray:none"
       d="m 620.26529,190.56997 c 7.72971,-6.7437 15.18079,-14.53053 11.21982,-22.45282"
       id="path4964"
       sodipodi:nodetypes="cc"
       inkscape:connector-curvature="0" />
    <path
       style="fill:none;stroke:#000000;stroke-width:0.2;stroke-linecap:butt;stroke-linejoin:miter;stroke-miterlimit:4;stroke-opacity:1;stroke-dasharray:none"
       d="m 612.78542,186.82784 c 9.99536,-6.04131 13.21208,-12.29457 11.21981,-18.71069"
       id="path4966"
       sodipodi:nodetypes="cc"
       inkscape:connector-curvature="0" />
    <path
       style="fill:none;stroke:#000000;stroke-width:0.2;stroke-linecap:butt;stroke-linejoin:miter;stroke-miterlimit:4;stroke-opacity:1;stroke-dasharray:none"
       d="m 605.30554,183.0857 c 5.7984,-4.68055 12.62341,-9.20708 11.21982,-14.96855"
       id="path4968"
       sodipodi:nodetypes="cc"
       inkscape:connector-curvature="0" />
    <path
       style="fill:none;stroke:#000000;stroke-width:0.2;stroke-linecap:butt;stroke-linejoin:miter;stroke-miterlimit:4;stroke-opacity:1;stroke-dasharray:none"
       d="m 612.78542,168.11715 c 5.80176,2.79489 6.73488,6.08947 26.17957,7.48428"
       id="path4970"
       sodipodi:nodetypes="cc"
       inkscape:connector-curvature="0" />
    <path
       style="fill:none;stroke:#000000;stroke-width:0.2;stroke-linecap:butt;stroke-linejoin:miter;stroke-miterlimit:4;stroke-opacity:1;stroke-dasharray:none"
       d="m 609.04548,171.85929 c 6.21652,2.60636 7.23042,6.69536 26.17957,7.48427"
       id="path4970-2"
       sodipodi:nodetypes="cc"
       inkscape:connector-curvature="0" />
    <path
       style="fill:none;stroke:#000000;stroke-width:0.2;stroke-linecap:butt;stroke-linejoin:miter;stroke-miterlimit:4;stroke-opacity:1;stroke-dasharray:none"
       d="m 605.30554,175.60143 c 7.46753,3.59623 10.20367,8.58517 26.17957,11.22641"
       id="path4970-6"
       sodipodi:nodetypes="cc"
       inkscape:connector-curvature="0" />
    <path
       style="fill:none;stroke:#000000;stroke-width:0.2;stroke-linecap:butt;stroke-linejoin:miter;stroke-miterlimit:4;stroke-opacity:1;stroke-dasharray:none"
       d="m 609.04548,183.0857 c 7.24987,4.93558 14.45449,8.14607 22.43963,7.48427"
       id="path4970-9"
       sodipodi:nodetypes="cc"
       inkscape:connector-curvature="0" />
    <g
       id="g5142"
       transform="matrix(-1.4066302,-3.4673702,-3.4653331,1.4074571,-89.257943,-5233.3199)">
      <path
         sodipodi:nodetypes="cc"
         id="path4964-4"
         d="m -1426,361.36218 c 2.0668,-1.8021 4.0591,-3.88295 3,-6"
         style="fill:none;stroke:#000000;stroke-width:0.0534611;stroke-linecap:butt;stroke-linejoin:miter;stroke-miterlimit:4;stroke-opacity:1;stroke-dasharray:none"
         inkscape:connector-curvature="0" />
      <path
         sodipodi:nodetypes="cc"
         id="path4966-1"
         d="m -1428,360.36218 c 2.6726,-1.6144 3.5327,-3.28544 3,-5"
         style="fill:none;stroke:#000000;stroke-width:0.0534611;stroke-linecap:butt;stroke-linejoin:miter;stroke-miterlimit:4;stroke-opacity:1;stroke-dasharray:none"
         inkscape:connector-curvature="0" />
      <path
         sodipodi:nodetypes="cc"
         id="path4968-9"
         d="m -1430,359.36218 c 1.5504,-1.25077 3.3753,-2.46038 3,-4"
         style="fill:none;stroke:#000000;stroke-width:0.0534611;stroke-linecap:butt;stroke-linejoin:miter;stroke-miterlimit:4;stroke-opacity:1;stroke-dasharray:none"
         inkscape:connector-curvature="0" />
      <path
         sodipodi:nodetypes="cc"
         id="path4970-8"
         d="m -1428,355.36218 c 1.5513,0.74687 1.8008,1.62727 7,2"
         style="fill:none;stroke:#000000;stroke-width:0.0534611;stroke-linecap:butt;stroke-linejoin:miter;stroke-miterlimit:4;stroke-opacity:1;stroke-dasharray:none"
         inkscape:connector-curvature="0" />
      <path
         sodipodi:nodetypes="cc"
         id="path4970-2-0"
         d="m -1429,356.36218 c 1.6622,0.69649 1.9333,1.78918 7,2"
         style="fill:none;stroke:#000000;stroke-width:0.0534611;stroke-linecap:butt;stroke-linejoin:miter;stroke-miterlimit:4;stroke-opacity:1;stroke-dasharray:none"
         inkscape:connector-curvature="0" />
      <path
         sodipodi:nodetypes="cc"
         id="path4970-6-4"
         d="m -1430,357.36218 c 1.9967,0.96101 2.7283,2.29419 7,3"
         style="fill:none;stroke:#000000;stroke-width:0.0534611;stroke-linecap:butt;stroke-linejoin:miter;stroke-miterlimit:4;stroke-opacity:1;stroke-dasharray:none"
         inkscape:connector-curvature="0" />
      <path
         sodipodi:nodetypes="cc"
         id="path4970-9-9"
         d="m -1429,359.36218 c 1.9385,1.31892 3.8649,2.17685 6,2"
         style="fill:none;stroke:#000000;stroke-width:0.0534611;stroke-linecap:butt;stroke-linejoin:miter;stroke-miterlimit:4;stroke-opacity:1;stroke-dasharray:none"
         inkscape:connector-curvature="0" />
    </g>
  </g>
</svg>
