<?xml version="1.0" encoding="UTF-8" standalone="no"?>
<svg
   height="100"
   id="svg2"
   version="1.1"
   viewBox="0 0 100 100"
   width="100"
   x="0px"
   xmlns="http://www.w3.org/2000/svg"
   xmlns:cc="http://creativecommons.org/ns#"
   xmlns:dc="http://purl.org/dc/elements/1.1/"
   xmlns:rdf="http://www.w3.org/1999/02/22-rdf-syntax-ns#"
   xmlns:svg="http://www.w3.org/2000/svg"
   y="0px"
   xml:space="preserve"><metadata
id="metadata46"><rdf:RDF><cc:Work
    rdf:about=""><dc:format>image/svg+xml</dc:format><dc:type
    rdf:resource="http://purl.org/dc/dcmitype/StillImage" /><dc:title></dc:title></cc:Work></rdf:RDF></metadata><path
     id="path15"
     d="m 93.327394,15.208385 c -0.16668,1.93092 -1.932768,6.425876 -2.666409,7.990238 -2.333002,2.929931 -2.965866,5.127375 -3.332812,6.492188 0.0588,0.04703 0.09694,0.07689 0.145704,0.115236 -1.076121,-0.657348 -2.830711,-0.659928 -3.378517,0.284764 -0.832891,0.732608 -0.399712,2.729313 -0.766407,4.061329 -0.378442,0.151112 -0.730442,0.43837 -1.04336,0.806642 0.05912,-0.08022 0.120358,-0.160358 0.176562,-0.240626 -0.0012,-0.002 -0.0024,-0.0039 -0.0035,-0.0059 0.05943,-0.0775 0.123208,-0.158676 0.170312,-0.226564 -0.699798,-1.131962 -2.3661,-2.464071 -3.066407,-3.130079 0.366949,0.333004 -6.432155,-6.425332 -9.731644,-6.225781 2.932543,1.532072 7.298594,5.293635 8.732034,7.291407 1.598481,1.729637 1.234373,2.030513 2.896095,3.891798 -0.602376,1.355228 -0.775806,2.929426 -0.196484,3.566016 -0.228012,0.07162 -0.448978,0.240571 -0.651564,0.470705 -0.577648,-0.938213 -1.957395,-1.045155 -2.881251,-1.835939 -1.066494,-0.23285 -2.932781,-2.163674 -4.665235,-2.296876 -1.566783,-0.100155 -4.333343,-1.098765 -5.833204,-0.499609 1.066494,0 4.565803,0.999029 5.565626,1.465235 0.20052,0.53205 3.933159,1.23157 4.533205,2.230078 1.032652,0.399352 1.498876,1.831251 2.699219,1.831251 0.04237,-0.07619 0.08045,-0.148058 0.11914,-0.21836 0.002,0.0028 0.0043,0.0054 0.0062,0.0082 -0.533227,1.026916 -0.748489,2.443634 -0.191796,3.107031 -0.382253,0.254468 -0.836567,0.748006 -1.214063,1.323048 0.0052,-0.009 0.0088,-0.01594 0.01406,-0.025 -0.533374,-0.865054 -1.600034,-1.098602 -2.69961,-1.930861 -1.233173,-0.19955 -2.133115,-1.431602 -3.199609,-1.53125 -2.199659,-0.86581 -4.466358,-0.799216 -6.666018,-0.532812 1.29934,0.399856 4.365899,0.865434 5.966017,1.33164 0.666465,1.231863 2.266079,1.032297 3.266407,1.964455 1.266257,0.598904 1.732853,1.63127 2.732423,1.797266 0.04904,-0.09766 0.09451,-0.180054 0.141016,-0.26875 -0.325328,0.722076 -0.453584,1.460991 -0.141016,1.966797 -0.306976,-0.04385 -0.845428,0.521948 -1.321876,1.271874 -1.554703,-1.932148 -2.718345,-1.57882 -4.376953,-3.169141 -2.299667,-0.99876 -4.63259,-1.464842 -7.332034,-1.33164 0.93315,0.499002 2.466062,0.432524 3.365624,0.932032 0.533625,0.299704 3.267021,1.364549 3.666799,1.198046 1.631855,1.065063 2.831229,3.060925 4.097268,3.461719 -0.297627,0.685007 -0.464565,1.364457 -0.331643,1.798829 -0.78982,-0.04492 -2.050972,1.054682 -2.65,2.110548 0.04675,-0.10329 0.09234,-0.19161 0.1375,-0.271876 0.10974,-0.138342 0.21466,-0.27608 0.279688,-0.373828 -0.0047,-0.0016 -0.0094,-0.0038 -0.01406,-0.0055 0.04769,-0.05508 0.09556,-0.108894 0.147266,-0.160548 -2.966383,-1.498014 -7.998698,-2.796765 -11.298441,0.49922 3.090977,-1.228386 7.937642,-1.826984 10.542971,0.744141 -0.13311,0.345588 -0.17672,0.668518 -0.07734,0.920312 -0.821201,-0.08486 -2.168335,1.174484 -2.637891,2.045314 0.002,-0.0055 0.0022,-0.0084 0.0043,-0.01406 -0.499532,-1.265164 -2.499535,-2.46366 -3.499611,-2.830468 -0.900066,0 -2.199683,-5.2e-5 -2.966407,0.466406 1.633455,0.366052 2.000199,0.06637 2.833595,0.432422 0.510832,0.159542 1.786298,2.091252 2.918751,2.310938 -0.589038,0.06791 -1.298375,0.472112 -1.931251,1.003517 -0.903614,-1.190047 -2.693268,-1.990523 -4.120315,-3.746877 -0.333358,-0.333004 -0.600334,-0.199744 -1.133202,0.19961 1.432936,0.4657 3.032853,4.128425 4.166017,4.694531 0.009,-0.0099 0.02058,-0.02238 0.02969,-0.03242 -0.353354,0.477328 -0.58704,0.953604 -0.596484,1.330858 -0.298146,-0.194272 -0.873216,-0.09992 -1.466797,0.13086 0.01038,-0.94383 -0.832382,-1.535024 -0.79922,-1.995312 -0.43362,-0.732609 -0.400108,-1.531349 -0.80039,-1.498049 -0.799556,-1.13196 -2.032383,-2.563426 -2.666017,-3.096484 0.666464,1.298716 1.566363,2.39728 2.166407,3.596094 -0.13309,0.332752 0.333316,0.765551 0.466408,1.364453 0.266434,0.632708 -2.2e-5,1.864752 0.3,2.297658 0.104542,-0.04481 0.210812,-0.09548 0.316796,-0.147266 -0.516116,0.336036 -0.904068,0.720443 -0.916796,1.012891 -0.498738,-0.08788 -1.157926,-0.0404 -1.878127,0.08711 0.158026,-0.03141 0.32876,-0.06601 0.445313,-0.08711 6e-4,-0.0048 6e-4,-0.0096 0.0012,-0.01446 0.0313,-0.0064 0.06938,-0.01246 0.09844,-0.01914 0.2331,-1.198311 -0.699611,-2.230897 -0.699611,-3.995313 -0.533122,-0.632203 -1.766622,-2.928907 -2.567186,-2.928907 0.106048,0.182512 0.276732,0.50642 0.464062,0.872266 10e-4,-0.0024 0.0021,-0.0051 0.0031,-0.0074 0,-4e-4 0.003,0.0187 0.0031,0.01914 0.460386,0.899784 1.03582,2.100599 1.130078,2.478127 0.266686,0.73185 -0.399904,3.129262 0.0668,3.894921 0.03181,-0.01134 0.06696,-0.02118 0.100782,-0.03164 1.16e-4,0.0078 -10e-4,0.01514 -8e-4,0.02305 -0.556446,0.140756 -1.124124,0.318222 -1.671874,0.510936 0.0018,-8e-4 0.0037,-0.0016 0.0055,-0.0023 0.0018,-0.0021 0.0032,-0.0049 0.0051,-0.007 0.102974,-0.04008 0.191712,-0.07571 0.328126,-0.126172 0.533624,-0.898606 -0.233112,-2.297227 0.2,-3.829299 0.164446,-0.852424 -0.154076,-2.881341 -0.163672,-2.910547 -0.002,-0.0038 -0.0043,-0.008 -0.0062,-0.01172 -0.32444,0.782144 -0.686836,1.689808 -0.910156,2.488673 0.0045,6e-4 0.0092,4e-4 0.01368,0.0012 -0.006,0.009 -0.0149,0.0173 -0.02149,0.02617 -0.161267,0.58364 -0.248435,1.108688 -0.178515,1.471876 -0.29977,1.29821 -1.033338,2.197495 -0.866406,3.495703 0.14936,-0.04973 0.2447,-0.08499 0.35703,-0.124608 8e-4,0.002 0.0014,0.0039 0.0023,0.0059 -1.204358,0.51201 -2.106394,1.039958 -2.159374,1.317186 -0.0023,-0.0053 -0.0058,-0.01036 -0.0082,-0.01562 l 0.0082,-0.08359 c -0.0061,0.02066 -0.01262,0.04144 -0.01876,0.06211 -0.122596,-0.245654 -0.409052,-0.474964 -0.77539,-0.66797 0.559872,-0.533698 0.428728,-1.49456 0.794142,-2.224608 0.400534,-1.031811 0.833584,-1.264641 0.933592,-1.831253 -0.132078,-0.55683 1.480406,-0.82468 1.911329,-1.405078 0.0025,-0.009 0.0053,-0.01826 0.0078,-0.02734 -0.799627,-0.120762 -1.955119,0.799912 -2.386329,0.766796 -0.566456,0.333256 -0.66639,1.4652 -1,1.964454 -0.699549,1.065361 -1.399595,0.965463 -1.733205,2.263671 0.04806,0.01154 0.07145,0.01742 0.114454,0.02774 -0.739068,-0.143078 -1.464018,-0.118914 -1.813672,0.172264 0.0155,-0.343334 -0.497678,-0.99996 -1.117579,-1.560936 0.786999,-0.437475 0.901063,-1.957955 1.716797,-3.033985 0.400534,-0.0333 1.733698,-1.398013 1.966798,-1.897267 0.266938,-0.69956 1.400097,-0.965378 1.866797,-1.498438 -1.633707,0.0333 -3.199639,1.398508 -4.432813,2.663673 -0.732883,1.43116 -1.466615,1.39808 -2.066407,3.029296 0.06298,0.03606 0.143638,0.09821 0.230858,0.170314 -0.487788,-0.327072 -0.94826,-0.512412 -1.197266,-0.370314 -0.04655,-0.52692 -0.4987,-1.059338 -1.017968,-1.473046 0.949626,-0.443822 0.923132,-1.996259 1.850782,-3.187501 0.433112,0 1.833699,-1.531412 2.066797,-2.097266 0.300022,-0.73261 1.532522,-0.998778 2.032812,-1.598439 -1.766294,0.03355 -3.432835,1.532065 -4.766015,2.896877 -0.787508,1.540796 -1.768131,1.600416 -2.402737,3.285547 -0.136396,-0.04461 -0.252604,-0.06697 -0.330468,-0.05664 0.0707,-0.492388 -0.426896,-1.511929 -1.004688,-2.312501 0.0039,-0.0018 0.0075,-0.0044 0.01132,-0.0062 0.0899,0.09291 0.169108,0.171684 0.227344,0.221484 1.099576,-0.499254 1.432598,-2.496654 2.432423,-3.861719 0.500036,0 2.166648,-1.731396 2.4,-2.397656 0.366694,-0.832006 1.733267,-1.131551 2.299221,-1.830861 -1.966057,0.06685 -3.899227,1.764415 -5.432424,3.296485 -0.888436,1.774735 -2.00374,1.735981 -2.7375,3.689845 -0.23771,-0.189498 -0.450236,-0.278216 -0.594922,-0.194532 0.0528,-0.616904 -0.445843,-1.548174 -1.020315,-2.211718 0.05177,0.04939 0.10693,0.101002 0.153516,0.147656 10e-4,-4e-4 0.002,-0.001 0.0031,-0.0016 0.02801,0.02931 0.07474,0.07945 0.09687,0.101562 0.933403,-0.432401 1.166979,-2.064175 2.033205,-3.229689 0.433366,0 1.833308,-1.497759 2.066406,-1.997265 0.300022,-0.732104 1.499827,-0.965804 1.999611,-1.564454 -1.732959,0.0328 -3.399377,1.497476 -4.699221,2.76289 -0.766473,1.531567 -1.666343,1.465329 -2.299219,3.162893 0.04729,0.027 0.105574,0.07347 0.167968,0.127344 -6e-4,0.0018 -0.0014,0.0036 -0.002,0.0055 0.01466,0.0176 0.03351,0.03662 0.04961,0.05469 -0.375152,-0.31822 -0.73409,-0.46926 -0.949608,-0.287892 0.08715,-0.573572 -0.671536,-1.552126 -1.534377,-2.222264 0.04493,0.03065 0.08923,0.05996 0.134766,0.09141 0.433113,-0.932159 -0.266812,-2.064029 -0.0668,-2.563283 -0.167182,-0.999012 0.199779,-1.764398 -0.2,-1.964454 -0.366944,-1.631217 -1.10009,-3.828486 -1.533202,-4.727344 0.166426,1.697313 0.666406,3.329431 0.8,4.927344 -0.23335,0.23285 0.06667,0.965788 -0.03359,1.664844 0.03337,0.793712 -0.393228,1.259166 -0.26836,1.917971 -0.372748,-0.110929 -0.696528,-0.08698 -0.897656,0.146094 0.180502,-0.486935 -0.325718,-1.430989 -1.00078,-2.100783 0.02247,0.0122 0.0457,0.02581 0.06758,0.03672 0.399778,-0.96546 -0.23361,-2.397075 -0.03359,-2.863281 -0.16668,-0.998256 0.20003,-1.764514 -0.2,-1.964064 -0.399525,-1.664767 -1.100093,-3.828877 -1.533205,-4.727736 0.166678,1.697565 0.666778,3.329681 0.833204,4.927346 -0.300022,0.233354 0.06669,0.965382 -0.06641,1.631642 0.03129,0.781442 -0.495356,1.561993 -0.45,2.205859 -0.135332,-8e-4 -0.264704,0.02606 -0.383204,0.09063 -0.236626,-0.385818 -0.98577,-0.957444 -1.90039,-1.503127 0.193096,-0.951562 -0.526159,-1.882032 -0.39922,-2.358202 -0.266435,-0.965458 -2e-4,-1.798049 -0.400001,-1.931251 -0.566708,-1.564868 -1.500082,-3.595829 -2.033202,-4.394533 0.333358,1.631468 1.03318,3.162225 1.333202,4.727345 -0.23335,0.26615 0.166286,0.932585 0.133204,1.631641 0.11858,0.710506 -0.1834,1.05301 -0.111328,1.541406 -1.16014,-0.542206 -2.306316,-0.90229 -2.887891,-0.742578 0.180642,-0.171854 0.09174,-0.513142 -0.139064,-0.903124 0.0016,0.0012 0.0034,0.0031 0.0051,0.0043 0.300276,-0.998761 -0.500132,-1.997369 -0.333202,-2.496875 -0.266686,-0.999264 2e-4,-1.79805 -0.432812,-1.93125 -0.56671,-1.564363 -1.500084,-3.595577 -2.033204,-4.394534 0.333358,1.631721 1.033046,3.162867 1.366406,4.727736 -0.233352,0.26615 0.16654,0.632194 0.133204,1.33125 0,0.557284 -0.252382,0.661564 0.0059,1.314454 -0.660456,-0.540438 -1.306764,-0.822336 -1.405468,-0.316016 -2.899459,-0.732356 -4.166105,-0.865604 -6.232424,0.866017 -0.07309,0.0365 -0.14446,0.07659 -0.214062,0.11953 -0.615406,-1.291129 -1.019826,-3.215419 -2.185548,-3.714843 -0.733136,-1.265163 -1.232871,-3.429165 -2.19961,-3.828518 -0.733135,-1.26592 -1.36711,-3.429946 -2.2,-3.829299 -0.733136,-1.298212 -1.466217,-3.562309 -2.1660169,-3.895313 -0.133595,1.098661 1.2326359,2.663453 1.8660169,4.028517 -0.16668,1.065109 1.233416,2.763453 1.866797,4.128518 -0.133596,1.131962 1.233278,2.763858 1.866407,4.161719 -0.29977,1.265162 1.333158,2.896907 1.933203,4.261719 0.05882,-0.08717 0.100311,-0.154278 0.145703,-0.22617 -0.174439,0.26787 -0.324493,0.559464 -0.448046,0.866014 -1.56935,0.07585 -4.398326,0.79431 -4.864064,2.089845 -1.3996,0.466206 -3.3664749,0.632688 -4.0996109,1.83125 -1.432935,0.43341 -3.332761,1.665401 -4.032813,2.630861 -1.432936,0.4324 -3.36597208,1.797332 -3.96601708,2.662891 0.8998151,0.63296 2.53282848,-1.597859 3.96601708,-2.197267 0.866731,0.66626 2.66668,-1.830863 4.133204,-2.097265 0.933151,0.666261 2.7666799,-1.49805 4.2332039,-1.764454 1.09983,0.499254 2.725274,-1.045216 4.191798,-1.078516 0.0092,-0.11815 0.01567,-0.188392 0.02305,-0.282422 -0.08751,1.181464 0.192092,2.292866 0.883594,2.825392 0.499785,0.598902 1.099986,1.331287 4.566408,1.098437 0.09014,0.435102 0.634624,0.821746 1.302344,1.116406 -0.438124,0.110122 -0.231466,0.364842 -0.802344,0.682032 -0.433366,0.4324 -1.599868,0.632036 -1.633204,1.03164 -1.233173,0.532555 -2.599513,0.732079 -3.89961,1.298439 0.833396,0.0999 2.732721,-0.09944 4.066408,-0.433202 0.29977,0.399856 1.29941,-0.665377 2.099218,-0.932033 0.23335,-0.465952 1.333553,-0.199718 1.800001,-1.098828 -0.08743,-0.0466 -0.178782,-0.07816 -0.271094,-0.10547 0.39551,0.08899 0.762194,0.138282 1.0375,0.138282 -0.153176,0.412904 0.456884,1.063888 1.316016,1.622267 -1.320856,0.860794 -0.810052,2.030264 -2.082422,3.072656 -1.566279,1.831522 -2.633101,4.328457 -2.266407,6.259378 0.466702,-0.665756 0.66623,-2.263719 1.29961,-2.696877 0.433367,-0.2992 1.666797,-2.163737 1.666797,-2.762891 0.966234,-1.165514 2.832777,-1.299312 3.199219,-2.996876 -0.01068,-0.0059 -0.0408,-0.01798 -0.05391,-0.02461 0.544096,0.17529 1.06923,0.258734 1.48711,0.190624 -0.150398,0.413544 0.80369,1.537632 1.908985,2.414454 -0.01712,0.0106 -0.0339,0.02297 -0.05078,0.03437 -0.124238,-0.09615 -0.221524,-0.192706 -0.258204,-0.284374 -1.599867,0.965458 -1.033215,2.397491 -2.432813,3.562501 -1.733211,2.031325 -2.932591,4.794417 -2.532813,6.925392 0.53312,-0.73261 0.766232,-2.497077 1.433203,-2.963283 0.499532,-0.332752 1.832812,-2.429931 1.832812,-3.062891 1.063072,-1.261102 2.655269,-1.695644 3.028907,-3.512111 0.51928,0.298906 1.009292,0.483568 1.370314,0.448438 -0.399776,0.765909 1.332767,2.830137 2.066407,2.763283 -0.76647,0.366052 1.333024,3.462537 1.966406,3.096485 -0.215486,0.19141 0.01974,0.84035 0.425782,1.566406 -0.80256,0.118148 -2.4612,3.328419 -3.092188,3.594533 -0.40003,0.23285 -2.433279,0.699081 -3.066407,0.832031 0.533122,0.699308 2.733019,0.300156 3.466407,0.333204 1.033158,-1.231863 3.232781,-1.997377 3.766407,-3.029689 -0.08015,-0.173042 -0.24461,-0.404388 -0.41836,-0.647656 -0.152159,-0.23443 -0.328723,-0.522816 -0.462139,-0.690204 -0.06797,-0.116546 -0.122802,-0.228222 -0.161721,-0.333204 0.728897,1.281218 1.968615,2.772304 2.241799,2.43672 0.533372,0.166248 0.899962,0.13322 1.4,0.299218 -0.09529,0.5711 0.967819,1.584513 2.131251,2.301953 -0.276086,-0.159988 -0.558048,-0.318546 -0.798438,-0.403124 -0.333106,0.698804 -0.666252,0.998462 -0.99961,1.697266 -0.933405,0.06635 -2.533289,2.297161 -2.932813,2.963673 -0.600046,0.998761 -3.399575,0.998759 -3.899611,2.130469 2.733284,0.199802 5.332403,-1.431543 7.265628,-3.462111 0.597082,-0.696396 2.08486,-1.392149 2.328516,-2.416797 0.936611,0.40689 1.745875,0.477046 1.837501,-0.214454 0.366948,2.197323 3.866189,1.365298 6.465626,1.964455 0.776282,0.507428 1.809638,0.719602 2.821484,0.685156 -0.836086,0.907588 -0.433172,2.476055 -1.054686,4.142969 -0.466198,0.199298 -1.59974,2.496533 -1.7,3.196095 -0.132588,0.932158 -1.399185,1.797472 -1.765627,2.663283 1.899385,-0.832259 3.499133,-3.096525 4.565627,-5.127346 0.433362,-2.030568 1.766655,-2.530182 1.732813,-5.160157 -0.07164,0.05009 -0.18287,0.09438 -0.309766,0.133594 -0.234104,-0.01822 -0.531528,0.07755 -0.8125,0.14375 -0.164001,0.01124 -0.313751,0.0101 -0.433205,-0.0043 1.297111,-0.09141 2.525377,-0.588388 3.088673,-1.405469 0.648144,0.341118 1.617025,0.320792 2.597267,0.115626 -0.01968,0.0057 -0.04488,0.01232 -0.06406,0.01796 0,0.832005 -0.233594,1.265261 -0.233594,2.097267 -0.499784,0.632456 -1.13267,3.395911 -1.399611,4.394923 -0.40003,1.132215 -2.6,2.929775 -2.6,4.227736 2.466092,-1.465219 3.866827,-4.561202 4.799221,-7.490629 0.26719,-0.965964 1.366816,-2.730189 1.20039,-3.762501 -0.108908,0.04544 -0.250136,0.09362 -0.405468,0.142578 1.280821,-0.469782 2.321195,-1.152864 2.304687,-1.607812 0.468664,0.233942 1.23814,0.057 2.006642,-0.318358 -0.09124,0.05052 -0.1828,0.09997 -0.273048,0.153124 0.266686,1.164758 0.866351,3.129561 1.532813,3.928517 0,0.96546 0.500114,2.130227 0.633204,2.929689 0.266434,1.29821 -0.232848,2.930263 0.133594,4.061719 1.832967,-3.429185 -0.13393,-8.489569 -0.666798,-11.918753 -0.243854,0.208666 -0.524432,0.3808 -0.817186,0.545312 1.100632,-0.671653 2.046248,-1.661147 1.883594,-2.310939 0.0066,0.0049 0.01492,0.0076 0.02187,0.0121 0.01366,0.01708 0.03181,0.03853 0.04531,0.05547 l -0.03633,-0.05078 c 0.510664,0.311846 1.849593,-0.437384 2.924617,-1.392968 -0.253458,0.317712 -0.783776,0.663876 -1.288672,1.010936 2.799704,2.164273 3.966387,8.089714 4.132813,12.185159 1.298454,-5.055491 -0.66276,-10.242719 -2.793359,-13.240237 0.905702,-0.816865 1.607248,-1.771187 1.426952,-2.341407 0.966235,0.665756 4.332465,-2.763351 3.866017,-3.895313 0.790207,0.09842 1.757893,-0.729806 2.407813,-1.788673 -0.04871,0.121582 -0.110852,0.273271 -0.141406,0.357423 0.633634,1.198814 2.232965,1.198716 3.499221,2.163672 0.13309,0.599406 1.833146,2.231309 2.366015,2.430859 0.733388,0.266404 1.267384,1.931022 1.933594,2.496876 -0.4667,-2.463726 -2.199869,-4.494745 -3.732813,-6.026563 -1.53172,-0.715474 -1.76117,-2.065541 -3.389455,-2.561329 0.255022,-0.77605 0.282882,-1.549634 -0.07695,-2.1 0.624338,0.689972 1.603925,-0.718794 2.126173,-2.066407 -0.122438,0.432486 -0.487948,1.087049 -0.659376,1.400781 0.799808,1.065864 2.299482,0.666276 3.698829,1.332032 0.20052,0.599154 2.100226,1.864788 2.667188,1.93164 0.766724,0.0999 1.499425,1.597679 2.232813,2.030079 -0.799806,-2.330273 -2.766143,-3.961457 -4.466015,-5.159767 -1.655821,-0.3642 -1.668673,-1.581679 -3.401173,-1.727735 0.21302,-0.597994 0.328118,-1.16387 0.268358,-1.502344 0.454148,0 1.283254,-2.056581 1.584766,-3.621875 -0.0063,0.03894 -0.0132,0.0957 -0.01874,0.126172 0.800314,1.098408 2.332709,0.666136 3.732813,1.33164 0.200014,0.532554 2.099699,1.798105 2.666407,1.864455 0.733388,0.0999 1.499816,1.598456 2.233199,2.030858 -0.799803,-2.330272 -2.799591,-3.894937 -4.499214,-5.093751 -1.666286,-0.399354 -2.333316,-1.797269 -4.099611,-1.930469 0.0302,0.07236 0.04789,0.17001 0.06055,0.276172 -0.03666,-0.15154 -0.09877,-0.261178 -0.19375,-0.310548 1.232921,-0.832258 1.933151,-4.428291 1,-5.526953 0.647761,-0.664432 1.080763,-2.081457 1.184767,-3.412891 -0.001,0.10546 0.0012,0.204062 0.01446,0.283984 0.999822,-0.166502 1.299782,-1.264868 2.566796,-1.83047 0.999823,-0.965713 2.599553,-0.732591 3.266022,-1.964453 1.60012,-0.466206 4.66629,-0.932444 5.99922,-1.364844 -2.23325,-0.266908 -4.49956,-0.300186 -6.699225,0.565624 -1.066494,0.06685 -1.966298,1.298426 -3.199219,1.532032 -1.098654,0.797784 -1.432758,0.599204 -1.964844,1.462501 -0.07846,-0.652259 -0.269526,-1.190685 -0.601172,-1.463283 0.366406,-1.232244 0.99966,-3.162931 0.732422,-4.395313 1.566638,-2.197169 2.166758,-3.661549 3.133203,-7.190236 0.799808,-1.165514 2.699035,-6.692712 1.932814,-8.290628 z m -17.730865,1.521486 c -0.614562,-0.0042 -1.050058,0.08515 -1.166798,0.276562 1.23393,0.63195 3.866195,-0.566294 6.632816,2.729689 -0.200014,0.666262 1.932508,3.695957 2.499219,3.962109 0,1.797717 -0.266221,4.494161 0.633594,6.225784 0.366442,-0.399606 0.533292,-0.53283 1.1,-0.565626 0.532868,-1.364813 -0.1337,-4.028591 -0.366796,-5.560158 0.4667,-0.69931 -2.266367,-4.761289 -2.732815,-4.727735 -1.299718,-1.472977 -4.755533,-2.328137 -6.59922,-2.340625 z m 6.29922,18.760161 c -0.147614,0.231364 -0.27896,0.48087 -0.397656,0.738281 0.08816,-0.227967 0.20245,-0.443569 0.329298,-0.644923 0.02252,-0.0311 0.04548,-0.06227 0.06836,-0.09336 z m 6.237502,1.078517 c 0.06025,0.199352 0.05297,0.488686 0.03672,0.779686 0.0031,-0.271466 -0.0081,-0.533236 -0.03672,-0.779686 z m -0.176562,5.439063 c -0.174254,0.0049 -0.355164,0.05626 -0.594922,0.201952 0.06692,0.499506 0.10039,0.798794 0.10039,1.298048 0.96573,0.399857 0.866046,-0.09966 2.232814,0.100391 1.233175,-0.266907 2.566313,0.831462 3.599219,0.09961 1.600371,0.499254 4.499631,1.831002 5.832811,2.23086 -1.8663,-1.49852 -3.89929,-2.830299 -6.165623,-3.329299 -0.966486,-0.532556 -2.199656,0.06665 -3.400001,-0.466406 -0.870724,0.06868 -1.22133,-0.145874 -1.604688,-0.135156 z M 18.05667,44.055659 c -0.219834,0.19795 -0.418088,0.428138 -0.591797,0.683594 0.152897,-0.241814 0.282695,-0.428148 0.591797,-0.683594 z m -1.300001,2.25547 c -0.09786,0.354784 -0.163779,0.717898 -0.195703,1.076173 0.03595,-0.442497 0.06684,-0.679603 0.195703,-1.076173 z m 6.731252,6.28047 c 0.299692,0.12107 0.616658,0.22434 0.925001,0.304688 -0.05728,-0.01138 -0.114367,-0.02323 -0.171875,-0.03398 -0.266784,-0.09009 -0.51798,-0.177136 -0.715626,-0.244922 -0.01258,-0.0082 -0.02506,-0.01694 -0.0375,-0.02578 z m 8.793363,5.660157 c 0.169718,0.131164 0.341272,0.254614 0.51328,0.369532 -0.121326,-0.06685 -0.246888,-0.136698 -0.371094,-0.2125 -0.05124,-0.05238 -0.09771,-0.104638 -0.142186,-0.157032 z m 37.9254,0.03555 c -0.0025,0.01152 -0.0075,0.02478 -0.0094,0.03594 -0.01148,-0.0043 -0.02385,-0.0067 -0.03555,-0.01054 0.01098,-0.0063 0.02193,-0.01304 0.03516,-0.02305 2e-4,-1.48e-4 4e-4,-2e-4 8e-4,-4e-4 0.0028,-8e-4 0.0062,-0.0012 0.009,-0.002 z m 8.156252,4.630859 c -0.16668,0.299453 -0.866506,0.865883 -1.066016,1.132033 0.3326,1.431918 1.7326,1.797574 2.732423,3.162891 0,0.632202 1.266892,2.796472 1.733594,3.163283 0.666464,0.498748 0.799434,2.297118 1.299218,3.06328 0.100514,-2.53083 -1.133234,-5.094415 -2.232812,-7.092188 -1.366769,-1.231358 -0.932958,-2.363684 -2.466407,-3.429299 z m -41.594151,0.498829 c -1.699623,0.63296 -1.533093,2.497586 -3.033205,3.362893 -1.966308,1.664768 -3.499499,4.161663 -3.366407,6.358985 0.633632,-0.632456 1.066744,-2.33039 1.766797,-2.66289 0.53312,-0.233105 2.132686,-2.031495 2.19961,-2.664455 1.232923,-1.065108 2.832517,-1.131189 3.432813,-2.928907 -0.233856,-0.333508 -0.899852,-1.13237 -0.999608,-1.465626 z m 8.815626,8.840628 c 0.02059,0.0098 0.04083,0.01818 0.06133,0.02773 -0.01944,-0.0082 -0.04088,-0.01834 -0.06133,-0.02773 z m 5.34883,1.547656 c -0.02036,0.02312 -0.03957,0.04824 -0.05937,0.07227 -0.09254,-0.0018 -0.196928,-0.0016 -0.273828,-0.0059 -1.033159,0.465701 -0.766843,1.964487 -1.800001,3.3293 -0.766724,-0.200056 -2.099588,1.331472 -2.399611,2.36328 -0.23335,0.899112 -1.73302,1.165381 -2.332812,1.831641 2.033232,-0.03355 4.066165,-1.564961 5.466017,-3.263281 0.866729,-1.797719 2.699057,-1.831253 3.166011,-4.094923 -0.140782,-0.08434 -0.432774,-0.119829 -0.765624,-0.136719 -0.328564,-0.03501 -0.642666,-0.05114 -1.000782,-0.0957 z"
     style="clip-rule:evenodd;fill:#000000;fill-opacity:1;fill-rule:evenodd;stroke:#000000;stroke-width:0.01324156;stroke-linecap:round;stroke-linejoin:round;stroke-miterlimit:2.41420007" /></svg>