<?xml version="1.0" encoding="UTF-8" standalone="no"?>
<!-- Created with Inkscape (http://www.inkscape.org/) -->

<svg
   xmlns:dc="http://purl.org/dc/elements/1.1/"
   xmlns:cc="http://creativecommons.org/ns#"
   xmlns:rdf="http://www.w3.org/1999/02/22-rdf-syntax-ns#"
   xmlns:svg="http://www.w3.org/2000/svg"
   xmlns="http://www.w3.org/2000/svg"
   xmlns:sodipodi="http://sodipodi.sourceforge.net/DTD/sodipodi-0.dtd"
   xmlns:inkscape="http://www.inkscape.org/namespaces/inkscape"
   width="512"
   height="512"
   id="svg3166"
   version="1.1"
   inkscape:version="0.48.2 r9819"
   sodipodi:docname="leech.svg"
   inkscape:export-filename="/Users/sgrimault/Desktop/leech.png"
   inkscape:export-xdpi="90"
   inkscape:export-ydpi="90">
  <defs
     id="defs3168" />
  <sodipodi:namedview
     id="base"
     pagecolor="#ffffff"
     bordercolor="#666666"
     borderopacity="1.0"
     inkscape:pageopacity="0.0"
     inkscape:pageshadow="2"
     inkscape:zoom="1"
     inkscape:cx="426.12175"
     inkscape:cy="325.21575"
     inkscape:document-units="px"
     inkscape:current-layer="layer1"
     showgrid="false"
     inkscape:window-width="1282"
     inkscape:window-height="764"
     inkscape:window-x="92"
     inkscape:window-y="27"
     inkscape:window-maximized="0" />
  <metadata
     id="metadata3171">
    <rdf:RDF>
      <cc:Work
         rdf:about="">
        <dc:format>image/svg+xml</dc:format>
        <dc:type
           rdf:resource="http://purl.org/dc/dcmitype/StillImage" />
        <dc:title></dc:title>
      </cc:Work>
    </rdf:RDF>
  </metadata>
  <g
     inkscape:label="Calque 1"
     inkscape:groupmode="layer"
     id="layer1"
     transform="translate(0,-540.36218)">
    <path
       inkscape:connector-curvature="0"
       id="path3382"
       d="m 8.7248063,989.88854 c -1.1380722,-1.13987 -2.0691884,-2.88015 -2.0691884,-3.86742 0,-0.98722 4.8190721,-7.01134 10.7090501,-13.38692 l 10.70905,-11.59192 6.894772,-19.74355 c 7.304429,-20.91651 20.005134,-39.6973 28.565263,-51.01539 8.56013,-11.31808 12.651101,-12.60708 18.367107,-18.30319 5.716005,-5.69611 11.09686,-8.2141 18.89256,-11.8711 21.42413,-10.36868 21.69677,-9.6262 53.03904,-22.32107 18.7897,-7.61054 39.53913,-17.25825 46.10986,-21.43935 30.61818,-24.47118 58.63899,-51.88077 78.80881,-77.55274 7.50773,-9.5994 17.5097,-22.24424 22.22662,-28.0996 4.7169,-5.8554 8.53363,-11.3255 8.4816,-12.15578 -0.052,-0.83031 2.15432,-3.8464 4.90297,-6.70244 2.74866,-2.85603 13.35062,-15.13754 23.55992,-27.29223 l 18.56235,-22.09948 14.40676,-9.96136 c 7.92372,-5.47877 23.34475,-13.11986 34.26896,-16.98025 l 19.8622,-7.01886 13.52382,-0.0604 c 7.4381,-0.0332 19.40597,-1.63602 26.59525,-3.56184 13.90932,-4.19005 11.37253,-4.43383 23.36121,2.14514 5.65937,3.10564 11.16168,7.57728 12.22739,9.93693 1.06571,2.35965 5.1372,4.93719 5.26146,10.72568 0.12422,5.7885 -1.15669,4.90413 -2.4361,10.72569 -1.2794,5.82156 -2.57017,6.86444 -5.71149,10.01064 l -5.71149,5.72036 -0.0628,7.8655 c -0.0345,4.326 -2.42356,13.07095 -5.309,19.43317 l -5.24627,11.56769 -15.89734,14.17395 -15.89734,14.17395 -26.50216,14.30091 c -14.57619,7.86551 -33.98901,19.91116 -43.13959,26.76811 -21.25042,10.13548 -12.72667,10.44107 -28.85441,25.68304 -12.99842,11.60141 -21.74283,19.4553 -28.1499,24.72187 -6.40706,5.26657 -20.87099,13.92305 -34.57495,22.70298 -13.70396,8.77994 -46.58143,22.32115 -119.98623,29.79578 l -25.19434,2.56547 -21.38254,10.8701 -21.38252,10.87006 -16.249541,15.96723 -16.249427,15.96723 -12.425868,24.31155 c -6.83423,13.37138 -15.526552,27.61852 -19.316271,31.66033 -6.09562,9.73177 -11.472362,10.24046 -19.733923,12.56058 -3.181274,1.03029 -6.7152601,0.94065 -7.8533037,-0.19907 z M 28.149281,972.16079 c -0.879256,-0.8806 -3.183586,-0.002 -5.120725,1.95287 l -3.522078,3.55404 5.120725,-1.95291 c 2.816395,-1.07408 4.401334,-2.67335 3.522078,-3.554 z m 9.919551,-12.16193 0,-3.02896 3.296988,2.0408 3.296959,2.04082 -1.960555,-3.1772 -1.960556,-3.17718 -4.192179,1.61117 c -4.731202,1.81836 -5.705982,6.71954 -1.336404,6.71954 1.570661,0 2.855747,-1.36305 2.855747,-3.02899 z m 9.700943,-7.935 c 0.808947,-1.31094 -0.343775,-2.38351 -2.561577,-2.38351 -2.217801,0 -3.370523,1.07257 -2.561604,2.38351 0.808947,1.31088 1.961669,2.38344 2.561604,2.38344 0.599936,0 1.752658,-1.07256 2.561577,-2.38344 z m 154.074245,-119.08267 1.60867,-4.19869 -3.44494,-1.98028 -3.44498,-1.98025 2.09744,2.32093 2.0974,2.32089 -4.95315,3.76706 -4.95318,3.76706 4.69202,0.091 c 2.58062,0.05 5.41592,-1.79846 6.30072,-4.10768 z m 13.05565,-8.12592 -0.22532,-3.40642 -1.48014,3.69461 -1.48013,3.69461 -4.71986,-3.69461 -4.71995,-3.69464 3.89326,4.97383 c 4.0685,5.19775 9.11989,4.29101 8.73214,-1.56738 z m 4.98504,-6.74331 c -1.04711,-1.04872 -2.76056,-1.04872 -3.80768,0 -1.04709,1.04871 -0.19048,1.90677 1.90384,1.90677 2.09421,0 2.95093,-0.85806 1.90384,-1.90677 z m 30.57132,-16.92965 c 1.7719,0.40577 2.33006,0.22195 1.2403,-0.40832 -1.08978,-0.63036 -1.30613,-3.31535 -0.48082,-5.96663 l 1.50058,-4.82055 -4.08517,4.9609 c -2.24685,2.72844 -4.92194,4.12281 -5.94464,3.09849 -1.02267,-1.02428 -1.85943,0.54026 -1.85943,3.4767 l 0,5.33902 3.20375,-3.20873 c 1.76205,-1.76479 4.65349,-2.87671 6.42543,-2.47088 z m 29.99245,-31.21678 4.55314,-5.72036 -8.72059,7.90557 c -4.79631,4.34802 -9.4666,7.15832 -10.37844,6.24512 -0.91181,-0.91322 -2.62763,-0.0889 -3.81291,1.83198 l -2.15509,3.49237 3.09966,-1.91864 3.09965,-1.91867 2.02039,3.27411 2.02041,3.27414 2.86032,-5.3726 c 1.57317,-2.95494 4.90922,-7.94679 7.41346,-11.09302 z m 24.81232,-13.57548 8.38759,-9.28518 -7.84205,6.91297 -7.84203,6.91301 -2.04497,-2.04815 -2.04497,-2.04815 3.92037,-6.30533 3.92037,-6.30533 -4.29122,3.5504 c -2.36019,1.95273 -5.00829,2.83224 -5.88472,1.95448 -2.82482,-2.82921 -0.83696,8.67439 2.11899,12.26246 1.57066,1.90654 2.93659,3.51539 3.0354,3.57523 0.0988,0.0598 3.95407,-4.06953 8.56724,-9.17641 z m 16.45701,-11.74262 3.35356,1.92367 -2.00581,-2.22914 -2.00582,-2.22917 4.40678,-4.41361 4.40679,-4.41363 2.55287,4.03909 2.55284,4.0391 0.0437,-5.00532 c 0.0229,-2.75293 1.24893,-5.00532 2.72198,-5.00532 1.47305,0 2.49139,-2.48499 2.26295,-5.52221 -0.22846,-3.03723 -1.45463,-4.8789 -2.72486,-4.09264 -1.27024,0.78627 -1.62504,2.53878 -0.78848,3.89445 0.83657,1.3557 0.21504,3.2734 -1.38129,4.26148 l -2.90227,1.79648 0,-3.17632 c 0,-1.747 -3.01944,0.0867 -6.70986,4.07493 -3.69043,3.98824 -7.27045,6.68985 -7.9556,6.00361 -0.68518,-0.68622 -1.37758,2.23065 -1.5387,6.48194 l -0.29297,7.72962 1.32532,-5.0403 1.32532,-5.04036 z m -16.16069,-6.62061 c -1.04712,-1.04872 -1.90385,-0.19078 -1.90385,1.9068 0,2.09745 0.85673,2.95554 1.90385,1.90682 1.04708,-1.04874 1.04708,-2.76485 0,-3.81362 z m 42.8362,-14.30091 c -1.04712,-1.04872 -2.76057,-1.04872 -3.80769,0 -1.04708,1.04874 -0.19047,1.90679 1.90385,1.90679 2.0942,0 2.95092,-0.85805 1.90384,-1.90679 z m 12.43195,-10.24898 3.11376,-6.43541 -4.04205,5.00532 c -4.27705,5.29631 -9.2663,7.00378 -6.26814,2.14513 l 1.76494,-2.86018 -3.02427,0 c -3.39102,0 -4.02334,3.76638 -1.12045,6.67375 3.42361,3.42896 6.40907,2.01712 9.57621,-4.52861 z m 10.41402,-1.19175 c -1.04712,-1.04872 -2.76057,-1.04872 -3.80768,0 -1.04709,1.04874 -0.19048,1.90679 1.90384,1.90679 2.0942,0 2.95093,-0.85805 1.90384,-1.90679 z m 1.72019,-8.54986 c -1.93343,-0.78346 -5.78869,-0.83114 -8.56724,-0.10583 l -5.0519,1.31837 8.56724,0.10583 c 4.71198,0.0584 6.98532,-0.53505 5.0519,-1.31854 z m 2.08746,-4.96834 c 0,-0.61826 -1.99437,-1.89058 -4.43195,-2.82743 l -4.43194,-1.70333 1.74474,2.82741 c 1.67707,2.71777 7.11915,4.01984 7.11915,1.70335 z m 19.99023,-7.97859 4.28362,0.67803 -5.44128,-4.29345 -5.44129,-4.29347 -5.26776,6.08323 c -2.89727,3.34579 -5.26777,6.57513 -5.26777,7.17632 0,0.60123 2.89144,-0.50932 6.42543,-2.4678 3.53399,-1.95848 8.35306,-3.25574 10.70905,-2.88286 z m 5.71149,-8.05842 c 0,-1.5731 -1.36093,-2.86019 -3.02429,-2.86019 l -3.02426,0 1.76493,2.86019 c 0.97073,1.5731 2.33166,2.86018 3.0243,2.86018 0.69263,0 1.25932,-1.28708 1.25932,-2.86018 z m 8.56724,-4.12147 c 0,-0.69371 -1.28508,-2.05673 -2.85574,-3.02899 l -2.85575,-1.76765 0,3.02893 c 0,1.66595 1.28509,3.02899 2.85575,3.02899 1.57066,0 2.85574,-0.56757 2.85574,-1.26128 z m 14.27874,-15.89978 c 0,-1.57313 -1.20924,-2.86018 -2.6872,-2.86018 -1.47797,0 -3.48145,1.28705 -4.45217,2.86018 l -1.76494,2.86018 4.45214,0 c 2.44869,0 4.45217,-1.28711 4.45217,-2.86018 z m 10.47108,-7.62719 c -1.04712,-1.04869 -2.76057,-1.04869 -3.80768,0 -1.04709,1.04874 -0.19048,1.90682 1.90384,1.90682 2.0942,0 2.95092,-0.85808 1.90384,-1.90682 z m 11.90041,-3.45931 3.80911,-2.41834 -4.93179,-1.89547 c -2.7125,-1.04248 -5.60461,-1.22159 -6.42689,-0.39802 -0.82231,0.82358 0.32544,1.51712 2.55053,1.5412 l 4.04565,0.0438 -4.28362,2.77257 c -2.35599,1.52491 -2.99854,2.77258 -1.42788,2.77258 1.57066,0 4.56985,-1.08825 6.66489,-2.41835 z m -11.90041,-2.26106 c -1.04712,-1.04868 -2.76057,-1.04868 -3.80768,0 -1.04709,1.04874 -0.19048,1.90683 1.90384,1.90683 2.0942,0 2.95092,-0.85809 1.90384,-1.90683 z m 19.99022,-5.72036 c -1.04711,-1.04869 -2.76056,-1.04869 -3.80768,0 -1.04709,1.04874 -0.19048,1.90682 1.90384,1.90682 2.09421,0 2.95093,-0.85808 1.90384,-1.90682 z m -17.13448,-2.86019 c -1.04711,-1.04871 -2.76056,-1.04871 -3.80768,0 -1.04709,1.04875 -0.19048,1.90683 1.90384,1.90683 2.09421,0 2.95093,-0.85808 1.90384,-1.90683 z m 30.93725,-10.459 5.71149,-5.21537 -14.99267,7.51101 c -8.24597,4.13108 -14.99267,7.97505 -14.99267,8.54214 0,2.43244 19.0614,-6.07812 24.27385,-10.83778 z m -9.63083,-9.80058 3.91934,-5.00532 -4.99756,3.92543 c -4.75696,3.73645 -6.26973,6.08521 -3.91934,6.08521 0.59299,0 2.8419,-2.2524 4.99756,-5.00532 z m 27.24128,0.71504 c 0,-2.35968 -1.14676,-4.29027 -2.54833,-4.29027 l -2.54832,0 2.14458,-3.57523 2.14461,-3.57523 -4.83181,3.92543 c -5.05847,4.1096 -6.68511,7.56996 -2.27529,4.84034 1.40605,-0.87035 3.29336,0.34077 4.19398,2.69138 2.09634,5.47144 3.72058,5.46426 3.72058,-0.0172 z"
       style="fill:#d0d0d1;fill-opacity:0.3"
       sodipodi:nodetypes="ccccszzccccccsscssscccszzcssscssscczzccccccsccccssccscccscscscccccccssscssccccccccccccccccscssssccccssscscscscccccccssscccccscscscscccccccccssssccsccscccccsccccscscssccsscccscccsscsscssssccsssssscssssccsscssccssccscccccscccccccscccscccscscscsscssscsc" />
    <path
       inkscape:connector-curvature="0"
       id="path3380"
       d="m 7.9242548,988.51139 -1.9242592,-3.11834 9.9853184,-10.46753 c 11.65256,-12.21523 15.344698,-18.83501 20.837698,-37.36073 7.781653,-26.24429 34.358345,-59.87689 58.360839,-73.85526 5.497309,-3.20143 28.628859,-13.25171 51.403439,-22.33391 22.77458,-9.08219 46.20187,-19.53356 52.06064,-23.22522 11.7111,-7.3793 18.30442,-8.99599 9.50603,-2.33091 -3.04885,2.30963 -4.17001,4.19932 -2.49146,4.19932 3.7699,0 9.95756,-7.13155 7.94046,-9.15175 -0.80998,-0.81126 5.4575,-7.40484 13.92776,-14.65246 l 15.40044,-13.17743 2.2615,2.04477 2.26146,2.04477 -1.79769,-3.15947 -1.79772,-3.15947 6.54928,-6.16229 6.54926,-6.16227 2.3878,2.17128 2.38781,2.17131 -1.9486,-3.40399 -1.94859,-3.40399 8.09793,-9.46683 c 4.45385,-5.20676 23.58884,-29.4166 42.52218,-53.79966 18.93338,-24.38306 40.85677,-50.34576 48.71867,-57.69489 14.36207,-13.42532 40.47199,-28.34372 56.42516,-32.23954 11.03266,-2.69421 51.5063,-7.8591 63.57812,-8.11331 10.94382,-0.9805 10.09595,0.54935 17.84841,7.98826 l 8.52949,8.18444 0,10.46232 0,10.46232 -5.71149,5.17687 -5.7115,5.17687 0,7.62436 c 0,4.19343 -3.53398,14.61227 -7.8533,23.15304 l -7.8533,15.52864 -16.17184,12.871 c -8.89451,7.07906 -29.24142,19.94997 -45.21532,28.60202 l -29.04352,15.731 -29.03406,26.58758 c -30.4833,27.91466 -65.48964,53.00561 -88.22921,63.23869 -21.1044,9.49723 -43.97941,14.40259 -80.92481,17.3537 -18.74435,1.49725 -39.22097,4.18027 -45.50361,5.9623 -16.84085,4.7768 -39.3539,18.39698 -56.790262,34.3576 l -15.386335,14.08406 -12.123187,23.60471 c -6.667741,12.98257 -15.335332,27.92428 -19.261269,33.20377 -4.265629,7.92434 -8.833168,10.30839 -16.665053,13.58587 -11.457998,4.7949 -11.720441,4.811 -14.1533092,0.86838 z m 20.8197072,-9.55281 8.247739,-6.95078 15.531293,-29.16709 15.531264,-29.16705 17.13448,-15.61485 17.134482,-15.61486 17.5599,-8.25176 c 20.02469,-9.41003 37.31753,-13.94059 53.83377,-14.10397 13.40133,-0.13242 31.04625,-5.79693 38.8175,-12.46121 3.02147,-2.59107 6.44679,-4.43877 7.61188,-4.10599 2.99814,0.85634 24.91328,-21.5481 24.03157,-24.56814 l -0.72873,-2.49602 4.56802,1.75563 4.568,1.75561 10.26558,-9.98527 10.26558,-9.98529 5.27342,0 c 2.90038,0 5.27342,-1.36305 5.27342,-3.029 l 0,-3.02896 -3.56968,2.05745 -3.56968,2.05744 2.37978,-2.60368 c 1.3089,-1.43204 3.38937,-2.60371 4.62331,-2.60371 2.6794,0 19.79872,-12.75298 24.17681,-18.01043 12.45488,-14.95649 20.83955,-19.80424 31.1478,-18.00871 l 2.35702,0.41055 -1.69312,-5.34279 -1.69309,-5.34279 5.96877,-7.59988 c 5.98242,-7.61718 14.1215,-10.25169 14.1215,-4.57088 l 0,3.02896 2.90232,-1.79648 c 1.59628,-0.98808 2.09846,-3.09927 1.11591,-4.6915 l -1.78641,-2.89497 7.98561,-8.34812 c 4.39208,-4.59151 9.75943,-8.34816 11.9274,-8.34816 l 3.94179,0 -1.75669,6.43541 -1.75668,6.43541 3.14666,-5.02797 c 1.73067,-2.7654 2.53539,-6.0186 1.78824,-7.22937 -0.74712,-1.21077 3.69673,-7.2342 9.87529,-13.38543 l 11.2337,-11.18403 3.32469,3.32986 3.32469,3.32985 -5.50122,6.19312 -5.50123,6.1931 6.42543,-3.95334 6.42543,-3.95335 0.0437,-5.74742 c 0.0229,-3.16107 0.98786,-7.06419 2.14181,-8.67365 2.93568,-4.09446 16.98073,-12.80475 20.64722,-12.80475 1.6739,0 6.98893,-4.50058 11.81114,-10.00134 4.82225,-5.50076 9.76723,-9.38266 10.98889,-8.62648 2.80489,1.73621 18.37176,-5.93322 22.73811,-11.20251 l 3.28968,-3.96996 -11.11425,-11.70166 c -13.11208,-13.80508 -9.95097,-15.95845 3.53204,-2.40608 l 9.24802,9.2956 5.90075,-2.98798 5.90071,-2.98797 -3.09009,-5.59258 c -1.69957,-3.07592 -5.11101,-7.2404 -7.58103,-9.25443 l -4.49089,-3.66184 -12.85086,1.18332 c -7.06798,0.65081 -17.80313,3.33695 -23.85591,5.96923 l -11.00505,4.78591 5.03808,5.57564 c 2.77093,3.06663 4.51048,5.98917 3.86568,6.49459 -3.78024,2.96295 -20.17596,8.13805 -21.51959,6.79233 -0.88092,-0.88228 2.49244,-3.72461 7.49633,-6.31622 5.0039,-2.59167 8.40364,-5.40755 7.55497,-6.25754 -0.84868,-0.84999 -6.01743,1.22416 -11.4861,4.60924 l -9.94303,6.15469 -2.34411,-4.10316 -2.34408,-4.10316 -4.19007,4.53953 -4.19009,4.53954 4.75784,-1.82857 4.75782,-1.8286 1.83479,5.78998 c 1.00916,3.18447 1.3962,6.05289 0.86015,6.37429 -5.23361,3.13751 -23.29924,10.42531 -25.84322,10.42531 l -3.25667,0 6.92325,-7.77895 6.92321,-7.77896 -5.71149,4.07616 c -3.14132,2.24184 -7.95586,5.93777 -10.69897,8.2131 l -4.98748,4.13691 3.17245,3.8285 3.17242,3.82847 -22.45882,21.46066 c -12.35233,11.80335 -23.4226,21.46891 -24.6006,21.479 -3.7097,0.0317 -2.36984,-3.43253 5.14289,-13.29753 4.00658,-5.26105 6.00709,-9.56556 4.44557,-9.56556 -1.56155,0 -4.75771,2.74337 -7.10259,6.09636 l -4.26346,6.09639 -4.43146,-1.70318 c -2.43732,-0.93674 -4.29473,-0.78417 -4.12755,0.33905 0.16706,1.12319 0.13193,3.32928 -0.078,4.90238 l -0.38193,2.86018 -2.76831,-4.29027 -2.76827,-4.29028 -0.0437,3.40642 c -0.0229,1.87354 1.35305,4.27103 3.06021,5.32775 l 3.10392,1.92133 -9.37562,9.68821 c -5.15659,5.32852 -10.56598,9.68821 -12.02084,9.68821 l -2.64522,0 3.61238,-4.3594 c 1.9868,-2.39767 3.10796,-4.75632 2.49146,-5.24152 -0.61647,-0.48517 -9.16917,9.165 -19.00593,21.44485 -9.83679,12.27979 -15.94095,21.57973 -13.5648,20.66651 l 4.3202,-1.66043 0,4.15299 c 0,2.28411 -2.77193,6.60485 -6.15981,9.60157 l -6.15982,5.44862 1.70588,-6.80712 1.70591,-6.80709 -8.2954,7.95983 c -4.56246,4.37791 -7.58792,9.10634 -6.7232,10.50763 0.86469,1.40129 -0.006,4.4515 -1.93334,6.77826 l -3.50555,4.23044 4.68757,-1.80158 4.68754,-1.80157 0,2.99739 c 0,1.64858 -1.42876,3.88181 -3.17502,4.96273 l -3.17505,1.96532 -2.50646,-3.94165 c -1.37856,-2.16793 -1.80672,-5.8723 -0.95145,-8.23195 0.85527,-2.35965 -4.73409,1.8925 -12.42073,9.44922 l -13.97574,13.73948 -4.02983,-0.86866 -4.0298,-0.86867 0.69592,3.52111 c 0.77242,3.90804 -11.32375,12.90466 -15.60423,11.60577 -1.49707,-0.45426 -11.60598,3.23052 -22.46427,8.18847 -10.85829,4.95793 -25.52524,11.32813 -32.59321,14.1559 -7.06797,2.82781 -15.42103,6.97396 -18.56235,9.21362 l -5.7115,4.07222 5.7115,-2.175 c 3.14132,-1.19624 17.91981,-5.21995 32.84108,-8.94159 14.92128,-3.72161 32.59121,-8.53361 39.26652,-10.69331 l 12.13692,-3.92668 0,3.7315 c 0,4.7185 -7.07868,11.90497 -13.5817,13.78857 -2.73935,0.79345 -16.54642,3.48785 -30.68237,5.98757 -28.06876,4.96353 -58.54281,14.95987 -58.54281,19.20369 0,1.47414 -1.23822,1.91381 -2.7516,0.97704 l -2.75157,-1.70321 -5.81567,5.8247 c -3.198604,3.20358 -5.854734,4.85937 -5.902482,3.67954 -0.04769,-1.17982 -1.396717,0.10726 -2.997649,2.86018 -1.60096,2.75293 -4.278708,5.00532 -5.950576,5.00532 -1.671869,0 -7.980756,5.4701 -14.019717,12.15578 l -10.979947,12.15577 -0.117085,-4.76698 c -0.06454,-2.62181 1.489243,-5.34156 3.452569,-6.04382 l 3.569683,-1.27687 -2.297077,-2.45386 -2.297105,-2.4539 -2.578711,4.20744 c -1.418278,2.31409 -4.882413,7.29178 -7.698008,11.06153 -2.815623,3.76975 -4.688279,7.4871 -4.16148,8.26078 0.526828,0.77368 -0.197046,2.1941 -1.60867,3.15656 -1.411596,0.96242 -5.579558,9.91799 -9.262129,19.90126 l -6.695584,18.15138 -9.544134,10.13548 c -5.249291,5.5745 -9.544162,10.59892 -9.544162,11.16544 0,0.56654 1.82902,1.03001 4.064498,1.03001 2.235479,0 7.775999,-3.12787 12.312238,-6.95082 z M 220.83671,840.04009 c 0,-2.09746 0.85672,-2.95551 1.90384,-1.9068 1.04708,1.04875 1.04708,2.76485 0,3.8136 -1.04712,1.04874 -1.90384,0.19077 -1.90384,-1.9068 z m 1.85877,-27.07846 -1.56789,-4.09218 3.84932,1.47937 c 2.11711,0.81372 4.69768,0.10468 5.7346,-1.57573 1.03689,-1.68033 3.17033,-3.05519 4.74099,-3.05519 l 2.85575,0 -1.75546,2.84479 c -0.9655,1.56467 -4.12558,4.11524 -7.02242,5.668 l -5.267,2.82317 z m 33.83806,-1.52336 c 0.97073,-1.57311 2.40748,-2.86019 3.19281,-2.86019 0.78533,0 0.63366,1.28708 -0.33706,2.86019 -0.97073,1.57312 -2.40748,2.86018 -3.19281,2.86018 -0.78533,0 -0.63367,-1.28706 0.33706,-2.86018 z m 21.4181,-33.05588 c 0,-4.56405 6.41207,-12.70704 10.00597,-12.70704 l 4.09351,0 -1.39338,3.63677 c -1.47519,3.85018 -12.7061,11.86742 -12.7061,9.07027 z m 17.13448,-22.33007 c 0,-0.57338 3.77507,-5.373 8.38904,-10.66585 l 8.38904,-9.62326 2.11183,2.11508 2.11182,2.11508 -8.1794,8.55071 c -7.13782,7.46187 -12.82233,10.79047 -12.82233,7.50824 z m -2.85575,-11.34866 c 0,-2.07504 3.21272,-6.79565 7.13937,-10.49029 l 7.13937,-6.71751 0,4.27305 c 0,2.35018 -3.21272,7.0708 -7.13937,10.49029 l -7.13937,6.21724 z m 28.55747,-17.3239 c 0,-2.18535 2.36205,-6.89493 5.24901,-10.46572 l 5.249,-6.4923 3.36992,2.08599 3.36996,2.08596 -5.95766,8.37976 c -6.37297,8.96387 -11.28023,10.88076 -11.28023,4.40631 z m 154.21032,-84.69223 c 0,-2.09746 0.85673,-2.95554 1.90384,-1.90683 1.04709,1.04874 1.04709,2.76485 0,3.81362 -1.04711,1.04872 -1.90384,0.19078 -1.90384,-1.90679 z m -25.70172,-13.6808 c 0,-3.19917 14.07224,-7.50071 16.51955,-5.0496 2.27435,2.27788 0.17935,3.71209 -8.6721,5.93714 l -7.84745,1.97264 z M 102.79916,869.5953 c -1.04709,-1.04871 -2.76054,-1.04871 -3.807656,0 -1.047117,1.04874 -0.190478,1.9068 1.903836,1.9068 2.09421,0 2.95093,-0.85806 1.90382,-1.9068 z m 133.74415,-75.31813 c 0.97073,-1.5731 1.1224,-2.86018 0.33707,-2.86018 -0.78533,0 -2.22209,1.28708 -3.19281,2.86018 -0.97073,1.57313 -1.1224,2.86018 -0.33707,2.86018 0.78533,0 2.22209,-1.28705 3.19281,-2.86018 z m 122.79711,-114.4073 c -0.97072,-1.5731 -2.9742,-2.86018 -4.45217,-2.86018 -1.47796,0 -2.6872,1.28708 -2.6872,2.86018 0,1.5731 2.00348,2.86018 4.45217,2.86018 l 4.45214,0 z m -1.42787,-6.98162 c 0,-0.69374 -1.48365,-2.17966 -3.29699,-3.30214 l -3.29699,-2.04079 2.03766,3.30208 c 2.03455,3.29707 4.55632,4.42661 4.55632,2.04085 z m 12.85086,-4.45908 c 0.97072,-1.57313 1.12239,-2.86018 0.33706,-2.86018 -0.78533,0 -2.22208,1.28705 -3.19281,2.86018 -0.97072,1.57307 -1.12239,2.86018 -0.33706,2.86018 0.78533,0 2.22208,-1.28711 3.19281,-2.86018 z m 128.98457,-36.22899 c -1.04712,-1.04874 -2.76057,-1.04874 -3.80768,0 -1.04709,1.04872 -0.19048,1.9068 1.90384,1.9068 2.0942,0 2.95092,-0.85808 1.90384,-1.9068 z"
       style="fill:#adadae;fill-opacity:0.4"
       sodipodi:nodetypes="csscssssssscscccccccccccsscccccccccsscsscssssscccssscccccscssscccccsscccsssscccsscsscsscccscsccccccccssscscsscccsscsscscsssscccccccscscccsscccscssscsccccccscsscsssscsscccscccccsscssscccscssscssscssssscscsssccscccsscsscsscsscsscccsscssscssscsssccssscccsssscsscsssccccsscsssssssssssssssssssscsscccscscscss" />
    <path
       inkscape:connector-curvature="0"
       id="path3378"
       d="m 10.411753,986.99415 -1.6059863,-4.19163 7.5259203,-7.74214 c 4.139262,-4.25818 9.397492,-10.3163 11.684973,-13.46253 2.287453,-3.14618 4.19989,-4.30895 4.249837,-2.58389 0.04997,1.72506 -4.40696,7.77489 -9.904272,13.44411 -5.497313,5.6692 -9.995114,11.53798 -9.995114,13.04178 l 0,2.73419 5.670371,-1.48515 c 8.948968,-2.34383 23.215193,-20.25046 37.144869,-46.62326 l 12.829899,-24.2907 14.963141,-14.59838 14.963171,-14.59842 20.754628,-10.44459 c 11.41504,-5.74453 25.25245,-11.12568 30.74976,-11.95808 l 9.99512,-1.51352 -16.04202,5.39336 c -22.3758,7.52279 -44.721048,20.89 -59.784684,35.76392 l -12.80157,12.64035 -14.228672,26.59506 c -14.958573,27.95934 -27.980463,43.72784 -38.355106,46.4451 l -6.208307,1.62602 z m 21.945585,-33.52906 c 0,-0.54029 2.500378,-8.26112 5.556427,-17.15746 3.05602,-8.89632 10.18819,-23.16408 15.84928,-31.70604 17.644887,-26.62444 36.33772,-40.40102 76.346445,-56.26717 34.38473,-13.63589 51.99924,-19.86162 49.31552,-17.43035 -1.56886,1.42131 -15.70332,7.49156 -31.40993,13.48945 -32.7358,12.50085 -49.009668,20.92252 -66.843492,34.59122 L 68.587311,888.62999 56.6297,906.52272 c -6.57667,9.84103 -14.189177,24.64996 -16.916615,32.90871 -2.727467,8.25878 -5.498283,15.01596 -6.15739,15.01596 -0.659106,0 -1.198357,-0.44204 -1.198357,-0.9823 z m 38.552581,-53.19934 c 13.460733,-16.09442 26.9992,-26.64703 46.392371,-36.16071 l 20.69066,-10.15013 33.56853,-8.45696 c 18.46269,-4.65135 35.92772,-9.191 38.8112,-10.08824 l 5.24264,-1.63127 -3.0215,5.65452 c -1.66184,3.10999 -5.30612,6.53329 -8.09841,7.60734 -2.79229,1.074 -20.03149,4.93447 -38.30936,8.57878 l -33.23244,6.62595 -19.166,9.45004 c -10.5413,5.19753 -25.786219,15.28874 -33.877606,22.42486 -8.091358,7.13616 -12.141407,9.90178 -9.000085,6.14582 z m 112.088061,-39.2915 17.84841,-1.17422 0,-2.50226 c 0,-1.3762 4.17653,-3.40496 9.28118,-4.5083 5.10465,-1.10332 14.10025,-3.91948 19.99023,-6.25817 l 10.70905,-4.25214 0,-3.97972 c 0,-2.18884 1.60635,-4.07018 3.56968,-4.18076 1.96333,-0.1104 1.02818,-1.1955 -2.07813,-2.41099 l -5.64778,-2.20998 6.72491,-3.60465 6.72492,-3.60466 2.17328,3.52191 2.17328,3.52191 3.22162,-1.99414 c 1.77188,-1.0968 2.41773,-3.29691 1.43519,-4.88914 l -1.78642,-2.89496 8.00932,-8.3729 8.00928,-8.3729 8.81289,1.65587 8.81289,1.65591 5.62183,-6.36417 5.62179,-6.36413 -7.8533,5.06198 -7.85331,5.06198 0,-3.52752 c 0,-1.94015 4.17653,-7.18006 9.28118,-11.64426 l 9.28118,-8.11672 5.71149,1.422 5.71149,1.422 9.4577,-10.06905 c 5.20174,-5.53797 10.34208,-9.94316 11.42298,-9.78928 1.0809,0.15387 3.57166,0.12727 5.53498,-0.0589 l 3.56969,-0.33871 0,-5.2218 c 0,-2.87197 3.11759,-8.15516 6.92795,-11.74037 l 6.92796,-6.51861 3.11373,1.92739 3.11374,1.92739 -1.9157,3.10447 -1.91569,3.10447 3.54578,-2.19481 3.54578,-2.19482 -1.36687,-5.23505 -1.36688,-5.23508 4.68777,-4.22992 c 2.57825,-2.32648 8.43305,-5.16641 13.01061,-6.311 l 8.32287,-2.08101 -1.86471,4.86692 -1.86472,4.86694 2.82302,-1.74746 c 1.55267,-0.96105 2.82305,-3.73977 2.82305,-6.17493 l 0,-4.42748 4.28362,1.64635 4.28362,1.64632 0,-2.53206 c 0,-1.39262 -1.3946,-2.99764 -3.09914,-3.5667 l -3.09912,-1.03465 7.77218,-7.78427 7.77217,-7.78424 6.2129,0 6.21288,0 6.33405,-8.58055 6.33401,-8.58055 5.52756,0 5.52752,0 8.67059,-8.4889 8.67056,-8.48891 4.99268,1.60825 4.9927,1.60828 -4.28362,-3.13007 -4.28362,-3.13007 6.42543,-1.76359 c 3.53399,-0.96997 6.42543,-2.90059 6.42543,-4.29021 0,-1.38962 1.92763,-2.52657 4.28362,-2.52657 2.35599,0 4.28362,-1.62104 4.28362,-3.60229 0,-1.98125 2.57017,-5.20985 5.71149,-7.17468 l 5.7115,-3.57243 0,-7.31426 c 0,-10.81549 -5.03294,-18.3529 -15.21753,-22.78999 l -9.05632,-3.94556 5.21722,-0.11183 c 4.98085,0.006 9.18665,3.86373 13.5648,8.24868 l 8.34757,8.36054 0,8.41483 0,8.41485 -5.26862,6.82114 c -2.89776,3.75161 -6.13643,11.29503 -7.19705,16.76316 -1.06066,5.46809 -4.568,15.40308 -7.79414,22.07772 L 477.43,696.85392 464.07713,708.0165 c -7.3441,6.13944 -25.56122,17.92353 -40.48249,26.18694 -34.84554,19.29737 -39.1562,22.38139 -69.9658,50.05688 -45.8915,41.22319 -79.45327,61.69863 -117.08561,71.43192 l -17.13448,4.43171 -27.1296,1.01239 c -14.92127,0.55679 -19.0978,0.48397 -9.28117,-0.16189 z M 379.33056,737.07352 c 0.97073,-1.5731 1.1224,-2.86018 0.33707,-2.86018 -0.78533,0 -2.22209,1.28708 -3.19281,2.86018 -0.97073,1.57313 -1.1224,2.86018 -0.33707,2.86018 0.78533,0 2.22209,-1.28705 3.19281,-2.86018 z M 190.85128,823.7581 c 21.3214,-11.47854 55.48079,-42.34231 79.21824,-71.57547 l 14.43989,-17.78301 2.87379,1.77886 2.87382,1.77889 -2.03526,-3.29822 -2.03526,-3.29824 16.25622,-20.74019 c 8.94092,-11.40712 17.46424,-20.38655 18.94074,-19.95429 1.47651,0.43223 1.98775,-0.34334 1.13611,-1.72349 -2.02342,-3.279 28.73209,-39.80953 42.13854,-50.05102 l 10.42244,-7.96195 3.28017,2.03042 3.2802,2.03041 -2.07659,-3.3652 -2.07658,-3.36521 15.20014,-6.92075 c 14.03811,-6.39171 32.67294,-10.4294 65.17571,-14.12198 l 12.85086,-1.45995 -5.7115,2.53286 c -3.14132,1.39308 -11.49438,2.75164 -18.56235,3.01901 l -12.85086,0.48612 7.13937,2.04285 7.13936,2.04286 -12.55549,2.06316 c -12.56762,2.06514 -39.26529,12.0811 -44.4702,16.68356 l -2.7665,2.44629 9.19193,-1.84127 9.19194,-1.84122 -0.0171,2.50266 c -0.02,2.75871 -15.91942,12.5133 -20.39606,12.5133 l -2.81676,0 1.99985,-6.43541 1.99985,-6.43541 -5.85962,5.23888 -5.85962,5.23888 1.19316,6.59012 1.19316,6.59012 -6.42212,4.11583 c -7.85382,5.03278 -16.41814,8.32596 -16.41814,6.31277 0,-0.81741 4.81907,-5.91915 10.70905,-11.33731 5.88997,-5.41813 9.29154,-9.85727 7.55907,-9.86483 -3.81636,-0.0172 -50.79459,48.3493 -62.49447,64.34044 -19.14873,26.17201 -36.71617,46.92301 -38.68992,45.70128 -1.15994,-0.71799 -3.86094,0.93279 -6.00223,3.66836 l -3.89327,4.97383 4.99755,-3.92543 4.99756,-3.92546 0,3.56061 0,3.56062 4.35264,-3.61799 c 6.64924,-5.5269 7.90228,-1.58326 1.37636,4.33177 -3.15095,2.85601 -5.729,3.92126 -5.729,2.36729 0,-3.95006 -10.01659,-2.79074 -15.53737,1.79822 -6.19363,5.14825 -3.07459,7.71609 3.33142,2.74266 l 5.06658,-3.93349 -5.44016,6.3861 -5.44017,6.38613 3.64804,0 3.64802,0 -3.81497,4.60389 -3.81499,4.60392 -1.07604,-3.2332 -1.07605,-3.23318 -17.44493,15.0753 c -9.59471,8.29144 -16.36779,13.29951 -15.05135,11.12906 l 2.39354,-3.94628 -3.96717,1.44362 c -2.18196,0.79399 -3.61409,2.98726 -3.1825,4.87392 l 0.78467,3.4303 -2.73015,-1.68993 c -1.50158,-0.92948 -7.49562,1.54901 -13.32012,5.50776 -5.82449,3.95873 -12.01701,7.14617 -13.76116,7.08319 -1.74414,-0.0629 0.6841,-2.19001 5.39608,-4.72674 z m 55.03369,-37.37272 c 2.18328,-1.98084 5.13635,-2.87929 6.5624,-1.99658 l 2.59279,1.60494 -1.70069,-4.43883 c -0.9354,-2.44134 -1.92837,-4.43883 -2.20666,-4.43883 -0.27815,0 -7.53003,7.38902 -16.11501,16.42007 l -15.60905,16.42005 11.25332,-9.98464 c 6.18935,-5.49155 13.03966,-11.60533 15.2229,-13.58618 z m 33.49446,-37.87113 c 0.97072,-1.5731 1.12239,-2.86018 0.33706,-2.86018 -0.78533,0 -2.22208,1.28708 -3.19281,2.86018 -0.97072,1.57313 -1.12239,2.86018 -0.33706,2.86018 0.78533,0 2.22208,-1.28705 3.19281,-2.86018 z m -52.83132,64.45473 c 0,-0.73121 2.89145,-2.87254 6.42543,-4.75855 l 6.42543,-3.42907 -3.91934,4.75854 c -3.64916,4.43048 -8.93152,6.45855 -8.93152,3.42908 z m 31.4705,-20.19103 c 1.9868,-2.39766 4.20046,-3.77038 4.91926,-3.05047 1.98043,1.98353 -2.04343,7.40987 -5.49475,7.40987 l -3.03688,0 z m 24.21656,-21.38224 c 2.84287,-3.14617 6.45393,-5.72036 8.0246,-5.72036 1.57066,0 0.52977,2.57419 -2.3131,5.72036 -2.84287,3.1462 -6.45393,5.72037 -8.02459,5.72037 -1.57066,0 -0.52977,-2.57417 2.31309,-5.72037 z m 29.98534,3.49594 c 0,-3.94753 16.90343,-18.98163 18.99101,-16.8908 2.2106,2.21403 -6.55731,12.65187 -13.96149,16.62063 l -5.02952,2.69587 z m -14.27873,-19.62331 c 0,-3.68048 13.78066,-16.78684 15.66557,-14.89906 0.77514,0.77634 -2.43252,5.09799 -7.12811,9.60363 -4.69559,4.50568 -8.53746,6.88858 -8.53746,5.29543 z m 42.92701,-8.83327 c 0.16135,-3.92755 7.58101,-12.22173 10.93306,-12.22173 5.5305,0 3.60449,4.83305 -3.8845,9.74761 -3.92665,2.57686 -7.0985,3.69018 -7.04856,2.47412 z m -44.21738,-7.7402 c 2.64165,-4.03795 5.9403,-7.34171 7.3303,-7.34171 4.92268,0 2.42825,5.12747 -4.80299,9.87294 l -7.33033,4.81049 z m 24.13634,-9.89137 c 0,-6.24861 5.77818,-14.61144 10.09558,-14.61144 6.12098,0 5.13095,3.83144 -2.95621,11.44073 l -7.13937,6.71754 z m 39.98046,0.22739 c 0,-3.63921 17.35797,-15.57049 19.50078,-13.40419 1.05451,1.06607 -1.93794,5.03426 -6.64992,8.8182 -8.89976,7.14691 -12.85086,8.55689 -12.85086,4.58599 z m -48.5477,-8.93813 c 0,-1.32372 2.45955,-5.44527 5.46568,-9.15905 l 5.46567,-6.75226 2.1213,2.11674 2.12128,2.11673 -7.58695,7.04228 c -4.17284,3.87324 -7.58698,5.95922 -7.58698,4.63556 z m 80.16912,-17.01174 c 6.32166,-8.56378 13.57394,-13.22113 16.31409,-10.47673 2.27129,2.27482 -5.37492,10.14292 -14.39868,14.81655 l -8.28749,4.29227 z m -51.61165,0.98459 c 0,-0.85024 2.81186,-5.35503 6.24855,-10.01064 l 6.24854,-8.46473 5.17444,0 c 2.84596,0 5.17445,0.66167 5.17445,1.47041 0,0.80872 -4.17653,5.27578 -9.28118,9.92678 -8.80478,8.02236 -13.5648,10.50614 -13.5648,7.07818 z m -5.71149,-12.02092 c 0,-3.49534 11.0446,-15.035 14.38999,-15.035 5.37426,0 2.61367,5.42413 -5.82275,11.44073 -4.71198,3.36043 -8.56724,4.97786 -8.56724,3.59427 z m 79.96091,-3.49116 c 0,-2.81365 19.60247,-17.26418 23.41926,-17.26418 4.94127,0 -1.86646,8.77967 -10.98666,14.16906 -11.24147,6.64294 -12.4326,6.93946 -12.4326,3.09512 z m -54.25919,-7.0555 c 0,-3.03071 18.4437,-18.61879 22.13204,-18.70539 6.74147,-0.15846 3.55763,5.07902 -7.13937,11.74402 -13.3762,8.3344 -14.99267,9.08494 -14.99267,6.96137 z m 85.6724,-14.49895 c 0,-3.25046 11.74,-12.87082 15.70661,-12.87082 7.05549,0 4.85605,5.27698 -4.14181,9.93719 -8.88297,4.60066 -11.5648,5.28095 -11.5648,2.93363 z m -57.11493,-11.40487 c 0,-0.76681 5.28801,-4.73757 11.75114,-8.82389 l 11.75117,-7.42972 2.74077,2.74506 2.74077,2.745 -12.53781,6.07886 c -12.67849,6.14711 -16.44604,7.2203 -16.44604,4.68469 z m 42.43862,-21.4409 c 3.70801,-3.17168 8.7841,-5.7667 11.2802,-5.7667 l 4.53841,0 -2.71296,2.31692 c -1.49213,1.27433 -6.56822,3.86934 -11.2802,5.76673 l -8.56724,3.44978 z m 44.44239,-7.41822 c -6.40325,-6.95717 -10.67127,-12.64939 -9.48451,-12.64939 3.52273,0 22.55463,18.98927 22.55463,22.50412 0,1.78063 -0.32127,3.13787 -0.71394,3.01609 -0.39266,-0.12185 -5.95294,-5.91366 -12.35618,-12.87082 z m -58.32355,4.8587 c 0,-3.12981 16.72962,-10.28644 18.91932,-8.09334 0.88092,0.88228 -2.30918,3.62969 -7.08913,6.10535 -9.98129,5.16955 -11.83019,5.48022 -11.83019,1.98799 z m 32.6754,-3.47572 c -0.8796,-1.4254 -0.34343,-2.59164 1.19147,-2.59164 1.53488,0 4.82345,-0.78126 7.30789,-1.7361 l 4.51719,-1.7361 0,2.83258 c 0,1.55794 -2.56889,3.50544 -5.70864,4.32777 l -5.70866,1.49519 z"
       style="fill:#8f9091;fill-opacity:0.5"
       sodipodi:nodetypes="ccsscsscsscccsscsscssccssssssscsssssscsscscscsssccssscscscccccsscccccccccsscccssccsscccccccccssccccscccsscccccccccccccccssssscssccccccssscsssscsccssssssscccccsccscccccsscsscccssccccsccccccccsscssscccccssssscccccccccsscsscsscsssccsscssssssssscssssscssssssssscsscssssssssscsssscssssssscccssssscssscssssssssssssscsssssssscccsssscsscsssscssssscsscsscc" />
    <path
       inkscape:connector-curvature="0"
       id="path3376"
       d="m 25.217971,983.04922 c 0.970726,-1.57311 2.407481,-2.86019 3.192811,-2.86019 0.78533,0 0.633662,1.28708 -0.337064,2.86019 -0.970725,1.57312 -2.407509,2.86018 -3.192839,2.86018 -0.78533,0 -0.633633,-1.28706 0.337092,-2.86018 z m -14.278733,-2.86019 c 0.970725,-1.5731 2.40748,-2.86018 3.19281,-2.86018 0.785331,0 0.633662,1.28708 -0.337063,2.86018 -0.970726,1.57313 -2.407509,2.86019 -3.192839,2.86019 -0.7853307,0 -0.6336334,-1.28706 0.337092,-2.86019 z m 14.278733,-14.30091 c 0.970726,-1.5731 2.407481,-2.86018 3.192811,-2.86018 0.78533,0 0.633662,1.28708 -0.337064,2.86018 -0.970725,1.57313 -2.407509,2.86018 -3.192839,2.86018 -0.78533,0 -0.633633,-1.28705 0.337092,-2.86018 z m 17.134481,-2.86018 c 0.970725,-1.5731 2.40748,-2.86018 3.19281,-2.86018 0.785331,0 0.633662,1.28708 -0.337064,2.86018 -0.970725,1.57313 -2.407508,2.86018 -3.192839,2.86018 -0.78533,0 -0.633633,-1.28705 0.337093,-2.86018 z m -4.28362,-28.60183 c 0,-2.09746 0.856724,-2.95551 1.903812,-1.9068 1.047116,1.04875 1.047116,2.76486 0,3.8136 -1.047088,1.04874 -1.903812,0.19077 -1.903812,-1.9068 z m 24.273847,-8.58054 c 0.970725,-1.57311 2.40748,-2.86019 3.19281,-2.86019 0.78533,0 0.633662,1.28708 -0.337064,2.86019 -0.970725,1.57312 -2.407508,2.86018 -3.192839,2.86018 -0.78533,0 -0.633633,-1.28706 0.337093,-2.86018 z m 4.28362,-6.80032 c 0,-0.59391 2.2489,-2.84631 4.997556,-5.00532 l 4.997557,-3.92545 -3.919369,5.00531 c -3.730662,4.76435 -6.075744,6.27948 -6.075744,3.92546 z M 55.203312,901.88416 c 0,-0.59392 2.2489,-2.84631 4.997557,-5.00532 l 4.997556,-3.92546 -3.919369,5.00532 c -3.730662,4.76435 -6.075744,6.27947 -6.075744,3.92546 z m 31.131437,-15.83741 12.569112,-11.79991 20.271979,-10.01985 20.272,-10.01984 35.27313,-8.69965 c 19.40023,-4.78483 35.89656,-8.07527 36.65856,-7.31211 0.76197,0.76318 -1.76091,3.45232 -5.6064,5.97586 l -6.99184,4.58834 -31.0946,5.89944 -31.0946,5.89944 -20.04774,9.27217 c -11.02624,5.0997 -25.162183,13.48953 -31.413213,18.64407 l -11.365472,9.37193 z m -18.280577,-0.003 c 5.551914,-6.39473 21.4181,-18.81928 21.4181,-16.77219 0,0.56057 -6.104158,6.04379 -13.564797,12.18498 l -13.564796,11.16578 z m 41.408328,-4.32977 c 0,-0.78655 2.57017,-2.80775 5.71149,-4.49154 3.14132,-1.68376 5.7115,-2.41792 5.7115,-1.63137 0,0.78658 -2.57018,2.80779 -5.7115,4.49155 -3.14132,1.68379 -5.71149,2.41791 -5.71149,1.63136 z m 15.23064,-9.25852 c 1.04712,-1.04872 2.76056,-1.04872 3.80765,0 1.04712,1.04874 0.19048,1.90679 -1.90381,1.90679 -2.09423,0 -2.95096,-0.85805 -1.90384,-1.90679 z m -26.653628,-7.90257 c 0,-0.78655 2.570168,-2.80776 5.711498,-4.49155 3.14132,-1.68376 5.71149,-2.41791 5.71149,-1.63136 0,0.78658 -2.57017,2.80778 -5.71149,4.49154 -3.14133,1.68379 -5.711498,2.41792 -5.711498,1.63137 z m 52.355348,-0.67798 c 1.04712,-1.04872 2.76056,-1.04872 3.80765,0 1.04712,1.04874 0.19048,1.9068 -1.90381,1.9068 -2.09423,0 -2.95096,-0.85806 -1.90384,-1.9068 z m 24.03588,-2.97187 c 3.53398,-0.68176 9.31687,-0.68176 12.85086,0 l 6.42543,1.23951 -12.85086,0 -12.85086,0 z m 30.97091,-3.26167 -1.4933,-2.41997 17.03196,-4.74264 c 20.01382,-5.57298 45.58826,-16.36923 45.58826,-19.24514 0,-1.10778 2.89144,-2.79294 6.42543,-3.74487 7.20613,-1.94097 30.25335,-21.77088 25.30311,-21.77088 -5.3188,0 -3.28468,-3.95008 5.6957,-11.06058 8.98752,-7.11619 14.49663,-6.46707 8.32499,0.98082 l -3.61238,4.3594 2.69043,0 c 1.47974,0 5.46176,-3.19225 8.84893,-7.09391 l 6.15853,-7.09394 -1.58071,-4.12567 -1.58071,-4.12564 6.46775,-6.4778 6.46775,-6.4778 1.19074,3.57775 c 0.6549,1.96774 -1.19039,5.32154 -4.10066,7.45286 l -5.29138,3.87517 2.11982,2.12309 2.11982,2.12311 5.66166,-5.13168 5.66166,-5.13168 -1.80177,-2.91988 -1.80178,-2.91984 2.84449,1.76073 2.8445,1.76073 9.73367,-10.18712 c 9.00605,-9.42561 40.16431,-32.49304 43.88986,-32.49304 2.53718,0 34.2651,-21.18852 35.33364,-23.59651 0.52357,-1.1798 2.24898,-2.14514 3.83429,-2.14514 1.58531,0 12.40145,-9.56482 24.03588,-21.25518 l 21.15349,-21.25516 0.0437,4.80913 0.0437,4.80914 2.76836,-4.29027 c 1.52257,-2.35968 2.78798,-6.5965 2.81203,-9.41518 0.0228,-2.81871 2.61389,-7.88798 5.75521,-11.265 3.14132,-3.37707 5.8865,-9.43691 6.10039,-13.46631 l 0.3889,-7.32616 1.28857,6.82483 c 2.34996,6.83781 -0.27558,8.94353 -4.31361,14.41392 -3.08118,4.17395 -6.54397,12.04297 -7.69512,17.4867 -1.15115,5.44372 -5.41327,16.08686 -9.47134,23.6515 l -7.37831,13.75385 -15.95063,11.98779 c -8.77285,6.59327 -28.06831,18.42204 -42.87878,26.28608 l -26.92818,14.29831 -27.25579,24.37408 c -14.99067,13.4057 -34.9663,30.34816 -44.39027,37.6499 -21.64384,16.76967 -59.79156,34.94076 -69.83657,37.8719 -17.63198,4.26039 -27.77385,7.44837 -41.26591,4.9462 z m 103.96312,-53.18478 c 0,-0.69368 -1.28509,-2.05673 -2.85575,-3.02899 l -2.85575,-1.76768 0,3.02896 c 0,1.66595 1.28509,3.02899 2.85575,3.02899 1.57066,0 2.85575,-0.56757 2.85575,-1.26128 z m -196.09462,50.83766 c 1.04712,-1.04872 2.76057,-1.04872 3.80765,0 1.04712,1.04874 0.19048,1.9068 -1.90381,1.9068 -2.09423,0 -2.95095,-0.85806 -1.90384,-1.9068 z m 14.27874,-5.72037 c 1.04711,-1.04871 2.76056,-1.04871 3.80765,0 1.04711,1.04875 0.19048,1.9068 -1.90381,1.9068 -2.09424,0 -2.95096,-0.85805 -1.90384,-1.9068 z m 8.56724,-2.86029 c 1.04711,-1.04869 2.76056,-1.04869 3.80765,0 1.04711,1.04888 0.19048,1.90694 -1.90381,1.90694 -2.09424,0 -2.95096,-0.85806 -1.90384,-1.9068 z m 16.18257,-6.67361 c 2.35599,-1.52494 5.56871,-2.77258 7.13937,-2.77258 1.57066,0 0.92811,1.24764 -1.42788,2.77258 -2.35599,1.52496 -5.5687,2.77257 -7.13936,2.77257 -1.57066,0 -0.92812,-1.24761 1.42787,-2.77257 z m 12.37489,-4.76698 c 1.04712,-1.04872 2.76057,-1.04872 3.80768,0 1.04709,1.04874 0.19048,1.9068 -1.90384,1.9068 -2.09423,0 -2.95095,-0.85806 -1.90384,-1.9068 z m 81.86475,-0.95339 c 5.59261,-3.61984 9.37308,-3.61984 7.13937,0 -0.97073,1.57313 -3.93802,2.84048 -6.59398,2.8164 l -4.82901,-0.0438 4.28362,-2.77258 z m -5.71149,-4.45739 c 0,-0.58391 2.57017,-2.43934 5.71149,-4.12315 l 5.71149,-3.06146 0,2.62725 c 0,1.44499 -2.57017,3.3004 -5.71149,4.12316 -3.14132,0.82276 -5.71149,1.01813 -5.71149,0.4342 z m 22.84597,-4.90367 c 0,-0.77042 4.41878,-4.7763 9.81951,-8.90209 l 9.81955,-7.50134 1.51197,2.45023 c 2.46879,4.00077 -4.86245,11.41988 -13.29773,13.45716 -4.31931,1.04319 -7.8533,1.2664 -7.8533,0.49604 z m -61.39855,-7.80003 c 0.97072,-1.5731 2.40748,-2.86018 3.19281,-2.86018 0.78533,0 0.63366,1.28708 -0.33707,2.86018 -0.97072,1.57313 -2.40748,2.86018 -3.19281,2.86018 -0.78533,0 -0.63366,-1.28705 0.33707,-2.86018 z m 58.5428,0.5289 c 0,-2.55603 7.14942,-9.4781 13.5648,-13.13344 l 3.56968,-2.03393 0,2.49107 c 0,1.37012 -3.85525,5.34586 -8.56724,8.83496 -4.71198,3.48914 -8.56724,5.21778 -8.56724,3.84134 z m -49.97556,-6.24927 c 0.97072,-1.5731 2.40748,-2.86018 3.19281,-2.86018 0.78533,0 0.63366,1.28708 -0.33707,2.86018 -0.97072,1.57313 -2.40748,2.86019 -3.19281,2.86019 -0.78533,0 -0.63366,-1.28706 0.33707,-2.86019 z m 19.51426,-1.90679 c 1.04711,-1.04872 2.76056,-1.04872 3.80768,0 1.04709,1.04874 0.19048,1.90679 -1.90384,1.90679 -2.09421,0 -2.95093,-0.85805 -1.90384,-1.90679 z m 4.75958,-19.54458 c 5.3282,-5.50585 10.33018,-10.01063 11.11551,-10.01063 0.78533,0 -2.93156,4.50478 -8.25976,10.01063 -5.32819,5.50588 -10.33018,10.01064 -11.11551,10.01064 -0.78533,0 2.93157,-4.50476 8.25976,-10.01064 z m 54.25919,7.84383 c 0,-2.92214 12.21903,-14.99428 15.17672,-14.99428 4.65127,0 1.30097,5.79925 -6.60948,11.44073 -4.71198,3.36046 -8.56724,4.95956 -8.56724,3.55355 z m -29.98534,-6.41373 c 0.97073,-1.5731 2.33166,-2.86019 3.02429,-2.86019 0.69264,0 1.25933,1.28709 1.25933,2.86019 0,1.57313 -1.36093,2.86018 -3.02429,2.86018 l -3.02427,0 z m -9.99511,-15.19587 c 0,-0.49223 4.17653,-4.67525 9.28117,-9.29559 l 9.28118,-8.40064 -8.38758,9.29559 c -7.81841,8.66481 -10.17477,10.61031 -10.17477,8.40064 z m 31.41321,-1.2648 c 0,-1.5731 1.92763,-4.46246 4.28362,-6.42079 l 4.28362,-3.56062 0,2.86019 c 0,1.57313 -1.92763,4.46248 -4.28362,6.42079 l -4.28362,3.56061 z m 34.26896,-2.98377 c 0,-2.86985 9.40977,-12.01757 12.36179,-12.01757 3.99861,0 1.47293,4.48311 -5.31215,9.42913 -3.8773,2.82638 -7.04964,3.99119 -7.04964,2.58844 z m -39.98045,-5.95962 c 0,-1.5731 1.28508,-3.6556 2.85574,-4.62786 l 2.85575,-1.76768 0,2.86018 c 0,1.57313 -1.28508,3.65563 -2.85575,4.62786 l -2.85574,1.76768 z m -4.28362,-6.05795 c 0.97072,-1.5731 2.40748,-2.86018 3.19281,-2.86018 0.78533,0 0.63366,1.28708 -0.33707,2.86018 -0.97072,1.57313 -2.40748,2.86018 -3.19281,2.86018 -0.78533,0 -0.63366,-1.28705 0.33707,-2.86018 z m 32.83052,-12.85955 c 3.68305,-3.92652 7.3261,-6.50858 8.09561,-5.7379 1.89579,1.89876 -8.23349,12.87708 -11.88119,12.87708 -1.60102,0 0.10252,-3.21264 3.78558,-7.13918 z m 45.70251,5.58951 c 0,-3.39458 11.48647,-13.64104 13.27917,-11.84556 1.05405,1.05572 -0.41663,4.5015 -3.26821,7.65736 -4.91134,5.43535 -10.01096,7.56888 -10.01096,4.1882 z m -73.11085,-4.88574 -2.05426,-3.57523 2.33692,2.12032 2.33688,2.12036 4.54638,-3.55046 4.54638,-3.5504 -3.91934,5.00532 c -2.15566,2.75296 -4.32872,5.00532 -4.82904,5.00532 -0.5003,0 -1.83408,-1.60885 -2.96392,-3.57523 z m 69.48985,-7.8655 c 2.68969,-3.14617 6.089,-5.72036 7.55402,-5.72036 1.46503,0 0.33772,2.57419 -2.50514,5.72036 -2.84287,3.1462 -6.24218,5.72037 -7.55403,5.72037 -1.31184,0 -0.18448,-2.57417 2.50515,-5.72037 z m -46.35457,-2.86018 c 2.84287,-3.14617 5.81139,-5.72037 6.59672,-5.72037 0.78533,0 -0.8981,2.5742 -3.74097,5.72037 -2.84287,3.1462 -5.81139,5.72036 -6.59672,5.72036 -0.78533,0 0.89811,-2.57416 3.74097,-5.72036 z m -10.41436,-7.8655 c 5.20654,-6.68568 10.20016,-12.15578 11.09695,-12.15578 0.89676,0 -0.4963,2.35373 -3.09572,5.23056 -2.59944,2.8768 -4.72623,6.17044 -4.72623,7.31924 l 0,2.0887 3.56968,-2.14791 3.56968,-2.14794 -3.97662,4.90844 c -2.18716,2.69965 -4.63908,4.24494 -5.44874,3.43403 -0.80966,-0.81092 -3.49335,0.12327 -5.96377,2.07603 -2.47039,1.9527 -0.2316,-1.9197 4.97477,-8.60537 z m 86.96483,0.90945 c 8.07925,-7.40599 13.40556,-9.37024 13.40556,-4.94377 0,1.3206 -3.53399,4.17521 -7.85331,6.34363 -12.99676,6.5247 -13.93824,6.28734 -5.55225,-1.39986 z m -52.36175,-7.18555 c 3.53188,-6.60957 8.3522,-9.99388 10.77636,-7.56596 1.70168,1.70433 -8.82748,13.12704 -12.10017,13.12704 -0.90627,0 -0.31053,-2.50249 1.32381,-5.56108 z m 45.76651,-1.57811 c 3.68306,-3.92654 7.32611,-6.5086 8.09562,-5.7379 1.89578,1.89874 -8.23349,12.87706 -11.8812,12.87706 -1.60101,0 0.10253,-3.21264 3.78558,-7.13916 z m -57.10437,-1.57138 c 0,-3.55621 11.48659,-15.06061 13.26192,-13.28252 0.74963,0.7508 -1.92763,4.66078 -5.94946,8.68887 -4.02186,4.0281 -7.31246,6.09524 -7.31246,4.59365 z m 91.11886,-7.95454 c 1.78844,-3.3469 5.79239,-7.44714 8.89773,-9.11166 l 5.64604,-3.02635 0,2.76605 c 0,1.52133 -4.00398,5.62157 -8.89773,9.11165 l -8.89774,6.34558 z m -99.46063,1.3756 c -0.12394,-1.33027 2.44297,-6.17196 5.70441,-10.75932 l 5.92984,-8.34063 3.00787,1.86186 3.00785,1.86181 -1.37245,-3.97334 -1.37244,-3.97336 14.09625,-17.16107 c 7.75298,-9.43863 21.0428,-23.17563 29.53293,-30.5267 15.86768,-13.7388 42.55329,-28.18672 51.7236,-28.00387 2.84593,0.0566 -1.82119,2.62278 -10.37138,5.70231 -8.55019,3.07951 -16.90325,7.08376 -18.56236,8.89832 l -3.01655,3.29919 5.14588,-1.81828 5.14589,-1.8183 -1.74475,2.82743 c -0.95959,1.55509 -3.34154,2.82744 -5.29321,2.82744 -1.95165,0 -9.57441,5.86597 -16.93943,13.03554 -7.36503,7.16959 -12.61726,11.01625 -11.67164,8.54811 l 1.71933,-4.48743 -4.60158,1.76851 c -2.53088,0.97269 -4.76221,2.9179 -4.95855,4.32274 -0.19619,1.40478 -0.5176,3.77687 -0.71393,5.27131 -0.46532,3.54183 -7.49634,10.59063 -7.49634,7.51533 0,-1.2938 -1.92763,-0.75008 -4.28362,1.20826 -2.35599,1.95831 -4.28362,4.84767 -4.28362,6.42077 l 0,2.86018 4.99756,-3.92546 c 2.74865,-2.15898 -0.10852,1.86644 -6.34907,8.94539 -6.24063,7.07896 -12.39166,12.87082 -13.66894,12.87082 -3.52337,0 -7.67522,7.94027 -5.76798,11.03104 l 1.68069,2.72364 -3.05308,-1.88984 -3.05308,-1.88983 -1.44632,3.59304 c -0.7955,1.97619 -1.54779,2.50466 -1.67178,1.17439 z m 24.04838,-27.61326 c 2.84287,-3.14617 4.5263,-5.72036 3.74097,-5.72036 -0.78533,0 -3.75385,2.57419 -6.59672,5.72036 -2.84286,3.1462 -4.5263,5.72037 -3.74097,5.72037 0.78533,0 3.75385,-2.57417 6.59672,-5.72037 z m 17.13448,-20.02125 c 0.97073,-1.57312 1.1224,-2.86018 0.33707,-2.86018 -0.78533,0 -2.22209,1.28706 -3.19281,2.86018 -0.97073,1.57308 -1.1224,2.86019 -0.33707,2.86019 0.78533,0 2.22209,-1.28711 3.19281,-2.86019 z m 35.69684,-33.37278 c 0,-0.78655 -5.14035,2.64745 -11.42299,7.63114 -6.28264,4.98364 -11.42299,9.70477 -11.42299,10.49132 0,0.78655 5.14035,-2.6475 11.42299,-7.63114 6.28264,-4.98369 11.42299,-9.70477 11.42299,-10.49132 z m 16.69318,67.40744 c 5.25457,-4.78517 10.34468,-7.9082 11.31138,-6.94003 2.00305,2.00619 -13.66012,15.59243 -18.00945,15.62137 -1.57066,0.0114 1.44346,-3.89614 6.69807,-8.68134 z m -54.45252,1.68559 c 4.05267,-7.87222 14.52886,-17.03748 16.83471,-14.72808 1.03746,1.03911 1.34446,2.21104 0.68215,2.60431 -0.66228,0.39328 -5.54083,4.57629 -10.84121,9.29559 l -9.63703,8.58055 z m 90.59065,-9.97863 c 2.84287,-3.14617 7.21856,-5.69174 9.72379,-5.65676 l 4.55494,0.0635 -7.13936,5.59317 c -9.31885,7.30065 -13.73612,7.30065 -7.13937,0 z m -96.03973,-1.98585 c 3.44637,-6.6376 8.4969,-10.85154 10.54607,-8.79918 0.67464,0.67569 -2.15543,4.34404 -6.28907,8.15192 l -7.51567,6.92338 z m 87.47249,-7.87921 c 8.68404,-7.36668 14.65809,-9.67848 11.41042,-4.41552 -0.97761,1.58429 -5.87253,4.86111 -10.87757,7.28183 l -9.10009,4.4013 z m -53.79659,-10.15619 c 4.44734,-4.7193 10.01791,-8.52826 12.37898,-8.46431 l 4.2929,0.11612 -9.88725,8.46431 c -12.8353,10.98811 -17.17894,10.91369 -6.78463,-0.11612 z m -10.45771,-5.19667 c 0,-3.25646 14.19035,-13.00633 16.1188,-11.07491 0.7395,0.74062 -2.58473,4.14884 -7.38713,7.57376 -4.80242,3.42493 -8.73167,5.00046 -8.73167,3.50115 z m 88.52815,-0.0143 c 0,-2.81882 9.44604,-11.95013 12.36178,-11.95013 4.3298,0 1.45515,5.36551 -5.22242,9.74762 -3.92665,2.57683 -7.13936,3.56788 -7.13936,2.20231 z m -49.97557,-16.07485 c 4.71198,-4.00809 11.13741,-7.28592 14.27873,-7.284 l 5.7115,0.003 -7.13937,3.76048 c -3.92665,2.06829 -10.35208,5.34614 -14.27873,7.28406 l -7.13937,3.52351 8.56724,-7.28743 z m -15.70661,-3.06778 c 0,-2.04623 17.93432,-12.805 21.36707,-12.8181 1.54262,-0.006 -1.9232,3.20703 -7.70178,7.13978 -10.48804,7.13787 -13.66529,8.45811 -13.66529,5.67832 z m 42.8362,-8.71351 c 0,-0.60951 3.85526,-3.10493 8.56724,-5.54538 4.71198,-2.44042 8.56724,-3.39922 8.56724,-2.13058 0,1.2686 -3.85526,3.76403 -8.56724,5.54535 -4.71198,1.78135 -8.56724,2.74011 -8.56724,2.13061 z m 49.79592,-13.06655 -8.38759,-8.95122 6.35998,3.29641 c 3.498,1.81304 7.71974,5.84113 9.38167,8.95126 1.6619,3.11016 2.57434,5.65484 2.02758,5.65484 -0.54674,0 -4.76847,-4.02808 -9.38164,-8.95129 z m -49.79592,1.80083 c 9.38567,-5.37368 14.02469,-5.4342 6.97125,-0.091 -3.04885,2.30959 -7.471,4.19463 -9.82699,4.18891 l -4.28362,-0.0114 7.13936,-4.08766 z m 27.84353,-0.46418 c 1.96333,-0.79344 5.17604,-0.79344 7.13937,0 l 3.56968,1.44265 -7.13936,0 -7.13937,0 z m -45.63926,-4.30789 c 1.65948,-1.66208 4.70291,-2.45919 6.76316,-1.77137 l 3.74591,1.25059 -6.76315,1.77134 -6.76315,1.77137 z m 13.03615,-4.28518 c 1.04711,-1.04875 2.76056,-1.04875 3.80768,0 1.04708,1.04871 0.19048,1.90679 -1.90384,1.90679 -2.09421,0 -2.95093,-0.85808 -1.90384,-1.90679 z m 14.27873,-2.86019 c 1.04712,-1.04874 2.76056,-1.04874 3.80768,0 1.04709,1.04872 0.19048,1.9068 -1.90384,1.9068 -2.09421,0 -2.95093,-0.85808 -1.90384,-1.9068 z m 57.31821,-1.39531 -2.03767,-3.30211 3.29699,2.0408 c 3.29196,2.03771 4.41976,4.56342 2.03766,4.56342 -0.69263,0 -2.17628,-1.48595 -3.29698,-3.30211 z m -70.22856,-1.51192 c 2.06148,-0.82622 4.52456,-0.7246 5.47353,0.22567 0.94893,0.95041 -0.73776,1.62641 -3.74817,1.50223 l -5.47352,-0.22596 3.74816,-1.50222 z m 19.81175,-2.92488 c 3.53398,-0.68172 9.31687,-0.68172 12.85086,0 l 6.42543,1.23952 -12.85086,0 -12.85086,0 z m 38.79055,-2.74843 c 1.04711,-1.04875 2.76056,-1.04875 3.80768,0 1.04709,1.04871 0.19048,1.90679 -1.90384,1.90679 -2.09421,0 -2.95093,-0.85808 -1.90384,-1.90679 z"
       style="fill:#6f6f70;fill-opacity:0.6"
       sodipodi:nodetypes="ssssssssssssssssssssssssssssssscssssscscccccscscccsscccsscssssssssssssssssssccssccccscsscssscsscccccsscccccccccsscsscccccscccssscsscccsssccsssssssssscccsssssscssccccsscsssscssssscsssssssssscsssssscsccsssssssssscsssscssscscsscssssssscsccssssssscsscssssssscccccssscssssssssscssscccsssssssssssccsscsssscsscsccscscccccsscsscccsssscscsssscssssccsssssssscsssssssscscccsccccccccsccsssccssccsscssssssccsscccccssscssssssssssscscsccsccccssccccsscscsssssscsssccscccccccsscscss" />
    <path
       inkscape:connector-curvature="0"
       id="path3374"
       d="m 140.11417,856.84627 c 1.93714,-1.95471 4.24147,-2.83347 5.12073,-1.95288 0.87925,0.88062 -0.70569,2.47992 -3.52211,3.55401 l -5.1207,1.9529 z m 20.75177,-5.36545 c 0,-1.5731 1.36091,-2.86018 3.02426,-2.86018 l 3.0243,0 -1.76494,2.86018 c -0.97073,1.57313 -2.33166,2.86018 -3.02429,2.86018 -0.69264,0 -1.25933,-1.28705 -1.25933,-2.86018 z m 57.11493,1.56157 c 0,-0.63559 7.31249,-3.28474 16.25,-5.88697 19.00191,-5.53259 53.25554,-22.29177 61.73742,-30.2061 3.24841,-3.03108 7.03802,-5.51103 8.42131,-5.51103 1.38332,0 15.59823,-12.72149 31.58867,-28.26998 28.77705,-27.98165 40.91343,-38.55758 51.94212,-45.26365 13.97277,-8.49623 43.07697,-25.24815 45.66936,-26.28656 1.57066,-0.62916 3.49829,-1.92356 4.28362,-2.87646 0.78533,-0.9529 6.17424,-5.27466 11.97534,-9.60389 5.80111,-4.32926 14.69177,-13.65114 19.757,-20.7153 5.06524,-7.0642 9.71103,-12.34166 10.32398,-11.72778 0.61296,0.61391 -0.91683,5.9853 -3.39951,11.93643 l -4.51396,10.82024 5.77455,-5.23402 5.77455,-5.23402 0,2.97839 c 0,3.58819 -24.06098,28.17409 -36.62633,37.42535 l -8.99831,6.62504 -3.33063,-2.06165 -3.33066,-2.06165 1.77956,2.88387 1.77959,2.88386 -7.26382,3.31478 -7.26382,3.31475 -3.08298,-1.90834 -3.08301,-1.90837 1.9625,3.18029 1.96247,3.1803 -8.51878,4.41209 c -10.19661,5.28107 -12.6971,5.54944 -9.93037,1.06584 l 2.06487,-3.34624 -4.98564,1.91615 c -2.74212,1.05387 -5.59895,1.91613 -6.3485,1.91613 -0.74958,0 -0.54896,1.31897 0.44581,2.93105 0.99477,1.61206 0.74935,2.74672 -0.54539,2.52151 -1.29474,-0.22538 -4.09791,-0.25713 -6.2293,-0.0709 l -3.87522,0.33873 1.58797,4.14463 1.58797,4.14461 -4.60664,-1.77048 -4.60666,-1.77049 1.82125,2.95143 1.82126,2.95145 -12.44892,11.68619 -12.44894,11.68619 -2.21255,-1.99581 -2.21257,-1.99578 1.81836,3.19297 1.8184,3.19299 -5.46421,4.9527 -5.46419,4.95272 -3.47696,-2.15221 -3.47692,-2.1522 1.77613,2.87829 1.7761,2.87826 -17.75543,14.35494 c -20.35434,16.45615 -48.73455,33.16708 -51.54586,30.35143 -1.04852,-1.05015 -1.90638,-0.44819 -1.90638,1.33773 0.76334,2.26275 -1.33761,2.73302 -4.75208,1.42074 l -4.7521,-1.8264 c 3.71358,6.13681 -3.38429,3.93233 -12.54738,6.56818 -10.33644,3.24992 -26.49614,6.02249 -26.49614,4.54606 z m 147.07096,-84.50686 c 2.84287,-3.14617 4.5263,-5.72037 3.74097,-5.72037 -0.78533,0 -3.75385,2.5742 -6.59672,5.72037 -2.84287,3.1462 -4.5263,5.72036 -3.74097,5.72036 0.78533,0 3.75385,-2.57416 6.59672,-5.72036 z m 45.67173,-31.42926 1.74474,-2.82741 -4.43194,1.70333 c -4.94736,1.90142 -5.85254,3.95151 -1.74475,3.95151 1.47796,0 3.47236,-1.27235 4.43195,-2.82743 z m -234.62698,109.6076 c 1.04712,-1.04872 2.76056,-1.04872 3.80768,0 1.04709,1.04871 0.19048,1.90677 -1.90384,1.90677 -2.0942,0 -2.95093,-0.85806 -1.90384,-1.9068 z m 11.42299,0 c 1.04711,-1.04872 2.76056,-1.04872 3.80768,0 1.04709,1.04871 0.19048,1.90677 -1.90384,1.90677 -2.09421,0 -2.95093,-0.85806 -1.90384,-1.9068 z m 97.57135,-78.17834 c 0.97073,-1.5731 2.40748,-2.86018 3.19281,-2.86018 0.78533,0 0.63366,1.28708 -0.33706,2.86018 -0.97073,1.57313 -2.40748,2.86018 -3.19281,2.86018 -0.78533,0 -0.63366,-1.28705 0.33706,-2.86018 z m 41.40833,-48.6231 c 0,-1.57311 1.36093,-2.86019 3.02429,-2.86019 l 3.02427,0 -1.76494,2.86019 c -0.97073,1.57312 -2.33166,2.86018 -3.02429,2.86018 -0.69264,0 -1.25933,-1.28706 -1.25933,-2.86018 z m 72.82154,-20.02128 c 2.84287,-3.14617 5.81139,-5.72037 6.59672,-5.72037 0.78533,0 -0.89811,2.5742 -3.74097,5.72037 -2.84287,3.1462 -5.81139,5.72036 -6.59672,5.72036 -0.78533,0 0.8981,-2.57416 3.74097,-5.72036 z M 356.00862,689.4038 c 1.04712,-1.04871 2.76057,-1.04871 3.80768,0 1.04709,1.04875 0.19048,1.9068 -1.90384,1.9068 -2.0942,0 -2.95093,-0.85805 -1.90384,-1.9068 z m 75.39171,-12.74903 c 1.93717,-1.95471 4.24147,-2.83347 5.12073,-1.95288 0.87926,0.88065 -0.70568,2.47992 -3.52208,3.55401 l -5.12072,1.9529 z m -52.54574,-10.13243 c 1.04712,-1.04868 2.76057,-1.04868 3.80769,0 1.04708,1.04875 0.19047,1.90683 -1.90384,1.90683 -2.09421,0 -2.95093,-0.85808 -1.90385,-1.90683 z m 110.42222,-12.39408 c 0,-2.09746 0.85672,-2.95552 1.90384,-1.90683 1.04709,1.04874 1.04709,2.76485 0,3.81362 -1.04712,1.04872 -1.90384,0.19078 -1.90384,-1.90679 z m -79.009,-10.48738 c 1.04712,-1.04868 2.76056,-1.04868 3.80768,0 1.04709,1.04875 0.19048,1.90683 -1.90384,1.90683 -2.09421,0 -2.95093,-0.85808 -1.90384,-1.90683 z m -45.21598,-3.81354 c 0.97072,-1.57313 2.40748,-2.86018 3.19281,-2.86018 0.78533,0 0.63366,1.28705 -0.33706,2.86018 -0.97073,1.57308 -2.40748,2.86019 -3.19282,2.86019 -0.78533,0 -0.63366,-1.28711 0.33707,-2.86019 z m 62.35046,-13.34752 c 1.04712,-1.04875 2.76056,-1.04875 3.80768,0 1.04709,1.04871 0.19048,1.90679 -1.90384,1.90679 -2.09421,0 -2.95093,-0.85808 -1.90384,-1.90679 z"
       style="fill:#4f4f4f;fill-opacity:0.7"
       sodipodi:nodetypes="ssscssssscssssssssssssscscccsscccccccccccsscssscccccccccccccccccccccccccssssssssccssscsssccssssssssssscsssssscsccscscscsccccsccscccccscscss" />
  </g>
</svg>
