<?xml version="1.0" encoding="UTF-8" standalone="no"?>
<!-- Created with Inkscape (http://www.inkscape.org/) -->

<svg
   xmlns:dc="http://purl.org/dc/elements/1.1/"
   xmlns:cc="http://creativecommons.org/ns#"
   xmlns:rdf="http://www.w3.org/1999/02/22-rdf-syntax-ns#"
   xmlns:svg="http://www.w3.org/2000/svg"
   xmlns="http://www.w3.org/2000/svg"
   xmlns:sodipodi="http://sodipodi.sourceforge.net/DTD/sodipodi-0.dtd"
   xmlns:inkscape="http://www.inkscape.org/namespaces/inkscape"
   width="512"
   height="512"
   id="svg2"
   version="1.1"
   inkscape:version="0.48.2 r9819"
   sodipodi:docname="mussel.svg"
   inkscape:export-filename="/Users/sgrimault/Desktop/mussel.png"
   inkscape:export-xdpi="90"
   inkscape:export-ydpi="90">
  <defs
     id="defs4" />
  <sodipodi:namedview
     id="base"
     pagecolor="#ffffff"
     bordercolor="#666666"
     borderopacity="1.0"
     inkscape:pageopacity="0.0"
     inkscape:pageshadow="2"
     inkscape:zoom="1.01"
     inkscape:cx="182.92079"
     inkscape:cy="216.9697"
     inkscape:document-units="px"
     inkscape:current-layer="g3092"
     showgrid="false"
     showguides="true"
     inkscape:guide-bbox="true"
     inkscape:window-width="1245"
     inkscape:window-height="747"
     inkscape:window-x="169"
     inkscape:window-y="0"
     inkscape:window-maximized="0" />
  <metadata
     id="metadata7">
    <rdf:RDF>
      <cc:Work
         rdf:about="">
        <dc:format>image/svg+xml</dc:format>
        <dc:type
           rdf:resource="http://purl.org/dc/dcmitype/StillImage" />
        <dc:title></dc:title>
      </cc:Work>
    </rdf:RDF>
  </metadata>
  <g
     transform="translate(0,-540.36218)"
     id="g3092"
     inkscape:groupmode="layer"
     inkscape:label="Copie de Calque 1">
    <path
       style="fill:#787878;fill-opacity:0.27450982"
       d="m 123.90408,597.93672 c 23.04982,-30.71439 59.76412,-50.16965 97.23375,-51.52511 98.20702,-3.55262 228.89347,185.2952 192.6886,278.44371 -21.98595,56.56581 -102.26047,168.40039 -147.1707,205.03108 -34.55822,28.1872 -62.89473,19.0406 -57.42215,-18.535 4.99541,-34.29925 -7.19636,-97.91645 -26.89907,-140.36043 C 163.66286,830.76809 163.81149,831.03626 140.9802,796.37355 80.967841,705.26213 77.09917,660.30526 123.90408,597.93672 z"
       id="path3096"
       inkscape:connector-curvature="0" />
    <path
       style="fill:#646464;fill-opacity:0.39215687"
       d="m 128.77506,595.08771 c 29.46048,-34.12868 86.09604,-54.69936 119.04111,-43.23707 86.7193,30.17147 177.00751,161.41948 169.92556,247.01335 -2.584,31.23079 -49.6058,111.92977 -101.61054,174.38436 -16.60487,19.94146 -25.35521,24.51505 -16.73912,8.74914 2.12969,-3.89693 2.34528,-8.68192 0.6214,-13.79158 -2.23798,-6.63349 -1.93809,-8.32399 1.97043,-11.10756 8.15551,-5.80821 15.52356,-17.64259 14.66877,-23.56062 -0.43347,-3.00103 0.77663,-8.31963 2.68908,-11.81907 7.09051,-12.97436 4.50173,-41.49021 -4.01289,-44.20268 -7.21683,-2.29902 -13.93723,8.32036 -14.79782,23.38308 -0.43675,7.64436 -1.43233,15.08081 -2.21238,16.5254 -0.78014,1.44457 -1.11519,6.21539 -0.74471,10.60174 0.37048,4.38633 -0.27586,8.51455 -1.4363,9.17381 -2.70502,1.53675 -10.45698,26.16723 -11.28884,35.86828 -0.35014,4.08324 -3.58024,14.3376 -7.178,22.7875 -5.24742,12.32431 -5.8329,15.45811 -2.95973,15.84171 9.63583,1.2868 -22.72434,28.1857 -37.50138,31.1725 -18.34524,3.708 -27.30626,-8.5571 -24.97807,-34.188 C 217.97801,945.41971 194.09911,871.64336 142.5719,793.46102 89.137277,712.3846 83.295069,680.90663 111.27313,624.82226 c 6.14873,-12.32568 14.025,-25.70601 17.50193,-29.73455 z m -13.60238,41.67111 c 3.70991,1.11248 7.36684,-5.51328 6.37348,-11.54774 -0.88338,-5.36635 -1.13805,-5.22729 -4.76968,2.60459 -2.11007,4.55049 -2.83177,8.57491 -1.6038,8.94315 z m 58.33649,-47.78323 c 3.12564,-0.74973 7.25108,-3.05719 9.16762,-5.12771 3.10984,-3.35969 2.62762,-3.44912 -4.48361,-0.83157 -9.38654,3.45508 -12.90473,7.93111 -4.68401,5.95928 z m 117.18024,47.57425 c 6.85443,4.45637 15.47114,10.52458 19.14825,13.48492 7.29832,5.87566 16.64296,0.92994 14.13665,-7.48193 -1.97804,-6.63881 -32.63986,-21.68864 -40.14815,-19.70603 -8.67201,2.28992 -7.69687,4.23685 6.86325,13.70304 z m 31.25033,128.66434 c 13.86495,14.68939 14.26874,14.81419 15.10564,4.6686 1.11962,-13.57288 -17.53201,-37.18066 -20.45759,-25.89362 -0.79632,3.07225 -2.74012,5.49941 -4.47934,5.59321 -4.36994,0.23565 -3.7093,1.28607 9.83129,15.63181 z m -14.51558,33.28726 c 3.36118,3.93682 9.84213,4.37709 10.33294,0.70197 0.24119,-1.80608 2.71378,-2.49429 5.95335,-1.65706 10.19774,2.6355 7.91661,-7.53749 -3.02468,-13.48892 -5.99737,-3.26222 -7.09696,-2.15124 -5.28462,5.33939 1.23971,5.12389 1.05807,5.31217 -2.99697,3.10647 -4.90185,-2.66632 -8.58751,1.77284 -4.98002,5.99815 z"
       id="path3098"
       inkscape:connector-curvature="0" />
    <path
       style="fill:#5a5a5a;fill-opacity:0.3137255"
       d="m 134.0737,591.24985 c 4.03406,-4.24295 7.24344,-5.77292 9.51637,-4.53658 5.23348,2.84672 16.31287,-0.89605 19.40579,-6.55554 2.26233,-4.13966 1.91316,-5.21236 -1.93996,-5.96001 -6.27429,-1.21745 -4.56685,-3.62719 6.76978,-9.55429 22.10503,-11.55715 48.64719,-16.52389 51.40617,-9.61948 1.81284,4.53663 7.06498,3.90595 9.24075,-1.10962 11.02253,-25.40895 116.09849,58.5907 151.57061,121.16834 59.43059,104.84361 49.80077,149.24137 -64.2808,296.36336 -10.72751,13.83441 -18.49324,16.85767 -8.65471,3.36935 25.10357,-34.41625 28.91344,-45.36441 21.44982,-61.63888 -1.14119,-2.4884 -1.53636,-5.5098 -0.87814,-6.71423 7.84771,-14.35989 -0.64673,-47.98347 -14.70106,-58.19131 l -10.03682,-7.28987 -1.55816,6.01146 c -0.95427,3.68163 -2.38444,5.56198 -3.69018,4.85173 -2.51697,-1.36907 -8.31023,14.42443 -6.20442,16.91437 0.74373,0.87941 0.71675,2.76174 -0.0599,4.18296 -0.77669,1.42121 -0.72234,4.3104 0.12082,6.42038 0.84315,2.11 0.26493,5.18037 -1.28494,6.82304 -1.73578,1.83971 -1.61489,6.33423 0.31479,11.70375 2.7137,7.55108 2.4943,9.26236 -1.64021,12.79349 -6.01782,5.13961 -6.35323,12.57056 -0.75602,16.74931 5.60374,4.18364 1.66853,17.75914 -5.9148,20.40455 -4.82327,1.68255 -5.23944,2.44633 -5.44329,9.98972 -0.21649,8.01009 -2.95275,17.09547 -10.18794,33.82763 -8.1353,18.81372 -10.09876,27.32422 -7.09586,30.75652 2.84449,3.2511 2.3971,3.8462 -8.49791,11.3031 -25.25718,17.2868 -43.76855,4.6408 -37.46148,-25.5916 10.07579,-48.29743 -18.91324,-137.82585 -69.44194,-214.46136 -41.71053,-63.26121 -53.015112,-94.42807 -46.292241,-127.62829 3.632541,-17.93897 9.327231,-29.69255 12.554701,-25.91234 2.41358,2.82693 11.56765,0.92649 13.47645,-2.79778 2.91618,-5.68986 0.2041,-22.27228 -3.46672,-21.19625 -4.58886,1.34513 4.54601,-15.28807 13.66158,-24.87558 z m 30.81335,1.86752 c 2.90909,1.58239 6.16819,0.3415 23.23317,-8.84596 12.63548,-6.80271 13.01559,-9.17352 1.18075,-7.36489 -14.23801,2.17588 -30.43918,12.93346 -24.41392,16.21085 z m 62.14244,-23.1885 c 5.62717,5.98855 29.4637,5.5667 32.82338,-0.58091 1.53225,-2.80367 -8.79803,-7.42073 -16.3853,-7.32333 -3.82034,0.049 -9.90714,-0.37678 -13.52621,-0.94629 -8.86243,-1.3946 -9.81583,1.5032 -2.91187,8.85053 z m -65.35574,131.52045 c 2.17633,1.18379 4.64691,-0.96367 8.96175,-7.78972 6.101,-9.65174 6.54185,-15.55924 1.13937,-15.26789 -4.75476,0.25642 -13.85019,21.01833 -10.10112,23.05761 z m 91.49016,-88.80572 c 2.78886,1.51697 6.36209,1.66201 7.94054,0.32231 4.01866,-3.41077 2.77677,-5.74914 -3.98087,-7.49559 -7.64242,-1.97511 -10.67578,3.52011 -3.95968,7.17327 z m 10.87239,12.05178 c 2.11698,2.01048 6.14091,4.91798 8.94206,6.46111 2.80117,1.54311 5.54795,4.00595 6.10397,5.47295 2.04709,5.40097 19.83693,19.95741 21.9698,17.97665 1.10682,-1.02789 5.43779,-0.006 9.62438,2.27159 11.28876,6.14042 17.39475,-1.83747 14.52234,-18.97441 -1.17781,-7.02688 -14.80848,-18.38309 -17.07875,-14.22892 -0.86965,1.59124 -2.48282,1.86851 -3.58489,0.61612 -1.10208,-1.2524 -1.1007,-3.28168 0.003,-4.50952 2.5009,-2.78204 -0.0608,-7.62512 -5.67645,-10.73193 -3.30627,-1.82916 -5.4237,-0.94812 -9.40159,3.91181 -5.49585,6.71445 -8.59667,6.3838 -12.06414,-1.28643 -3.35389,-7.41899 -8.42245,-6.71199 -13.08827,1.82564 -3.35081,6.13138 -3.40153,8.22277 -0.27152,11.19534 z m 66.46897,90.93661 c -0.25043,5.84177 0.27235,6.84468 2.31798,4.44694 3.09149,-3.62361 3.68056,-3.44249 7.45067,2.29079 2.1215,3.22619 1.93586,4.67102 -0.73637,5.73109 -5.95181,2.36105 -1.38404,9.03348 11.49465,16.79096 6.46437,3.89381 12.48955,8.92188 13.38928,11.17348 1.33518,3.34129 1.96132,3.49836 3.40621,0.85447 2.22905,-4.07883 4.13256,-3.05649 7.71856,4.14548 6.40915,12.87192 10.71898,-1.65605 6.02466,-20.30844 -4.10427,-16.30791 -15.70294,-38.18399 -18.74651,-35.35749 -5.15781,4.78996 -13.02888,-5.82688 -9.33329,-12.58916 2.04351,-3.7393 -5.04982,-17.98071 -10.40729,-20.89486 -5.69217,-3.0962 -9.65984,2.71255 -6.58598,9.64201 2.78581,6.28011 2.77692,6.302 -1.61179,3.97207 -4.98126,-2.6445 -9.4565,-1.11578 -7.37731,2.52005 2.40735,4.20968 -2.15953,4.64139 -7.46992,0.70616 -3.71275,-2.75132 -2.93085,-0.60548 2.82972,7.76587 5.11727,7.43647 7.8446,14.26151 7.63673,19.11058 z m -41.54912,31.46341 c 1.3784,1.61447 7.25021,5.51586 13.04849,8.66979 5.79826,3.15392 14.84179,10.50253 20.09672,16.33023 16.37745,18.16254 19.60833,20.13101 21.80692,13.28625 2.33226,-7.26089 6.25525,-5.59791 11.33437,4.80469 5.27232,10.79827 8.60582,7.86922 4.23321,-3.71959 -10.35546,-27.44525 -59.77905,-77.07435 -54.33103,-54.55694 1.35631,5.60582 1.07627,5.88545 -7.82418,7.81257 -10.64638,2.30514 -11.81321,3.33366 -8.3645,7.373 z m 11.86033,28.30215 c 2.21503,3.91576 1.83023,6.05432 -1.91205,10.6264 -4.3651,5.33297 -4.26615,6.25922 1.44835,13.5576 9.92602,12.67719 28.63993,18.52721 28.52988,8.9185 -0.0384,-3.34978 0.92588,-4.39346 3.71499,-4.02101 12.95078,1.72943 2.0279,-16.76143 -17.88231,-30.27214 -14.54456,-9.86969 -19.89607,-9.41126 -13.89886,1.19065 z m 23.2338,151.73144 c 2.95441,-0.15932 3.33132,8.40754 0.59056,13.42265 -1.7435,3.19035 -2.02258,3.02205 -3.90888,-2.35724 -2.18031,-6.21798 -0.79318,-10.84358 3.31827,-11.0653 z"
       id="path3100"
       inkscape:connector-curvature="0" />
    <path
       style="fill:#464646;fill-opacity:0.3137255"
       d="m 131.38892,596.06156 c 5.10287,-5.81367 7.24065,-6.90873 9.14132,-4.68255 1.5101,1.76872 4.5328,1.89097 7.72484,0.31243 3.83626,-1.89712 6.36345,-1.5635 9.41423,1.24283 4.77635,4.39363 12.77476,2.44663 32.71525,-7.96369 6.68175,-3.48834 14.61738,-6.46638 17.63475,-6.61789 4.97576,-0.24984 10.47411,-5.28873 7.52273,-6.8941 -3.33841,-1.81595 -38.97283,6.33096 -44.79622,10.24148 -3.67833,2.47007 -6.46623,3.22573 -6.19535,1.67924 0.2709,-1.54648 3.29632,-4.30803 6.72318,-6.13674 7.34673,-3.92052 7.29699,-7.68032 -0.0808,-6.11107 -16.59831,3.53043 -14.11993,-0.58253 5.7915,-9.61125 22.17663,-10.05587 37.81821,-11.48464 39.33185,-3.59277 3.62854,18.91836 11.65298,22.94007 35.04426,17.56358 20.08801,-4.61722 18.71452,-8.92903 -4.68695,-14.7138 -15.87658,-3.92464 -23.19123,-10.62128 -9.59269,-8.78221 55.77851,7.54351 144.10914,103.7923 170.65948,185.9578 17.93162,55.49311 5.80132,98.17549 -49.78137,175.16374 -28.08075,38.89498 -36.39177,48.39735 -27.44093,31.37445 6.1102,-11.6205 7.47158,-25.35409 4.52713,-45.66928 -0.71882,-4.95949 -1.26989,-13.4181 -1.2246,-18.7969 0.0453,-5.3788 0.11162,-12.88753 0.14738,-16.68606 0.0961,-10.21066 -6.54746,-26.40596 -12.06284,-29.40601 -2.6509,-1.44197 -4.88592,-3.82321 -4.96668,-5.2917 -0.25717,-4.67592 -8.13393,-7.27744 -11.43642,-3.77723 -1.88121,1.99387 -5.33571,2.44945 -8.62314,1.13726 -5.96608,-2.38137 -11.85692,0.81994 -6.68526,3.63303 2.17446,1.18273 2.16266,3.5713 -0.0374,7.59709 -1.76499,3.22957 -2.65295,6.84439 -1.97329,8.03289 0.67966,1.18849 -0.83944,7.42428 -3.37578,13.8573 -2.53635,6.43301 -3.96581,12.04763 -3.17659,12.47691 4.09574,2.22781 3.0983,26.65176 -1.32513,32.44817 -3.38604,4.43702 -4.1748,7.80783 -2.95705,12.63716 2.6984,10.70131 2.0541,26.69638 -1.21495,30.16117 -1.67077,1.7708 -3.71133,6.59066 -4.53459,10.7108 -2.99741,15.00083 -19.9963,64.00186 -26.61254,76.71336 -2.86519,5.5047 -16.21142,8.0177 -22.99241,4.3292 -6.95384,-3.7826 -9.11443,-12.315 -7.71428,-30.4652 C 219.65672,938.42731 199.26985,875.6459 144.0011,791.71044 98.780541,723.03496 88.954159,689.56649 102.54379,650.50771 c 2.92209,-8.39854 3.60373,-9.04776 7.35659,-7.00642 8.81976,4.79744 15.70233,-2.41395 16.13499,-16.90582 0.21278,-7.12742 -0.95001,-13.68613 -2.58403,-14.57494 -3.31891,-1.80527 -1.79331,-4.87259 7.93764,-15.95897 z m -21.11065,93.63591 c 2.84215,3.01556 5.28864,-2.22311 4.16225,-8.91254 -0.88901,-5.27957 -1.05379,-5.25199 -3.57511,0.5982 -1.45374,3.37307 -1.71795,7.11453 -0.58714,8.31434 z m 47.46255,10.3896 c 2.8811,9.74994 11.45378,3.22363 17.95884,-13.67197 3.31203,-8.6023 0.48796,-12.52032 -6.14189,-8.52105 -5.47464,3.30241 -13.14327,17.70461 -11.81695,22.19302 z m 77.10795,-75.34604 c 0.75083,1.31296 6.69355,2.64618 13.20605,2.96273 l 11.84088,0.57553 17.13498,14.03075 c 9.42426,7.71691 21.58309,16.59006 27.01964,19.71809 9.25025,5.32238 11.90641,8.87363 9.73655,13.01786 -0.50003,0.95497 -3.62952,-0.47844 -6.95447,-3.18537 -4.2974,-3.49865 -7.255,-4.44185 -10.22894,-3.26209 -2.30097,0.91278 -5.71888,0.82449 -7.59537,-0.1962 -1.87646,-1.0207 -6.64196,-0.79861 -10.58999,0.4935 -9.44445,3.091 -6.53349,8.32311 9.47544,17.03103 11.37735,6.18862 19.80405,14.44708 32.40185,31.75494 4.11736,5.65678 12.42709,16.22188 18.46605,23.47801 23.21251,27.89108 23.41415,33.88296 0.29205,8.67863 -14.13763,-15.41077 -43.30454,-36.95857 -45.23798,-33.42071 -0.48862,0.89403 -0.29393,4.08236 0.43258,7.08514 1.23128,5.08905 0.82493,5.78188 -5.98662,10.2075 -10.78067,7.00444 -10.37963,11.52354 1.60097,18.04028 9.5973,5.22037 13.16974,10.2304 7.51242,10.53549 -4.69258,0.25306 -7.01115,7.55773 -3.90042,12.28827 2.1194,3.22302 1.9641,5.76344 -0.5379,8.79882 -6.3623,7.71867 15.2277,38.78898 27.57051,39.67688 3.29568,0.23709 7.75252,1.38861 9.9041,2.55894 4.37477,2.37962 6.21982,0.28668 6.27467,-7.11767 0.0452,-6.09442 1.34256,-5.57005 5.53727,2.23802 4.03109,7.5035 7.62139,6.71358 7.1095,-1.56422 -2.16154,-34.9542 -1.31344,-38.501 5.63785,-23.57786 6.2546,13.42749 7.21223,14.45583 9.5235,10.22661 1.1512,-2.10645 0.71876,-9.874 -0.96094,-17.26122 -3.77302,-16.59346 -4.03584,-16.1787 9.44408,-14.90354 11.99008,1.13422 16.73205,-3.07586 16.8524,-14.96211 0.10066,-9.9429 -5.4927,-33.25125 -8.35272,-34.80693 -1.52355,-0.82876 -5.73631,-7.19965 -9.36166,-14.1576 -3.62535,-6.95794 -8.12781,-13.48645 -10.00549,-14.5078 -1.87765,-1.02137 -3.48098,-3.07565 -3.56289,-4.56513 -0.27386,-4.97953 -11.33305,-19.07595 -17.92218,-22.84421 -10.26601,-5.87107 -12.3418,-9.7873 -12.40021,-23.39453 -0.0431,-10.03653 -1.31489,-13.87804 -6.02616,-18.20205 -17.27584,-15.85578 -18.43483,-17.32394 -17.29488,-21.90837 1.48576,-5.97512 -8.12102,-10.55814 -10.12252,-4.82906 -0.70032,2.00463 -2.39702,3.70538 -3.77043,3.77944 -1.37341,0.0741 -3.04319,2.3308 -3.71064,5.01496 -1.11615,4.48875 -1.72062,4.46743 -7.53448,-0.26581 -4.57986,-3.72862 -7.47332,-4.68895 -10.50457,-3.48648 -2.30096,0.91279 -5.47007,0.95984 -7.04242,0.10457 -11.56064,-6.28831 -33.32302,9.71214 -27.36946,20.12297 z"
       id="path3102"
       inkscape:connector-curvature="0" />
    <path
       style="fill:#323232;fill-opacity:0.39215687"
       d="m 133.68708,595.57225 c 3.42191,-2.76746 3.7808,-2.65858 3.37131,1.02273 -0.58003,5.21461 5.74388,6.24872 8.40748,1.37482 1.10063,-2.01396 3.28617,-3.73105 4.85675,-3.81574 4.59819,-0.24797 4.15098,2.73655 -0.82943,5.5353 -2.68206,1.50719 -4.81533,4.50427 -5.11331,7.1838 -0.44284,3.98226 0.44665,3.88715 6.64516,-0.71055 15.52629,-11.51648 31.35925,-15.71749 23.03641,-6.11232 -4.19203,4.8379 -4.18809,4.83876 5.98362,1.31216 23.31811,-8.08459 31.48323,-10.38276 40.2885,-11.33978 7.9427,-0.86327 8.44896,-1.19926 3.50693,-2.32744 -3.1767,-0.72518 -8.56229,-0.63706 -11.968,0.19583 -3.4057,0.83289 -6.96452,1.09424 -7.90846,0.58079 -0.94394,-0.5135 -4.18557,-0.34126 -7.2036,0.38264 -7.70036,1.84702 -7.85431,-1.75769 -0.22221,-5.20326 6.31358,-2.8503 16.71757,-4.01086 28.66099,-3.1971 8.71485,0.59379 26.4832,-1.08699 36.43809,-3.44681 7.41956,-1.75881 9.39054,-1.22245 17.66258,4.80646 8.41529,6.13334 9.63589,6.44196 12.6873,3.20782 3.78883,-4.01569 12.38991,1.27295 17.13521,10.5361 1.36399,2.66261 4.58236,5.98469 7.15194,7.38238 2.56959,1.39768 7.85019,6.77185 11.73471,11.94257 21.65053,28.8192 26.94123,35.17061 33.51711,40.23692 23.72646,18.27976 53.01356,90.62099 53.34955,131.77716 0.22367,27.39862 -23.98794,79.71674 -59.00771,127.50795 -8.53589,11.64886 -15.83869,21.66318 -16.22844,22.25403 -0.38977,0.59085 -0.0898,-3.8341 0.66652,-9.83322 0.75633,-5.99914 0.4018,-17.17203 -0.78785,-24.82865 -1.18965,-7.65662 -1.92784,-20.87921 -1.64042,-29.38354 0.28743,-8.50432 -0.96495,-19.27944 -2.78306,-23.94472 -2.23745,-5.74132 -2.28603,-8.53732 -0.15032,-8.6525 1.73542,-0.0936 4.10837,-1.91407 5.2732,-4.04551 1.17447,-2.14897 3.48439,-3.13206 5.18541,-2.20681 5.78018,3.14409 8.63651,-3.06515 7.65785,-16.64702 -1.17137,-16.25644 1.26488,-18.0389 7.42557,-5.43287 4.40572,9.015 8.6552,12.13514 6.47389,4.75338 -0.59353,-2.00858 -0.0458,-5.54286 1.21724,-7.85396 1.26303,-2.3111 0.98586,-9.47955 -0.6159,-15.92989 -3.11047,-12.52588 -0.25329,-14.95054 5.34277,-4.534 l 3.39719,6.32356 2.61422,-8.04338 c 3.58065,-11.01689 10.41006,-10.44013 12.89307,1.08888 2.13802,9.92721 2.85374,8.8621 2.6526,-3.94753 -0.56698,-36.10823 -6.47172,-65.56829 -15.89617,-79.30951 -2.82475,-4.11858 -5.81878,-10.31491 -6.65339,-13.76961 -0.83463,-3.4547 -2.86959,-7.01673 -4.52216,-7.91563 -2.41829,-1.31539 -2.71601,-0.3948 -1.52562,4.71728 l 1.47904,6.35163 -3.48927,-5.50249 c -1.9191,-3.02637 -5.33339,-10.42496 -7.58734,-16.44131 -4.4836,-11.96792 -16.42841,-28.87798 -19.71327,-27.90777 -2.89009,0.85362 2.45719,12.98554 6.75358,15.32253 1.94646,1.05877 3.95681,4.09718 4.46744,6.75203 0.84482,4.39243 0.36404,4.3614 -5.34026,-0.34459 -7.80478,-6.43886 -12.85177,-16.88959 -10.37028,-21.47358 2.99751,-5.53719 -2.48988,-15.34737 -14.0458,-25.11068 -8.40158,-7.0983 -10.55018,-10.23454 -9.96153,-14.54064 1.07587,-7.87033 -9.73316,-13.6159 -15.82591,-8.4123 -3.45774,2.95312 -6.50912,2.90556 -14.7517,-0.22998 -13.8038,-5.25104 -32.57013,-8.54311 -33.9812,-5.9611 -0.67477,1.23464 0.99923,2.48585 4.15112,3.10271 17.04269,3.33545 23.57853,9.84151 7.3939,7.36019 -12.11902,-1.858 -18.89554,1.4023 -24.59634,11.83375 -6.82688,12.49196 -5.67333,14.43766 10.65674,17.97451 25.74298,5.57557 57.93784,27.82678 43.10072,29.7887 -2.74434,0.36289 -6.41145,-0.11354 -8.14912,-1.05873 -1.73766,-0.94523 -5.94314,-0.10677 -9.34548,1.86317 -8.24709,4.77502 -1.75808,15.48282 16.6184,27.42277 7.75167,5.03657 13.46307,10.37895 15.09929,14.12372 1.44742,3.31265 5.87705,8.56915 9.84363,11.6811 13.05892,10.2453 8.12391,10.98414 -7.66742,1.14793 -12.40856,-7.72914 -16.7963,-9.43687 -24.24553,-9.43652 l -9.09518,4.6e-4 6.06498,3.40759 c 13.01158,7.31042 16.17344,16.62094 7.34251,21.62088 -7.62002,4.31434 -6.80156,14.28644 1.72136,20.97304 6.21257,4.87405 7.03507,6.58372 4.80719,9.99252 -4.63479,7.09155 -4.81459,8.7884 -1.28208,12.10277 2.0975,1.96797 2.51787,4.90252 1.07935,7.53475 -3.58964,6.56841 -2.88783,13.27247 1.84519,17.62625 4.06209,3.73661 3.90896,4.48602 -3.13191,15.32783 -6.56901,10.11519 -7.06578,11.91164 -4.41057,15.94947 2.26583,3.4457 2.01336,5.84837 -1.03997,9.89705 -2.31941,3.07552 -3.1196,5.85167 -1.88376,6.53552 2.28601,1.26494 2.21564,12.95312 -0.10354,17.19679 -1.35998,2.48845 -1.64634,15.11224 -0.62626,27.60399 0.33062,4.0486 -1.01266,7.96871 -3.74143,10.91875 -3.32115,3.59045 -3.75257,6.45566 -1.96207,13.03091 1.57134,5.77037 1.23505,9.32825 -1.06629,11.28148 -2.04271,1.73373 -2.70972,4.33077 -1.70017,6.61977 6.69823,15.18713 -24.72966,103.33827 -37.7868,105.98707 -11.68734,2.371 -17.87903,-8.5197 -16.25831,-28.597 1.29517,-16.0447 -1.49472,-68.31363 -4.32963,-81.11599 -1.1781,-5.32019 -1.50814,-10.83292 -0.73345,-12.25047 1.9866,-3.63507 -2.44517,-15.93703 -6.54456,-18.16686 -1.88425,-1.02492 -3.07258,-4.4482 -2.64074,-7.60725 0.72807,-5.32605 -3.14395,-15.63328 -8.51589,-22.66907 -1.24947,-1.63648 -7.69278,-12.31324 -14.31848,-23.72614 -6.6257,-11.41287 -16.33464,-27.4649 -21.57544,-35.67115 -40.47126,-63.37139 -50.04441,-81.28348 -55.47776,-103.80299 -6.733944,-27.91004 -0.51702,-63.15219 10.4217,-59.0781 11.85271,4.41451 20.22186,-11.5349 15.68921,-29.89951 -2.32137,-9.40532 -0.47082,-15.3145 6.58227,-21.01862 z m -25.1689,94.74039 c 1.23546,2.19047 3.21011,3.70014 4.38812,3.35483 3.01617,-0.88413 5.01765,-17.95761 2.42989,-20.72802 -3.30348,-3.53666 -9.58452,12.4682 -6.81801,17.37319 z m 144.92795,-33.48362 c 2.4343,1.3241 8.7879,-4.77424 8.59667,-8.25129 -0.29064,-5.28455 -3.97107,-4.6472 -7.19136,1.24536 -1.8004,3.29438 -2.43276,6.44707 -1.40531,7.00593 z m -3.87646,191.66584 c 4.71705,1.51263 11.33377,-6.30158 7.22728,-8.53528 -3.83148,-2.08413 -6.54485,-1.03453 -9.01622,3.48764 -1.39258,2.54817 -0.80111,4.21707 1.78894,5.04764 z M 177.6231,562.07335 c 15.62423,-6.63255 31.56557,-10.18974 33.99739,-7.58627 3.66905,3.92803 0.48187,7.06142 -7.4469,7.32122 -6.15339,0.20163 -8.65502,1.50715 -9.82114,5.1254 -1.24285,3.85624 -2.85886,4.47919 -7.85647,3.02843 -3.46049,-1.00454 -9.63914,-1.26379 -13.73033,-0.57614 -11.64726,1.9577 -9.55276,-1.19543 4.85745,-7.31264 z m 66.83512,-6.9207 c 3.86034,1.19955 9.77578,3.82277 13.14543,5.82938 3.64714,2.17191 0.9375,1.73209 -6.69542,-1.08667 -13.64333,-5.03834 -18.21181,-8.39755 -6.45001,-4.74271 z"
       id="path3104"
       inkscape:connector-curvature="0"
       sodipodi:nodetypes="sssssssssssscssssssscsssscssssscssssssscssssssscssssssssssscssssscsssssscssssssssssccsssssssssssssssssssssssssssssssssssssscss" />
    <path
       style="fill:#282828;fill-opacity:0.50980395"
       d="m 135.21711,604.83596 c 4.5762,3.75182 0.006,18.76773 -4.90039,16.09919 -1.10172,-0.59925 -1.00567,-2.9147 0.21342,-5.14542 1.21909,-2.23073 1.14706,-5.30847 -0.16006,-6.83946 -4.07753,-4.77585 -0.0892,-8.16129 4.84703,-4.11431 z m -25.60858,46.27695 c 1.51766,0.82551 3.145,3.45902 3.61631,5.85223 1.63222,8.28803 3.92652,5.89797 14.29256,-14.88917 9.45447,-18.95912 11.53338,-21.77622 22.55641,-30.5659 13.73249,-10.95018 15.90247,-11.12061 5.99875,-0.47114 -4.03508,4.33893 -9.44355,13.54354 -13.51407,22.99938 -7.00199,16.26572 -6.29643,23.56687 0.98912,10.23561 2.62042,-4.7949 7.48445,-9.25086 13.41339,-12.28802 7.60166,-3.89403 9.82999,-6.29438 12.18974,-13.13078 1.6429,-4.75959 4.02336,-8.4269 5.52237,-8.50775 1.4491,-0.0781 6.82805,-3.13147 11.95325,-6.78516 7.7849,-5.54978 20.15883,-8.3756 25.04282,-5.71899 2.22803,1.21187 -2.93686,7.77533 -8.14542,10.3511 -4.99549,2.47041 -5.07977,2.86834 -1.21599,5.74265 6.10383,4.54069 3.26133,9.42582 -8.32606,14.30915 -8.33868,3.5142 -17.69372,12.5145 -14.70024,14.14278 0.39131,0.21234 5.57812,-2.32458 11.52673,-5.63847 18.6302,-10.37861 60.79624,-4.76036 54.24477,7.22764 -1.24878,2.28509 -3.4754,4.21966 -4.948,4.29909 -3.56185,0.19208 -5.28919,3.59827 -2.57382,5.07527 1.18644,0.64539 3.38572,5.33087 4.88727,10.41225 2.37967,8.05301 4.09253,9.93984 13.34494,14.70023 22.8968,11.78044 23.60875,22.90341 1.39688,21.82378 -12.42406,-0.60387 -20.19567,2.72323 -33.30974,14.26025 -13.4321,11.81681 -18.36413,18.35211 -9.00782,11.93601 29.83746,-20.46103 59.61457,-15.7764 51.83649,8.1551 -1.39144,4.28112 -1.77035,9.68455 -0.84206,12.00763 1.06366,2.66182 0.31788,5.70481 -2.01671,8.22869 -3.34579,3.6171 -3.02875,4.37248 3.27403,7.80083 6.7022,3.6456 9.87013,12.56786 4.97214,14.00362 -1.06425,0.31197 -1.33642,3.04119 -0.60484,6.06495 0.93507,3.86477 -0.0518,7.1455 -3.32245,11.04523 -4.6384,5.53051 -4.62835,5.55598 3.28939,8.33631 7.81098,2.74283 7.86254,2.85671 3.12537,6.90255 -2.64914,2.26254 -4.35738,4.91681 -3.79606,5.89836 1.2528,2.19077 -7.64062,15.08893 -10.51071,15.24372 -1.139,0.0614 -1.72956,-3.08452 -1.31236,-6.99094 1.05661,-9.8936 -6.08128,-18.42627 -14.82575,-17.72285 -5.60696,0.45105 -6.67858,-0.0646 -7.36369,-3.54358 -0.44101,-2.23927 -2.35687,-4.27906 -4.25748,-4.53287 -1.9006,-0.25381 -2.9121,-1.45607 -2.24777,-2.67167 0.66432,-1.21564 2.53683,-1.48735 4.1611,-0.60384 3.30015,1.79511 16.46182,-6.10819 15.4873,-9.29977 -0.34275,-1.12247 -6.88177,0.27653 -14.53117,3.1089 -15.33059,5.67648 -21.11206,3.32976 -16.36875,-6.64412 1.49708,-3.14792 3.98571,-8.30787 5.53029,-11.46652 3.92018,-8.01671 -1.48973,-16.2829 -10.27334,-15.69738 -3.7537,0.25022 -15.49429,12.91768 -20.77834,22.41875 -4.8587,8.73603 -6.76059,4.77554 -2.91181,-6.06339 3.17724,-8.94779 1.94352,-16.05553 -1.64658,-9.48629 -3.822,6.99359 -5.95508,26.26066 -3.21523,29.04173 1.49799,1.52056 3.89626,4.55958 5.32951,6.75337 1.95639,2.99464 3.6611,3.49337 6.83976,2.0011 9.69678,-4.5523 29.69763,19.86028 24.32523,29.69081 -1.15557,2.11447 -1.42277,5.54177 -0.59383,7.61627 1.59058,3.98041 8.70622,6.06887 10.36097,3.04098 0.53593,-0.98061 2.32649,-1.04752 3.97905,-0.14862 1.65257,0.89887 2.25586,3.00452 1.34067,4.67917 -0.98538,1.80304 0.57673,4.91395 3.83026,7.62793 3.53189,2.94621 5.21652,6.61472 4.71669,10.27119 -0.89772,6.56706 0.31749,7.55838 7.88593,6.43297 9.83432,-1.46234 15.2223,3.33266 11.46669,10.20475 -2.42475,4.43687 -2.33864,6.49824 0.33216,7.95101 12.22732,6.65095 -2.45083,27.30913 -16.77372,23.60753 l -6.04248,-1.56164 2.43159,5.87796 c 1.57477,3.80674 1.20685,8.11902 -1.04415,12.23795 -1.91164,3.498 -3.54439,9.99913 -3.6283,14.44697 -0.0839,4.44784 -0.24747,9.71432 -0.36346,11.70328 -0.50989,8.7432 4.10652,8.37685 7.28636,-0.57823 3.29831,-9.28872 12.18448,-17.98617 15.14175,-14.82018 8.46503,9.06253 -24.28291,101.31243 -34.07438,95.98643 -2.23217,-1.2144 -3.10472,-4.1223 -2.21242,-7.375 1.33249,-4.8574 1.04386,-5.1998 -3.02268,-3.5867 -7.06325,2.802 -7.70178,1.1692 -6.58315,-16.8351 0.57791,-9.30153 0.46307,-23.05917 -0.25517,-30.57267 -0.71823,-7.51349 -0.38371,-22.25218 0.74339,-32.75266 2.88291,-26.85819 -8.24723,-57.76979 -34.00887,-94.45248 -7.59885,-10.82017 -16.55884,-25.05802 -19.91106,-31.63961 -3.35225,-6.58161 -6.96452,-12.43952 -8.02729,-13.01761 -3.46912,-1.88703 -31.94174,-48.32554 -33.4489,-54.5548 -0.80745,-3.33731 -4.19421,-9.77131 -7.52614,-14.29784 -16.47215,-22.37784 -20.286624,-91.38567 -4.57917,-82.84172 z m -2.71974,42.40927 c 4.74567,14.33177 7.26565,14.15453 9.97905,-0.70179 4.65589,-25.49189 0.61807,-34.14246 -8.31063,-17.80454 -4.06803,7.44378 -4.33842,10.443 -1.66842,18.50633 z m 25.80592,23.24558 c 1.54567,0.84073 3.97336,0.12156 5.39488,-1.5982 2.54579,-3.07991 -0.92706,-6.81466 -5.17808,-5.56857 -3.2434,0.95076 -3.37942,5.44649 -0.2168,7.16677 z m 57.3537,-15.55446 c 3.03345,-1.03606 13.81968,-14.36936 12.29521,-15.19858 -0.51711,-0.28125 -2.86016,1.06673 -5.20683,2.99554 -5.58537,4.59087 -10.72943,13.44664 -7.08838,12.20304 z m 23.19397,1.09016 c 1.12896,0.61413 4.19126,-0.70995 6.8051,-2.94232 7.7849,-6.64879 7.81336,-9.06924 0.0586,-4.97974 -8.14385,4.29465 -9.86988,6.28686 -6.86367,7.92206 z m 22.75991,275.75885 c -2.78351,15.40569 -0.43068,18.05867 6.4864,7.31386 5.55927,-8.63563 5.53314,-18.094 -0.0584,-21.13548 -3.38649,-1.84208 -3.73215,-1.09885 -6.42797,13.82162 z M 186.56802,559.98502 c 3.00795,-0.72149 6.10577,-0.96543 6.88406,-0.54208 2.42136,1.31704 -6.5246,6.11827 -10.42861,5.59694 -5.05886,-0.67555 -3.10673,-3.45947 3.54455,-5.05486 z m 65.88642,22.54745 c 2.68311,0.52063 6.70218,-0.24511 8.93125,-1.70165 3.41991,-2.23465 5.95494,-1.49024 16.23189,4.76648 12.28553,7.47954 14.41042,12.49192 3.43652,8.10636 -3.26226,-1.30373 -11.97823,-4.05206 -19.36883,-6.10743 -13.00666,-3.61722 -19.15331,-6.98909 -9.23083,-5.06376 z m 15.77165,268.82412 c 3.22916,1.75647 3.38635,8.73574 0.21766,9.66459 -2.20381,0.64602 -5.61812,-7.06428 -4.24273,-9.58101 0.52667,-0.96367 2.33793,-1.00129 4.02507,-0.0836 z m -9.64262,70.51577 c 4.48721,-3.61931 6.08052,0.0441 2.70533,6.22008 -2.2063,4.03706 -4.06994,5.4013 -5.41412,3.96323 -2.26524,-2.42351 -0.99598,-7.19509 2.70879,-10.18331 z M 394.58943,712.04732 c 12.70208,19.54267 19.40178,51.82473 18.47873,89.03858 -0.51747,20.8623 -40.77191,95.24028 -64.24986,118.71423 -3.93126,3.9306 -3.41596,2.36774 2.35344,-7.13773 5.11857,-8.43321 6.6533,-12.5692 4.9981,-13.46953 -1.31376,-0.71465 -2.0442,-4.52483 -1.62319,-8.46713 0.42103,-3.94231 -0.15012,-8.24031 -1.26925,-9.55108 -3.08295,-3.61094 -4.63742,-25.938 -2.35217,-33.7846 1.73896,-5.97088 2.39912,-6.48343 4.77155,-3.70468 2.38791,2.79686 3.05854,2.24626 5.05243,-4.14819 2.1966,-7.04451 2.38217,-7.13609 4.16383,-2.055 3.51127,10.01373 8.34863,6.09327 7.3637,-5.96796 -0.5882,-7.20294 14.00349,-14.36734 21.24236,-10.42982 2.47632,1.34697 3.32194,-1.51773 4.34356,-14.71453 0.69774,-9.01293 1.77178,-17.30785 2.38677,-18.43318 0.61497,-1.12534 0.0917,-6.58687 -1.16291,-12.13675 -1.2546,-5.54989 -1.2892,-11.90568 -0.0769,-14.12397 3.02189,-5.52954 -0.0151,-33.45118 -5.04107,-46.34694 l -4.12447,-10.58263 z m -17.75014,94.78402 c 2.17342,1.18224 2.59806,11.59354 0.49795,12.20916 -0.74522,0.21845 -2.52646,-0.97497 -3.95831,-2.65204 -2.75865,-3.23109 0.17822,-11.34242 3.46036,-9.55712 z"
       id="path3106"
       inkscape:connector-curvature="0"
       sodipodi:nodetypes="scsssssssssssssscssscssscsssssssssssssssssssscsssssscssscsssccssssssscsssssscssssssssssssssscsscscsscsscssssscsssssssssscssscssssscscssssssscssscscssc" />
    <path
       style="fill:#1e1e1e;fill-opacity:0.58823532"
       d="m 130.22891,668.83786 c 2.76564,2.87662 3.80308,2.40723 7.00684,-3.17034 4.55234,-7.92538 12.99126,-15.51944 9.53899,-8.58398 -1.11613,2.24202 -2.08518,7.19173 -2.15362,10.99924 -0.23433,13.033 -5.65254,33.14749 -9.20979,34.19024 -8.75074,2.56512 -11.60844,15.38871 -5.46319,24.51535 7.84214,11.64676 9.33959,9.79813 18.12567,-22.37618 1.67117,-6.11971 2.02214,-6.33113 3.6775,-2.2152 1.00652,2.50261 1.1735,5.75154 0.37107,7.21983 -1.5497,2.83565 2.83517,18.16558 5.63094,19.68631 0.91179,0.49592 2.08694,-1.48731 2.61154,-4.40722 0.52453,-2.91996 1.86961,-6.55913 2.98902,-8.08708 1.11943,-1.52794 6.02057,-8.50171 10.89146,-15.49726 11.85918,-17.03211 14.57146,-14.27234 5.47937,5.57531 -4.05844,8.85943 -7.36803,18.65987 -7.35465,21.77876 0.0134,3.11889 -1.94004,9.26516 -4.34093,13.65837 -5.16363,9.44852 -6.97962,19.85341 -3.76979,21.59936 1.50442,0.81829 2.8245,-0.8993 3.86043,-5.02295 3.5659,-14.19462 10.99334,-27.93848 10.54709,-19.51659 -0.22008,4.15397 -1.57346,9.82833 -3.0075,12.6097 -5.76833,11.1879 -6.45375,27.57089 -1.27142,30.38977 3.91228,2.12806 8.88779,17.63015 6.85334,21.35283 -0.71734,1.31254 -0.40282,2.87679 0.69889,3.47606 1.10171,0.59924 2.49411,0.1911 3.09425,-0.90703 0.60012,-1.09812 1.99253,-1.50629 3.09424,-0.90702 1.10171,0.59924 0.86307,3.17563 -0.5303,5.72525 -4.92672,9.01502 -27.74426,-9.75312 -29.83387,-24.5393 -0.49913,-3.53201 -1.41745,-4.15601 -5.06819,-3.44379 -3.79198,0.73979 -4.38343,-0.47412 -3.95579,-8.11902 0.55908,-9.99459 -1.26012,-14.96034 -4.4093,-12.03578 -3.45898,3.21229 -8.40088,-0.94066 -5.00654,-4.20727 3.14908,-3.03056 -2.51763,-13.61479 -7.15534,-13.3647 -1.27999,0.069 -3.67964,-3.01696 -5.33258,-6.85779 -1.65297,-3.84081 -4.03094,-7.54111 -5.28438,-8.22291 -2.35777,-1.2825 -2.71752,-13.94501 -0.65356,-23.00366 0.64807,-2.84432 0.72728,-6.88066 0.17603,-8.96964 -2.91726,-11.05511 4.34656,-34.32208 9.15407,-29.32167 z m 64.14006,-29.25022 c 10.60359,-6.84311 12.05516,-1.00399 3.59764,14.47178 -4.62913,8.47047 -5.05997,8.69135 -10.83021,5.55267 -7.02971,-3.82375 -3.73464,-12.94664 7.23257,-20.02445 z m 8.88586,73.75718 c 5.5916,0.7467 6.43485,5.85876 2.00316,12.14378 -2.76652,3.92344 -4.87354,4.78742 -7.79715,3.19715 -5.30811,-2.8873 -0.29738,-16.15437 5.79399,-15.34093 z m 30.81941,12.14046 c 4.64189,-1.11341 6.31116,-0.49479 8.77494,3.25193 4.37919,6.65952 0.11374,9.07132 -8.68494,4.91073 -8.49274,-4.01594 -8.51619,-6.14156 -0.09,-8.16266 z m -44.13792,94.54654 c 5.8748,-0.34428 17.44669,8.17889 17.59424,12.95889 0.062,2.00867 1.1603,3.59562 2.44065,3.52657 3.64327,-0.19647 3.04508,5.6516 -0.69009,6.74649 -2.39323,0.70154 -3.20328,-0.0594 -2.85324,-2.68039 0.37255,-2.78967 -1.88719,-4.67189 -9.50279,-7.9152 -11.39174,-4.85145 -15.42392,-12.14204 -6.98877,-12.63636 z m 9.44422,35.3186 c 0.96681,0.52589 2.12693,2.83033 2.57804,5.12098 0.45111,2.29067 3.31837,6.32959 6.37168,8.97541 6.71294,5.81702 9.98879,10.77888 15.2318,23.07116 8.56309,20.07629 13.88504,36.40646 12.61948,38.72223 -0.72894,1.3339 -0.42128,3.48422 0.68376,4.77852 6.92365,8.1094 -9.07432,72.06128 -16.95437,67.77508 -1.93079,-1.0502 -1.14585,-16.91012 1.03432,-20.89944 0.89048,-1.62947 0.27407,-5.4663 -1.36984,-8.5263 -1.90591,-3.5477 -1.94186,-13.29491 -0.0992,-26.9005 3.77269,-27.85631 3.47536,-30.55477 -5.38117,-48.83859 -4.12467,-8.51514 -8.42008,-19.14663 -9.54539,-23.62551 -1.1253,-4.47887 -3.64737,-10.02752 -5.60461,-12.33029 -3.44438,-4.05247 -3.1344,-9.26456 0.43551,-7.32275 z m 174.92212,3.3597 c 1.62095,-0.0874 4.79544,-3.45562 7.05439,-7.48491 l 4.10724,-7.32597 -0.36022,9.97948 c -0.27411,7.59365 -2.50692,13.80983 -9.33949,26.00122 -6.82335,12.17492 -8.64249,14.42793 -7.57663,9.38357 0.77144,-3.651 0.84791,-8.93085 0.16994,-11.73303 -1.62285,-6.70744 2.13842,-18.61506 5.9448,-18.82034 z"
       id="path3108"
       inkscape:connector-curvature="0" />
  </g>
</svg>
