<?xml version="1.0" encoding="UTF-8" standalone="no"?>
<svg
   xmlns:dc="http://purl.org/dc/elements/1.1/"
   xmlns:cc="http://creativecommons.org/ns#"
   xmlns:rdf="http://www.w3.org/1999/02/22-rdf-syntax-ns#"
   xmlns:svg="http://www.w3.org/2000/svg"
   xmlns="http://www.w3.org/2000/svg"
   id="svg2"
   xml:space="preserve"
   viewBox="0 0 100 100"
   y="0px"
   x="0px"
   version="1.1"
   width="100"
   height="100"><metadata
     id="metadata10"><rdf:RDF><cc:Work
         rdf:about=""><dc:format>image/svg+xml</dc:format><dc:type
           rdf:resource="http://purl.org/dc/dcmitype/StillImage" /><dc:title></dc:title></cc:Work></rdf:RDF></metadata><defs
     id="defs8" /><path
     id="path4"
     d="m 90.12481,23.386601 c 0,0.455102 -6.978231,1.820408 -11.83265,5.309521 -3.944215,2.882311 -5.764622,6.523126 -5.916323,7.129928 -0.151701,1.061904 1.668707,1.668707 3.185713,1.972108 1.668706,0.151701 4.551017,-2.882311 5.006119,-2.57891 0.455102,0.303401 -2.123808,4.247617 -4.854419,4.095916 -2.730611,-0.303401 -4.399317,-0.455102 -7.281629,-0.758503 -2.882311,-0.303401 -7.888431,3.944216 -8.495233,5.764623 -0.303401,1.061904 -0.303401,1.517006 -0.151701,1.820407 0.151701,0 0.151701,0 0.151701,0 0,0 3.337413,-2.57891 5.309521,-3.792515 1.972108,-1.213605 5.764623,-2.123808 5.764623,-2.123808 0,0 0.303401,6.068024 -2.275509,9.102036 -0.910204,1.061904 -2.123809,1.820407 -4.551018,2.73061 -2.275509,0.910204 -3.489114,2.730611 -3.489114,2.730611 0,0 0.910203,1.668707 0.303401,4.247617 0,2.123808 -0.758503,3.034012 -0.758503,3.337413 l 0,0 c 0,0.606803 0.455102,3.034012 1.365305,3.640815 1.061905,0.758503 1.668707,3.337413 1.517006,3.337413 -0.1517,0 -0.455101,-0.455102 -0.606802,-0.151701 -0.151701,0.303401 1.517006,3.792515 1.213605,4.247617 -0.910204,-0.455102 -0.758503,-0.606803 -1.061904,-0.455102 -0.455102,0.606802 1.820407,8.646934 1.061904,9.860539 -0.151701,0 -0.455102,-1.213605 -0.758503,-0.910204 -0.303401,0.303402 0.303401,5.00612 -0.606803,5.00612 -0.455101,-0.455102 -0.910203,-0.303401 -1.365305,0.303401 -0.606802,0.606803 -0.758503,2.730611 -1.365305,3.489114 -0.151701,0.151701 -0.606803,-0.455102 -0.910204,-0.606802 -1.517006,0.758503 -2.123808,5.309521 -2.275509,4.854419 -0.303401,-0.455102 -1.061904,-0.910204 -1.517006,-0.455102 -1.365305,1.972108 -4.247617,5.612918 -4.551018,5.461222 -0.455102,-0.151701 -1.365305,-3.185713 -1.820407,-3.489114 -0.455102,-0.151701 -0.758503,1.213605 -1.061904,0.606802 -0.303402,-0.606802 -2.275509,-4.095916 -3.792515,-5.309521 -1.668707,-2.427209 -0.606803,0.455102 -1.213605,0.303402 -0.455102,-0.151701 -3.944216,-5.764623 -3.640815,-8.343533 0.303402,-2.578911 -0.455101,0.455101 -0.910203,0.303401 -0.758503,-1.213605 0.303401,-5.00612 0.1517,-5.764623 -0.1517,-0.910204 -1.213604,0.303401 -1.517006,0 -0.303401,-0.151701 0.151701,-2.882311 0.455102,-5.00612 0.303401,-2.123808 1.061904,-2.57891 1.061904,-3.489114 -0.1517,0 -1.365305,0.455102 -1.365305,0.455102 0,0 0.303401,-1.517006 1.972108,-4.095916 1.517006,-2.57891 0.910203,-3.185712 1.668706,-3.792515 -0.303401,-0.303401 -1.061904,-1.365305 -1.365305,-3.489114 -0.455102,-2.73061 0.151701,-4.247616 0.151701,-4.247616 0,0 -1.213605,-1.820408 -3.489114,-2.730611 -2.275509,-0.910204 -3.640814,-1.668707 -4.551018,-2.730611 -2.730611,-3.185713 -2.275509,-9.102036 -2.275509,-9.102036 0,0 3.792515,0.910204 5.764623,2.123808 1.972107,1.213605 5.309521,3.792515 5.309521,3.792515 0,0 0,0 0.1517,0 0.151701,-0.1517 0.151701,-0.606802 -0.1517,-1.820407 -0.455102,-1.972108 -5.612923,-6.068024 -8.495234,-5.764623 -2.882311,0.303402 -4.551018,0.606803 -7.281629,0.758503 -2.73061,0.303402 -5.309521,-3.792515 -4.854419,-4.095916 0.455102,-0.303401 3.337413,2.730611 5.00612,2.57891 1.668707,-0.1517 3.489114,-0.758503 3.337413,-1.972107 0,-0.455102 -1.972108,-4.247617 -5.916323,-7.129929 C 17.005118,25.055308 9.87519,23.690003 9.87519,23.234901 c 0,-0.455102 3.337413,-0.606803 2.275509,-0.910204 -1.061904,-0.303401 -1.517006,-7.888431 -1.061904,-7.888431 0.455102,0 1.517006,8.040132 6.068024,9.405437 3.185712,0.910204 2.882311,-1.061904 2.882311,-1.061904 0,0 0.910204,-6.523126 -1.061904,-9.102036 -1.820407,-2.57891 -2.882311,-9.5571376 -2.275509,-9.7088386 0.455102,-0.1517 1.213605,6.0680246 2.57891,6.2197246 1.365306,0 6.371425,-10.7707426 7.281629,-10.1639396 0.910204,0.455102 -3.792515,7.4333292 -5.00612,11.3775446 -0.910203,3.944216 0.606803,3.792515 1.365306,2.57891 0.758503,-1.365305 4.854419,-10.3156406 4.854419,-9.7088376 0.1517,0.606802 -0.606803,4.2476164 -2.57891,9.1020356 -2.42721,4.854419 -3.034012,5.612922 -2.275509,10.315641 2.427209,4.399317 5.764622,9.102035 8.495233,11.529245 0.606803,0 1.517006,-3.792515 1.972108,-3.640815 0.455102,0 -0.606802,3.792515 0.1517,4.702719 0.758503,0.758503 5.461222,2.730611 6.219725,3.792515 0.758503,1.061904 1.365305,-5.00612 1.668707,-5.00612 0.606802,0.758503 -0.606803,5.916324 1.061904,6.978228 0.910203,1.365305 2.427209,3.489114 3.640814,4.095916 0,0 1.213605,-0.758503 3.489114,-0.758503 2.275509,0 3.944216,0.758503 3.944216,0.758503 1.213604,-0.455102 2.73061,-2.730611 3.640814,-4.095916 1.668707,-1.061904 0.303401,-6.371425 1.061904,-6.978228 0.303401,0 0.910204,6.068024 1.668707,5.00612 0.758503,-1.061904 5.461221,-2.882311 6.219724,-3.792515 0.758503,-0.758503 -0.303401,-4.551018 0.151701,-4.702719 0.455102,0 1.213605,3.640815 1.972108,3.640815 2.882311,-2.42721 6.219724,-7.129928 8.646934,-11.529245 0.758503,-4.702719 0.151701,-5.461222 -2.275509,-10.315641 -1.972108,-4.8544192 -2.57891,-8.4952336 -2.57891,-9.1020356 0,-0.606803 4.095916,8.4952326 4.854419,9.7088376 0.758503,1.213605 2.275509,1.365306 1.365305,-2.57891 C 76.926855,7.4580386 72.375837,0.4798114 73.286041,0.0247094 c 0.910203,-0.455102 5.916323,10.3156406 7.281628,10.1639396 1.365306,-0.1517 1.972108,-6.2197246 2.57891,-6.2197246 0.455102,0 -0.455101,7.1299286 -2.427209,9.7088386 -1.820407,2.57891 -1.061904,9.102036 -1.061904,9.102036 0,0 -0.151701,1.820407 2.882311,1.061904 4.551023,-1.365305 5.612923,-9.405437 6.068023,-9.405437 0.4551,0.151701 -0.1517,7.58503 -1.0619,7.888431 -0.75851,0.455102 2.57891,0.606803 2.57891,1.061904 z"
     style="fill:#000000" /></svg>