<?xml version="1.0" encoding="UTF-8" standalone="no"?>
<!-- Created with Inkscape (http://www.inkscape.org/) -->

<svg
   xmlns:dc="http://purl.org/dc/elements/1.1/"
   xmlns:cc="http://creativecommons.org/ns#"
   xmlns:rdf="http://www.w3.org/1999/02/22-rdf-syntax-ns#"
   xmlns:svg="http://www.w3.org/2000/svg"
   xmlns="http://www.w3.org/2000/svg"
   xmlns:sodipodi="http://sodipodi.sourceforge.net/DTD/sodipodi-0.dtd"
   xmlns:inkscape="http://www.inkscape.org/namespaces/inkscape"
   width="512"
   height="512"
   id="svg2"
   sodipodi:version="0.32"
   inkscape:version="0.48.2 r9819"
   version="1.0"
   sodipodi:docname="pne_logo.svg"
   inkscape:output_extension="org.inkscape.output.svg.inkscape">
  <defs
     id="defs4">
    <inkscape:perspective
       sodipodi:type="inkscape:persp3d"
       inkscape:vp_x="0 : 526.18109 : 1"
       inkscape:vp_y="0 : 1000 : 0"
       inkscape:vp_z="744.09448 : 526.18109 : 1"
       inkscape:persp3d-origin="372.04724 : 350.78739 : 1"
       id="perspective10" />
    <inkscape:perspective
       id="perspective2452"
       inkscape:persp3d-origin="98.962639 : 65.619334 : 1"
       inkscape:vp_z="197.92528 : 98.429001 : 1"
       inkscape:vp_y="0 : 1000 : 0"
       inkscape:vp_x="0 : 98.429001 : 1"
       sodipodi:type="inkscape:persp3d" />
    <inkscape:perspective
       id="perspective2501"
       inkscape:persp3d-origin="372.04724 : 350.78739 : 1"
       inkscape:vp_z="744.09448 : 526.18109 : 1"
       inkscape:vp_y="0 : 1000 : 0"
       inkscape:vp_x="0 : 526.18109 : 1"
       sodipodi:type="inkscape:persp3d" />
    <inkscape:perspective
       id="perspective2510"
       inkscape:persp3d-origin="372.04724 : 350.78739 : 1"
       inkscape:vp_z="744.09448 : 526.18109 : 1"
       inkscape:vp_y="0 : 1000 : 0"
       inkscape:vp_x="0 : 526.18109 : 1"
       sodipodi:type="inkscape:persp3d" />
  </defs>
  <sodipodi:namedview
     id="base"
     pagecolor="#ffffff"
     bordercolor="#666666"
     borderopacity="1.0"
     inkscape:pageopacity="0.0"
     inkscape:pageshadow="2"
     inkscape:zoom="0.98994949"
     inkscape:cx="182.07979"
     inkscape:cy="275.63001"
     inkscape:document-units="px"
     inkscape:current-layer="layer1"
     showgrid="false"
     showguides="true"
     inkscape:guide-bbox="true"
     showborder="true"
     inkscape:window-width="1315"
     inkscape:window-height="871"
     inkscape:window-x="0"
     inkscape:window-y="0"
     inkscape:window-maximized="0" />
  <metadata
     id="metadata7">
    <rdf:RDF>
      <cc:Work
         rdf:about="">
        <dc:format>image/svg+xml</dc:format>
        <dc:type
           rdf:resource="http://purl.org/dc/dcmitype/StillImage" />
        <dc:title />
      </cc:Work>
    </rdf:RDF>
  </metadata>
  <g
     inkscape:groupmode="layer"
     id="layer4"
     inkscape:label="Rectangles_de_fond"
     style="display:inline"
     transform="translate(-202.71498,-189.07581)" />
  <g
     inkscape:label="Logo_SVG_parc"
     inkscape:groupmode="layer"
     id="layer1"
     transform="translate(-202.71498,-189.07581)"
     style="display:inline">
    <g
       id="g3003"
       transform="matrix(1.6666667,0,0,1.6666667,-129.14333,-473.38388)"
       inkscape:export-filename="/Users/sgrimault/Desktop/pne_logo.png"
       inkscape:export-xdpi="153.55"
       inkscape:export-ydpi="153.55">
      <rect
         style="fill:#81007b;fill-opacity:1;fill-rule:evenodd;stroke:#000000;stroke-width:0;stroke-linecap:butt;stroke-linejoin:miter;stroke-miterlimit:4;stroke-opacity:1;stroke-dasharray:none;display:inline"
         id="rect3289"
         width="300"
         height="300"
         x="202.71498"
         y="401.07581" />
      <path
         inkscape:connector-curvature="0"
         style="fill:#ffffff;fill-opacity:1;stroke:#000000;stroke-width:0;stroke-miterlimit:4;stroke-opacity:1;stroke-dasharray:none"
         d="m 333.91812,638.57744 c -0.51283,-0.50865 -2.29514,-1.19967 -3.96071,-1.53557 -2.19463,-0.44263 -3.10798,-1.15819 -3.31778,-2.59932 -0.3583,-2.4611 -1.60389,-2.5589 -2.86329,-0.22483 -1.09589,2.03105 -3.6448,1.5147 -3.63629,-0.73663 0.003,-0.81201 0.61459,-2.63462 1.35893,-4.05023 0.74434,-1.41562 1.35335,-3.13417 1.35335,-3.81902 0,-1.49951 1.4567,-1.64362 2.33679,-0.23118 0.43126,0.69211 0.89613,0.54551 1.46448,-0.46182 0.57616,-1.02118 0.39799,-1.90696 -0.57834,-2.87536 -0.77606,-0.76976 -1.41102,-1.95883 -1.41102,-2.6424 0,-0.79046 -0.82444,-0.42513 -2.26489,1.00361 -1.24568,1.23557 -2.26488,2.83465 -2.26488,3.55353 0,0.71887 -0.81536,1.30704 -1.81191,1.30704 -0.99655,0 -1.81191,-0.51668 -1.81191,-1.14818 0,-1.29503 -2.47156,-3.61253 -4.79637,-4.49739 -0.86066,-0.32757 -1.54531,-1.54075 -1.54531,-2.73824 0,-1.81822 -0.35537,-2.08268 -2.30248,-1.7135 -1.26637,0.24011 -2.23729,0.0829 -2.1576,-0.34926 0.0797,-0.43221 0.0966,-1.93081 0.0376,-3.33024 l -0.10728,-2.54441 -3.39733,2.07467 -3.39733,2.07469 1.58542,-2.41907 c 0.87198,-1.3305 1.58542,-2.59995 1.58542,-2.82101 0,-0.22107 -1.66449,-0.68085 -3.69886,-1.02175 -3.22929,-0.54117 -3.63593,-0.86853 -3.2032,-2.57867 0.33906,-1.33996 -0.0666,-2.30706 -1.28389,-3.06112 -0.97874,-0.60628 -1.77955,-1.7141 -1.77955,-2.46185 0,-0.74775 -1.01919,-1.82014 -2.26488,-2.3831 -3.11912,-1.40962 -2.84695,-2.60282 0.44475,-1.94983 2.70304,0.53622 2.70718,0.53054 1.70204,-2.32939 -0.55418,-1.57679 -1.71865,-3.30736 -2.58774,-3.8457 -1.88022,-1.16467 -1.35046,-4.64875 0.59431,-3.90854 0.70078,0.26673 1.50618,-0.11476 1.78977,-0.84777 0.92251,-2.3845 2.82613,-1.52872 2.32966,1.04728 -0.3108,1.6126 -0.13201,2.17977 0.55447,1.75896 0.55724,-0.34159 1.70827,0.18414 2.55783,1.1683 0.84958,0.98417 1.87964,1.58406 2.28903,1.3331 0.4094,-0.25097 0.74435,0.73115 0.74435,2.18248 0,1.45132 0.61152,3.14217 1.35894,3.75743 1.13534,0.93459 1.35893,0.80484 1.35893,-0.78857 0,-1.04897 0.40768,-1.90721 0.90595,-1.90721 0.49828,0 1.1761,-0.1011 1.50628,-0.22465 0.33017,-0.12355 0.64904,0.87946 0.70861,2.22893 0.10531,2.38639 2.59422,5.09814 4.73216,5.15588 2.13022,0.0575 3.92475,-1.09927 3.93827,-2.53869 0.008,-0.81202 0.38052,-2.05098 0.82864,-2.75323 0.69361,-1.08697 1.16306,-1.05048 3.15697,0.24536 2.94345,1.91294 2.96519,3.0875 0.0773,4.17654 -2.81495,1.06154 -3.1609,4.49295 -0.45298,4.49295 0.99655,0 1.81191,0.40437 1.81191,0.8986 0,0.49422 0.36951,0.89859 0.82114,0.89859 0.45163,0 0.61995,-0.76309 0.37405,-1.69577 -0.2459,-0.93267 -0.0407,-1.9449 0.45604,-2.2494 1.45592,-0.89249 3.93353,0.46664 3.3938,1.86173 -0.27216,0.70346 0.16365,2.27581 0.96847,3.49412 1.19805,1.81361 1.70539,2.01581 2.79903,1.11555 0.73467,-0.60476 1.87225,-1.17767 2.52797,-1.27313 1.3871,-0.20192 2.49918,3.34431 1.6981,5.41493 -0.302,0.78062 -0.0978,1.4193 0.45379,1.4193 0.55159,0 1.00288,-1.44741 1.00288,-3.21647 0,-3.074 0.11516,-3.19138 2.60013,-2.65003 2.17001,0.47275 2.71358,0.22441 3.28585,-1.50114 l 0.68572,-2.06758 0.41143,2.10097 c 0.34625,1.76808 0.79451,2.00943 2.82934,1.52335 2.78233,-0.66466 4.6828,-2.77381 4.6828,-5.19698 0,-0.92316 0.40768,-1.42856 0.90595,-1.12311 0.49828,0.30545 0.90596,1.36916 0.90596,2.36381 0,1.44386 0.50228,1.75021 2.49137,1.51951 1.37026,-0.15893 2.96764,-0.89487 3.54975,-1.63543 0.5821,-0.74056 1.35715,-1.05012 1.72232,-0.68791 0.36519,0.36221 1.15665,-0.01 1.75883,-0.82659 1.0043,-1.3623 1.37131,-1.3157 4.43654,0.56334 3.24205,1.9874 3.39604,1.99967 5.16521,0.4116 1.56393,-1.40383 1.94267,-1.45006 2.66032,-0.32472 0.46022,0.72169 0.84302,1.61544 0.85064,1.98611 0.0268,1.3012 2.99727,0.65725 4.14407,-0.89836 1.01031,-1.37043 1.54052,-1.42951 4.12991,-0.46006 2.17899,0.81579 3.13845,0.84318 3.59979,0.10279 0.35075,-0.56292 1.58642,-0.7711 2.7934,-0.47062 2.70609,0.67366 4.9178,-2.1859 3.55408,-4.59517 -0.78206,-1.38166 -0.93008,-1.39283 -1.42942,-0.10779 -0.42283,1.08811 -1.47224,1.3427 -4.35582,1.05668 -4.0804,-0.40472 -5.79862,-1.14226 -2.66109,-1.14226 1.05018,0 2.16138,-0.40437 2.46934,-0.8986 0.30795,-0.49422 0.12817,-0.89858 -0.39951,-0.89858 -0.52768,0 -0.95942,-0.85825 -0.95942,-1.90721 0,-1.64683 -0.19801,-1.74422 -1.45033,-0.71334 -0.79768,0.65664 -2.00291,1.27433 -2.67828,1.37264 -1.56148,0.22732 -3.4538,-1.98081 -2.71442,-3.16743 0.30832,-0.49482 -0.7777,-1.58863 -2.41338,-2.43068 -3.77015,-1.94088 -1.93631,-2.67261 2.29904,-0.91735 3.10566,1.28708 3.18949,1.26624 3.74546,-0.9309 0.44624,-1.76351 0.83212,-2.0306 1.79205,-1.24039 0.91083,0.74977 2.16967,0.68366 4.92755,-0.25878 3.14268,-1.07394 3.86105,-1.07836 4.73894,-0.0292 1.15302,1.378 5.86269,1.68444 6.64294,0.43223 0.72762,-1.16775 -2.34273,-2.11536 -3.41333,-1.05347 -1.34442,1.3335 -3.47322,-1.82166 -2.23086,-3.30645 0.51809,-0.61917 1.51637,-1.12578 2.21841,-1.12578 0.70204,0 1.51109,-0.60655 1.7979,-1.34789 0.63271,-1.63541 2.72059,-1.77535 3.35144,-0.22464 0.27298,0.67101 0.48575,0.49012 0.52847,-0.4493 0.0982,-2.15967 2.46836,-1.98866 3.05069,0.2201 0.48811,1.85134 3.01346,3.34607 4,2.36754 0.30765,-0.30513 -0.1808,-1.36601 -1.08543,-2.35749 -0.90463,-0.99148 -1.29984,-1.80269 -0.87824,-1.80269 0.4216,0 0.0148,-0.5452 -0.90395,-1.21157 -1.78774,-1.29661 -1.22844,-3.28138 0.92468,-3.28138 0.718,0 1.30546,-0.33697 1.30546,-0.74883 0,-1.47589 -1.12844,-1.81857 -3.29632,-1.00104 -2.97271,1.12104 -4.07984,-1.4059 -1.42428,-3.25081 1.02259,-0.71043 2.12675,-2.49966 2.45367,-3.97605 0.32694,-1.4764 0.97073,-2.91504 1.43068,-3.19699 1.89451,-1.16136 0.70877,-3.00067 -2.1081,-3.27006 -2.81548,-0.26925 -2.94436,-0.44875 -2.94436,-4.1009 0,-2.45657 -0.40406,-3.81921 -1.13244,-3.81901 -1.33157,3.5e-4 -1.42235,-0.84968 -0.28166,-2.63769 0.68772,-1.078 1.06141,-1.09389 2.2729,-0.0966 0.79743,0.65642 1.73398,0.91172 2.08122,0.5673 0.34723,-0.34441 0.0639,-0.97407 -0.62973,-1.39924 -1.05731,-0.64815 -1.01039,-1.15251 0.29037,-3.1216 0.8533,-1.2917 1.29556,-2.75921 0.98282,-3.26113 -0.31274,-0.50191 -0.10605,-1.46541 0.45932,-2.14109 0.75287,-0.89979 0.75795,-1.39403 0.019,-1.84703 -0.69681,-0.42715 -0.54135,-1.13103 0.50249,-2.27507 1.43775,-1.57579 1.38542,-1.64282 -1.07343,-1.37474 -1.42169,0.15499 -2.78872,-0.0158 -3.03786,-0.3796 -0.81311,-1.18725 -4.52977,-1.97836 -4.52977,-0.96419 0,0.52752 -0.41416,0.95915 -0.92034,0.95915 -0.50619,0 -0.83403,-1.12359 -0.72854,-2.49684 0.2655,-3.45605 -0.84086,-5.09974 -2.50857,-3.72692 -0.70305,0.57875 -1.27828,1.69596 -1.27828,2.48268 0,1.27208 -0.16985,1.26193 -1.53455,-0.0917 -1.42224,-1.41068 -1.65449,-1.4144 -3.17349,-0.0509 -1.56098,1.40118 -1.59297,1.34033 -0.67237,-1.27901 0.53161,-1.51261 1.7544,-3.45739 2.71732,-4.32173 1.40289,-1.25928 1.53341,-1.83127 0.65687,-2.87885 -0.60163,-0.71903 -1.51748,-2.14209 -2.0352,-3.16235 -1.20726,-2.3791 -3.20621,-3.05064 -3.20621,-1.07712 0,0.95712 -0.48547,1.33413 -1.31256,1.01934 -0.78187,-0.2976 -1.52839,0.17493 -1.84639,1.16873 -0.29362,0.91758 -1.10908,1.88726 -1.81215,2.15486 -0.89601,0.34103 -1.11428,0.0299 -0.72984,-1.04023 0.30165,-0.83972 -0.36022,-0.41476 -1.47083,0.94436 -2.32839,2.84941 -5.22346,3.49801 -3.79477,0.85018 0.50402,-0.93412 0.54286,-2.1534 0.0917,-2.87752 -1.02415,-1.64366 -0.0172,-3.25407 1.03985,-1.66296 0.65185,0.98122 1.07691,0.8718 2.17783,-0.56063 1.78247,-2.3192 1.35057,-4.2928 -1.18114,-5.39736 -1.11821,-0.48786 -2.0331,-1.53203 -2.0331,-2.32036 0,-0.85247 -1.27238,-1.82067 -3.1397,-2.3891 l -3.13972,-0.95578 0.11031,2.9103 c 0.13368,3.52679 -0.82355,5.27918 -2.5291,4.63001 -0.73123,-0.27831 -1.26729,0.0759 -1.26729,0.83733 0,0.72584 -0.40768,1.31969 -0.90595,1.31969 -1.34666,0 -1.09617,-2.92512 0.43632,-5.09528 1.37655,-1.94933 1.12795,-2.4625 -2.07658,-4.28667 -1.59451,-0.90766 -0.91803,9.26765 0.6813,10.24806 0.83702,0.5131 0.77915,0.80723 -0.23475,1.19314 -0.8632,0.32855 -1.55661,-0.19039 -1.93412,-1.44748 -0.58113,-1.93511 -0.59801,-1.93675 -1.34686,-0.13127 -0.4171,1.0056 -1.33129,2.3 -2.03153,2.87644 -1.06057,0.87303 -1.21223,0.53018 -0.90819,-2.05303 0.20075,-1.70561 0.003,-3.10109 -0.43872,-3.10109 -1.16966,0 -3.7058,3.15338 -4.07804,5.07056 -0.17602,0.90653 -1.02878,1.78362 -1.89504,1.94909 -1.24086,0.23703 -1.57515,-0.33272 -1.57566,-2.68546 -5.5e-4,-2.61226 -0.3078,-3.00398 -2.45301,-3.12751 -3.57433,-0.20581 -4.67704,1.805 -3.58519,6.5376 0.9445,4.09397 -0.16078,8.43037 -2.14879,8.43037 -0.53837,0 -0.68796,-0.46685 -0.33242,-1.03743 0.4005,-0.64276 0.24852,-0.79351 -0.39951,-0.39626 -1.4863,0.91111 -1.29557,2.33229 0.313,2.33229 1.51147,0 1.75262,1.58633 0.53184,3.49857 -0.48322,0.7569 -1.5856,1.04816 -2.78739,0.73644 -1.81622,-0.47109 -1.86838,-0.38452 -0.60353,1.00176 0.86115,0.94382 1.28202,2.79851 1.11339,4.90649 -0.35904,4.48823 -1.00282,4.93152 -2.20292,1.5169 -0.57049,-1.62323 -1.39817,-2.55716 -1.96065,-2.21236 -0.68748,0.42143 -0.67225,0.9566 0.0519,1.822 0.78758,0.94125 0.59154,1.68704 -0.84564,3.21715 -1.37748,1.46652 -1.6157,2.29683 -0.90326,3.14829 0.5322,0.63605 0.70464,1.57853 0.3832,2.09441 -0.32145,0.51587 0.0511,0.93795 0.82796,0.93795 1.73841,0 1.7567,1.53767 0.0535,4.49296 -1.70323,2.95529 -1.68494,4.49296 0.0535,4.49296 0.77682,0 1.17507,-0.38087 0.88502,-0.84638 -0.45737,-0.73401 4.21339,-6.34236 5.28206,-6.34236 0.2161,0 0.39291,1.41528 0.39291,3.14507 0,2.5917 -0.33332,3.14507 -1.89447,3.14507 -1.8576,0 -1.86026,0.0248 -0.13698,1.27467 1.6907,1.22622 1.66286,1.2982 -0.7328,1.89458 -2.71158,0.67504 -2.91787,1.08501 -1.57046,3.12089 0.79297,1.19812 0.99112,1.19812 1.78331,0 0.49018,-0.74133 1.0496,-1.75225 1.24317,-2.24647 0.19356,-0.49423 1.74889,0.41607 3.45629,2.02289 2.41618,2.27385 3.34558,2.68221 4.19255,1.84211 0.84699,-0.8401 1.08822,-0.68097 1.08822,0.71782 0,0.98845 -0.45354,2.24703 -1.00788,2.79686 -1.92694,1.91129 -0.48266,2.99962 2.16834,1.63395 1.38568,-0.71383 3.11832,-1.06991 3.85031,-0.7913 0.732,0.27862 1.33091,0.0989 1.33091,-0.39941 0,-1.35878 6.54633,-5.03935 8.48021,-4.76786 1.07891,0.15147 1.52724,-0.19401 1.24569,-0.95993 -0.46419,-1.26269 -0.92032,-1.28792 -3.8372,-0.21216 -1.78258,0.65742 -1.78422,0.63696 -0.10146,-1.26445 1.47929,-1.67149 1.54051,-2.1382 0.45298,-3.45327 -1.12898,-1.3652 -1.04003,-1.46496 0.87053,-0.97634 1.77478,0.45392 2.05203,0.25604 1.67024,-1.19205 -0.56756,-2.15273 -0.48048,-2.15077 2.07436,0.047 1.80941,1.55652 1.91345,1.97789 0.81809,3.31331 -1.10883,1.3518 -1.06171,1.45806 0.40455,0.91244 0.91273,-0.33965 2.2249,-0.61754 2.91591,-0.61754 0.74461,0 1.04398,-0.54908 0.73494,-1.34788 -0.33021,-0.85353 0.0125,-1.3479 0.93439,-1.3479 1.58531,0 1.96627,-1.37823 0.61066,-2.20923 -0.46486,-0.28496 -0.81781,-2.22956 -0.78434,-4.32134 0.12164,-7.60171 0.0736,-7.72001 -3.12673,-7.70905 -4.60687,0.0158 -8.88598,-1.12311 -8.22221,-2.18838 0.36942,-0.59288 0.025,-0.7347 -0.9152,-0.37686 -0.95122,0.36207 -1.50755,0.12229 -1.50755,-0.64973 0,-1.11452 -2.58079,-2.7499 -3.26642,-2.06985 -0.15907,0.15778 -0.90559,1.68367 -1.65892,3.39087 -1.29046,2.92442 -1.40375,2.98557 -1.9583,1.05697 -0.43048,-1.4971 -1.04521,-1.90329 -2.2882,-1.51199 -3.13839,0.98799 -1.73824,-1.1885 2.59672,-4.03653 3.68904,-2.42365 4.80957,-2.73768 7.9271,-2.22158 1.99693,0.33058 4.71391,1.36119 6.03775,2.29024 2.37434,1.6663 2.40054,1.66482 1.93273,-0.10956 -0.72935,-2.76639 1.32902,-2.13145 2.90792,0.89701 0.87227,1.67307 2.16996,2.74169 3.4206,2.81682 1.10832,0.0666 3.03433,0.16768 4.28002,0.22465 1.24568,0.057 2.36986,0.30578 2.49817,0.5529 0.54114,1.04222 -2.08673,6.29014 -3.14977,6.29014 -0.63817,0 -1.16031,0.54852 -1.16031,1.21892 0,0.77535 0.98428,1.1841 2.70478,1.12324 2.06209,-0.0729 2.59423,-0.44287 2.23948,-1.55683 -0.30906,-0.97052 0.20441,-1.63484 1.52923,-1.97848 2.71719,-0.70479 3.67726,0.0694 2.5885,2.0872 -0.49962,0.92597 -0.9084,2.5062 -0.9084,3.51162 0,1.25577 -0.42543,1.66614 -1.35893,1.31083 -0.77923,-0.29659 -1.4026,0.003 -1.46129,0.70215 -0.48576,5.78672 -0.44395,7.06022 0.23174,7.06022 0.42711,0 0.77657,1.05417 0.77657,2.34263 0,1.64396 -0.38003,2.19797 -1.27426,1.8576 -0.81076,-0.30858 -1.6819,0.49114 -2.39496,2.19861 -0.75438,1.80646 -1.94759,2.84765 -3.65057,3.18548 -4.74762,0.9418 -4.21066,4.45854 1.00815,6.60267 3.66243,1.5047 3.39088,2.96147 -0.46871,2.51455 -1.7361,-0.20104 -3.2915,0.0361 -3.45645,0.52688 -0.16494,0.49081 -1.7483,0.004 -3.51856,-1.08069 -3.76759,-2.30957 -4.36373,-2.40812 -4.36373,-0.72133 0,0.68846 -0.61152,1.4845 -1.35893,1.76898 -0.74741,0.28448 -1.35893,0.0823 -1.35893,-0.44929 0,-0.5316 -0.62695,-0.7279 -1.39322,-0.43625 -0.78684,0.29948 -1.61376,-0.0397 -1.89991,-0.77936 -0.44262,-1.14407 -0.67552,-1.14216 -1.84233,0.0152 -1.84966,1.83463 -3.68193,1.65543 -4.83004,-0.47239 -1.11556,-2.06751 -2.71786,-2.38907 -2.71786,-0.54543 0,0.68846 -0.64486,1.49719 -1.43303,1.79718 -2.0759,0.79012 -2.19079,0.72596 -2.19079,-1.22355 0,-1.25281 -0.4232,-1.6079 -1.45037,-1.21694 -0.79769,0.30361 -1.81065,-0.0124 -2.251,-0.70215 -0.55964,-0.87664 -0.80483,-0.37506 -0.81453,1.66625 -0.008,1.60623 -0.42155,2.92042 -0.91982,2.92042 -0.49828,0 -0.90596,-0.8062 -0.90596,-1.79155 0,-2.36603 -3.31426,-1.9288 -5.47901,0.72284 l -1.56959,1.92259 -0.39248,-2.65241 c -0.21586,-1.45883 -0.027,-3.01497 0.41979,-3.45809 0.47906,-0.47517 -0.057,-1.02206 -1.30674,-1.33319 -1.26412,-0.3147 -2.53837,-1.62949 -3.15847,-3.25899 -1.16771,-3.06845 -4.23251,-3.7466 -5.23765,-1.15895 -0.57211,1.47287 -0.67107,1.46608 -1.56125,-0.107 -0.70624,-1.24802 -0.63799,-1.87108 0.2656,-2.42499 0.91466,-0.5607 0.67787,-0.94289 -0.95545,-1.54219 -1.35898,-0.49864 -1.78701,-1.03244 -1.14395,-1.42664 0.72305,-0.44324 0.50149,-1.48564 -0.74767,-3.5177 -2.57353,-4.18646 -2.38085,-5.73019 0.4829,-3.86904 2.69581,1.752 3.04329,0.27681 0.45298,-1.92305 -2.62573,-2.22995 -2.4547,-4.38364 0.20158,-2.53823 1.10741,0.76936 2.5343,1.39884 3.17084,1.39884 2.12883,0 1.18907,-1.49723 -2.01349,-3.20791 -1.74396,-0.93155 -3.17084,-1.97726 -3.17084,-2.3238 0,-0.34654 -0.63556,-1.26045 -1.41234,-2.03092 -0.77679,-0.77048 -1.54567,-2.51792 -1.70861,-3.88321 -0.16296,-1.36528 -0.34276,-2.7856 -0.39957,-3.15628 -0.0568,-0.37067 -0.55852,-0.67394 -1.11492,-0.67394 -0.57559,0 -0.80114,0.7983 -0.52329,1.85215 0.73276,2.77933 -2.00788,3.38545 -4.04193,0.89392 -1.91136,-2.34125 -2.41491,-5.64077 -0.58365,-3.82438 1.94137,1.92559 3.53009,1.28754 2.90869,-1.16817 -0.42314,-1.67225 -0.20963,-2.24648 0.83524,-2.24648 0.77202,0 1.65563,0.40437 1.96358,0.8986 0.99691,1.59993 2.40375,0.95099 1.82942,-0.84387 -0.38596,-1.20619 0.0135,-2.04559 1.29788,-2.72739 1.911,-1.01442 2.42301,-4.03348 1.04887,-6.18454 -0.54293,-0.84989 -0.96653,-0.91794 -1.39853,-0.22465 -0.94478,1.51627 -2.06178,1.19007 -2.5737,-0.7516 -0.26585,-1.00837 0.2099,-2.34778 1.12601,-3.17011 1.45935,-1.30996 1.70842,-1.26008 3.11064,0.62289 l 1.52427,2.04687 -0.55569,-2.69578 c -1.58208,-7.67501 -1.56801,-8.50388 0.155,-9.13591 0.92591,-0.33962 1.94547,-1.00501 2.2657,-1.47862 0.32022,-0.47361 1.58981,-0.61027 2.82132,-0.30369 1.82553,0.45444 2.17738,1.01633 1.90498,3.04204 l -0.33412,2.48463 0.9968,-2.50439 c 1.07488,-2.70058 2.14906,-2.70074 7.49571,-10e-4 1.68089,0.84873 2.90584,1.00268 3.47626,0.43688 0.57044,-0.56579 0.53375,-1.08638 -0.10409,-1.47738 -1.79507,-1.10041 -1.05743,-3.19347 1.12544,-3.19347 1.60584,0 2.09313,-0.48334 2.0384,-2.02183 -0.0415,-1.16547 0.40772,-1.92667 1.06051,-1.79717 1.50511,0.29857 1.42798,-0.25245 -0.27128,-1.9379 -1.011,-1.00279 -1.23626,-2.27772 -0.80513,-4.55714 0.70264,-3.71498 2.45673,-4.31137 2.04031,-0.6937 -0.29681,2.57861 0.0348,2.93915 2.65991,2.89184 1.43454,-0.0259 1.41807,-0.15412 -0.17315,-1.34788 -0.96722,-0.72563 -1.3749,-1.3466 -0.90596,-1.37996 0.46894,-0.0333 2.17758,-0.23213 3.79698,-0.44173 2.82244,-0.36531 3.95504,0.67534 2.02362,1.85932 -1.03482,0.63435 -0.33683,2.23743 0.9742,2.23743 0.46886,0 0.85248,-0.55601 0.85248,-1.23557 0,-0.67956 1.22304,-1.47818 2.71786,-1.77472 3.18268,-0.63136 3.35795,-1.36093 0.94432,-3.9306 -1.76697,-1.8812 -1.76487,-1.89385 0.56694,-3.40929 1.93063,-1.25471 2.47676,-1.30777 3.11861,-0.30307 1.03962,1.62738 1.003,2.56592 -0.10009,2.56592 -0.49828,0 -0.90596,0.60655 -0.90596,1.34789 0,2.30144 3.58593,1.56371 4.54363,-0.93476 0.6855,-1.78835 1.22013,-2.11161 2.46896,-1.49286 2.39998,1.18913 9.29459,1.31738 9.29459,0.17289 0,-0.66906 0.50247,-0.70074 1.58485,-0.0999 1.14558,0.63587 2.02318,0.48625 3.16624,-0.5398 1.46771,-1.31746 1.62213,-1.21745 2.14815,1.39126 0.6984,3.46365 2.7019,5.36909 4.14272,3.93997 0.54982,-0.54535 2.1046,-0.77237 3.45505,-0.50447 1.73573,0.34433 2.61801,0.0667 3.01028,-0.94727 0.83684,-2.16303 3.935,-1.76482 4.57055,0.58749 0.93955,3.47739 0.6394,4.26831 -1.61977,4.26831 -1.20494,0 -2.83566,0.24545 -3.62382,0.54544 -2.61621,0.99577 -1.48317,2.15034 2.11026,2.15034 2.8248,0 4.00701,-0.54663 5.83021,-2.69578 2.43669,-2.8723 4.21582,-3.48757 4.21582,-1.45792 0,0.68083 0.60758,1.73801 1.35017,2.3493 0.89099,0.73345 1.15909,1.9169 0.78832,3.47975 l -0.56184,2.36831 1.90947,-1.9629 c 1.78072,-1.83053 2.09102,-1.87304 4.60216,-0.63051 1.72218,0.85216 2.5108,1.80254 2.18803,2.63683 -0.3121,0.80672 0.0508,1.30446 0.95119,1.30446 1.59961,0 2.02643,-3.13853 0.5499,-4.04365 -1.58716,-0.97295 -0.97339,-3.14507 0.8887,-3.14507 1.22062,0 1.9704,0.79039 2.34413,2.47112 0.30222,1.35912 0.64842,2.87165 0.76935,3.36118 0.12093,0.48953 0.79871,-0.28934 1.50618,-1.73083 0.70746,-1.44149 1.89782,-2.80238 2.64523,-3.02421 1.04571,-0.31037 1.11676,-0.14758 0.30827,0.70619 -0.75335,0.79556 -0.78927,1.85326 -0.1269,3.73788 0.79009,2.24803 0.56233,3.17006 -1.57405,6.3721 -1.50278,2.25242 -2.09789,3.87598 -1.4939,4.07567 0.60553,0.20019 0.78909,1.39722 0.46257,3.01653 -0.44854,2.22451 -0.20958,2.77066 1.39432,3.18669 2.21616,0.57483 2.51883,2.28812 0.6727,3.80782 -0.97659,0.80391 -1.60322,0.70213 -2.76367,-0.44889 -1.39699,-1.38563 -1.58948,-1.37224 -2.78503,0.19364 -1.60278,2.09925 -1.64645,2.77861 -0.2095,3.25831 0.88775,0.29637 0.86925,0.69434 -0.0856,1.84186 -0.66995,0.80509 -1.02916,1.98285 -0.79824,2.61726 0.25052,0.68826 0.90222,0.13409 1.61593,-1.37414 0.78022,-1.64875 2.12357,-2.71157 3.86362,-3.05675 1.69803,-0.33685 3.19976,-1.49515 4.13192,-3.18702 3.04125,-5.51978 4.10908,-6.39795 6.33986,-5.21376 1.63488,0.86784 1.82424,1.33418 0.96081,2.36609 -0.84361,1.00824 -0.80741,1.28819 0.168,1.29898 1.0016,0.0111 0.98717,0.17452 -0.0742,0.84047 -0.72724,0.45631 -1.92302,0.49065 -2.66883,0.0767 -0.96846,-0.53757 -1.68596,-0.11016 -2.53273,1.50872 -1.55215,2.96746 -1.45857,3.83991 0.18136,1.69076 1.093,-1.43238 1.38989,-1.49151 1.82623,-0.36368 0.75014,1.93895 -0.20677,6.29569 -1.5714,7.1545 -0.86149,0.54217 -0.75779,0.73657 0.39832,0.74674 1.29183,0.0114 1.4136,0.40351 0.70189,2.26024 -0.55367,1.44444 -0.54566,2.24648 0.0224,2.24648 1.40764,0 1.02194,2.45081 -0.4754,3.02073 -0.74742,0.28447 -1.35894,1.33865 -1.35894,2.34262 0,1.91105 0.69484,2.19415 3.11988,1.27115 1.12706,-0.42899 1.2211,-0.83514 0.41614,-1.79719 -0.85233,-1.01865 -0.45746,-1.24294 2.18829,-1.24294 3.96632,0 4.76451,1.04888 2.40792,3.16424 -1.88282,1.69007 -2.47266,5.82167 -0.83112,5.82167 0.52768,0 0.74409,0.34559 0.4809,0.76798 -0.26319,0.42238 0.5281,1.70596 1.75844,2.8524 2.7929,2.60247 2.92982,6.30123 0.2937,7.93414 -1.69322,1.04884 -1.87316,1.02254 -1.3985,-0.20437 0.29962,-0.77444 0.19761,-1.6209 -0.22669,-1.881 -0.42431,-0.26011 -1.03995,0.22107 -1.3681,1.06928 -0.47694,1.23279 -0.7483,1.29879 -1.35258,0.32902 -0.41576,-0.66726 -1.23574,-0.91905 -1.82219,-0.55956 -0.78048,0.47845 -0.67039,1.08749 0.41071,2.27239 1.64795,1.80616 0.28687,3.48485 -1.6251,2.00433 -1.58047,-1.22381 -5.16956,-1.96891 -5.16956,-1.07321 0,0.41958 -0.81371,0.60744 -1.80825,0.41747 -2.37728,-0.4541 -4.22675,2.69331 -2.67346,4.54969 0.59386,0.70976 1.64135,1.29046 2.32775,1.29046 1.5375,0 1.53936,0.13614 0.0411,3.00058 -1.10325,2.10925 -1.33064,2.18469 -2.64761,0.87843 -1.81658,-1.80182 -4.29906,-0.92841 -4.29906,1.51253 0,2.0357 2.84484,3.66584 3.41849,1.95885 0.19598,-0.58314 0.73003,-1.06025 1.18677,-1.06025 1.09789,0 1.06181,3.28375 -0.0589,5.3608 -1.30593,2.42032 0.68754,2.81983 6.91061,1.38499 2.90853,-0.67062 5.44873,-1.06011 5.64491,-0.86553 0.19617,0.19457 -0.91902,1.07403 -2.47818,1.95436 -1.55916,0.88032 -2.83742,2.05654 -2.84057,2.61381 -0.003,0.55726 -0.6955,1.56817 -1.53856,2.24647 -1.30066,1.04647 -1.41878,1.04547 -0.77985,-0.007 0.51707,-0.85139 0.3665,-1.11204 -0.48057,-0.83198 -0.67846,0.22432 -1.50993,1.38879 -1.84771,2.5877 -0.33778,1.19893 -0.65479,1.72765 -0.70446,1.17495 -0.15736,-1.75116 -7.55672,-2.22231 -9.36794,-0.59651 -1.46432,1.31443 -1.59381,1.30089 -1.59381,-0.16652 0,-3.10092 -2.46184,0.29099 -2.97719,4.10196 -0.61095,4.51803 -1.22477,5.19359 -2.78987,3.07058 -0.691,-0.93732 -1.81582,-1.42561 -2.59811,-1.12786 -0.75874,0.28879 -1.8301,0.0782 -2.38079,-0.46804 -1.81389,-1.79914 -2.3262,0.23809 -0.73273,2.9137 1.52441,2.55965 1.51224,2.65108 -0.5006,3.75953 -1.13466,0.62485 -2.33479,1.15041 -2.66698,1.16792 -0.33218,0.0175 -0.90972,0.33512 -1.28343,0.70579 -0.3737,0.37067 -1.42688,0.67394 -2.34039,0.67394 -1.98788,0 -2.15009,1.17444 -0.36516,2.64377 1.03636,0.85311 1.49614,0.69524 2.29676,-0.78856 0.55056,-1.02037 1.77797,-1.85521 2.72758,-1.85521 0.94961,0 1.97853,-0.40436 2.28648,-0.89858 0.87016,-1.39652 2.52016,-1.05737 1.95558,0.40195 -0.38582,0.99724 0.48952,1.37534 3.75338,1.62128 l 4.25653,0.32074 -2.94435,1.27149 c -2.08649,0.90104 -2.94435,1.86863 -2.94435,3.32097 0,1.12722 -0.36407,2.04948 -0.80902,2.04948 -0.44497,0 -1.04731,0.6159 -1.33855,1.36867 -0.43056,1.1129 -0.19817,1.1928 1.24342,0.42756 0.97511,-0.51763 2.753,-0.69716 3.95087,-0.39895 1.19786,0.2982 3.62389,0.14618 5.39116,-0.33782 2.56417,-0.70225 3.11982,-0.63854 2.75077,0.31536 -0.25436,0.65746 -1.65282,1.60696 -3.10769,2.11001 -1.45488,0.50305 -2.64523,1.35787 -2.64523,1.89959 0,0.64302 -2.12287,0.89321 -6.11519,0.72069 -3.36336,-0.14534 -6.99932,0.0558 -8.07991,0.44703 -1.50605,0.54525 -2.05174,0.33547 -2.3375,-0.89859 -0.31082,-1.3423 -0.56461,-1.21767 -1.52688,0.74987 -0.97229,1.98805 -1.61993,2.29749 -4.11153,1.96446 -2.11142,-0.28224 -3.11298,0.007 -3.50113,1.00994 -0.9147,2.36432 -3.32133,1.61541 -3.89122,-1.2109 -0.33335,-1.6532 -1.24206,-2.80634 -2.46872,-3.13281 -2.80936,-0.74766 -8.73826,-0.65739 -8.722,0.13279 0.0337,1.63636 1.55256,2.78096 4.06587,3.06399 2.00841,0.22617 2.79026,0.83187 3.00442,2.32756 0.15947,1.11378 -0.18922,2.02183 -0.7764,2.02183 -0.58623,0 -0.84849,-0.56191 -0.58279,-1.2487 0.33297,-0.86064 -0.16503,-1.20972 -1.60243,-1.12324 l -2.08553,0.12546 2.28882,2.10439 c 1.89477,1.74208 2.64969,1.9413 4.38487,1.15712 1.32542,-0.59899 2.29414,-0.62935 2.63485,-0.0825 0.29634,0.47558 -0.0968,0.86471 -0.8736,0.86471 -0.97385,0 -1.4124,0.86029 -1.4124,2.77064 0,1.83713 -0.38156,2.6319 -1.13245,2.35881 -0.62284,-0.22652 -1.02042,-0.89682 -0.8835,-1.48956 0.13691,-0.59274 -0.19629,-0.80477 -0.74045,-0.4712 -0.55916,0.34276 -1.20399,-0.20754 -1.48294,-1.26554 -0.27146,-1.02962 -1.73353,-2.48559 -3.24905,-3.23548 -3.25911,-1.61264 -3.38307,-1.62967 -3.38307,-0.46486 0,0.49422 0.56161,0.89859 1.24801,0.89859 0.6864,0 1.71655,0.55999 2.28923,1.24441 0.83195,0.99429 0.56561,1.36282 -1.32505,1.83348 -2.65758,0.66159 -5.836,-0.0689 -5.836,-1.34126 0,-0.46091 -1.06281,-0.83803 -2.36182,-0.83803 -1.7164,0 -2.22075,0.36459 -1.84564,1.33417 0.65921,1.70393 -2.22051,3.31801 -3.98737,2.23491 -1.03736,-0.63592 -1.07354,-1.02562 -0.17768,-1.9142 1.29365,-1.28314 1.47491,-2.55348 0.36434,-2.55348 -0.41829,0 -1.22491,1.01092 -1.79249,2.24648 -0.70358,1.53165 -1.75882,2.24648 -3.31626,2.24648 -2.50725,0 -3.07573,-1.30367 -0.92537,-2.12214 1.81799,-0.69196 1.74157,-3.26941 -0.0969,-3.26941 -0.92189,0 -1.2646,-0.49437 -0.93439,-1.34788 0.28681,-0.74135 0.15571,-1.34789 -0.29134,-1.34789 -1.84211,0 -3.44677,2.84606 -4.0196,7.12926 -0.78651,5.88073 -2.00102,5.92257 -1.59109,0.0548 0.26709,-3.82334 0.0971,-4.41606 -1.13245,-3.94808 -0.89867,0.34204 -1.44672,0.0761 -1.44672,-0.70216 0,-0.68905 -0.81946,-1.31403 -1.82101,-1.38886 -1.00155,-0.0748 -2.47696,-0.78669 -3.27868,-1.58191 -2.95346,-2.92944 -2.37225,-0.3246 0.63184,2.83182 1.7099,1.79661 2.59931,2.97978 1.97647,2.62927 -1.64051,-0.92318 -1.43748,2.13804 0.2656,4.00461 1.18687,1.30083 1.20355,1.6063 0.1104,2.02237 -0.70821,0.26956 -1.70724,0.0739 -2.22006,-0.43474 z m 7.89231,-12.78288 c 0.72523,-0.86675 0.76032,-1.45213 0.11094,-1.85022 -1.26504,-0.77549 -2.76186,0.21265 -2.76186,1.82325 0,1.64988 1.28207,1.66293 2.65092,0.027 z m 43.646,-5.74025 c -1.19117,-0.39384 -3.71707,1.40419 -3.71707,2.64592 0,0.4451 1.07487,0.11072 2.3886,-0.74307 1.31373,-0.85379 1.91154,-1.71008 1.32847,-1.90285 z m -41.416,-0.34402 c -0.29394,-0.47173 -1.12588,-0.63257 -1.84877,-0.35743 -0.73397,0.27936 -1.06994,0.10802 -0.76085,-0.38803 0.30442,-0.48857 0.14581,-0.8883 -0.35246,-0.8883 -1.49112,0 -2.23629,1.94582 -1.02867,2.6861 1.46978,0.90099 4.68034,0.0544 3.99075,-1.05234 z m 18.4927,0.88229 c 1.71919,-1.70521 1.30232,-3.3022 -0.72476,-2.77642 -1.00282,0.26011 -1.81191,1.2257 -1.81191,2.16235 0,1.94034 0.96422,2.17375 2.53667,0.61407 z m -40.9328,-1.78908 c 0.37369,-0.59972 0.12112,-1.25064 -0.57452,-1.48063 -0.68275,-0.22574 -2.20035,-1.36161 -3.37242,-2.52416 -2.56558,-2.54472 -2.65282,-2.55498 -3.79091,-0.44572 -1.81869,3.37064 5.71189,7.70194 7.73785,4.45051 z m -5.08968,-0.72697 c 0,-1.05469 0.69634,-1.05469 3.17084,0 1.60558,0.68433 1.5282,0.77946 -0.67946,0.83542 -1.37026,0.0347 -2.49138,-0.3412 -2.49138,-0.83542 z m 30.80245,-1.44403 c 0,-0.94759 -0.49266,-1.25651 -1.43303,-0.8986 -0.78816,0.30001 -1.70544,0.55163 -2.0384,0.5592 -0.81056,0.0184 1.92463,1.75211 2.79196,1.76967 0.37371,0.008 0.67947,-0.63605 0.67947,-1.43027 z m 51.22367,-2.21012 c 1.06235,-1.70494 -0.48706,-2.12565 -2.06487,-0.56068 -1.41233,1.40087 -1.41481,1.51906 -0.0319,1.51906 0.82478,0 1.76832,-0.43128 2.09676,-0.95838 z m -43.97604,-2.63599 c 0,-0.49423 -0.63558,-0.8986 -1.4124,-0.8986 -0.77682,0 -1.18683,-0.36199 -0.91115,-0.80443 0.27568,-0.44243 -0.14129,-1.04898 -0.92659,-1.34789 -4.0476,-1.54058 -4.16735,0.39661 -0.14719,2.38113 3.63106,1.79242 3.39733,1.74635 3.39733,0.66979 z m -53.4513,-7.74806 c 0,-0.1866 -0.61152,-0.33927 -1.35893,-0.33927 -0.74742,0 -1.35893,0.65607 -1.35893,1.45792 0,1.19404 0.24595,1.25544 1.35893,0.33927 0.74741,-0.61526 1.35893,-1.27133 1.35893,-1.45792 z m 83.82889,-15.5702 c -0.33346,-0.53517 -1.02933,-0.7137 -1.54637,-0.39675 -0.60868,0.37313 -0.51602,0.83622 0.26285,1.31368 1.45384,0.89121 2.11561,0.41847 1.28352,-0.91693 z M 362.31013,566.9351 c -0.86662,-1.39081 -2.03039,-1.20803 -2.65935,0.41767 -0.30937,0.79968 -0.1575,1.16037 0.35605,0.84556 0.49257,-0.30195 0.89558,-0.0399 0.89558,0.58234 0,0.83072 0.2679,0.86563 1.00821,0.13133 0.55451,-0.55 0.7343,-1.4396 0.39951,-1.9769 z m -20.67436,0.0204 c -0.0718,-0.94551 -0.62391,-1.51008 -1.24542,-1.27352 -0.61404,0.23371 -0.89471,0.99802 -0.62373,1.69846 0.7176,1.85484 2.01981,1.55879 1.86915,-0.42494 z m -11.5358,-0.003 c 0,-0.44135 -0.64486,-1.0479 -1.43303,-1.34788 -2.21622,-0.84354 -2.50904,-0.66065 -1.28484,0.80245 1.2499,1.4938 2.71787,1.78839 2.71787,0.54543 z m 36.6803,-3.46586 c -0.16693,-0.86489 -0.33469,-1.69749 -0.37282,-1.85021 -0.0381,-0.15273 -0.49679,-0.0156 -1.01926,0.30464 -0.64939,0.39809 -0.61429,0.98348 0.11094,1.85022 1.38971,1.6609 1.64861,1.59933 1.28114,-0.30465 z m 65.69253,-6.51479 c 0,-1.87853 -1.36848,-3.07367 -2.63234,-2.29889 -0.47265,0.28973 -0.38293,1.42243 0.21164,2.67209 1.14993,2.41687 2.4207,2.22096 2.4207,-0.3732 z m -105.40061,0.49506 c -0.35373,-0.91432 -0.0685,-1.13646 0.95764,-0.74587 0.97339,0.37047 1.24266,0.20514 0.80636,-0.49507 -0.36029,-0.57822 -0.19927,-1.05129 0.35782,-1.05129 0.55709,0 0.75682,-0.41097 0.44385,-0.91325 -0.31298,-0.5023 -1.05047,-0.62686 -1.63889,-0.2768 -0.60947,0.36257 -0.5348,-0.0178 0.17352,-0.88394 0.68386,-0.83622 0.83108,-1.52038 0.32716,-1.52038 -0.50393,0 -0.8596,-0.66412 -0.7904,-1.47582 0.0692,-0.81171 -0.30827,-1.62918 -0.83884,-1.8166 -0.62354,-0.22027 -0.89918,1.49319 -0.77945,4.84554 0.2072,5.80214 0.17956,5.63561 0.93509,5.63561 0.30245,0 0.32321,-0.58595 0.0461,-1.30213 z m -3.85753,-11.50281 c 0.68654,-0.46426 0.57381,-0.94923 -0.36233,-1.55877 -1.59482,-1.03843 -6.35475,-1.21818 -6.31287,-0.2384 0.0453,1.06036 2.35439,3.81901 3.19661,3.81901 0.41843,0 0.27157,-0.48524 -0.32636,-1.07831 -1.59556,-1.58259 -1.32654,-2.4099 0.61951,-1.90513 1.17118,0.30377 1.5944,1.05273 1.34889,2.38699 -0.21235,1.15402 -0.11435,1.39645 0.24109,0.59645 0.32937,-0.74134 1.04733,-1.65116 1.59546,-2.02184 z m 51.88104,-1.98229 c 0,-0.71961 -0.34638,-1.09602 -0.76974,-0.8365 -0.42336,0.25952 -0.5352,0.84828 -0.24852,1.30836 0.73258,1.1757 1.01826,1.04331 1.01826,-0.47186 z m -49.79982,-2.99744 c 0.64058,-0.40391 0.78047,-1.17202 0.34171,-1.87619 -0.58076,-0.93206 -1.16909,-0.96607 -2.69541,-0.15585 -1.07388,0.57005 -1.71318,1.42054 -1.42069,1.88996 0.63645,1.02142 2.28161,1.08335 3.77439,0.14208 z m 37.59963,-2.16406 c -0.84555,-0.83869 -1.32873,-0.83869 -2.17429,0 -0.84555,0.83867 -0.60397,1.0783 1.08715,1.0783 1.69112,0 1.9327,-0.23963 1.08714,-1.0783 z m -28.42584,-4.91273 c -0.44079,-2.25435 -2.5578,-2.5639 -2.5578,-0.37399 0,1.10377 0.58497,1.87206 1.42536,1.87206 0.84366,0 1.30583,-0.61137 1.13244,-1.49807 z m -6.64388,-11.44426 c 1.46953,-1.35084 1.93916,-2.29472 1.25443,-2.52111 -0.60198,-0.19903 -1.12841,-1.81559 -1.16983,-3.59236 -0.0414,-1.77675 -0.3828,-3.04353 -0.75862,-2.81505 -0.37582,0.22849 -0.50672,2.20406 -0.29089,4.39015 0.22817,2.31105 -0.0196,4.22727 -0.59184,4.57809 -0.64171,0.39337 -0.80646,-0.071 -0.47339,-1.33433 0.5748,-2.18021 -0.65189,-2.6761 -1.45903,-0.58982 -0.47758,1.23444 0.0996,4.04367 0.83085,4.04367 0.17016,0 1.3664,-0.97166 2.65832,-2.15924 z m 69.47208,-3.38832 c 1.55463,-1.542 1.63439,-1.82576 0.37888,-1.34789 -0.87467,0.33292 -1.96465,0.60531 -2.42217,0.60531 -0.45752,0 -0.83186,0.60655 -0.83186,1.34788 0,1.81672 0.55003,1.70091 2.87515,-0.6053 z m 1.65462,1.0546 c 0,-0.49423 -0.40767,-0.8986 -0.90595,-0.8986 -0.49827,0 -0.90595,0.40437 -0.90595,0.8986 0,0.49422 0.40768,0.89859 0.90595,0.89859 0.49828,0 0.90595,-0.40437 0.90595,-0.89859 z m -67.73815,-2.02183 c -0.50567,-0.61778 -1.11982,-1.93197 -1.36477,-2.92043 -0.3584,-1.44624 -0.4659,-1.34387 -0.55047,0.52418 -0.1097,2.42322 0.50353,3.51948 1.96874,3.51948 0.52202,0 0.50077,-0.44607 -0.0535,-1.12323 z m -10.17392,-4.90253 c 0,-3.34234 -2.21245,-2.0078 -2.56137,1.54502 -0.26139,2.66133 -0.12726,2.87956 1.13244,1.8426 0.78591,-0.64695 1.42893,-2.17138 1.42893,-3.38762 z m 36.23818,-9.44153 c 0,-0.38904 -0.1705,-0.70735 -0.37888,-0.70735 -0.20839,0 -1.02375,-0.24546 -1.81191,-0.54544 -0.92563,-0.35231 -1.43303,-0.0539 -1.43303,0.84274 0,0.83425 0.72301,1.33416 1.81191,1.25281 0.99655,-0.0745 1.81191,-0.45369 1.81191,-0.84276 z m 32.48515,128.08342 c -2.3443,-0.6093 -1.00515,-3.88653 1.58811,-3.88653 1.70617,0 2.09043,0.41015 1.84975,1.97438 -0.32485,2.11137 -1.07212,2.52701 -3.43786,1.91215 z m -86.55768,-5.00978 c -1.50196,-2.31689 -3.0026,-5.39963 -3.0026,-6.16821 0,-1.5468 1.60713,-0.77105 2.07441,1.00132 0.35359,1.34113 1.24249,1.80067 3.50299,1.81093 1.66604,0.008 3.64069,0.41963 4.3881,0.91568 1.17623,0.78064 1.1225,1.08082 -0.39964,2.23271 -2.14626,1.6242 -5.57463,1.73262 -6.56326,0.20757 z m 115.40066,-6.22927 c 0.22471,-1.16595 1.13135,-3.07035 2.01475,-4.23197 l 1.60618,-2.11207 2.06313,2.87386 c 2.35194,3.27615 1.86611,4.14049 -2.80562,4.9914 -3.09052,0.56292 -3.26258,0.47198 -2.87844,-1.52122 z m -134.77949,-7.99981 -4.14584,-1.81485 -0.17901,-6.8773 c -0.0985,-3.78253 -0.62051,-7.14796 -1.16011,-7.47875 -0.70016,-0.42921 -0.69398,-0.77744 0.0216,-1.21608 1.48421,-0.90983 2.62658,0.0961 4.71062,4.14792 1.02857,1.9998 2.65347,3.83918 3.61087,4.08751 2.16076,0.56046 2.24188,1.65605 0.18069,2.44059 -1.33453,0.50794 -1.36726,0.71214 -0.22649,1.4127 0.76684,0.47093 1.33355,2.16869 1.33355,3.99507 0,1.74685 0,3.16304 0,3.14707 0,-0.016 -1.86563,-0.84572 -4.14585,-1.84388 z m 125.99671,-4.81295 c 0,-0.77051 -0.5096,-1.29983 -1.13245,-1.17628 -0.62284,0.12356 -1.13244,-0.37071 -1.13244,-1.09837 0,-0.86601 1.40335,-1.56064 4.06263,-2.01092 3.40623,-0.57677 4.34953,-0.40334 5.83836,1.0734 2.14932,2.13186 1.84514,2.52239 -2.31904,2.97756 -1.77312,0.1938 -3.69483,0.64107 -4.27046,0.99394 -0.62055,0.38042 -1.0466,0.0713 -1.0466,-0.75933 z m -134.06737,-6.56783 c -0.008,-1.112 0.39381,-2.02183 0.89208,-2.02183 1.13509,0 1.13509,0.95362 0,2.69578 -0.71015,1.08996 -0.88087,0.96098 -0.89208,-0.67395 z m 136.78523,-1.65666 c 0,-0.69507 -0.5096,-1.29674 -1.13244,-1.33706 -0.62285,-0.0403 0.23994,-0.66721 1.91729,-1.39312 3.51819,-1.52254 3.85588,-1.39502 3.17225,1.19794 -0.5785,2.19422 -3.9571,3.50246 -3.9571,1.53224 z m -57.80861,-1.03911 c 0.38503,-1.98304 1.99628,-1.93989 2.38533,0.0639 0.17849,0.9193 -0.28984,1.50864 -1.19887,1.50864 -0.93309,0 -1.37744,-0.58893 -1.18646,-1.57253 z m -18.29155,0.0512 c 0,-1.00738 1.91628,-2.97163 2.89905,-2.97163 0.39862,0 0.72476,0.60655 0.72476,1.34788 0,0.74134 -0.1705,1.34789 -0.37888,1.34789 -0.20838,0 -1.02374,0.24545 -1.8119,0.54544 -0.78818,0.29998 -1.43303,0.17867 -1.43303,-0.26958 z m 22.23457,-1.11236 c -0.28668,-0.46008 -0.10689,-1.09049 0.39951,-1.40092 0.5064,-0.31043 0.92073,0.066 0.92073,0.8365 0,1.5784 -0.54363,1.81081 -1.32024,0.56442 z m -4.11549,-2.59481 c 0,-1.08599 1.71878,-2.35215 2.34706,-1.72898 0.22803,0.22618 -0.20678,0.92273 -0.96623,1.5479 -0.86101,0.70876 -1.38083,0.77694 -1.38083,0.18108 z m -39.02605,-11.32152 2.05774,-2.17256 -2.12631,-0.40085 c -1.16947,-0.22047 -0.21388,-0.45591 2.12352,-0.52322 2.33739,-0.0673 4.50177,-0.52674 4.80972,-1.02097 0.68829,-1.10461 4.98275,-1.20141 4.98275,-0.11232 0,0.68138 -4.08889,2.05501 -6.79465,2.2826 -0.49828,0.0419 -1.64899,0.98603 -2.55713,2.09804 -0.90815,1.112 -2.30417,2.02183 -3.10227,2.02183 -1.16355,0 -1.04335,-0.43051 0.60663,-2.17255 z m -29.82648,-5.54932 c 0,-1.00173 6.0576,-5.70731 7.3772,-5.73067 0.81867,-0.0145 1.72315,-0.63289 2.00997,-1.37422 0.28681,-0.74135 1.2477,-1.31597 2.13531,-1.27695 0.94911,0.0417 1.1474,0.25763 0.48142,0.52418 -0.62284,0.24927 -1.13244,1.22827 -1.13244,2.17553 0,0.94727 -0.58995,1.72231 -1.311,1.72231 -0.72104,0 -3.16712,0.97889 -5.43573,2.17532 -2.2686,1.19641 -4.12473,1.99945 -4.12473,1.7845 z m -7.20294,-4.35571 c -0.59572,-0.71196 -1.73171,-1.0476 -2.52443,-0.74589 -1.05446,0.40136 -1.24559,0.20614 -0.7121,-0.72735 0.52642,-0.92111 0.30678,-0.88323 -0.7898,0.13624 -0.93945,0.87337 -2.5436,1.26302 -4.20441,1.02125 -3.34779,-0.48737 -3.40569,-1.35005 -0.19403,-2.89111 1.99692,-0.9582 2.17738,-1.2673 0.90929,-1.55739 -1.26011,-0.28826 -1.3919,-0.71439 -0.64759,-2.09385 0.66923,-1.2403 0.64077,-1.73193 -0.10026,-1.73193 -0.58802,0 -0.78791,-0.63803 -0.46301,-1.47784 0.31908,-0.82474 -0.0844,-2.19692 -0.91286,-3.10498 -1.10691,-1.21318 -1.3282,-2.49464 -0.86982,-5.03695 0.33813,-1.87539 0.61127,-4.81507 0.60699,-6.53261 -0.008,-3.08514 1.02647,-4.47467 3.35022,-4.50147 0.78414,-0.009 0.99561,0.60466 0.61654,1.78929 -0.43022,1.3445 -0.0425,2.01843 1.52437,2.64989 l 2.10132,0.84684 -2.03839,0.59999 c -2.29304,0.67493 -2.76286,2.18755 -0.67947,2.18755 0.74741,0 1.35893,0.40437 1.35893,0.8986 0,0.49422 -0.84933,0.89859 -1.8874,0.89859 -1.11314,0 -1.72804,0.46078 -1.49893,1.12324 0.22765,0.65823 1.95775,1.12324 4.17907,1.12324 4.13587,0 6.17813,1.75966 4.44552,3.83037 -1.25511,1.50002 1.33389,5.23918 5.43625,7.85132 4.10703,2.61511 4.16335,3.67426 0.17533,3.29703 -2.83778,-0.26842 -3.52839,-10e-4 -4.02766,1.55922 -0.70636,2.20747 -1.65157,2.38392 -3.15367,0.58871 z m 66.12185,-12.12533 c -1.42905,-2.64849 -1.14729,-2.9324 1.31927,-1.32937 1.24142,0.80678 2.03271,1.82703 1.75845,2.26718 -0.81257,1.30409 -2.07574,0.9192 -3.07772,-0.93781 z m 43.45393,0.5013 c 0,-0.83345 0.62911,-1.75481 1.39801,-2.04747 2.19832,-0.83671 2.41121,0.14354 0.41945,1.93142 -1.65853,1.48875 -1.81746,1.4989 -1.81746,0.11605 z m 47.37259,-9.54807 c -0.13039,-1.84864 0.22495,-2.69399 1.13244,-2.69399 0.72736,0 1.32246,-0.40437 1.32246,-0.89859 0,-1.37754 1.76921,-1.06931 3.45395,0.60173 1.30436,1.29376 1.32664,1.56183 0.16178,1.94695 -0.74297,0.24564 -1.44491,0.27813 -1.55988,0.0722 -0.11498,-0.20593 -0.85154,0.5354 -1.6368,1.64741 -1.91741,2.71523 -2.64687,2.54373 -2.87395,-0.67573 z M 263.05935,541.95668 c 0,-1.13498 3.51754,-5.65199 4.40139,-5.65199 0.35534,0 0.64607,0.80873 0.64607,1.79718 0,0.98845 -0.39014,1.79718 -0.86697,1.79718 -0.47684,0 -1.61252,0.66922 -2.52374,1.48717 -0.91122,0.81792 -1.65675,1.07465 -1.65675,0.57046 z m 35.97414,-8.35358 c -0.60818,-2.30676 0.21094,-7.9429 1.24664,-8.5778 1.58533,-0.97183 2.62722,2.96148 1.59564,6.02382 -1.37236,4.07402 -2.23675,4.85073 -2.84228,2.55398 z m 68.77054,-1.0363 c -0.65706,-3.25859 -0.10899,-4.26159 1.47187,-2.69359 0.85688,0.84992 1.42765,0.65015 2.61927,-0.91677 1.4639,-1.92497 1.4854,-1.8378 0.54853,2.22307 -1.18268,5.12631 -3.73204,5.88859 -4.63967,1.38729 z m -96.86713,-1.60231 c 0.26805,-1.01669 0.0613,-1.84854 -0.45954,-1.84854 -1.6269,0 -3.74165,-2.68461 -3.2058,-4.06966 0.55833,-1.44318 4.43137,-1.81785 5.24774,-0.50765 0.27905,0.44782 1.27629,0.61478 2.21611,0.37101 0.93982,-0.24377 1.9212,-0.10228 2.18084,0.31442 0.47458,0.76163 -2.21704,4.22719 -4.98189,6.41436 -1.29311,1.02293 -1.4219,0.93593 -0.99746,-0.67394 z m 87.44611,-5.44291 c 0.0426,-1.48696 0.57507,-2.69577 1.18741,-2.69577 1.4389,0 3.34776,-2.29952 3.55662,-4.2845 0.21373,-2.03136 2.25353,-6.84932 2.70868,-6.39786 0.19407,0.19248 -0.083,2.37149 -0.61575,4.84221 -0.53272,2.47075 -0.96525,5.60427 -0.96119,6.96339 0.005,1.78197 -0.44673,2.47113 -1.62101,2.47113 -0.89564,0 -1.88038,0.40437 -2.18833,0.89859 -1.09845,1.76287 -2.14245,0.8549 -2.06643,-1.79719 z m 10.12309,-2.31997 c 0.30245,-0.78175 0.5499,-2.66328 0.5499,-4.18115 l 0,-2.75978 1.77207,2.02661 c 1.63985,1.87539 1.66587,2.18736 0.34878,4.18115 -1.59055,2.40776 -3.52395,2.93851 -2.67075,0.73317 z m -6.69773,-17.05277 c 0,-0.77051 0.40768,-1.15101 0.90595,-0.84557 0.49828,0.30545 0.90596,0.93587 0.90596,1.40093 0,0.46505 -0.40768,0.84556 -0.90596,0.84556 -0.49827,0 -0.90595,-0.63042 -0.90595,-1.40092 z m -56.9409,-10.56966 c -0.93786,-1.12088 -0.84987,-1.53102 0.49501,-2.30703 1.52638,-0.88075 1.52973,-0.94563 0.0502,-0.97113 -0.87198,-0.015 -1.58542,0.37704 -1.58542,0.87127 0,1.17113 -2.44513,1.16468 -3.17607,-0.008 -0.31082,-0.49884 0.68174,-1.61085 2.20569,-2.47113 3.40664,-1.92307 3.43826,-2.30801 0.29092,-3.54158 -2.46984,-0.96802 -2.46117,-0.97729 1.00288,-1.07205 2.71157,-0.0742 3.37745,-0.39752 2.97278,-1.44348 -0.28681,-0.74134 -0.1765,-1.34789 0.24512,-1.34789 0.42162,0 1.27411,0.60655 1.89441,1.34789 0.62029,0.74133 1.68941,1.34788 2.37581,1.34788 0.6864,0 1.248,0.8326 1.248,1.85022 0,1.01761 0.40768,1.60031 0.90596,1.29485 0.49827,-0.30545 0.90595,0.0414 0.90595,0.77069 0,0.72931 -0.5096,1.53112 -1.13244,1.78179 -0.89417,0.35988 -0.88514,0.62867 0.0429,1.27745 0.95033,0.66438 0.92244,1.02984 -0.14565,1.90908 -2.22422,1.83093 -7.30737,2.2517 -8.59606,0.71155 z m 90.46121,-1.89791 c 0,-0.73356 -1.0622,-1.41063 -2.46701,-1.57254 l -2.467,-0.28433 2.58097,-1.66732 c 1.8277,-1.1807 2.76715,-1.36851 3.21889,-0.6435 0.35087,0.56308 1.31878,0.76466 2.15093,0.44793 2.18087,-0.83007 1.89827,1.32065 -0.43754,3.33002 -2.34401,2.01643 -2.57924,2.05197 -2.57924,0.38974 z m -54.39105,-4.37339 c -1.2271,-0.49522 -2.94454,-0.81381 -3.81652,-0.708 -0.87198,0.10584 -1.58542,-0.15649 -1.58542,-0.58294 0,-1.42925 2.15495,-2.93198 4.20452,-2.93198 1.11662,0 2.27839,-0.39828 2.58171,-0.88505 0.34187,-0.54868 -0.49553,-0.67737 -2.2032,-0.33861 l -2.75468,0.54645 1.02919,-3.03111 c 1.40672,-4.14304 2.61442,-5.47781 4.5112,-4.98582 0.88363,0.22919 2.32856,-0.1069 3.21097,-0.74689 1.80215,-1.30705 7.59061,-0.75968 8.65795,0.81871 1.10559,1.63498 0.77683,3.23077 -0.66559,3.23077 -0.74742,0 -1.35894,0.60655 -1.35894,1.34789 0,0.74134 0.30576,1.35105 0.67947,1.35489 1.21134,0.0125 2.72279,4.28617 1.95288,5.5218 -0.59331,0.95219 -0.974,0.96846 -1.86986,0.0799 -1.50221,-1.49 -4.81851,-1.41678 -6.11696,0.13504 -1.49206,1.78321 -3.87505,2.21686 -6.45672,1.17496 z m 23.7837,-0.52045 c 0.3988,-2.05398 3.14791,-2.30837 4.18185,-0.38696 0.74875,1.39144 0.48944,1.64089 -1.79259,1.72452 -1.98608,0.0728 -2.59673,-0.26906 -2.38926,-1.33756 z m -1.54142,-6.06481 c -0.81166,-0.80506 -1.24846,-2.05123 -0.97067,-2.76927 0.2778,-0.71803 0.50508,-2.27298 0.50508,-3.45543 0,-1.47993 0.84696,-2.58433 2.71786,-3.54394 2.94149,-1.50875 3.2283,-1.27715 1.76859,1.42817 -0.7208,1.33589 -0.61178,2.09408 0.45298,3.15019 1.59658,1.58359 1.836,3.05967 0.4963,3.05967 -0.49828,0 -0.90596,0.80873 -0.90596,1.79718 0,2.17199 -2.04168,2.33949 -4.06418,0.33343 z m -33.07994,-11.45098 c 0,-0.74369 -1.43816,-1.46114 -3.62382,-1.8078 -3.79011,-0.60114 -5.2668,-3.2493 -1.81191,-3.2493 1.20794,0 1.81191,-0.59906 1.81191,-1.79718 0,-1.95874 2.33121,-2.49167 2.94802,-0.67395 0.29714,0.87569 0.71311,0.85143 1.8874,-0.11003 1.31799,-1.07912 1.50626,-1.0054 1.50626,0.58982 0,1.3722 0.44195,1.70846 1.78697,1.35959 1.7481,-0.45344 1.75303,-0.38338 0.22649,3.22004 -1.5109,3.56651 -4.73132,5.24693 -4.73132,2.46881 z"
         id="path2384" />
    </g>
  </g>
  <g
     inkscape:groupmode="layer"
     id="layer3"
     inkscape:label="Légende"
     transform="translate(-202.71498,-189.07581)"
     style="display:inline" />
</svg>
