<?xml version="1.0" encoding="UTF-8" standalone="no"?>
<svg
   xmlns:dc="http://purl.org/dc/elements/1.1/"
   xmlns:cc="http://creativecommons.org/ns#"
   xmlns:rdf="http://www.w3.org/1999/02/22-rdf-syntax-ns#"
   xmlns:svg="http://www.w3.org/2000/svg"
   xmlns="http://www.w3.org/2000/svg"
   xmlns:sodipodi="http://sodipodi.sourceforge.net/DTD/sodipodi-0.dtd"
   xmlns:inkscape="http://www.inkscape.org/namespaces/inkscape"
   version="1.0"
   x="0px"
   y="0px"
   width="64"
   height="64"
   viewBox="0 0 64 64"
   enable-background="new 0 0 96 96"
   xml:space="preserve"
   id="svg2"
   inkscape:version="0.48.2 r9819"
   sodipodi:docname="ic_action_marker_from_location.svg"
   inkscape:export-filename="/Users/sgrimault/Desktop/ic_action_marker_from_location_disable.png"
   inkscape:export-xdpi="720"
   inkscape:export-ydpi="720"><metadata
   id="metadata11"><rdf:RDF><cc:Work
       rdf:about=""><dc:format>image/svg+xml</dc:format><dc:type
         rdf:resource="http://purl.org/dc/dcmitype/StillImage" /><dc:title></dc:title></cc:Work></rdf:RDF></metadata><defs
   id="defs9">
	
</defs><sodipodi:namedview
   pagecolor="#ffffff"
   bordercolor="#666666"
   borderopacity="1"
   objecttolerance="10"
   gridtolerance="10"
   guidetolerance="10"
   inkscape:pageopacity="0"
   inkscape:pageshadow="2"
   inkscape:window-width="1225"
   inkscape:window-height="828"
   id="namedview7"
   showgrid="false"
   inkscape:zoom="8.66"
   inkscape:cx="36.193049"
   inkscape:cy="31.96134"
   inkscape:window-x="262"
   inkscape:window-y="0"
   inkscape:window-maximized="0"
   inkscape:current-layer="layer2" />

<g
   inkscape:groupmode="layer"
   id="layer2"
   inkscape:label="default"
   style="display:inline"
   transform="translate(0,-32)"><path
     style="fill:#333333;fill-rule:evenodd;display:inline"
     inkscape:connector-curvature="0"
     id="path5"
     d="m 32.000736,53.985603 c -3.125234,0 -5.657364,-2.437652 -5.657364,-5.453413 0,-3.015012 2.53213,-5.452664 5.657364,-5.452664 3.124485,0 5.655115,2.438402 5.655115,5.452664 7.49e-4,3.016511 -2.53063,5.453413 -5.655115,5.453413 z M 45.001051,41.406685 C 43.25098,38.360932 40.468412,36.017006 36.782314,34.781308 36.141972,34.563112 35.485883,34.390654 34.797551,34.265435 34.079227,34.139466 33.297918,34.047238 32.485868,34 h -0.484382 -0.484382 c -0.812801,0.04724 -1.594109,0.140216 -2.312433,0.265435 -0.688331,0.124469 -1.344421,0.296928 -1.984763,0.515873 -3.671851,1.235698 -6.468665,3.578874 -8.218737,6.625377 -1.202705,2.093488 -1.99901,4.702098 -1.813806,7.891817 0.08023,1.467391 0.470885,2.779569 0.922274,3.967278 0.470135,1.171213 1.016001,2.233702 1.657094,3.249703 2.438403,3.971028 5.749592,7.501913 7.624882,12.048799 0.953017,2.310934 1.79656,4.718594 2.515634,7.279966 0.701828,2.53063 1.342921,5.219471 1.609106,8.155752 h 0.484381 0.484382 c 0.265435,-2.936281 0.905777,-5.625122 1.607605,-8.155752 0.719825,-2.561372 1.562618,-4.969032 2.516384,-7.279966 1.875291,-4.546886 5.18648,-8.077771 7.624882,-12.048799 0.641093,-1.01525 1.187709,-2.07774 1.656344,-3.249703 0.452889,-1.187709 0.843544,-2.499887 0.921525,-3.967278 0.188203,-3.188969 -0.608851,-5.798329 -1.810807,-7.891817 z"
     clip-rule="evenodd"
     display="inline" /><path
     style="fill:#333333;fill-opacity:1;stroke:none"
     d="m 32,86 c -7.179702,0 -13,1.790861 -13,4 0,2.209139 5.820298,4 13,4 7.179702,0 13,-1.790861 13,-4 0,-2.209139 -5.820298,-4 -13,-4 z m 0,2.769231 c 2.209139,0 4,0.551034 4,1.230769 0,0.679735 -1.790861,1.230769 -4,1.230769 -2.209139,0 -4,-0.551034 -4,-1.230769 0,-0.679735 1.790861,-1.230769 4,-1.230769 z"
     id="path2987"
     inkscape:connector-curvature="0" /></g><g
   inkscape:groupmode="layer"
   id="layer1"
   inkscape:label="disable"
   style="display:none"><path
     transform="translate(0,-32)"
     display="inline"
     clip-rule="evenodd"
     d="m 32.000736,53.985603 c -3.125234,0 -5.657364,-2.437652 -5.657364,-5.453413 0,-3.015012 2.53213,-5.452664 5.657364,-5.452664 3.124485,0 5.655115,2.438402 5.655115,5.452664 7.49e-4,3.016511 -2.53063,5.453413 -5.655115,5.453413 z M 45.001051,41.406685 C 43.25098,38.360932 40.468412,36.017006 36.782314,34.781308 36.141972,34.563112 35.485883,34.390654 34.797551,34.265435 34.079227,34.139466 33.297918,34.047238 32.485868,34 h -0.484382 -0.484382 c -0.812801,0.04724 -1.594109,0.140216 -2.312433,0.265435 -0.688331,0.124469 -1.344421,0.296928 -1.984763,0.515873 -3.671851,1.235698 -6.468665,3.578874 -8.218737,6.625377 -1.202705,2.093488 -1.99901,4.702098 -1.813806,7.891817 0.08023,1.467391 0.470885,2.779569 0.922274,3.967278 0.470135,1.171213 1.016001,2.233702 1.657094,3.249703 2.438403,3.971028 5.749592,7.501913 7.624882,12.048799 0.953017,2.310934 1.79656,4.718594 2.515634,7.279966 0.701828,2.53063 1.342921,5.219471 1.609106,8.155752 h 0.484381 0.484382 c 0.265435,-2.936281 0.905777,-5.625122 1.607605,-8.155752 0.719825,-2.561372 1.562618,-4.969032 2.516384,-7.279966 1.875291,-4.546886 5.18648,-8.077771 7.624882,-12.048799 0.641093,-1.01525 1.187709,-2.07774 1.656344,-3.249703 0.452889,-1.187709 0.843544,-2.499887 0.921525,-3.967278 0.188203,-3.188969 -0.608851,-5.798329 -1.810807,-7.891817 z"
     id="path3761"
     inkscape:connector-curvature="0"
     style="opacity:0.5;fill:#333333;fill-rule:evenodd;display:inline" /><path
     transform="translate(0,-32)"
     inkscape:connector-curvature="0"
     id="path3763"
     d="m 32,86 c -7.179702,0 -13,1.790861 -13,4 0,2.209139 5.820298,4 13,4 7.179702,0 13,-1.790861 13,-4 0,-2.209139 -5.820298,-4 -13,-4 z m 0,2.769231 c 2.209139,0 4,0.551034 4,1.230769 0,0.679735 -1.790861,1.230769 -4,1.230769 -2.209139,0 -4,-0.551034 -4,-1.230769 0,-0.679735 1.790861,-1.230769 4,-1.230769 z"
     style="opacity:0.5;fill:#333333;fill-opacity:1;stroke:none;display:inline" /></g></svg>