<?xml version="1.0" encoding="UTF-8" standalone="no"?>
<svg
   xmlns:dc="http://purl.org/dc/elements/1.1/"
   xmlns:cc="http://creativecommons.org/ns#"
   xmlns:rdf="http://www.w3.org/1999/02/22-rdf-syntax-ns#"
   xmlns:svg="http://www.w3.org/2000/svg"
   xmlns="http://www.w3.org/2000/svg"
   xmlns:xlink="http://www.w3.org/1999/xlink"
   xmlns:sodipodi="http://sodipodi.sourceforge.net/DTD/sodipodi-0.dtd"
   xmlns:inkscape="http://www.inkscape.org/namespaces/inkscape"
   width="100"
   height="100"
   id="svg2"
   version="1.1"
   inkscape:version="0.91 r13725"
   sodipodi:docname="marker.svg">
  <sodipodi:namedview
     pagecolor="#ffffff"
     bordercolor="#666666"
     borderopacity="1"
     objecttolerance="10"
     gridtolerance="10"
     guidetolerance="10"
     inkscape:pageopacity="0"
     inkscape:pageshadow="2"
     inkscape:window-width="1920"
     inkscape:window-height="1149"
     id="namedview78"
     showgrid="false"
     inkscape:zoom="4.72"
     inkscape:cx="8.4987352"
     inkscape:cy="14.360929"
     inkscape:window-x="0"
     inkscape:window-y="25"
     inkscape:window-maximized="1"
     inkscape:current-layer="svg2" />
  <defs
     id="defs4">
    <linearGradient
       id="linearGradient4364">
      <stop
         id="stop4366"
         offset="0"
         style="stop-color:#575757;stop-opacity:1;" />
      <stop
         id="stop4370"
         offset="1"
         style="stop-color:#8b8b8b;stop-opacity:0;" />
    </linearGradient>
    <linearGradient
       id="linearGradient3889">
      <stop
         style="stop-color:#2e6c97;stop-opacity:1;"
         offset="0"
         id="stop3891" />
      <stop
         style="stop-color:#3883b7;stop-opacity:1;"
         offset="1"
         id="stop3893" />
    </linearGradient>
    <linearGradient
       id="linearGradient3788">
      <stop
         style="stop-color:#1464c8;stop-opacity:1;"
         offset="0"
         id="stop3790" />
      <stop
         style="stop-color:#46a0d2;stop-opacity:1;"
         offset="1"
         id="stop3792" />
    </linearGradient>
    <linearGradient
       y2="509.70151"
       x2="445.67401"
       y1="538.40149"
       x1="445.67401"
       gradientTransform="matrix(2.5166641,0,0,2.5161497,-1089.5863,-1266.8862)"
       gradientUnits="userSpaceOnUse"
       id="linearGradient4418"
       xlink:href="#linearGradient3788" />
    <linearGradient
       y2="509.70169"
       x2="351.634"
       y1="527.7417"
       x1="351.634"
       gradientTransform="matrix(2.5166641,0,0,2.5161497,-859.11011,-1266.8867)"
       gradientUnits="userSpaceOnUse"
       id="linearGradient4420"
       xlink:href="#linearGradient3889" />
    <linearGradient
       gradientTransform="matrix(0.11837843,0.04154064,-0.10372816,0.08231999,92.96516,-1.7846341)"
       y2="645.55609"
       x2="398.89407"
       y1="1017.5861"
       x1="387.7851"
       gradientUnits="userSpaceOnUse"
       id="linearGradient4429"
       xlink:href="#linearGradient4364" />
    <filter
       inkscape:collect="always"
       style="color-interpolation-filters:sRGB"
       id="filter4220"
       x="-0.010255319"
       width="1.0205106"
       y="-0.01446"
       height="1.02892">
      <feGaussianBlur
         inkscape:collect="always"
         stdDeviation="0.241"
         id="feGaussianBlur4222" />
    </filter>
  </defs>
  <metadata
     id="metadata7">
    <rdf:RDF>
      <cc:Work
         rdf:about="">
        <dc:format>image/svg+xml</dc:format>
        <dc:type
           rdf:resource="http://purl.org/dc/dcmitype/StillImage" />
        <dc:title />
      </cc:Work>
    </rdf:RDF>
  </metadata>
  <path
     id="path4427"
     d="M 79.944841,61.388488 C 70.45642,58.058871 55.3579,61.000294 47.546892,67.19921 44.032873,69.987979 41.824541,74.324336 40.372578,77.344111 L 31.2,100 67.178073,86.750527 c 4.715283,-1.874629 11.278523,-4.426838 15.016165,-7.393085 7.811009,-6.198906 7.239023,-14.639337 -2.249397,-17.968954 z m -9.050927,7.182932 c 3.709947,1.326048 4.071267,4.50017 0.797026,7.098649 -3.274268,2.598509 -8.921881,3.619646 -12.6739,2.326986 -3.7102,-1.32585 -4.110509,-4.469029 -0.83624,-7.067528 3.27423,-2.59847 8.960829,-3.650559 12.713114,-2.358107 z"
     style="fill:url(#linearGradient4429);fill-opacity:1;stroke:none;filter:url(#filter4220)"
     inkscape:connector-curvature="0" />
  <path
     style="fill:url(#linearGradient4418);fill-opacity:1;stroke:url(#linearGradient4420);stroke-width:2.00006127;stroke-linecap:round;stroke-linejoin:miter;stroke-miterlimit:4;stroke-dasharray:none;stroke-opacity:1"
     d="m 31.311639,1.0002015 c -16.540951,0 -30.3116083,14.3198595 -30.3116083,29.8565995 0,6.98968 3.9354822,15.87264 6.7799177,22.00623 l 23.4204796,44.968 23.308937,-44.968 c 2.844436,-6.13359 6.890604,-14.57174 6.890604,-22.00623 0,-15.53674 -13.547381,-29.8565995 -30.08833,-29.8565995 z m 0,18.0030395 c 6.504292,0.042 11.775696,5.33802 11.775696,11.85075 0,6.51279 -5.271404,11.7317 -11.775696,11.77336 -6.504293,-0.0415 -11.775698,-5.25996 -11.775698,-11.77276 0,-6.51271 5.271405,-11.80915 11.775698,-11.85135 z"
     id="path3873"
     inkscape:connector-curvature="0" />
</svg>
