<?xml version="1.0" encoding="UTF-8" standalone="no"?>
<!-- Created with Inkscape (http://www.inkscape.org/) -->

<svg
   xmlns:dc="http://purl.org/dc/elements/1.1/"
   xmlns:cc="http://creativecommons.org/ns#"
   xmlns:rdf="http://www.w3.org/1999/02/22-rdf-syntax-ns#"
   xmlns:svg="http://www.w3.org/2000/svg"
   xmlns="http://www.w3.org/2000/svg"
   xmlns:sodipodi="http://sodipodi.sourceforge.net/DTD/sodipodi-0.dtd"
   xmlns:inkscape="http://www.inkscape.org/namespaces/inkscape"
   width="512"
   height="512"
   id="svg2"
   version="1.1"
   inkscape:version="0.48.2 r9819"
   sodipodi:docname="flora.svg"
   inkscape:export-filename="/Users/sgrimault/Desktop/flora.png"
   inkscape:export-xdpi="90"
   inkscape:export-ydpi="90">
  <defs
     id="defs4" />
  <sodipodi:namedview
     id="base"
     pagecolor="#ffffff"
     bordercolor="#666666"
     borderopacity="1.0"
     inkscape:pageopacity="0.0"
     inkscape:pageshadow="2"
     inkscape:zoom="1.44"
     inkscape:cx="247.23928"
     inkscape:cy="406.04242"
     inkscape:document-units="px"
     inkscape:current-layer="layer2"
     showgrid="false"
     inkscape:window-width="1201"
     inkscape:window-height="833"
     inkscape:window-x="266"
     inkscape:window-y="1"
     inkscape:window-maximized="0">
    <inkscape:grid
       type="xygrid"
       id="grid3811" />
  </sodipodi:namedview>
  <metadata
     id="metadata7">
    <rdf:RDF>
      <cc:Work
         rdf:about="">
        <dc:format>image/svg+xml</dc:format>
        <dc:type
           rdf:resource="http://purl.org/dc/dcmitype/StillImage" />
        <dc:title></dc:title>
      </cc:Work>
    </rdf:RDF>
  </metadata>
  <g
     inkscape:groupmode="layer"
     id="layer2"
     inkscape:label="main"
     style="display:inline">
    <g
       id="g3986"
       transform="matrix(1.0289018,0,0,1.0288066,-7.3988593,-14.576134)">
      <path
         sodipodi:nodetypes="ccc"
         inkscape:connector-curvature="0"
         id="path3766"
         d="M 268.60887,157.28318 C 354.90157,273.11034 96.507204,426.9171 260.49089,505.99999 81.443788,431.83086 332.8269,285.36969 268.60887,157.28318 z"
         style="fill:#000000;fill-opacity:1;stroke:none" />
      <path
         style="fill:#000000;fill-opacity:1;stroke:none"
         d="m 203.78658,365.13527 c -4.30746,59.44945 -63.50704,61.56585 -87.77844,29.85442 -24.271411,-31.71142 -12.13086,-78.68297 -33.008133,-96.41397 73.914823,-37.60201 156.228133,33.58331 105.658083,64.87308 -11.3692,7.03457 -21.76612,-27.62091 -31.69554,-34.29545 6.70907,9.87831 5.6014,43.86113 36.2661,40.8392 -38.72997,22.11397 -42.03216,-35.70161 -79.79574,-59.81653 26.36404,28.07448 16.6202,39.27724 45.43181,67.44404 -13.7977,-1.54547 -34.03306,-26.71181 -39.93705,-27.24576 3.22035,2.13586 40.42623,74.8288 84.85891,14.76097 z"
         id="path3768"
         inkscape:connector-curvature="0"
         sodipodi:nodetypes="cscscccccc" />
      <path
         sodipodi:nodetypes="cscscccccc"
         inkscape:connector-curvature="0"
         id="path3772"
         d="m 381.23851,300.56872 c -17.12659,16.83875 -4.77254,33.13371 10.49983,33.43557 15.27237,0.30187 27.07932,-13.90945 37.26165,-11.51372 -4.98445,-30.9436 -45.52577,-40.10363 -43.83748,-17.68805 0.37956,5.0395 13.44302,0.4536 17.74158,1.98654 -4.56591,0.16554 -14.83407,8.10752 -20.7946,-1.91536 1.8655,16.75343 20.50127,4.8225 36.45669,10.93668 -14.61737,-1.75354 -15.8933,3.72324 -31.08963,1.24434 3.58108,3.85973 15.92021,4.396 17.41314,6.07607 -1.38521,-0.50364 -32.24947,4.42253 -23.65118,-22.56207 z"
         style="fill:#000000;fill-opacity:1;stroke:none" />
      <g
         transform="matrix(1.0679012,0,0,1.068376,-17.382708,13.58976)"
         id="g3908">
        <g
           id="g3823"
           transform="matrix(1.2640361,0,0,1.2569703,-67.486083,-67.285327)">
          <path
             sodipodi:nodetypes="ccssssc"
             inkscape:connector-curvature="0"
             id="path3097"
             d="m 272.6248,132.28986 c 5.62322,22.56763 -17.25734,36.80157 -33.71122,18.1474 -5.48349,21.86058 -30.70723,6.41379 -28.475,-11.30564 2.67313,-21.21937 25.09841,-3.44621 41.37132,-16.24446 11.28845,-8.87809 3.80791,-22.977955 18.11933,-24.161697 8.96678,-0.74167 19.1787,9.727227 18.95966,19.554727 -0.15944,7.15357 -2.3522,15.25597 -16.26409,14.00967 z"
             style="fill:#000000;fill-opacity:1;stroke:none" />
          <g
             style="fill:#000000;fill-opacity:1;stroke:none"
             id="g3888">
            <path
               sodipodi:nodetypes="czcsc"
               style="fill:#000000;fill-opacity:1;stroke:none"
               d="m 215.89649,58.303142 c 6.83919,6.099815 10.35398,19.199929 10.25878,32.439926 -0.0952,13.240002 5.45286,30.776342 26.52495,26.524952 -3.60444,8.13309 -23.41342,10.69444 -30.22181,1.47875 -14.49616,-19.621691 1.57117,-34.011095 -6.56192,-60.443628 z"
               id="path3886"
               inkscape:connector-curvature="0" />
          </g>
          <path
             sodipodi:nodetypes="csscsssc"
             inkscape:connector-curvature="0"
             id="path3891"
             d="m 237.98521,116.15896 c -4.15896,-2.21811 -5.92518,-5.24754 -6.09981,-11.92236 -0.12041,-4.602516 3.01875,-10.058183 8.04066,-10.258781 4.35907,-0.174121 9.26953,7.130151 -0.36968,10.443621 6.97954,3.67289 10.21169,-1.99727 10.16635,-6.007392 -0.0591,-5.223996 -3.98422,-8.203416 -9.33456,-8.225508 -5.69327,-0.02351 -10.28332,6.328699 -10.3512,12.75416 -0.0904,8.5569 4.06654,11.09057 7.94824,13.21626 z"
             style="fill:#000000;fill-opacity:1;stroke:none" />
          <path
             transform="matrix(1.1618604,0,0,1.0834345,-37.293563,-8.3702563)"
             d="m 242.97597,79.744919 c 0,3.930307 -3.12407,7.116451 -6.97782,7.116451 -3.85374,0 -6.97782,-3.186144 -6.97782,-7.116451 0,-3.930307 3.12408,-7.116451 6.97782,-7.116451 3.85375,0 6.97782,3.186144 6.97782,7.116451 z"
             sodipodi:ry="7.1164508"
             sodipodi:rx="6.977819"
             sodipodi:cy="79.744919"
             sodipodi:cx="235.99815"
             id="path3893"
             style="fill:#000000;fill-opacity:1;stroke:none"
             sodipodi:type="arc" />
          <path
             sodipodi:nodetypes="ssccsss"
             inkscape:connector-curvature="0"
             id="path3895"
             d="m 256.85312,72.670964 c -2.40729,3.103663 -1.25044,5.882597 -0.8731,7.474015 0.57235,2.413903 3.36974,4.950619 1.61373,15.948771 2.57022,-2.820969 3.18717,-9.319299 3.34375,-13.25 1.60377,0.320209 3.31487,0.05878 4.54406,-1.018443 2.25448,-1.975754 1.90981,-5.919689 -0.19473,-8.595286 -1.58306,-2.012613 -6.02707,-3.661887 -8.43371,-0.559057 z"
             style="fill:#000000;fill-opacity:1;stroke:none" />
          <path
             sodipodi:nodetypes="sssccss"
             inkscape:connector-curvature="0"
             id="path3899"
             d="m 198.98156,104.10502 c -4.59259,0.0435 -5.09789,5.67438 -4.54406,7.95748 0.84174,3.46994 3.44601,6.22782 6.21721,5.52715 1.3856,-0.35034 2.84905,-1.88206 3.47029,-3.2459 2.78113,2.98474 7.63776,7.4375 11.78125,7.4375 -4.80591,-2.86506 -9.66229,-12.05363 -11.46568,-14.70594 -1.2539,-1.84416 -2.91194,-2.99443 -5.45901,-2.97029 z"
             style="fill:#000000;fill-opacity:1;stroke:none" />
          <path
             sodipodi:nodetypes="cssc"
             inkscape:connector-curvature="0"
             id="path3903"
             d="m 264.2329,95.36414 c 4.43622,-10.90573 18.20088,-14.128285 21.86281,-14.113101 15.28104,0.06336 14.17982,9.609704 7.98932,8.29055 -3.66481,-0.780946 -16.82071,-4.251386 -29.85213,5.822551 z"
             style="fill:#000000;fill-opacity:1;stroke:none" />
          <path
             sodipodi:nodetypes="scs"
             inkscape:connector-curvature="0"
             id="path2994"
             d="m 197.78189,164.21811 c 8.23887,0.27022 -7.67099,-24.39925 13.21626,-38.17005 -28.83295,6.90556 -20.44363,37.933 -13.21626,38.17005 z"
             style="fill:#000000;fill-opacity:1;stroke:none" />
        </g>
        <path
           style="fill:#000000;fill-opacity:1;stroke:none"
           d="m 296.9534,139.41105 c -16.3182,-15.79022 -4.98906,-31.66755 9.43426,-32.05378 14.42336,-0.38624 25.89866,13.36317 35.4966,11.03303 -4.4493,29.25824 -42.66697,38.17804 -41.25977,16.99609 0.31635,-4.76213 12.69413,-0.51743 16.74165,-1.99369 -4.31426,-0.12613 -14.07972,-7.55907 -19.62606,1.94667 1.62196,-15.8354 19.32463,-4.69045 34.34456,-10.57075 -13.79252,1.75297 -15.04356,-3.41123 -29.37687,-0.96933 3.35032,-3.66911 15.00105,-4.25731 16.39718,-5.85397 -1.30425,0.48483 -30.49904,-3.96337 -22.15155,21.46573 z"
           id="path3770"
           inkscape:connector-curvature="0"
           sodipodi:nodetypes="cscscccccc" />
        <path
           style="fill:#000000;fill-opacity:1;stroke:none"
           d="m 254.9234,255.91277 c 50.02902,-104.94432 -39.30926,-137.85668 -51.52901,-62.13481 -3.81154,23.61887 38.66474,32.25951 42.6262,-5.7966 1.91415,-18.38832 -19.49531,-27.85345 -32.69357,-27.41412 -22.71863,0.75622 -37.71506,29.56782 -36.46203,49.71867 0.80634,12.96738 8.58709,26.6308 29.47191,22.71252 7.65015,-1.43527 8.54329,-16.77177 -3.46193,-13.62702 -6.63446,1.73789 -9.96108,8.76331 -9.35091,15.55871 0.80253,8.93757 23.63088,12.36735 22.85714,24.34482 -0.53947,8.35085 -21.1703,13.67609 -21.1703,13.67609 13.65975,-1.01368 25.26234,-5.69953 24.41537,-15.21272 -1.3065,-14.67465 -21.30087,-14.50466 -21.63387,-25.66187 -0.30276,-10.14391 7.8086,-8.62545 7.6576,-5.31627 -0.17424,3.81862 -23.23339,0.16816 -22.33772,-18.34797 0.80246,-16.58923 13.66299,-38.03914 30.34325,-38.12152 20.02849,-0.0989 23.54744,13.58056 23.39598,22.02945 -0.15072,8.40745 -20.71407,24.53304 -24.18159,2.96869 -6.57014,-40.85953 73.04341,-69.72649 42.05348,60.62395 z"
           id="path3807"
           inkscape:connector-curvature="0"
           sodipodi:nodetypes="csssssssscsssssssc" />
      </g>
      <path
         sodipodi:nodetypes="csssssssscsssssssssc"
         inkscape:connector-curvature="0"
         id="path3809"
         d="m 206.47006,445.04634 c -2.05007,-30.90115 42.98093,-142.7016 96.20127,-143.79012 37.8677,-0.77451 62.35164,25.82907 64.49447,53.8919 1.74341,22.8319 -20.21446,53.72365 -43.96305,54.73671 -17.30577,0.73823 -41.00179,-15.13992 -41.39528,-33.03435 -0.42128,-19.15826 13.62,-43.70811 32.01407,-43.86416 14.24335,-0.12087 18.23372,9.19358 18.7142,16.64198 1.36932,21.22722 -16.43957,16.46471 -20.42524,-5.5341 -4.6634,-25.73942 93.68949,-42.71575 94.21359,-95.57033 0.1161,-11.70491 -5.56995,-31.98381 -27.1545,-23.6854 18.42035,-2.00434 23.96797,11.75135 23.33361,22.42208 -2.91091,48.96376 -90.04511,65.92979 -94.85994,83.38469 -6.44624,23.36923 5.77076,41.73899 18.81967,41.62386 10.30575,-0.0909 14.69436,-12.9147 14.13472,-21.4445 -1.64432,-25.0619 -20.49267,-26.00094 -26.13492,-25.79349 -29.98847,1.10256 -41.96562,32.81806 -41.71173,50.75348 0.34507,24.37571 22.8645,43.53154 48.41141,43.9436 27.97594,0.45123 55.46371,-30.08367 54.77204,-63.27881 -0.66486,-31.90867 -28.83723,-62.52942 -73.14717,-62.22416 -58.0843,0.40016 -106.31589,126.41775 -96.31722,150.82112 z"
         style="fill:#000000;fill-opacity:1;stroke:none" />
      <g
         transform="matrix(-0.05242071,-0.77265308,0.77665109,-0.05215086,258.77465,440.71562)"
         id="g3834">
        <path
           sodipodi:nodetypes="ccssssc"
           inkscape:connector-curvature="0"
           id="path3836"
           d="m 272.6248,132.28986 c 5.62322,22.56763 -17.25734,36.80157 -33.71122,18.1474 -5.48349,21.86058 -30.70723,6.41379 -28.475,-11.30564 2.67313,-21.21937 25.09841,-3.44621 41.37132,-16.24446 11.28845,-8.87809 3.80791,-22.977955 18.11933,-24.161697 8.96678,-0.74167 19.1787,9.727227 18.95966,19.554727 -0.15944,7.15357 -2.3522,15.25597 -16.26409,14.00967 z"
           style="fill:#000000;fill-opacity:1;stroke:none" />
        <g
           style="fill:#000000;fill-opacity:1;stroke:none"
           id="g3838">
          <path
             sodipodi:nodetypes="czcsc"
             style="fill:#000000;fill-opacity:1;stroke:none"
             d="m 215.89649,58.303142 c 6.83919,6.099815 10.35398,19.199929 10.25878,32.439926 -0.0952,13.240002 5.45286,30.776342 26.52495,26.524952 -3.60444,8.13309 -23.41342,10.69444 -30.22181,1.47875 -14.49616,-19.621691 1.57117,-34.011095 -6.56192,-60.443628 z"
             id="path3840"
             inkscape:connector-curvature="0" />
        </g>
        <path
           sodipodi:nodetypes="csscsssc"
           inkscape:connector-curvature="0"
           id="path3842"
           d="m 237.98521,116.15896 c -4.15896,-2.21811 -5.92518,-5.24754 -6.09981,-11.92236 -0.12041,-4.602516 3.01875,-10.058183 8.04066,-10.258781 4.35907,-0.174121 9.26953,7.130151 -0.36968,10.443621 6.97954,3.67289 10.21169,-1.99727 10.16635,-6.007392 -0.0591,-5.223996 -3.98422,-8.203416 -9.33456,-8.225508 -5.69327,-0.02351 -10.28332,6.328699 -10.3512,12.75416 -0.0904,8.5569 4.06654,11.09057 7.94824,13.21626 z"
           style="fill:#000000;fill-opacity:1;stroke:none" />
        <path
           transform="matrix(1.1618604,0,0,1.0834345,-37.293563,-8.3702563)"
           d="m 242.97597,79.744919 c 0,3.930307 -3.12407,7.116451 -6.97782,7.116451 -3.85374,0 -6.97782,-3.186144 -6.97782,-7.116451 0,-3.930307 3.12408,-7.116451 6.97782,-7.116451 3.85375,0 6.97782,3.186144 6.97782,7.116451 z"
           sodipodi:ry="7.1164508"
           sodipodi:rx="6.977819"
           sodipodi:cy="79.744919"
           sodipodi:cx="235.99815"
           id="path3844"
           style="fill:#000000;fill-opacity:1;stroke:none"
           sodipodi:type="arc" />
        <path
           sodipodi:nodetypes="ssccsss"
           inkscape:connector-curvature="0"
           id="path3846"
           d="m 256.85312,72.670964 c -2.40729,3.103663 -1.25044,5.882597 -0.8731,7.474015 0.57235,2.413903 3.36974,4.950619 1.61373,15.948771 2.57022,-2.820969 3.18717,-9.319299 3.34375,-13.25 1.60377,0.320209 3.31487,0.05878 4.54406,-1.018443 2.25448,-1.975754 1.90981,-5.919689 -0.19473,-8.595286 -1.58306,-2.012613 -6.02707,-3.661887 -8.43371,-0.559057 z"
           style="fill:#000000;fill-opacity:1;stroke:none" />
        <path
           sodipodi:nodetypes="sssccss"
           inkscape:connector-curvature="0"
           id="path3848"
           d="m 198.98156,104.10502 c -4.59259,0.0435 -5.09789,5.67438 -4.54406,7.95748 0.84174,3.46994 3.44601,6.22782 6.21721,5.52715 1.3856,-0.35034 2.84905,-1.88206 3.47029,-3.2459 2.78113,2.98474 7.63776,7.4375 11.78125,7.4375 -4.80591,-2.86506 -9.66229,-12.05363 -11.46568,-14.70594 -1.2539,-1.84416 -2.91194,-2.99443 -5.45901,-2.97029 z"
           style="fill:#000000;fill-opacity:1;stroke:none" />
        <path
           sodipodi:nodetypes="cssc"
           inkscape:connector-curvature="0"
           id="path3850"
           d="m 264.2329,95.36414 c 4.43622,-10.90573 18.20088,-14.128285 21.86281,-14.113101 15.28104,0.06336 14.17982,9.609704 7.98932,8.29055 -3.66481,-0.780946 -16.82071,-4.251386 -29.85213,5.822551 z"
           style="fill:#000000;fill-opacity:1;stroke:none" />
        <path
           sodipodi:nodetypes="scs"
           inkscape:connector-curvature="0"
           id="path3852"
           d="m 197.78189,164.21811 c 8.23887,0.27022 -7.67099,-24.39925 13.21626,-38.17005 -28.83295,6.90556 -20.44363,37.933 -13.21626,38.17005 z"
           style="fill:#000000;fill-opacity:1;stroke:none" />
      </g>
    </g>
  </g>
</svg>
