<?xml version="1.0" encoding="UTF-8" standalone="no"?>
<!-- Generator: Adobe Illustrator 15.0.2, SVG Export Plug-In . SVG Version: 6.00 Build 0)  -->

<svg
   xmlns:dc="http://purl.org/dc/elements/1.1/"
   xmlns:cc="http://creativecommons.org/ns#"
   xmlns:rdf="http://www.w3.org/1999/02/22-rdf-syntax-ns#"
   xmlns:svg="http://www.w3.org/2000/svg"
   xmlns="http://www.w3.org/2000/svg"
   xmlns:sodipodi="http://sodipodi.sourceforge.net/DTD/sodipodi-0.dtd"
   xmlns:inkscape="http://www.inkscape.org/namespaces/inkscape"
   version="1.1"
   id="Layer_1"
   x="0px"
   y="0px"
   width="512"
   height="512"
   viewBox="0 0 512 512"
   enable-background="new 0 0 844 378"
   xml:space="preserve"
   inkscape:version="0.48.2 r9819"
   sodipodi:docname="ic_action_amphibia.svg"
   inkscape:export-filename="/Users/sgrimault/Desktop/ic_action_amphibia.png"
   inkscape:export-xdpi="90"
   inkscape:export-ydpi="90"><metadata
   id="metadata39"><rdf:RDF><cc:Work
       rdf:about=""><dc:format>image/svg+xml</dc:format><dc:type
         rdf:resource="http://purl.org/dc/dcmitype/StillImage" /><dc:title></dc:title></cc:Work></rdf:RDF></metadata><defs
   id="defs37">
	
</defs><sodipodi:namedview
   pagecolor="#ffffff"
   bordercolor="#666666"
   borderopacity="1"
   objecttolerance="10"
   gridtolerance="10"
   guidetolerance="10"
   inkscape:pageopacity="0"
   inkscape:pageshadow="2"
   inkscape:window-width="1471"
   inkscape:window-height="815"
   id="namedview35"
   showgrid="false"
   inkscape:zoom="1.4"
   inkscape:cx="422"
   inkscape:cy="303.28571"
   inkscape:window-x="0"
   inkscape:window-y="0"
   inkscape:window-maximized="0"
   inkscape:current-layer="Layer_1" />
<polygon
   style="fill:#333333"
   id="polygon5"
   points="182.579,106.451 185.671,104.571 187.251,104.571 188.729,105.923 188.036,107.63 185.978,106.931 184.242,107.669 183.018,108.063 182.751,109.288 178.994,110.029 178.084,111.162 179.213,112.909 178.923,113.475 177.732,113.475 176.824,111.903 175.697,112.55 177.084,113.562 179.352,113.521 184.105,113.255 186.464,114.041 188.556,116.748 188.632,119.882 192.776,125.467 194.398,132.013 189.985,137.95 179.884,142.745 168.192,143.751 159.172,144.362 163.139,151.869 165.226,149.996 166.064,152.043 164.532,155.261 167.8,156.627 169.326,158.276 175.293,162.461 174.818,164.959 172.518,165.085 171.725,163.075 167.024,160.635 168.719,163.562 172.55,168.667 172.724,169.841 173.997,171.806 172.771,172.857 170.416,172.767 169.671,171.492 169.894,169.758 168.851,168.053 163.579,163.247 161.606,162.947 159.692,164.741 157.646,169.712 158.132,171.851 157.205,172.94 154.73,172.719 153.846,171.066 154.895,169.446 156.813,162.726 156.593,159.24 155.9,157.969 155.727,156.582 150.105,148.283 148.58,143.832 149.62,140.694 151.586,139.438 143.3,139.472 131.752,135.414 122.42,129.052 120.5,128.092 121.206,138.123 120.721,141.876 118.372,146.203 116.314,146.896 110.034,144.097 103.94,136.297 98.969,127.385 97.309,136.938 99.661,138.906 102.935,138.824 104.51,141.044 103.626,142.05 100.414,141.218 99.975,142.224 103.843,145.277 104.51,148.509 102.635,148.725 101.154,146.145 97.92,147.023 97.223,151.95 98.969,156.146 97.534,158.229 95.118,157.149 95.343,154.01 91.416,152.343 86.109,153.043 81.703,157.969 79.609,160.196 76.951,159.154 77.477,156.582 82.754,150.689 76.857,148.596 74.376,147.982 77.077,145.277 82.257,145.937 87.542,142.397 90.596,134.591 95.081,118.361 98.103,115.748 103.282,118.101 107.683,121.594 108.647,115.574 126.26,103.091 116.454,102.303 100.27,99.205 96.875,96.591 97.743,92.624 120.155,82.587 118.976,80.874 116.841,80.182 117.76,78.521 120.594,78.789 123.242,81.142 128.958,79.973 130.873,77.868 133.233,76.827 134.493,78.574 132.834,79.141 131.014,81.493 131.014,84.542 133.28,84.762 134.712,84.021 135.94,84.812 137.854,85.86 136.062,87.213 134.887,86.773 130.181,87.826 127.741,89.918 129.04,91.792 130.226,92.972 129.486,94.498 128.134,94.625 127.561,93.192 125.602,92.359 123.334,92.486 122.86,93.399 131.405,95.938 135.366,97.111 137.328,99.898 137.894,101.691 134.712,105.709 143.179,104.49 150.407,106.189 162.619,109.809 166.585,106.931 169.105,105.709 171.725,105.311 171.848,103.392 170.979,101.957 172.031,100.731 173.686,100.605 175.212,101.216 175.212,102.212 174.946,103.957 177.178,106.537 "
   transform="matrix(4.1659029,0,0,4.1659029,-303.84319,-264.25253)" />









</svg>