<?xml version="1.0" encoding="UTF-8" standalone="no"?>
<!-- Generator: Adobe Illustrator 15.0.2, SVG Export Plug-In . SVG Version: 6.00 Build 0)  -->

<svg
   xmlns:dc="http://purl.org/dc/elements/1.1/"
   xmlns:cc="http://creativecommons.org/ns#"
   xmlns:rdf="http://www.w3.org/1999/02/22-rdf-syntax-ns#"
   xmlns:svg="http://www.w3.org/2000/svg"
   xmlns="http://www.w3.org/2000/svg"
   xmlns:sodipodi="http://sodipodi.sourceforge.net/DTD/sodipodi-0.dtd"
   xmlns:inkscape="http://www.inkscape.org/namespaces/inkscape"
   version="1.1"
   id="Layer_1"
   x="0px"
   y="0px"
   width="512"
   height="512"
   viewBox="0 0 512 512"
   enable-background="new 0 0 844 378"
   xml:space="preserve"
   inkscape:version="0.48.2 r9819"
   sodipodi:docname="ic_action_aves.svg"
   inkscape:export-filename="/Users/sgrimault/Desktop/ic_action_aves.png"
   inkscape:export-xdpi="90"
   inkscape:export-ydpi="90"><metadata
   id="metadata39"><rdf:RDF><cc:Work
       rdf:about=""><dc:format>image/svg+xml</dc:format><dc:type
         rdf:resource="http://purl.org/dc/dcmitype/StillImage" /><dc:title></dc:title></cc:Work></rdf:RDF></metadata><defs
   id="defs37" /><sodipodi:namedview
   pagecolor="#ffffff"
   bordercolor="#666666"
   borderopacity="1"
   objecttolerance="10"
   gridtolerance="10"
   guidetolerance="10"
   inkscape:pageopacity="0"
   inkscape:pageshadow="2"
   inkscape:window-width="1401"
   inkscape:window-height="811"
   id="namedview35"
   showgrid="false"
   inkscape:zoom="1.61"
   inkscape:cx="286.72683"
   inkscape:cy="238.68944"
   inkscape:window-x="0"
   inkscape:window-y="0"
   inkscape:window-maximized="0"
   inkscape:current-layer="Layer_1" />




<path
   d="M 445.20317,77.423037 C 437.93295,60.232521 362.9157,32.481686 338.12996,143.19001 l -130.86892,98.15294 -195.770882,117.21852 9.8103,3.3951 26.01078,-7.59522 -41.3112405,24.39573 13.5454105,4.69014 140.119202,-41.63625 c 0,0 63.22189,8.64026 112.46837,8.66526 -2.31507,4.64514 -4.64014,9.27528 -6.96521,13.93042 -2.34507,4.69014 17.48553,51.65155 24.81075,74.01222 -12.35037,1.87505 -24.69574,3.75511 -37.05611,5.63017 -4.41514,0.67502 -2.53008,7.35522 1.84505,6.6902 13.01539,-1.97506 26.01578,-3.95012 39.03117,-5.92518 13.00539,1.97506 26.01078,3.95012 39.01617,5.92518 4.37513,0.66502 6.26019,-6.01518 1.84506,-6.6902 -12.46038,-1.89506 -24.91575,-3.78512 -37.38612,-5.68017 -0.55502,-1.93006 -1.14004,-3.85512 -1.70506,-5.77018 -2.20006,-7.49022 -4.42513,-14.97545 -6.63519,-22.46567 -4.13513,-13.99042 -8.25025,-27.98084 -12.39538,-41.97126 -0.03,-0.105 -0.06,-0.16 -0.085,-0.25001 1.50005,-3.01509 48.78646,-24.55573 48.78646,-24.55573 0,0 -0.025,0 -0.025,-0.005 C 496.99973,281.51416 402.38189,139.74991 438.59297,117.73925 453.81843,108.47897 506,94.603552 506,94.603552 506.02,78.813078 445.20317,77.423037 445.20317,77.423037 z"
   id="path19"
   inkscape:connector-curvature="0"
   style="fill:#333333" />





</svg>