<?xml version="1.0" encoding="UTF-8" standalone="no"?>
<!-- Generator: Adobe Illustrator 15.0.2, SVG Export Plug-In . SVG Version: 6.00 Build 0)  -->

<svg
   xmlns:dc="http://purl.org/dc/elements/1.1/"
   xmlns:cc="http://creativecommons.org/ns#"
   xmlns:rdf="http://www.w3.org/1999/02/22-rdf-syntax-ns#"
   xmlns:svg="http://www.w3.org/2000/svg"
   xmlns="http://www.w3.org/2000/svg"
   xmlns:sodipodi="http://sodipodi.sourceforge.net/DTD/sodipodi-0.dtd"
   xmlns:inkscape="http://www.inkscape.org/namespaces/inkscape"
   version="1.1"
   id="Layer_1"
   x="0px"
   y="0px"
   width="512"
   height="512"
   viewBox="0 0 512 512"
   enable-background="new 0 0 844 378"
   xml:space="preserve"
   inkscape:version="0.48.2 r9819"
   sodipodi:docname="ic_action_mammalia.svg"
   inkscape:export-filename="/Users/sgrimault/Desktop/ic_action_mammalia.png"
   inkscape:export-xdpi="90"
   inkscape:export-ydpi="90"><metadata
   id="metadata39"><rdf:RDF><cc:Work
       rdf:about=""><dc:format>image/svg+xml</dc:format><dc:type
         rdf:resource="http://purl.org/dc/dcmitype/StillImage" /><dc:title></dc:title></cc:Work></rdf:RDF></metadata><defs
   id="defs37">
	
</defs><sodipodi:namedview
   pagecolor="#ffffff"
   bordercolor="#666666"
   borderopacity="1"
   objecttolerance="10"
   gridtolerance="10"
   guidetolerance="10"
   inkscape:pageopacity="0"
   inkscape:pageshadow="2"
   inkscape:window-width="1167"
   inkscape:window-height="713"
   id="namedview35"
   showgrid="false"
   inkscape:zoom="0.53317536"
   inkscape:cx="422"
   inkscape:cy="189"
   inkscape:window-x="0"
   inkscape:window-y="0"
   inkscape:window-maximized="0"
   inkscape:current-layer="Layer_1" />








<path
   style="fill:#333333;fill-rule:evenodd"
   inkscape:connector-curvature="0"
   id="path29"
   d="m 13.845424,299.59868 c 0,0 -1.43419,-7.93159 0.319354,-9.84771 0.841932,-0.93484 5.579983,3.36772 5.579983,3.36772 0,0 2.525799,4.74387 6.956108,9.22063 3.385152,3.40838 8.181266,5.97482 12.065771,10.25997 4.145795,4.62192 7.078044,9.87674 10.387712,13.20963 3.750956,3.74515 7.153527,4.06451 7.153527,4.06451 0,0 9.499327,-19.60833 17.471561,-39.87278 6.927076,-17.58189 12.50706,-36.20312 12.50706,-36.20312 0,0 7.658687,-22.76123 16.72834,-44.99407 9.22642,-22.60444 19.83477,-44.65147 19.48058,-43.99535 -0.52258,0.94064 24.52057,-52.56565 42.24181,-77.318481 6.10256,-8.535459 19.6664,-8.92449 19.6664,-8.92449 0,0 27.4354,-13.105122 52.37403,-27.481854 29.63604,-17.06511 41.8702,-37.039245 107.50613,-44.709545 17.91285,-2.101929 48.01342,5.347726 48.01342,5.347726 0,0 20.79864,3.298055 39.88439,13.825121 13.42448,7.385784 27.19734,23.103802 27.19734,23.103802 0,0 10.25997,8.401911 18.61543,18.034785 5.03418,5.771596 9.94062,14.829634 9.94062,14.829634 0,0 9.55738,7.078043 10.67222,17.308982 1.03935,9.2961 -6.38707,21.82638 -6.38707,21.82638 0,0 -9.25546,19.55027 -15.62512,37.82893 -6.65998,19.09155 -10.44578,36.96957 -10.44578,36.96957 0,0 -5.53934,30.19345 -5.16192,55.57918 0.19162,14.20835 6.41612,30.46636 6.41612,30.46636 0,0 3.6987,12.30965 3.63482,26.03606 -0.0232,9.89997 -3.80321,22.51735 -3.80321,22.51735 0,0 -4.54644,36.83602 -6.84579,69.40431 -1.59677,22.94122 -1.18451,45.09858 -1.18451,45.09858 0,0 0.47031,1.01613 0.0697,2.23548 -1.04515,3.04256 -3.82063,9.13352 -5.5916,16.73414 -1.84644,7.98965 -2.82192,17.74446 -4.89481,22.81348 -1.27742,3.12386 -7.97805,3.26322 -7.97805,3.26322 0,0 -7.6761,2.4445 -9.77803,0.13354 -2.28194,-2.50837 1.05677,-9.749 1.05677,-9.749 0,0 4.13999,-8.98256 6.36384,-20.52575 2.85677,-14.73092 3.97161,-32.82376 3.97161,-32.82376 0,0 2.6129,-22.08769 4.12837,-43.43795 1.44,-20.27026 1.77097,-39.84956 1.77097,-39.84956 0,0 -0.80709,-11.08448 -3.32128,-20.02639 -1.67806,-5.98643 -5.42321,-11.00319 -5.42321,-11.00319 0,0 -5.70772,15.91544 -10.38772,32.87603 -3.89611,14.06899 -6.92126,29.73476 -6.92126,29.73476 0,0 -1.56194,10.93931 -4.47677,20.35735 -2.01483,6.56708 -5.69611,12.69867 -5.69611,12.69867 0,0 -2.87999,11.46771 -5.46386,23.80058 -1.59676,7.68772 -2.76385,16.39736 -4.00643,20.72316 -0.76645,2.60709 -3.72193,1.0858 -3.72193,1.0858 0,0 -4.92385,13.3432 -8.94771,19.53285 -1.57355,2.41548 -4.97611,1.86387 -4.97611,1.86387 0,0 -10.23095,-0.73742 -13.4419,-3.78579 -1.57935,-1.52129 2.57225,-6.54386 2.57225,-6.54386 0,0 4.92386,-7.51353 9.21481,-15.97931 3.32709,-6.60191 6.30579,-14.66705 6.30579,-14.66705 0,0 -0.38322,-3.11806 0.12194,-6.83998 0.47031,-3.55935 1.82902,-7.7574 1.82902,-7.7574 0,0 4.20966,-13.20964 7.53094,-27.58636 2.78129,-11.9961 4.79612,-25.60058 4.79612,-25.60058 0,0 6.63095,-24.53218 6.89805,-43.93729 0.12774,-9.42384 -6.02709,-21.61154 -6.02709,-21.61154 0,0 -3.50708,-8.99998 -10.39351,-19.45736 -4.47676,-6.77031 -11.42126,-13.37803 -16.24059,-21.05413 -10.05675,-16.00834 -18.51092,-31.3141 -18.51092,-31.3141 0,0 -7.86191,-10.99159 -15.82254,-15.04448 -5.94578,-3.01354 -12.52447,0.65032 -12.52447,0.65032 0,0 -17.21027,9.33094 -29.30508,15.43351 -5.73095,2.91483 -11.56061,5.23159 -11.56061,5.23159 0,0 6.67159,18.87672 12.43158,40.59859 6.42772,24.31154 12.02512,51.72953 12.02512,51.72953 0,0 7.34514,28.48056 17.12318,54.66177 9.58061,25.68766 21.5767,49.11663 21.5767,49.11663 0,0 8.63998,13.75544 12.629,26.65153 3.13548,10.12061 1.82322,20.08446 1.82322,20.08446 0,0 -0.85354,5.9574 -0.65612,12.19351 0.16838,4.86579 1.37031,10.32965 1.37031,10.32965 0,0 1.7129,2.29935 -4.72063,3.91934 C 360.13539,505.38452 346.80382,506 346.80382,506 c 0,0 -1.86386,-1.24838 -0.65613,-6.05611 0.90581,-3.72192 4.94708,-11.2819 4.94708,-11.2819 0,0 0.13935,-11.96125 -3.23418,-23.7367 -2.7987,-9.71997 -9.25546,-19.6722 -9.25546,-19.6722 0,0 -9.08126,-22.35478 -17.54124,-42.06762 -6.82256,-15.91544 -13.34318,-29.93217 -13.34318,-29.93217 0,0 -7.96643,-8.34966 -15.35802,-22.07026 -7.60643,-14.15028 -14.6206,-33.69473 -14.6206,-33.69473 0,0 -4.84257,-12.76836 -10.11481,-22.92381 -3.84967,-7.41482 -8.62836,-13.0819 -8.62836,-13.0819 0,0 -2.56644,17.47156 -7.27546,34.26377 -5.09225,18.15672 -12.33288,35.70957 -12.33288,35.70957 0,0 -0.82451,16.35673 -2.94386,27.13347 -0.98128,5.01096 -4.19805,9.24385 -4.19805,9.24385 0,0 -5.8703,19.38187 -8.83739,35.26247 -1.46902,7.91998 -1.1729,18.29027 -1.1729,18.29027 0,0 1.03354,6.13159 -0.33097,11.54319 -0.96967,3.83805 -4.46514,7.48449 -4.46514,7.48449 0,0 -0.43549,7.89676 -2.80451,13.349 -1.32387,3.04838 -5.2316,5.12127 -5.2316,5.12127 0,0 -0.54581,12.79739 -3.41999,19.35866 -1.23096,2.81031 -6.4045,2.94967 -6.4045,2.94967 0,0 -13.16319,3.76837 -18.01737,3.86708 -1.41096,0 0,-3.49547 0,-3.49547 0,0 1.56775,-5.89354 4.43612,-10.63739 2.11354,-3.47225 5.73676,-6.16644 5.73676,-6.16644 0,0 5.45804,-8.79094 8.08837,-20.00897 1.49805,-6.39288 0.029,-14.84124 1.27161,-19.70704 1.12644,-4.49998 2.59546,-7.89675 2.59546,-7.89675 0,0 2.0613,-12.62899 5.49871,-28.02765 2.48515,-11.20062 6.20127,-23.92832 7.89674,-33.90958 1.74774,-10.29481 0.3542,-18.58639 0.3542,-18.58639 0,0 -2.00903,-17.37867 -1.24839,-34.15926 0.65033,-13.88319 4.09354,-27.6967 4.09354,-27.6967 0,0 3.29224,-13.91221 0.76645,-19.24251 -1.2658,-2.60129 -5.93417,0.77806 -9.33095,1.31224 -3.38515,0.56323 -23.39412,-2.00902 -39.38503,-0.59805 -6.59612,0.57483 -15.20706,5.41159 -15.20706,5.41159 0,0 -12.41416,13.46512 -23.41154,31.65087 -8.81417,14.53932 -16.75157,34.64119 -16.75157,34.64119 0,0 -3.98901,10.36449 -5.9574,22.81929 -1.10322,6.99675 -3.03096,36.60956 -7.1361,53.03016 -2.10193,8.53546 -5.452243,15.38125 -5.452243,15.38125 0,0 -3.634828,9.09868 -7.379979,16.35673 -3.135474,6.02127 -6.526432,10.3819 -6.526432,10.3819 0,0 -1.207739,2.65354 -1.544511,5.3303 -0.354193,2.86838 0.139354,5.92257 -0.743224,9.30191 -1.271609,4.81935 -3.785796,8.63418 -3.785796,8.63418 0,0 -3.80902,6.20127 -8.976747,8.33803 -3.385152,1.42258 -8.849006,-0.95226 -8.849006,-0.95226 0,0 -8.605136,-0.73741 -13.51738,-5.38256 -2.99612,-2.83935 -3.257409,-10.49803 -3.257409,-10.49803 0,0 -0.74903,-4.67999 0.203225,-10.76513 0.731611,-4.84838 3.181926,-11.38642 3.181926,-11.38642 0,0 0.789675,-8.63998 -0.934835,-17.37866 -1.213546,-6.25933 -5.138695,-13.43028 -5.138695,-13.43028 0,0 -1.573544,-2.3458 -2.816121,-6.81675 -1.039352,-3.68709 -1.829027,-9.6445 -1.829027,-9.6445 0,0 -4.621922,-5.22578 -7.153527,-10.20771 -1.811608,-3.55353 -1.753543,-7.32772 -1.753543,-7.32772 0,0 -0.528386,-1.97418 0.296128,-4.26191 0.743223,-2.03225 2.81612,-4.15742 3.344506,-7.13611 0.56903,-3.28064 0.104516,-10.20771 0.104516,-10.20771 0,0 -0.330966,-3.2516 0.696772,-7.33353 1.347093,-5.27805 4.134181,-11.67675 4.134181,-11.67675 0,0 -2.519992,-2.96127 -4.232891,-6.29997 -1.921929,-3.75096 -3.077409,-7.92579 -3.077409,-7.92579 0,0 -6.549659,-5.81804 -9.987068,-12.10061 -3.338729,-6.08514 -3.570986,-12.6348 -3.570986,-12.6348 l -1.463221,-14.55092 z"
   clip-rule="evenodd" />

</svg>