<?xml version="1.0" encoding="UTF-8" standalone="no"?>
<!-- Generator: Adobe Illustrator 15.0.2, SVG Export Plug-In . SVG Version: 6.00 Build 0)  -->

<svg
   xmlns:dc="http://purl.org/dc/elements/1.1/"
   xmlns:cc="http://creativecommons.org/ns#"
   xmlns:rdf="http://www.w3.org/1999/02/22-rdf-syntax-ns#"
   xmlns:svg="http://www.w3.org/2000/svg"
   xmlns="http://www.w3.org/2000/svg"
   xmlns:sodipodi="http://sodipodi.sourceforge.net/DTD/sodipodi-0.dtd"
   xmlns:inkscape="http://www.inkscape.org/namespaces/inkscape"
   version="1.1"
   id="Layer_1"
   x="0px"
   y="0px"
   width="512"
   height="512"
   viewBox="0 0 512 512"
   enable-background="new 0 0 844 378"
   xml:space="preserve"
   inkscape:version="0.48.2 r9819"
   sodipodi:docname="ic_action_reptilia.svg"
   inkscape:export-filename="/Users/sgrimault/Desktop/ic_action_reptilia.png"
   inkscape:export-xdpi="90"
   inkscape:export-ydpi="90"><metadata
   id="metadata39"><rdf:RDF><cc:Work
       rdf:about=""><dc:format>image/svg+xml</dc:format><dc:type
         rdf:resource="http://purl.org/dc/dcmitype/StillImage" /><dc:title></dc:title></cc:Work></rdf:RDF></metadata><defs
   id="defs37" /><sodipodi:namedview
   pagecolor="#ffffff"
   bordercolor="#666666"
   borderopacity="1"
   objecttolerance="10"
   gridtolerance="10"
   guidetolerance="10"
   inkscape:pageopacity="0"
   inkscape:pageshadow="2"
   inkscape:window-width="1419"
   inkscape:window-height="815"
   id="namedview35"
   showgrid="false"
   inkscape:zoom="0.53317536"
   inkscape:cx="422"
   inkscape:cy="189"
   inkscape:window-x="0"
   inkscape:window-y="0"
   inkscape:window-maximized="0"
   inkscape:current-layer="Layer_1" />






<path
   clip-rule="evenodd"
   d="m 163.64417,248.66508 c -6.25365,-9.44708 -9.27631,-23.40596 -19.76169,-28.4608 -3.08755,-1.49595 -9.54955,0.26299 -10.28386,-5.533 15.44117,-4.01654 25.61915,10.6664 31.6269,21.34646 1.13392,-9.34121 -11.02843,-16.32235 -10.28045,-25.30153 11.86521,1.40716 16.38041,16.76295 18.18034,30.83453 4.82601,-6.21951 -1.87849,-17.14206 -0.78213,-22.13542 6.93333,1.49596 6.04873,10.81326 7.89648,17.38796 1.07927,2.29176 3.39835,-4.93871 5.54666,-1.58134 3.42226,-0.52598 2.1244,3.66476 2.36689,6.33221 14.19112,-13.47729 24.51256,-30.82086 50.58938,-32.41245 3.82187,4.07803 5.12315,10.68689 5.533,18.18035 23.04392,-18.12912 56.71667,-29.61863 92.50015,-32.40904 -0.28348,-3.21733 -3.98922,-6.11362 -2.38056,-8.6991 7.03921,-10.86108 20.96051,-5.33491 33.21167,-7.11435 4.15658,-0.60794 9.5188,-4.9797 15.81345,-7.11776 8.2995,-2.82114 17.65436,-2.18246 22.91755,-6.32538 7.23046,-5.69352 6.1751,-16.46238 12.64734,-22.13541 7.835,-3.79455 14.0101,-10.59126 23.72359,-14.22869 3.29589,-1.23639 7.46272,-0.76164 11.066,-2.3669 7.07336,-3.1661 13.20065,-13.22114 25.29469,-10.27703 4.82601,1.17491 5.4442,6.68058 8.69911,9.48465 10.26675,8.85622 18.97955,5.20512 18.18035,23.72018 -1.1852,26.958 -42.29672,43.11641 -63.24356,49.01145 -5.31442,16.30185 -11.42462,31.79425 -26.87945,37.94203 -4.18049,14.53266 -9.91842,27.50447 -19.76169,36.36069 11.10357,3.91409 19.02737,11.00794 28.44713,16.60242 5.39297,-1.20224 5.40663,-7.77694 11.86521,-7.90331 1.54378,1.88531 4.69622,2.15513 3.94824,6.33221 4.83967,-0.0546 8.71277,-6.31855 12.65076,-2.38056 1.44131,5.38955 -4.76453,3.14561 -5.533,6.33221 8.56932,-2.08341 16.58192,-1.23297 19.76169,5.533 -4.3376,1.45498 -11.27093,0.31422 -15.81345,1.58135 7.00164,3.54522 19.608,1.48229 19.76169,11.85838 -13.77785,-3.64427 -28.60083,-3.5179 -43.47504,-2.37373 -10.43414,0.81287 -19.19472,3.43593 -27.66499,-1.58134 -4.96604,-2.93728 -10.03454,-10.47172 -15.81346,-15.01424 -7.0392,-5.533 -18.12911,-9.12945 -14.22869,-25.29469 -16.76635,17.42212 -46.46353,32.30998 -84.59,28.46079 4.75086,6.96748 19.9188,13.34751 17.39821,26.08366 -0.61819,3.08072 -5.26318,7.93746 -7.91356,10.28045 -8.41221,7.43881 -24.44424,12.48682 -34.77934,16.59558 4.05412,1.73846 10.54002,1.05879 14.2321,3.16611 0.45084,2.56157 -0.24591,3.97556 -1.58476,4.74403 4.64499,1.93314 14.32091,-0.57379 16.599,5.533 -5.2905,3.19685 -8.68544,-1.53694 -15.81686,1.58135 8.84255,1.15783 29.6357,3.96873 29.26,16.60241 -8.15946,-2.72551 -15.3387,-13.71637 -26.0939,-8.69569 0.77189,4.48788 6.56105,3.35054 9.48124,4.74062 6.69083,3.17294 14.40971,11.00794 14.22869,19.76511 -5.97017,1.35592 -5.45444,-5.82331 -8.69569,-8.69228 -10.89864,-9.70324 -36.83885,-13.78126 -52.17414,-19.7651 2.32933,8.82889 10.89523,14.06475 6.3288,25.2981 -2.93044,0.48841 -3.61694,3.22759 -7.89648,2.36348 -2.84506,-2.66745 0.60453,-8.3883 0,-12.64734 -0.90168,-6.24683 -10.43756,-15.45825 -15.81345,-19.76169 -5.31441,-4.23855 -13.52511,-5.36565 -11.86521,-15.81345 2.26443,-14.28334 23.6382,-21.76997 38.74466,-26.87945 -12.12137,-3.42227 -21.05272,-10.04137 -28.46421,-18.18035 -28.95945,2.47277 -56.86695,19.08202 -94.06783,17.39821 -28.395896,-1.29445 -59.534396,-5.16072 -79.053586,-15.81345 -4.06437,-2.2132 -6.50982,-7.0153 -11.8618,-7.11776 -11.13089,-14.62829 -27.2141597,-30.90624 -29.2463397,-56.12579 -2.14831,-26.54133 6.6259297,-44.57822 17.3845497,-61.66563 13.31335,-15.82711 51.53203,-31.36391 74.3198,-15.02107 3.166096,2.2781 7.295356,7.15533 5.529576,11.066 -4.655226,1.8136 -7.756436,-4.20439 -11.062576,-6.31855 -63.71489,-23.94559 -91.66336975,70.12224 -48.2259,102.76694 38.44752,17.44602 87.687796,8.4771 123.314166,-4.74745 -5.52958,-12.33996 -17.53824,-17.99592 -33.99379,-18.18035 6.15802,-7.38758 23.77482,-3.42226 30.05238,0.78555 z m 97.23394,105.92963 c -0.2425,0.67625 7.34659,3.42226 9.4949,0 -3.51106,0.53622 -8.40196,-3.06023 -9.4949,0 z"
   id="path23"
   inkscape:connector-curvature="0"
   style="fill:#333333;fill-rule:evenodd" />



</svg>