<?xml version="1.0" encoding="UTF-8" standalone="no"?>
<!-- Generator: Adobe Illustrator 15.0.2, SVG Export Plug-In . SVG Version: 6.00 Build 0)  -->

<svg
   xmlns:dc="http://purl.org/dc/elements/1.1/"
   xmlns:cc="http://creativecommons.org/ns#"
   xmlns:rdf="http://www.w3.org/1999/02/22-rdf-syntax-ns#"
   xmlns:svg="http://www.w3.org/2000/svg"
   xmlns="http://www.w3.org/2000/svg"
   xmlns:sodipodi="http://sodipodi.sourceforge.net/DTD/sodipodi-0.dtd"
   xmlns:inkscape="http://www.inkscape.org/namespaces/inkscape"
   version="1.1"
   id="Layer_1"
   x="0px"
   y="0px"
   width="512"
   height="512"
   viewBox="0 0 512 512"
   enable-background="new 0 0 844 378"
   xml:space="preserve"
   inkscape:version="0.48.2 r9819"
   sodipodi:docname="ic_action_osteichthyes.svg"
   inkscape:export-filename="/Users/sgrimault/Desktop/ic_action_osteichthyes.png"
   inkscape:export-xdpi="90"
   inkscape:export-ydpi="90"><metadata
   id="metadata39"><rdf:RDF><cc:Work
       rdf:about=""><dc:format>image/svg+xml</dc:format><dc:type
         rdf:resource="http://purl.org/dc/dcmitype/StillImage" /><dc:title></dc:title></cc:Work></rdf:RDF></metadata><defs
   id="defs37">
	
</defs><sodipodi:namedview
   pagecolor="#ffffff"
   bordercolor="#666666"
   borderopacity="1"
   objecttolerance="10"
   gridtolerance="10"
   guidetolerance="10"
   inkscape:pageopacity="0"
   inkscape:pageshadow="2"
   inkscape:window-width="1440"
   inkscape:window-height="848"
   id="namedview35"
   showgrid="false"
   inkscape:zoom="1.2304688"
   inkscape:cx="256"
   inkscape:cy="256"
   inkscape:window-x="0"
   inkscape:window-y="0"
   inkscape:window-maximized="0"
   inkscape:current-layer="Layer_1" />


<path
   style="fill:#333333"
   inkscape:connector-curvature="0"
   id="path13"
   d="m 21.707258,221.18022 c 0,0 -12.9036151,-22.07874 -15.5451159,-38.068 -1.4025668,-8.62968 6.7556969,-15.98147 6.7556969,-15.98147 0,0 6.915433,-8.49722 15.817837,-16.45678 6.062205,-5.46222 15.081489,-11.40755 15.081489,-11.40755 0,0 11.16599,-5.9609 27.68511,-9.8764 9.537454,-2.26749 28.296785,-3.48304 28.296785,-3.48304 0,0 22.78781,-7.16089 45.59511,-8.72319 16.31653,-1.10257 38.85889,3.78693 38.85889,3.78693 0,0 10.84652,-21.650177 30.3383,-27.735758 9.69719,-3.031103 31.58503,6.455703 31.58503,6.455703 0,0 18.72426,16.425615 23.37221,34.717425 3.11682,12.57245 -7.39464,29.23573 -7.39464,29.23573 0,0 8.9998,13.43736 25.92801,22.14497 12.87634,6.75959 34.87716,9.30369 34.87716,9.30369 0,0 40.51859,-2.99214 63.62588,17.77753 41.3991,37.33555 8.46605,61.77918 8.46605,61.77918 0,0 -3.57654,5.59078 -10.36731,8.8011 -5.58689,2.66878 -14.61007,3.14799 -14.61007,3.14799 0,0 21.96186,10.9595 49.41711,15.17889 16.42561,2.6376 29.53961,-4.48822 45.52108,-3.84927 16.60094,0.70907 35.65637,9.26863 35.65637,9.26863 0,0 5.92584,8.09982 5.283,18.5918 -0.63895,9.93874 -7.79594,22.41769 -7.79594,22.41769 0,0 -5.87909,15.50616 -11.30624,30.10064 -5.72325,15.45551 -10.89717,29.97208 -10.89717,29.97208 0,0 -3.70511,9.75953 -10.13354,10.39847 -37.89658,3.9155 -19.90087,-9.10499 -62.1493,-34.98625 -19.71775,-12.04649 -53.15728,-23.7813 -53.15728,-23.7813 0,0 -5.14274,1.04024 -3.70511,4.14926 1.53113,3.20643 9.62706,8.3258 9.62706,8.3258 0,0 9.65823,14.71136 4.67912,25.32412 -3.74797,8.29073 -22.25796,12.97374 -22.25796,12.97374 0,0 -35.4226,5.79338 -65.1765,-5.78559 -20.76578,-8.04917 -39.21343,-34.71352 -39.21343,-34.71352 0,0 -14.52825,-13.8036 -27.83705,-19.63594 -13.39841,-5.87909 -25.62412,-3.94667 -25.62412,-3.94667 0,0 8.00632,9.2998 9.63486,20.0645 1.74152,12.51012 -2.87137,26.75396 -2.87137,26.75396 0,0 -1.29737,12.17506 -10.62834,6.59986 -9.2024,-5.56352 -26.39163,-28.8695 -26.39163,-28.8695 0,0 -9.84134,7.69074 -18.40479,1.59737 -8.88293,-6.34272 -16.62042,-26.58644 -16.62042,-26.58644 0,0 -1.13764,-6.38947 -3.51031,-14.40358 -2.23632,-7.70632 -5.81676,-17.22819 -5.81676,-17.22819 0,0 -22.448861,-14.15424 -43.888653,-37.76412 -20.890453,-23.00988 -40.799109,-55.5845 -40.799109,-55.5845 z" />







</svg>