<?xml version="1.0" encoding="UTF-8" standalone="no"?>
<svg
   xmlns:dc="http://purl.org/dc/elements/1.1/"
   xmlns:cc="http://creativecommons.org/ns#"
   xmlns:rdf="http://www.w3.org/1999/02/22-rdf-syntax-ns#"
   xmlns:svg="http://www.w3.org/2000/svg"
   xmlns="http://www.w3.org/2000/svg"
   viewBox="0 0 100 100"
   version="1.1"
   x="0px"
   y="0px"
   id="svg2"
   width="100"
   height="100">
  <metadata
     id="metadata16">
    <rdf:RDF>
      <cc:Work
         rdf:about="">
        <dc:format>image/svg+xml</dc:format>
        <dc:type
           rdf:resource="http://purl.org/dc/dcmitype/StillImage" />
        <dc:title></dc:title>
      </cc:Work>
    </rdf:RDF>
  </metadata>
  <defs
     id="defs14" />
  <g
     id="g4150">
    <path
       style="display:inline;opacity:1;fill:#000000;stroke:none"
       d="m 16.275786,37.136144 c 0,0 -1.149418,-1.782324 -1.11478,-2.779651 0.04143,-1.192774 1.532421,0.02546 1.560692,-3.224396 0.02828,-3.24986 -3.880981,-10.19898 -6.688679,-14.454188 C 7.2253211,12.4227 0.22295677,5.7816746 0.22295677,5.7816746 L 8.0986753e-7,-6.7479715e-7 l 2.89842759013247,0 L 7.5805029,0.66711572 10.033019,0.22237146 c 0,0 9.259815,14.99234154 17.61352,22.68195654 1.438805,0.621019 3.337825,-1.249378 4.682076,-0.444744 1.099424,2.659518 2.22956,5.336931 2.22956,5.336931 0,0 -3.790252,3.335582 -4.682076,3.557955 -0.891823,0.222371 -8.24937,2.446092 -8.24937,2.446092 z"
       id="path6" />
    <path
       style="display:inline;opacity:1;fill:#000000;stroke:none"
       d="M 48.604399,20.90298 C 47.035957,19.333769 46.125815,17.184523 45.315799,15.121304 43.624936,10.814452 42.138677,1.6121973 42.138677,1.6121973 L 38.069731,3.5023604 36.118866,6.2264186 34.78113,7.0603147 38.682859,22.403991 c -0.273046,-0.152535 -1.659066,1.368919 -2.396776,1.778976 -1.870895,1.039943 -1.306019,5.354285 0.445912,6.3932 0.923092,0.547404 1.616431,-2.779652 1.616431,-2.779652 l 3.121383,0.444744 4.236164,-0.444744 5.350942,-2.001349 2.22956,3.891511 0.891823,-1.000673 c 0,0 -0.0077,-3.535099 -0.891823,-5.114559 -0.260858,-0.466025 -3.413011,-1.398778 -4.682076,-2.668465 z"
       id="path8" />
    <path
       style="display:inline;fill:#000000;stroke:none"
       d="m 50.038425,28.034315 -4.682772,1.544861 -5.547284,0.215562 -0.900533,3.987897 -1.548917,-0.215562 -1.36881,2.011912 -3.313962,-3.556773 -10.268445,3.212652 -2.447082,2.356033 2.233322,4.203458 c 0,0 -3.019644,3.212094 -4.034388,5.137561 -1.738652,3.299081 -2.85462,6.976142 -3.349983,10.670318 -0.551109,4.109911 -0.865872,8.503548 0.468278,12.430741 1.114004,3.279172 5.56965,8.034029 6.01556,8.478772 0.445913,0.444744 0.80962,0.685474 1.116661,0.431124 1.860525,-1.541233 -2.669569,-5.103271 -1.332789,-7.113546 0.373596,-0.56182 1.314895,-0.544626 1.981173,-0.431124 2.072602,0.353075 5.367177,3.305284 5.367177,3.305284 0,0 3.4706,2.390738 4.568472,4.12139 0.893696,1.408792 1.447089,4.788505 1.447089,4.788505 l 2.44945,2.87416 2.017194,2.011912 2.116898,0.785808 c 0,0 2.512709,3.264003 2.99813,3.453578 1.430149,0.55853 1.621019,2.834447 2.917727,3.556773 0.949539,-1.012463 2.665578,-1.79635 2.665578,-1.79635 l 4.8989,-1.975985 3.133855,-0.251489 7.97207,-2.031577 c 0,0 1.902661,-0.893184 4.729802,-0.509025 3.182821,0.432492 5.978653,2.304145 8.295912,3.492495 1.282503,0.6577 2.580016,1.103124 3.789067,1.887104 2.268649,1.471053 6.024271,4.017015 6.916094,4.239386 0.891825,0.222374 4.456685,0.69269 6.699966,0.646686 1.575483,-0.03231 3.502549,-0.382695 3.958164,-1.536174 -0.30585,-0.422739 -2.889446,-1.109625 -4.250516,-1.949509 -3.274213,-2.020439 -6.534944,-3.792851 -9.056367,-6.577021 -0.752706,-0.831142 -4.697559,-5.949748 -3.942067,-6.778371 3.48371,2.814288 8.158747,8.245098 11.980953,8.15951 0.989304,-0.251588 1.780875,-1.412151 1.85954,-2.427408 -3.024999,-5.565053 -8.406537,-15.046646 -8.406537,-15.046646 0,0 -3.069162,-4.25364 -5.255698,-6.36436 -2.948829,-2.846581 -7.226024,-4.49298 -9.743942,-7.725069 -1.948007,-2.50053 -3.001239,-6.185207 -3.789067,-9.103149 -0.549191,-2.034083 -0.08005,-4.61287 -1.547035,-6.128369 -1.70565,-1.762056 -4.81564,-1.087186 -7.076484,-2.043322 -1.249473,-0.528414 -2.597953,-1.037399 -3.532737,-2.018722 -2.065858,-2.168707 -4.067762,-8.00491 -4.067762,-8.00491 L 52.523896,32.022212 Z M 32.496041,50.919813 c 5.59873,0.208681 9.971007,4.906614 9.761778,10.490683 -0.209228,5.58407 -4.919495,9.944898 -10.518226,9.736216 -5.451418,-0.203188 -8.582899,-4.78311 -9.761778,-10.095486 l -0.334434,-1.507057 c 0.209229,-5.58407 5.25393,-8.833036 10.85266,-8.624356 z"
       display="inline"
       id="path10" />
  </g>
</svg>
