<?xml version="1.0" encoding="UTF-8" standalone="no"?>
<svg
   xmlns:dc="http://purl.org/dc/elements/1.1/"
   xmlns:cc="http://creativecommons.org/ns#"
   xmlns:rdf="http://www.w3.org/1999/02/22-rdf-syntax-ns#"
   xmlns:svg="http://www.w3.org/2000/svg"
   xmlns="http://www.w3.org/2000/svg"
   xmlns:sodipodi="http://sodipodi.sourceforge.net/DTD/sodipodi-0.dtd"
   xmlns:inkscape="http://www.inkscape.org/namespaces/inkscape"
   version="1.0"
   x="0px"
   y="0px"
   width="96px"
   height="96px"
   viewBox="0 0 96 96"
   enable-background="new 0 0 96 96"
   xml:space="preserve"
   id="svg2"
   inkscape:version="0.48.2 r9819"
   sodipodi:docname="content_unselect_all.svg"
   inkscape:export-filename="/Users/sgrimault/Desktop/content_unselect_all.png"
   inkscape:export-xdpi="480"
   inkscape:export-ydpi="480"><metadata
   id="metadata11"><rdf:RDF><cc:Work
       rdf:about=""><dc:format>image/svg+xml</dc:format><dc:type
         rdf:resource="http://purl.org/dc/dcmitype/StillImage" /><dc:title></dc:title></cc:Work></rdf:RDF></metadata><defs
   id="defs9">
	
</defs><sodipodi:namedview
   pagecolor="#ffffff"
   bordercolor="#666666"
   borderopacity="1"
   objecttolerance="10"
   gridtolerance="10"
   guidetolerance="10"
   inkscape:pageopacity="0"
   inkscape:pageshadow="2"
   inkscape:window-width="1281"
   inkscape:window-height="780"
   id="namedview7"
   showgrid="true"
   inkscape:zoom="5.8541667"
   inkscape:cx="48"
   inkscape:cy="48"
   inkscape:window-x="181"
   inkscape:window-y="87"
   inkscape:window-maximized="0"
   inkscape:current-layer="svg2"><inkscape:grid
     type="xygrid"
     id="grid3837" /></sodipodi:namedview>
<g
   id="_x35__content_select_all">
	<path
   display="inline"
   fill-rule="evenodd"
   clip-rule="evenodd"
   fill="#333333"
   d="M68.71,84h-3.771v-4h3.771V84z M61.18,84h-3.77   v-4h3.77V84z M53.65,84H49.88v-4h3.771V84z M38.59,84h-3.77v-4h3.77V84z M31.061,84H27.29v-4h3.771V84z M45,69H27V51h18V69z M12,12   h4v4h-4V12z M12,19.76h4v3.77h-4V19.76z M12,27.29h4v3.77h-4V27.29z M12,34.82h4v3.77h-4V34.82z M12,42.35h4v3.77h-4V42.35z    M12,49.88h4v3.771h-4V49.88z M12,57.41h4v3.77h-4V57.41z M12,64.939h4v3.771h-4V64.939z M12,72.471h4v3.77h-4V72.471z M12,80h4v4   h-4V80z M19.76,12h3.77v4h-3.77V12z M19.76,80h3.77v4h-3.77V80z M45,45H27V27h18V45z M27.29,12h3.771v4H27.29V12z M34.82,12h3.77v4   h-3.77V12z M42.35,12h3.771v4H42.35V12z M42.35,80h3.771v4H42.35V80z M49.88,12h3.771v4H49.88V12z M57.41,12h3.77v4h-3.77V12z    M64.939,12h3.771v4h-3.771V12z M51,27h18v18H51V27z M51,51h18v18H51V51z M72.471,12h3.77v4h-3.77V12z M72.471,80h3.77v4h-3.77V80z    M80,12h4v4h-4V12z M80,19.76h4v3.77h-4V19.76z M80,27.29h4v3.77h-4V27.29z M80,34.82h4v3.77h-4V34.82z M80,42.35h4v3.77h-4V42.35z    M80,49.88h4v3.771h-4V49.88z M80,57.41h4v3.77h-4V57.41z M80,64.939h4v3.771h-4V64.939z M80,72.471h4v3.77h-4V72.471z M80,84v-4h4   v4H80z"
   id="path5" />
</g>
<g
   id="g3845"
   transform="translate(-33,-32)"><path
     inkscape:connector-curvature="0"
     id="path3841"
     d="m 105,36 20,20"
     style="fill:none;stroke:#333333;stroke-width:4;stroke-linecap:butt;stroke-linejoin:miter;stroke-miterlimit:4;stroke-opacity:1;stroke-dasharray:none" /><path
     inkscape:connector-curvature="0"
     id="path3843"
     d="M 125,36 105,56"
     style="fill:none;stroke:#333333;stroke-width:4;stroke-linecap:butt;stroke-linejoin:miter;stroke-miterlimit:4;stroke-opacity:1;stroke-dasharray:none" /></g></svg>