<?xml version="1.0" encoding="UTF-8" standalone="no"?>
<!-- Created with Inkscape (http://www.inkscape.org/) -->

<svg
   xmlns:dc="http://purl.org/dc/elements/1.1/"
   xmlns:cc="http://creativecommons.org/ns#"
   xmlns:rdf="http://www.w3.org/1999/02/22-rdf-syntax-ns#"
   xmlns:svg="http://www.w3.org/2000/svg"
   xmlns="http://www.w3.org/2000/svg"
   xmlns:sodipodi="http://sodipodi.sourceforge.net/DTD/sodipodi-0.dtd"
   xmlns:inkscape="http://www.inkscape.org/namespaces/inkscape"
   width="512"
   height="512"
   id="svg2"
   sodipodi:version="0.32"
   inkscape:version="0.48.2 r9819"
   version="1.0"
   sodipodi:docname="ic_taxon_heritage.svg"
   inkscape:output_extension="org.inkscape.output.svg.inkscape"
   inkscape:export-filename="/Users/sgrimault/Desktop/ic_taxon_heritage.png"
   inkscape:export-xdpi="90"
   inkscape:export-ydpi="90">
  <defs
     id="defs4">
    <inkscape:perspective
       sodipodi:type="inkscape:persp3d"
       inkscape:vp_x="0 : 526.18109 : 1"
       inkscape:vp_y="0 : 1000 : 0"
       inkscape:vp_z="744.09448 : 526.18109 : 1"
       inkscape:persp3d-origin="372.04724 : 350.78739 : 1"
       id="perspective10" />
    <inkscape:perspective
       id="perspective2452"
       inkscape:persp3d-origin="98.962639 : 65.619334 : 1"
       inkscape:vp_z="197.92528 : 98.429001 : 1"
       inkscape:vp_y="0 : 1000 : 0"
       inkscape:vp_x="0 : 98.429001 : 1"
       sodipodi:type="inkscape:persp3d" />
    <inkscape:perspective
       id="perspective2501"
       inkscape:persp3d-origin="372.04724 : 350.78739 : 1"
       inkscape:vp_z="744.09448 : 526.18109 : 1"
       inkscape:vp_y="0 : 1000 : 0"
       inkscape:vp_x="0 : 526.18109 : 1"
       sodipodi:type="inkscape:persp3d" />
    <inkscape:perspective
       id="perspective2510"
       inkscape:persp3d-origin="372.04724 : 350.78739 : 1"
       inkscape:vp_z="744.09448 : 526.18109 : 1"
       inkscape:vp_y="0 : 1000 : 0"
       inkscape:vp_x="0 : 526.18109 : 1"
       sodipodi:type="inkscape:persp3d" />
  </defs>
  <sodipodi:namedview
     id="base"
     pagecolor="#ffffff"
     bordercolor="#666666"
     borderopacity="1.0"
     inkscape:pageopacity="0.0"
     inkscape:pageshadow="2"
     inkscape:zoom="0.98994949"
     inkscape:cx="227.17889"
     inkscape:cy="235.22391"
     inkscape:document-units="px"
     inkscape:current-layer="layer1"
     showgrid="true"
     showguides="true"
     inkscape:guide-bbox="true"
     showborder="true"
     inkscape:window-width="1315"
     inkscape:window-height="871"
     inkscape:window-x="0"
     inkscape:window-y="0"
     inkscape:window-maximized="0">
    <inkscape:grid
       type="xygrid"
       id="grid3764"
       empspacing="5"
       visible="true"
       enabled="true"
       snapvisiblegridlinesonly="true" />
  </sodipodi:namedview>
  <metadata
     id="metadata7">
    <rdf:RDF>
      <cc:Work
         rdf:about="">
        <dc:format>image/svg+xml</dc:format>
        <dc:type
           rdf:resource="http://purl.org/dc/dcmitype/StillImage" />
        <dc:title></dc:title>
      </cc:Work>
    </rdf:RDF>
  </metadata>
  <g
     inkscape:groupmode="layer"
     id="layer4"
     inkscape:label="Rectangles_de_fond"
     style="display:inline"
     transform="translate(-202.71498,-189.07581)" />
  <g
     inkscape:label="Logo_SVG_parc"
     inkscape:groupmode="layer"
     id="layer1"
     transform="translate(-202.71498,-189.07581)"
     style="display:inline">
    <path
       id="path2384"
       d="m 405.58484,692.40296 c -1.44953,-1.43772 -6.48731,-3.39092 -11.19511,-4.34034 -6.20322,-1.25112 -8.78484,-3.27368 -9.37786,-7.34711 -1.01274,-6.9564 -4.53346,-7.23285 -8.09322,-0.63548 -3.09755,5.74084 -10.30217,4.28136 -10.27811,-2.08212 0.009,-2.29517 1.73716,-7.44685 3.84106,-11.44815 2.10391,-4.0013 3.82531,-8.85886 3.82531,-10.79463 0,-4.23843 4.11744,-4.64575 6.60503,-0.65342 1.21897,1.95626 2.53296,1.5419 4.13941,-1.30536 1.62855,-2.88643 1.12495,-5.39012 -1.63469,-8.12734 -2.19356,-2.17576 -3.98832,-5.53671 -3.98832,-7.46886 0,-2.23427 -2.3303,-1.20164 -6.4018,2.83675 -3.52098,3.4924 -6.40178,8.01226 -6.40178,10.04422 0,2.03191 -2.30465,3.6944 -5.12145,3.6944 -2.81678,0 -5.12143,-1.46043 -5.12143,-3.24539 0,-3.66046 -6.98598,-10.21098 -13.55715,-12.71207 -2.43269,-0.92589 -4.36789,-4.355 -4.36789,-7.73974 0,-5.13929 -1.00446,-5.88679 -6.50806,-4.8433 -3.57945,0.67869 -6.32379,0.23432 -6.09854,-0.98719 0.22526,-1.22165 0.27304,-5.45752 0.10625,-9.41307 l -0.30322,-7.19189 -9.60268,5.86416 -9.60272,5.86419 4.48126,-6.8376 c 2.46468,-3.76071 4.48126,-7.34888 4.48126,-7.97369 0,-0.62488 -4.70476,-1.92446 -10.455,-2.88803 -9.12773,-1.52966 -10.2771,-2.45494 -9.05397,-7.28873 0.95836,-3.78745 -0.18826,-6.52101 -3.62898,-8.65239 -2.76645,-1.71368 -5.02997,-4.84498 -5.02997,-6.95852 0,-2.11356 -2.88078,-5.14472 -6.40178,-6.73593 -8.81633,-3.98436 -8.04704,-7.35698 1.2571,-5.5113 7.64027,1.51566 7.65196,1.4996 4.81089,-6.5841 -1.56642,-4.45687 -4.85783,-9.3484 -7.31435,-10.87005 -5.31452,-3.29199 -3.81714,-13.13988 1.67983,-11.04765 1.98079,0.75391 4.25729,-0.32437 5.05887,-2.39625 2.60751,-6.73991 7.98817,-4.321 6.58489,2.96017 -0.87848,4.55809 -0.37314,6.16123 1.56722,4.97178 1.57508,-0.96552 4.8285,0.52048 7.22982,3.30225 2.40138,2.78179 5.3129,4.47741 6.47005,3.76807 1.15718,-0.70939 2.10394,2.06662 2.10394,6.16887 0,4.10222 1.72848,8.88148 3.8411,10.62053 3.20907,2.64167 3.84107,2.27494 3.84107,-2.22891 0,-2.96497 1.15231,-5.39082 2.5607,-5.39082 1.40841,0 3.3243,-0.28577 4.25757,-0.63497 0.93324,-0.34923 1.83455,2.48581 2.00291,6.30014 0.29766,6.74524 7.33268,14.41012 13.37567,14.57333 6.02114,0.16253 11.09347,-3.10714 11.13168,-7.17571 0.0225,-2.29522 1.07555,-5.79719 2.34219,-7.78214 1.96053,-3.07237 3.28743,-2.96921 8.92331,0.69354 8.31979,5.407 8.38125,8.72693 0.21849,11.80515 -7.95657,3.00051 -8.93442,12.69953 -1.28036,12.69953 2.81678,0 5.12143,1.14296 5.12143,2.53993 0,1.39693 1.04444,2.5399 2.321,2.5399 1.27653,0 1.75231,-2.1569 1.05727,-4.79317 -0.69506,-2.63623 -0.11497,-5.49734 1.28901,-6.35801 4.11522,-2.52268 11.11831,1.31897 9.59273,5.26224 -0.76927,1.98837 0.46257,6.43269 2.73742,9.87629 3.38632,5.12625 4.82036,5.69778 7.91157,3.15316 2.07658,-1.70939 5.29199,-3.32873 7.14541,-3.59858 3.92071,-0.57071 7.06404,9.45285 4.79975,15.30555 -0.85362,2.20646 -0.27643,4.0117 1.28266,4.0117 1.55909,0 2.83469,-4.09115 2.83469,-9.09147 0,-8.68881 0.3255,-9.02059 7.34938,-7.49045 6.13362,1.33625 7.67005,0.63431 9.2876,-4.24302 l 1.93821,-5.8441 1.16294,5.93847 c 0.97868,4.99756 2.24571,5.67974 7.99724,4.30583 7.86438,-1.87871 13.23615,-7.84031 13.23615,-14.6895 0,-2.60934 1.15232,-4.03788 2.56069,-3.17452 1.40843,0.86337 2.56074,3.86999 2.56074,6.68141 0,4.08114 1.41973,4.94704 7.04196,4.29495 3.8731,-0.44921 8.38818,-2.52938 10.03354,-4.62259 1.64533,-2.09323 3.83604,-2.96823 4.8682,-1.94441 1.03223,1.02379 3.26931,-0.0281 4.97141,-2.33639 2.83869,-3.85061 3.87606,-3.71888 12.54007,1.59229 9.16379,5.61748 9.59906,5.65217 14.59969,1.16341 4.42053,-3.96799 5.49104,-4.09866 7.51951,-0.91785 1.30084,2.03991 2.38282,4.56613 2.40437,5.61385 0.0756,3.67789 8.47191,1.85773 11.71339,-2.53925 2.85569,-3.87359 4.35435,-4.04058 11.67337,-1.3004 6.15901,2.30587 8.87096,2.3833 10.17495,0.29055 0.99142,-1.59112 4.48411,-2.17954 7.89567,-1.33022 7.6489,1.90412 13.90038,-6.17856 10.04578,-12.98844 -2.21054,-3.90534 -2.62892,-3.9369 -4.04033,-0.30468 -1.19514,3.07558 -4.16134,3.79519 -12.31191,2.98673 -11.53343,-1.14394 -16.39004,-3.22863 -7.52169,-3.22863 2.96838,0 6.10923,-1.14297 6.97969,-2.53993 0.87045,-1.39694 0.36229,-2.53987 -1.12923,-2.53987 -1.49151,0 -2.71183,-2.4259 -2.71183,-5.39082 0,-4.65483 -0.5597,-4.93011 -4.09943,-2.01629 -2.25468,1.85602 -5.66131,3.60195 -7.57027,3.87982 -4.41359,0.64254 -9.76232,-5.59883 -7.67242,-8.95287 0.87147,-1.39864 -2.1982,-4.49032 -6.82152,-6.87043 -10.65649,-5.48597 -5.47308,-7.55424 6.49832,-2.59292 8.77829,3.63799 9.01523,3.57908 10.58673,-2.63124 1.2613,-4.98462 2.35201,-5.73957 5.06528,-3.50601 2.57452,2.11926 6.13267,1.9324 13.92793,-0.73145 8.88293,-3.03553 10.91343,-3.04802 13.39483,-0.0824 3.25906,3.89498 16.57115,4.76115 18.77656,1.22172 2.05665,-3.3007 -6.62183,-5.97916 -9.64793,-2.97768 -3.80006,3.76921 -9.81721,-5.149 -6.30562,-9.34582 1.4644,-1.75011 4.28608,-3.18208 6.27043,-3.18208 1.98434,0 4.27116,-1.71443 5.08184,-3.80986 1.78838,-4.62256 7.68986,-5.0181 9.473,-0.63496 0.77158,1.89664 1.37299,1.38535 1.49373,-1.26996 0.27758,-6.10438 6.97693,-5.62104 8.62291,0.62212 1.37967,5.23289 8.51768,9.45781 11.30618,6.69196 0.86958,-0.86246 -0.51106,-3.86108 -3.06801,-6.66355 -2.55699,-2.80246 -3.67406,-5.09539 -2.4824,-5.09539 1.19168,0 0.0419,-1.54102 -2.55504,-3.42455 -5.05312,-3.66493 -3.47225,-9.27496 2.61364,-9.27496 2.02946,0 3.68995,-0.95247 3.68995,-2.1166 0,-4.17165 -3.18959,-5.14026 -9.31719,-2.82949 -8.4025,3.16868 -11.53186,-3.97381 -4.0258,-9.18855 2.89039,-2.00806 6.01136,-7.06539 6.93539,-11.23847 0.92412,-4.17311 2.74383,-8.2395 4.04389,-9.03643 5.35492,-3.28263 2.00338,-8.48152 -5.95862,-9.24296 -7.95808,-0.76106 -8.32236,-1.26842 -8.32236,-11.59137 0,-6.94362 -1.1421,-10.79518 -3.20089,-10.79461 -3.76375,10e-4 -4.02034,-2.40165 -0.79614,-7.45555 1.94388,-3.047 3.00012,-3.09191 6.42446,-0.27303 2.25397,1.8554 4.90116,2.57702 5.88266,1.60349 0.98145,-0.97348 0.18062,-2.75325 -1.77997,-3.955 -2.98852,-1.83205 -2.85591,-3.25762 0.82075,-8.82334 2.41189,-3.65105 3.66196,-7.79902 2.77797,-9.21773 -0.88396,-1.41867 -0.29974,-4.14203 1.2983,-6.05189 2.12801,-2.54328 2.14237,-3.94028 0.0535,-5.2207 -1.96956,-1.20737 -1.53016,-3.19691 1.42031,-6.43059 4.06385,-4.45403 3.91594,-4.64349 -3.03411,-3.88575 -4.01847,0.43808 -7.88244,-0.0447 -8.58664,-1.07297 -2.29828,-3.35581 -12.80358,-5.5919 -12.80358,-2.72532 0,1.49105 -1.17065,2.71108 -2.60138,2.71108 -1.43077,0 -2.35743,-3.17588 -2.05926,-7.05743 0.75046,-9.76868 -2.37671,-14.41462 -7.09057,-10.53429 -1.98721,1.63586 -3.61311,4.79369 -3.61311,7.0174 0,3.59559 -0.48009,3.5669 -4.33748,-0.25919 -4.02003,-3.98735 -4.67648,-3.99787 -8.97,-0.14384 -4.41218,3.96051 -4.50261,3.78851 -1.90049,-3.61516 1.50262,-4.27547 4.95889,-9.77247 7.68062,-12.21557 3.96533,-3.5594 4.33425,-5.17615 1.85668,-8.13718 -1.70055,-2.03237 -4.28922,-6.05472 -5.75259,-8.93852 -3.41238,-6.72463 -9.06249,-8.62277 -9.06249,-3.04454 0,2.70535 -1.3722,3.77099 -3.71,2.88121 -2.21,-0.84118 -4.32007,0.49445 -5.21891,3.30346 -0.82993,2.5936 -3.13486,5.33443 -5.12211,6.09082 -2.53261,0.96394 -3.14957,0.0846 -2.06292,-2.94026 0.85262,-2.37351 -1.01819,-1.17233 -4.15737,2.66927 -6.58129,8.05399 -14.76434,9.88729 -10.72609,2.40308 1.42464,-2.64034 1.53441,-6.08667 0.2592,-8.13343 -2.8948,-4.64589 -0.0485,-9.19778 2.93918,-4.70044 1.84249,2.77347 3.04393,2.46419 6.15573,-1.58464 5.03824,-6.55532 3.81744,-12.13379 -3.33855,-15.25587 -3.16066,-1.37896 -5.74665,-4.33035 -5.74665,-6.5586 0,-2.40954 -3.59642,-5.14621 -8.87449,-6.75289 l -8.87454,-2.70156 0.31179,8.22608 c 0.37784,9.96863 -2.32781,14.92185 -7.14861,13.08692 -2.06685,-0.78665 -3.58205,0.21454 -3.58205,2.36678 0,2.05161 -1.15231,3.73014 -2.5607,3.73014 -3.80641,0 -3.09837,-8.26797 1.23326,-14.40202 3.89089,-5.50986 3.18821,-6.96037 -5.86954,-12.11647 -4.50694,-2.56555 -2.59484,26.1954 1.92574,28.9666 2.36585,1.45028 2.2023,2.28167 -0.66353,3.37246 -2.43989,0.92866 -4.39985,-0.53815 -5.46687,-4.09137 -1.64261,-5.46967 -1.69032,-5.47431 -3.80697,-0.37105 -1.17896,2.84238 -3.76296,6.50106 -5.74221,8.13039 -2.99774,2.46765 -3.42643,1.49857 -2.56703,-5.80298 0.56742,-4.82097 0.009,-8.76537 -1.24006,-8.76537 -3.30612,0 -10.47461,8.91317 -11.52677,14.33216 -0.49752,2.56234 -2.90788,5.04148 -5.3564,5.50918 -3.50735,0.66997 -4.45224,-0.94044 -4.45368,-7.59057 -10e-4,-7.38366 -0.87001,-8.49086 -6.93354,-8.84004 -10.103,-0.58173 -13.21987,5.10191 -10.1337,18.47882 2.66968,11.57179 -0.45445,23.82881 -6.07363,23.82881 -1.52174,0 -1.94455,-1.31958 -0.93961,-2.93234 1.13203,-1.81679 0.70246,-2.2429 -1.12924,-1.12006 -4.20108,2.5753 -3.66197,6.59232 0.88471,6.59232 4.27224,0 4.95385,4.48384 1.50328,9.88886 -1.36585,2.13942 -4.48177,2.96267 -7.87868,2.08158 -5.13363,-1.33155 -5.28106,-1.08686 -1.70592,2.83151 2.43409,2.66776 3.6237,7.91011 3.14705,13.86842 -1.01484,12.68617 -2.83451,13.93915 -6.22665,4.28758 -1.6125,-4.58813 -3.95197,-7.22791 -5.54185,-6.25333 -1.9432,1.1912 -1.90015,2.70386 0.14673,5.14996 2.22611,2.66048 1.672,4.76849 -2.39024,9.09342 -3.8935,4.14518 -4.56686,6.49209 -2.5531,8.89878 1.50428,1.79781 1.99169,4.46177 1.08312,5.91994 -0.9086,1.45811 0.14448,2.65115 2.34027,2.65115 4.91369,0 4.96539,4.34629 0.15124,12.69955 -4.81426,8.35325 -4.76256,12.69955 0.15124,12.69955 2.19573,0 3.32138,-1.07656 2.50156,-2.39234 -1.29279,-2.07471 11.90933,-17.92695 14.92997,-17.92695 0.61081,0 1.11057,4.00034 1.11057,8.88968 0,7.32555 -0.94214,8.88966 -5.3548,8.88966 -5.25058,0 -5.2581,0.0701 -0.38717,3.60292 4.77882,3.46597 4.70014,3.66942 -2.0713,5.35511 -7.66439,1.90803 -8.24748,3.06682 -4.43897,8.82132 2.24136,3.38654 2.80145,3.38654 5.0406,0 1.38551,-2.09539 2.96675,-4.9528 3.51387,-6.34974 0.54712,-1.39696 4.94331,1.17605 9.76936,5.71778 6.82943,6.42715 9.45642,7.5814 11.85042,5.20681 2.39406,-2.37457 3.07591,-1.92479 3.07591,2.02895 0,2.7939 -1.28196,6.35132 -2.84882,7.90545 -5.44658,5.40234 -1.36426,8.47856 6.12891,4.61843 3.91669,-2.01768 8.81406,-3.02415 10.88305,-2.23665 2.06904,0.78753 3.76187,0.27954 3.76187,-1.12896 0,-3.84063 18.5035,-14.24392 23.96969,-13.47654 3.04959,0.42813 4.31682,-0.54839 3.52102,-2.71329 -1.31208,-3.56905 -2.60133,-3.64036 -10.84603,-0.59968 -5.03854,1.85822 -5.04316,1.80039 -0.28677,-3.57401 4.18126,-4.72455 4.35432,-6.04373 1.28036,-9.76083 -3.19112,-3.8588 -2.9397,-4.14078 2.46058,-2.75967 5.0165,1.28303 5.80015,0.72371 4.72101,-3.36937 -1.60423,-6.08479 -1.3581,-6.07925 5.86327,0.13288 5.11438,4.39957 5.40844,5.59059 2.31237,9.36519 -3.13415,3.82095 -3.00098,4.12128 1.14348,2.57907 2.57987,-0.96003 6.28878,-1.7455 8.24193,-1.7455 2.10468,0 2.95086,-1.55201 2.07735,-3.80984 -0.93336,-2.41255 0.0353,-3.8099 2.64108,-3.8099 4.48097,0 5.55775,-3.89562 1.72607,-6.2445 -1.31394,-0.80544 -2.31156,-6.30194 -2.21696,-12.21446 0.34381,-21.48654 0.20802,-21.82092 -8.83784,-21.78995 -13.02152,0.0446 -25.11661,-3.17451 -23.24044,-6.18555 1.0442,-1.67581 0.0707,-2.07665 -2.58685,-1.0652 -2.68867,1.0234 -4.26115,0.34565 -4.26115,-1.8365 0,-3.15024 -7.29471,-7.7727 -9.23268,-5.85051 -0.44963,0.44598 -2.55969,4.75897 -4.68901,9.58444 -3.64754,8.26599 -3.96777,8.43884 -5.53523,2.98756 -1.21676,-4.2316 -2.95434,-5.37973 -6.4677,-4.27369 -8.87078,2.79259 -4.91321,-3.35935 7.33975,-11.40944 10.42724,-6.85055 13.59446,-7.73816 22.40629,-6.27938 5.64441,0.93439 13.32408,3.84747 17.06596,6.47346 6.71118,4.70986 6.78524,4.70567 5.46294,-0.30969 -2.06153,-7.81931 3.75655,-6.02463 8.21937,2.53546 2.46551,4.72899 6.1335,7.74949 9.66847,7.96186 3.13271,0.18823 8.57667,0.47395 12.09767,0.63497 3.52095,0.16111 6.69851,0.8643 7.06118,1.56278 1.52956,2.9459 -5.89824,17.77937 -8.90296,17.77937 -1.80382,0 -3.27966,1.55041 -3.27966,3.44532 0,2.19158 2.78211,3.34691 7.64517,3.1749 5.82858,-0.20605 7.3327,-1.2518 6.32998,-4.40044 -0.87356,-2.74323 0.57779,-4.62096 4.32245,-5.59228 7.68026,-1.99212 10.39393,0.19617 7.31649,5.89957 -1.4122,2.61729 -2.56762,7.08389 -2.56762,9.92575 0,3.54948 -1.20249,4.70941 -3.84109,3.70513 -2.20251,-0.83835 -3.96451,0.009 -4.13039,1.98464 -1.37302,16.3564 -1.25483,19.95602 0.65503,19.95602 1.20724,0 2.195,2.97965 2.195,6.62155 0,4.64671 -1.07417,6.21266 -3.60175,5.25057 -2.29165,-0.8722 -4.75395,1.38824 -6.76946,6.21447 -2.13228,5.10604 -5.50494,8.04901 -10.31848,9.00389 -13.41935,2.66205 -11.90162,12.60227 2.84957,18.66275 10.35202,4.25309 9.58448,8.37072 -1.32483,7.10748 -4.90715,-0.56825 -9.30356,0.10209 -9.7698,1.48925 -0.4662,1.3873 -4.94166,0.0116 -9.94536,-3.05463 -10.64925,-6.52809 -12.33427,-6.80665 -12.33427,-2.03886 0,1.94596 -1.72849,4.19599 -3.84109,5.00011 -2.11258,0.80408 -3.84106,0.2326 -3.84106,-1.26995 0,-1.50258 -1.7721,-2.05743 -3.938,-1.23308 -2.22405,0.84648 -4.56136,-0.1123 -5.37016,-2.20289 -1.2511,-3.23377 -1.90941,-3.22837 -5.20744,0.043 -5.22814,5.18567 -10.40715,4.67914 -13.65231,-1.33523 -3.15319,-5.8439 -7.68215,-6.75281 -7.68215,-1.54168 0,1.94596 -1.82274,4.23186 -4.05053,5.0798 -5.86761,2.23331 -6.19236,2.05196 -6.19236,-3.45841 0,-3.54113 -1.1962,-4.5448 -4.09953,-3.43974 -2.25471,0.85817 -5.11789,-0.0352 -6.36255,-1.98465 -1.58185,-2.47786 -2.27488,-1.06014 -2.30231,4.70973 -0.0225,4.54007 -1.19153,8.2547 -2.59991,8.2547 -1.4084,0 -2.56074,-2.27876 -2.56074,-5.06392 0,-6.68767 -9.36788,-5.45182 -15.48665,2.04315 l -4.4365,5.4343 -1.10937,-7.49715 c -0.61013,-4.12346 -0.0764,-8.52196 1.18655,-9.77446 1.35407,-1.34309 -0.16111,-2.8889 -3.69355,-3.76831 -3.5731,-0.88952 -7.17482,-4.60583 -8.92756,-9.21168 -3.30059,-8.67312 -11.96339,-10.58992 -14.80445,-3.27581 -1.6171,4.16313 -1.8968,4.14394 -4.41294,-0.30244 -1.99621,-3.52759 -1.8033,-5.28871 0.75074,-6.85436 2.58532,-1.58483 1.91602,-2.66512 -2.70063,-4.35905 -3.8412,-1.40943 -5.05106,-2.91825 -3.23343,-4.03247 2.04375,-1.25285 1.41749,-4.19922 -2.11331,-9.94294 -7.27419,-11.8332 -6.72957,-16.19661 1.36494,-10.936 7.61981,4.9521 8.60199,0.78241 1.28037,-5.43559 -7.42175,-6.30303 -6.93831,-12.39055 0.56977,-7.1744 3.13014,2.17463 7.1633,3.95389 8.96252,3.95389 6.01721,0 3.36095,-4.232 -5.69122,-9.0673 -4.92938,-2.63308 -8.96252,-5.58881 -8.96252,-6.56833 0,-0.97952 -1.79643,-3.56273 -3.99205,-5.74048 -2.19562,-2.17779 -4.36888,-7.11703 -4.82944,-10.97606 -0.46063,-3.85903 -0.96884,-7.87363 -1.1294,-8.92137 -0.16059,-1.0477 -1.57869,-1.90491 -3.15138,-1.90491 -1.62692,0 -2.26445,2.25642 -1.47909,5.23518 2.07116,7.85589 -5.67537,9.56912 -11.4247,2.52669 -5.40255,-6.61763 -6.82584,-15.94387 -1.64972,-10.80978 5.48737,5.44277 9.97796,3.6393 8.22155,-3.30188 -1.19603,-4.72667 -0.59254,-6.34976 2.36084,-6.34976 2.18215,0 4.67971,1.14297 5.55015,2.53992 2.81779,4.52227 6.79428,2.68802 5.17092,-2.38522 -1.09092,-3.40936 0.0381,-5.78196 3.66852,-7.70909 5.40152,-2.86731 6.84873,-11.40081 2.96468,-17.48086 -1.53461,-2.40226 -2.73195,-2.59462 -3.95301,-0.635 -2.67048,4.28581 -5.82771,3.36379 -7.27468,-2.12442 -0.75143,-2.85022 0.59329,-6.6361 3.18272,-8.96044 4.12492,-3.70268 4.82892,-3.5617 8.79237,1.76061 l 4.30839,5.78556 -1.57066,-7.61974 c -4.47183,-21.69373 -4.43206,-24.03658 0.43811,-25.82303 2.61713,-0.95996 5.49894,-2.84071 6.4041,-4.17939 0.90511,-1.33868 4.49367,-1.72494 7.97458,-0.85839 5.15994,1.28449 6.15446,2.8727 5.3845,8.59846 l -0.9444,7.02291 2.81751,-7.07877 c 3.03818,-7.63329 6.0744,-7.63375 21.18695,-0.003 4.75109,2.39897 8.21348,2.83411 9.8258,1.23485 1.61236,-1.59923 1.50866,-3.0707 -0.29423,-4.17588 -5.07384,-3.11035 -2.98888,-9.02647 3.1811,-9.02647 4.53898,0 5.91634,-1.36619 5.76163,-5.71479 -0.11726,-3.29425 1.15246,-5.44582 2.99758,-5.07979 4.25426,0.84392 4.03624,-0.71355 -0.76679,-5.47755 -2.85763,-2.83444 -3.49434,-6.43807 -2.27573,-12.88095 1.98604,-10.50056 6.94404,-12.18627 5.76702,-1.96078 -0.83895,7.28856 0.0984,8.30765 7.51835,8.17391 4.05478,-0.0731 4.00824,-0.43562 -0.48941,-3.80983 -2.73389,-2.05102 -3.88623,-3.80623 -2.56074,-3.90052 1.32549,-0.0941 6.15503,-0.65613 10.73233,-1.24858 7.97774,-1.03256 11.17909,1.90888 5.71985,5.25546 -2.92497,1.79302 -0.95206,6.32418 2.75362,6.32418 1.32525,0 2.40958,-1.57158 2.40958,-3.49239 0,-1.92079 3.45697,-4.17813 7.68214,-5.01633 8.99598,-1.78456 9.4914,-3.8467 2.66916,-11.10999 -4.99442,-5.31729 -4.98848,-5.35305 1.60248,-9.63651 5.457,-3.54649 7.00067,-3.69648 8.81489,-0.85664 2.93853,4.59985 2.83503,7.25268 -0.28292,7.25268 -1.40839,0 -2.56072,1.71444 -2.56072,3.80987 0,6.50513 10.13579,4.4199 12.84277,-2.64213 1.93758,-5.05485 3.44873,-5.96857 6.97861,-4.21964 6.78366,3.36113 26.27155,3.72364 26.27155,0.48868 0,-1.89113 1.42026,-1.98067 4.47965,-0.28238 3.23804,1.79732 5.71861,1.37442 8.94953,-1.52576 4.14854,-3.72386 4.58501,-3.44117 6.07184,3.93246 1.97404,9.79016 7.63703,15.17597 11.70957,11.1365 1.55408,-1.54145 5.94873,-2.18315 9.76583,-1.42591 4.90613,0.97326 7.39995,0.18853 8.50871,-2.67751 2.36535,-6.1139 11.12243,-4.98833 12.91884,1.66057 2.65569,9.82899 1.8073,12.06456 -4.57835,12.06456 -3.4058,0 -8.01511,0.69378 -10.24286,1.54171 -7.39485,2.8146 -4.19227,6.07803 5.96473,6.07803 7.98442,0 11.32599,-1.54507 16.47933,-7.61974 6.88742,-8.11867 11.91621,-9.85776 11.91621,-4.12088 0,1.9244 1.71733,4.91258 3.81631,6.64042 2.51841,2.07312 3.27622,5.41819 2.22822,9.83566 l -1.58806,6.69412 5.3972,-5.54822 c 5.03327,-5.17407 5.91035,-5.29423 13.0082,-1.78217 4.86783,2.40868 7.09688,5.09497 6.18455,7.45312 -0.88215,2.28023 0.14367,3.68712 2.68859,3.68712 4.52137,0 5.72779,-8.8712 1.55431,-11.42957 -4.48616,-2.75008 -2.75131,-8.88966 2.51195,-8.88966 3.45014,0 5.56942,2.23407 6.62578,6.98472 0.85425,3.84161 1.8328,8.11685 2.17461,9.50053 0.34181,1.38367 2.25759,-0.81783 4.25727,-4.89226 1.99969,-4.07444 5.36428,-7.92105 7.47687,-8.54807 2.95574,-0.87728 3.15656,-0.41715 0.87133,1.99608 -2.12937,2.24868 -2.2309,5.23832 -0.35868,10.56527 2.23323,6.35416 1.58944,8.96032 -4.44913,18.01103 -4.24767,6.36655 -5.92978,10.95561 -4.22256,11.52005 1.71156,0.56585 2.2304,3.94929 1.30748,8.52635 -1.26783,6.28767 -0.5924,7.83139 3.9411,9.00732 6.26407,1.62477 7.11958,6.46746 1.9014,10.76297 -2.76037,2.27226 -4.53156,1.98459 -7.81163,-1.26881 -3.94864,-3.91653 -4.49272,-3.87871 -7.87201,0.54732 -4.53031,5.93364 -4.65375,7.85387 -0.59215,9.20976 2.50925,0.83771 2.45698,1.96258 -0.24195,5.20609 -1.89365,2.27564 -2.90896,5.60462 -2.25626,7.39781 0.7081,1.9454 2.55015,0.379 4.56749,-3.88407 2.20533,-4.66026 6.00236,-7.66438 10.92069,-8.64003 4.79956,-0.95211 9.04427,-4.2261 11.67905,-9.00825 8.59623,-15.60189 11.6145,-18.0841 17.91989,-14.73691 4.62107,2.45297 5.15628,3.77111 2.71577,6.68784 -2.3845,2.84983 -2.28218,3.64113 0.47487,3.67163 2.83107,0.0314 2.79026,0.49328 -0.20974,2.37562 -2.05558,1.28977 -5.43549,1.38685 -7.54356,0.21679 -2.7374,-1.51947 -4.76543,-0.31137 -7.15887,4.26447 -4.38722,8.38767 -4.12272,10.85366 0.51261,4.77901 3.08942,-4.04868 3.92859,-4.21582 5.16194,-1.02796 2.12029,5.48054 -0.58446,17.79504 -4.44165,20.22251 -2.43504,1.53247 -2.14192,2.08195 1.12588,2.11067 3.6514,0.0323 3.99559,1.14056 1.98391,6.38868 -1.56497,4.08277 -1.54232,6.34977 0.0633,6.34977 3.97874,0 2.88855,6.92732 -1.34374,8.53823 -2.11262,0.80406 -3.84111,3.78374 -3.84111,6.62151 0,5.40166 1.964,6.20185 8.81847,3.59296 3.1857,-1.21255 3.4515,-2.36055 1.17624,-5.07983 -2.40912,-2.87926 -1.29302,-3.51323 6.1853,-3.51323 11.21098,0 13.4671,2.96471 6.8061,8.94387 -5.32186,4.77706 -6.98909,16.45519 -2.3492,16.45519 1.49152,0 2.10319,0.97684 1.35928,2.17074 -0.74393,1.19388 1.4927,4.82196 4.97031,8.06244 7.89426,7.35598 8.28127,17.81068 0.83015,22.42617 -4.78595,2.9646 -5.29456,2.89025 -3.95291,-0.57766 0.84689,-2.18899 0.55855,-4.58153 -0.64076,-5.31673 -1.19933,-0.7352 -2.93947,0.62486 -3.86698,3.02237 -1.3481,3.48453 -2.11511,3.67109 -3.82313,0.92999 -1.17517,-1.88603 -3.49287,-2.59774 -5.1505,-1.58162 -2.20608,1.35236 -1.89488,3.07383 1.16088,6.42301 4.65802,5.10519 0.81086,9.8501 -4.5934,5.66532 -4.46727,-3.45915 -14.61198,-5.56521 -14.61198,-3.03346 0,1.18595 -2.3,1.71696 -5.11112,1.17999 -6.71947,-1.28353 -11.94708,7.61276 -7.55664,12.85989 1.67856,2.00617 4.63934,3.64754 6.57948,3.64754 4.34583,0 4.35108,0.38481 0.11614,8.48127 -3.11839,5.96189 -3.76112,6.17513 -7.48359,2.48293 -5.13464,-5.09293 -12.15148,-2.6242 -12.15148,4.27522 0,5.754 8.04105,10.36165 9.66251,5.53677 0.55394,-1.64827 2.06346,-2.99683 3.35445,-2.99683 3.10325,0 3.00126,9.28165 -0.16649,15.15254 -3.69125,6.84112 1.94337,7.97037 19.53314,3.91472 8.22109,-1.89553 15.40109,-2.99644 15.95559,-2.44645 0.55449,0.54996 -2.59766,3.03579 -7.00469,5.52409 -4.40703,2.48826 -8.02009,5.81289 -8.02897,7.38803 -0.009,1.57512 -1.96588,4.43251 -4.34882,6.34975 -3.67636,2.95789 -4.01024,2.95506 -2.20428,-0.0199 1.46151,-2.40648 1.03594,-3.14323 -1.35836,-2.35162 -1.91769,0.63405 -4.26788,3.92549 -5.22263,7.31424 -0.95473,3.38884 -1.85078,4.88329 -1.99119,3.32105 -0.44478,-4.94973 -21.35938,-6.28146 -26.47888,-1.68607 -4.13896,3.71531 -4.50496,3.67702 -4.50496,-0.47066 0,-8.76489 -6.9585,0.8225 -8.41517,11.59436 -1.72688,12.77041 -3.46187,14.67992 -7.88568,8.67911 -1.95314,-2.64935 -5.1325,-4.02953 -7.34367,-3.18794 -2.14462,0.81629 -5.17287,0.22106 -6.72942,-1.32293 -5.12703,-5.08534 -6.57511,0.67298 -2.07109,8.23571 4.30882,7.23496 4.27442,7.49339 -1.41496,10.62646 -3.20716,1.76619 -6.59939,3.2517 -7.53834,3.30119 -0.93892,0.0494 -2.57136,0.94724 -3.62767,1.99495 -1.05628,1.04772 -4.03313,1.90491 -6.61521,1.90491 -5.61883,0 -6.07731,3.31962 -1.03213,7.47273 2.92929,2.41136 4.2289,1.96513 6.49188,-2.22891 1.55618,-2.88409 5.02551,-5.24382 7.70961,-5.24382 2.68413,0 5.59242,-1.14294 6.46285,-2.53987 2.45954,-3.94733 7.12333,-2.98871 5.52754,1.13613 -1.09054,2.81874 1.38364,3.88746 10.60909,4.58262 l 12.03126,0.90658 -8.32234,3.59392 c -5.89755,2.54684 -8.32232,5.28177 -8.32232,9.38686 0,3.18614 -1.02907,5.79294 -2.28673,5.79294 -1.25774,0 -2.96028,1.74088 -3.78347,3.86861 -1.21701,3.14567 -0.56014,3.37149 3.51456,1.20852 2.75621,-1.4631 7.78148,-1.97055 11.16732,-1.12764 3.3858,0.84288 10.24307,0.41317 15.23834,-0.95487 7.24773,-1.98493 8.8183,-1.80487 7.77518,0.89136 -0.71895,1.85835 -4.67177,4.54216 -8.78403,5.96405 -4.11228,1.42189 -7.47686,3.83807 -7.47686,5.36927 0,1.81752 -6.00037,2.5247 -17.28485,2.03707 -9.50668,-0.41081 -19.78387,0.15769 -22.83821,1.26355 -4.25691,1.54118 -5.79933,0.94822 -6.60705,-2.5399 -0.87853,-3.79407 -1.59589,-3.44181 -4.31577,2.11953 -2.74824,5.61931 -4.57882,6.49395 -11.62142,5.55264 -5.96803,-0.79777 -8.79898,0.0199 -9.8961,2.85464 -2.58544,6.68284 -9.38789,4.566 -10.99871,-3.42267 -0.94221,-4.67284 -3.51073,-7.93223 -6.97793,-8.85501 -7.94079,-2.11329 -24.69908,-1.85815 -24.65312,0.37533 0.0953,4.62523 4.38837,7.86049 11.49236,8.66049 5.67686,0.63928 7.88679,2.35132 8.49212,6.57895 0.45076,3.14815 -0.53483,5.71479 -2.19452,5.71479 -1.65701,0 -2.3983,-1.58826 -1.64729,-3.52951 0.94115,-2.43263 -0.46646,-3.41932 -4.52933,-3.17487 l -5.89484,0.35462 6.46944,5.94814 c 5.35565,4.92407 7.48945,5.48717 12.39403,3.27066 3.74635,-1.69308 6.48448,-1.77889 7.44751,-0.2332 0.83761,1.34424 -0.2736,2.44413 -2.46926,2.44413 -2.75263,0 -3.99222,2.43167 -3.99222,7.83133 0,5.19276 -1.0785,7.43919 -3.20093,6.66729 -1.76047,-0.64027 -2.88425,-2.5349 -2.49724,-4.21031 0.38699,-1.67539 -0.55481,-2.27471 -2.09291,-1.33186 -1.58048,0.96883 -3.40312,-0.58662 -4.19159,-3.57711 -0.76729,-2.91026 -4.89991,-7.02563 -9.18358,-9.14522 -9.21201,-4.5582 -9.5624,-4.60633 -9.5624,-1.31394 0,1.39693 1.58742,2.5399 3.52757,2.5399 1.94013,0 4.85189,1.58283 6.4706,3.51738 2.35155,2.8104 1.59872,3.85206 -3.74531,5.18241 -7.51177,1.87002 -16.49571,-0.19475 -16.49571,-3.79114 0,-1.30277 -3.00408,-2.36873 -6.67579,-2.36873 -4.85148,0 -6.27704,1.03055 -5.21678,3.77111 1.86329,4.81622 -6.27636,9.37849 -11.27047,6.31706 -2.93214,-1.79745 -3.03441,-2.89896 -0.50223,-5.41057 3.65658,-3.62685 4.16891,-7.21752 1.02984,-7.21752 -1.18233,0 -3.46228,2.8574 -5.06656,6.34978 -1.9887,4.32926 -4.97137,6.34977 -9.37356,6.34977 -7.08685,0 -8.69367,-3.68489 -2.61558,-5.99833 5.13862,-1.95586 4.92261,-9.24112 -0.27389,-9.24112 -2.60577,0 -3.57445,-1.39736 -2.64111,-3.80985 0.81068,-2.09545 0.44013,-3.80985 -0.82349,-3.80985 -5.20679,0 -9.74244,8.04448 -11.36157,20.15114 -2.22309,16.62214 -5.65597,16.74041 -4.49726,0.15495 0.75493,-10.80683 0.27445,-12.48218 -3.20093,-11.15942 -2.54014,0.96678 -4.08922,0.2151 -4.08922,-1.98468 0,-1.94764 -2.31624,-3.71417 -5.14716,-3.92568 -2.83092,-0.21142 -7.00123,-2.22362 -9.26735,-4.47133 -8.34808,-8.28019 -6.70527,-0.9175 1.78593,8.00425 4.83311,5.0782 7.34706,8.42248 5.58658,7.43176 -4.63696,-2.60941 -4.0631,6.04324 0.75073,11.3192 3.35474,3.67685 3.40189,4.54027 0.31205,5.71632 -2.00178,0.76193 -4.82559,0.20888 -6.27508,-1.22881 z m 22.30795,-36.13137 c 2.0499,-2.44989 2.14908,-4.10451 0.31359,-5.22971 -3.57571,-2.19196 -7.80652,0.60107 -7.80652,5.1535 0,4.66344 3.62382,4.70035 7.49293,0.0764 z M 551.2601,640.04653 c -3.36689,-1.11319 -10.50646,3.96902 -10.50646,7.47881 0,1.25809 3.03817,0.31296 6.75147,-2.10032 3.71332,-2.41327 5.40307,-4.8336 3.75499,-5.37849 z m -117.06411,-0.97239 c -0.83083,-1.33336 -3.18236,-1.78798 -5.22563,-1.01028 -2.0746,0.78962 -3.02423,0.30532 -2.15059,-1.09679 0.86049,-1.38095 0.41216,-2.51082 -0.99623,-2.51082 -4.21471,0 -6.32097,5.49996 -2.90758,7.5924 4.15439,2.54668 13.22919,0.15381 11.28003,-2.97451 z m 52.27041,2.49385 c 4.85935,-4.81986 3.68106,-9.33381 -2.04856,-7.84768 -2.83451,0.73521 -5.12145,3.46449 -5.12145,6.11197 0,5.48447 2.72541,6.1442 7.17001,1.73571 z m -115.69833,-5.05692 c 1.05625,-1.69514 0.34236,-3.53499 -1.6239,-4.18507 -1.92982,-0.63806 -6.21939,-3.84863 -9.5323,-7.13464 -7.25172,-7.19275 -7.49831,-7.22176 -10.71516,-1.25985 -5.14061,9.52726 16.1449,21.76987 21.87136,12.57956 z m -14.38619,-2.05482 c 0,-2.98111 1.96823,-2.98111 8.96252,0 4.53823,1.93431 4.31951,2.20318 -1.92053,2.36136 -3.87311,0.0981 -7.04199,-0.96441 -7.04199,-2.36136 z m 87.06445,-4.0816 c 0,-2.67841 -1.39254,-3.55159 -4.05052,-2.53995 -2.22778,0.848 -4.8205,1.55921 -5.76162,1.58063 -2.29109,0.0519 5.44003,4.9524 7.89158,5.00204 1.0563,0.0225 1.92056,-1.79783 1.92056,-4.04272 z m 144.78591,-6.247 c 3.00278,-4.81909 -1.3767,-6.00824 -5.83644,-1.58478 -3.99201,3.95961 -3.99902,4.29367 -0.0901,4.29367 2.33127,0 4.99823,-1.21902 5.92656,-2.70889 z M 463.93207,616.6769 c 0,-1.39696 -1.79648,-2.53993 -3.99221,-2.53993 -2.19572,0 -3.35463,-1.02317 -2.57541,-2.27376 0.77923,-1.25054 -0.39936,-2.96498 -2.61903,-3.80986 -11.44073,-4.35453 -11.77921,1.12103 -0.41604,6.73037 10.26334,5.06635 9.60269,4.93613 9.60269,1.89318 z m -151.0824,-21.90022 c 0,-0.52743 -1.7285,-0.95896 -3.84107,-0.95896 -2.11263,0 -3.84109,1.85441 -3.84109,4.12087 0,3.375 0.69521,3.54855 3.84109,0.95897 2.11257,-1.73907 3.84107,-3.59347 3.84107,-4.12088 z m 236.94597,-44.00985 c -0.94254,-1.51267 -2.90944,-2.01729 -4.37089,-1.12142 -1.72046,1.05466 -1.45854,2.3636 0.74297,3.71317 4.10934,2.51905 5.97985,1.18282 3.62792,-2.59175 z M 485.83608,489.9028 c -2.44952,-3.93119 -5.73897,-3.41455 -7.51677,1.18057 -0.87445,2.26032 -0.44518,3.27983 1.00639,2.38999 1.39228,-0.85346 2.53141,-0.11275 2.53141,1.64602 0,2.34806 0.75722,2.44674 2.84973,0.37122 1.56736,-1.55461 2.07554,-4.0691 1.12924,-5.5878 z m -58.43698,0.0577 c -0.20294,-2.67252 -1.76351,-4.2683 -3.52022,-3.59965 -1.73563,0.66058 -2.52893,2.82094 -1.76301,4.80077 2.02834,5.24278 5.7091,4.40597 5.28323,-1.20112 z m -32.60643,-0.008 c 0,-1.2475 -1.82273,-2.96194 -4.05053,-3.80984 -6.26422,-2.3843 -7.09189,-1.86735 -3.63163,2.26816 3.53289,4.22228 7.68216,5.05496 7.68216,1.54168 z m 103.67846,-9.7964 c -0.47184,-2.44464 -0.94602,-4.79804 -1.0538,-5.2297 -0.10776,-0.43171 -1.4042,-0.0441 -2.88098,0.86108 -1.83553,1.12521 -1.73631,2.77985 0.31359,5.22972 3.92807,4.69461 4.65986,4.52058 3.62119,-0.8611 z m 185.68276,-18.41434 c 0,-5.30975 -3.86806,-8.68787 -7.44042,-6.4979 -1.33596,0.81892 -1.08236,4.02056 0.59822,7.55276 3.25032,6.83141 6.8422,6.27764 6.8422,-1.05486 z m -297.91937,1.39931 c -0.99984,-2.58437 -0.19362,-3.21226 2.7068,-2.10824 2.75134,1.04716 3.51245,0.57985 2.27924,-1.39932 -1.01839,-1.63436 -0.56326,-2.97152 1.01137,-2.97152 1.57466,0 2.13919,-1.16164 1.25457,-2.58133 -0.88464,-1.4198 -2.9692,-1.77187 -4.63239,-0.78241 -1.72271,1.02482 -1.51164,-0.0502 0.49046,-2.49849 1.93297,-2.36361 2.34908,-4.29741 0.92474,-4.29741 -1.4244,0 -2.42971,-1.87718 -2.23411,-4.17147 0.1956,-2.29433 -0.87133,-4.60495 -2.37101,-5.13472 -1.76248,-0.62257 -2.54157,4.22058 -2.20315,13.69614 0.58565,16.4 0.50753,15.92929 2.64306,15.92929 0.8549,0 0.91357,-1.65621 0.13032,-3.68052 z m -10.90347,-32.51318 c 1.94053,-1.31226 1.6219,-2.68305 -1.02414,-4.40593 -4.50783,-2.93518 -17.96198,-3.44325 -17.84359,-0.67385 0.12804,2.99715 6.65478,10.7946 9.03534,10.7946 1.18272,0 0.76761,-1.37156 -0.92247,-3.0479 -4.50992,-4.47325 -3.74953,-6.81169 1.75108,-5.38493 3.31039,0.85862 4.50664,2.97559 3.8127,6.74692 -0.60023,3.2619 -0.32322,3.94714 0.68145,1.68591 0.93098,-2.09544 2.96033,-4.66709 4.50963,-5.71482 z m 146.64399,-5.60304 c 0,-2.034 -0.97905,-3.09795 -2.1757,-2.36439 -1.19664,0.73354 -1.51277,2.3977 -0.70245,3.69814 2.07067,3.32315 2.87815,2.94894 2.87815,-1.33375 z M 381.2137,416.55246 c 1.81064,-1.14167 2.20604,-3.31276 0.96586,-5.30312 -1.64155,-2.63452 -3.30447,-2.73065 -7.61869,-0.44052 -3.03536,1.61127 -4.84237,4.01521 -4.01563,5.34205 1.79895,2.88709 6.44905,3.06213 10.66846,0.40159 z m 106.27699,-6.11682 c -2.39,-2.37058 -3.75573,-2.37058 -6.14572,0 -2.38999,2.37055 -1.70714,3.04786 3.07287,3.04786 4.78003,0 5.46286,-0.67731 3.07285,-3.04786 z m -80.34686,-13.88603 c -1.24593,-6.37202 -7.22974,-7.24698 -7.22974,-1.05709 0,3.11983 1.65344,5.29145 4.02883,5.29145 2.38465,0 3.69099,-1.72807 3.20091,-4.23436 z m -18.77922,-32.34814 c 4.15368,-3.8182 5.48111,-6.48612 3.54569,-7.12602 -1.70151,-0.56257 -3.18949,-5.13184 -3.30657,-10.15396 -0.11709,-5.02206 -1.082,-8.60267 -2.14428,-7.95687 -1.06226,0.64585 -1.43224,6.22989 -0.82222,12.40896 0.64495,6.53228 -0.0555,11.94857 -1.67285,12.94018 -1.81382,1.11187 -2.27948,-0.2007 -1.33805,-3.77156 1.62469,-6.16246 -1.84259,-7.56412 -4.12402,-1.66715 -1.3499,3.4892 0.28152,11.4296 2.34843,11.4296 0.48098,0 3.86221,-2.74643 7.51387,-6.10318 z m 196.36584,-9.57723 c 4.39422,-4.35853 4.61967,-5.1606 1.0709,-3.80987 -2.47228,0.94101 -5.55316,1.71093 -6.84635,1.71093 -1.2932,0 -2.3513,1.71445 -2.3513,3.80986 0,5.13501 1.5547,4.80769 8.12675,-1.71092 z m 4.67684,2.98088 c 0,-1.39697 -1.15229,-2.53995 -2.5607,-2.53995 -1.40839,0 -2.56071,1.14298 -2.56071,2.53995 0,1.39692 1.15232,2.5399 2.56071,2.5399 1.40841,0 2.5607,-1.14298 2.5607,-2.5399 z m -191.46481,-5.71479 c -1.42929,-1.7462 -3.16521,-5.4608 -3.85757,-8.25473 -1.01303,-4.08786 -1.31688,-3.7985 -1.55593,1.48162 -0.31008,6.84934 1.42324,9.94795 5.56473,9.94795 1.47551,0 1.41546,-1.26082 -0.15124,-3.17484 z m -28.75702,-13.85722 c 0,-9.44726 -6.25358,-5.67514 -7.23981,4.36706 -0.73883,7.52237 -0.35971,8.13921 3.20089,5.2082 2.2214,-1.82864 4.03892,-6.1375 4.03892,-9.57526 z m 102.42878,-26.68689 c 0,-1.09965 -0.48192,-1.99937 -1.07091,-1.99937 -0.58903,0 -2.89368,-0.6938 -5.12144,-1.54169 -2.61634,-0.99582 -4.05052,-0.15236 -4.05052,2.38204 0,2.35804 2.04361,3.77106 5.12143,3.54111 2.8168,-0.21057 5.12144,-1.28237 5.12144,-2.38209 z m 91.8207,362.0333 c -6.62628,-1.7222 -2.84111,-10.98543 4.48885,-10.98543 4.82256,0 5.90868,1.15931 5.2284,5.58068 -0.91822,5.96786 -3.0304,7.1427 -9.71725,5.40475 z M 318.7759,659.21951 c -4.24535,-6.54878 -8.48697,-15.26228 -8.48697,-17.43471 0,-4.37209 4.54262,-2.1794 5.8634,2.83028 0.99943,3.79076 3.51197,5.08967 9.90136,5.11866 4.70914,0.0225 10.29056,1.18611 12.40315,2.58821 3.32467,2.20652 3.1728,3.05499 -1.1296,6.31086 -6.06649,4.59087 -15.75692,4.89732 -18.55134,0.5867 z m 326.18495,-17.60729 c 0.63515,-3.29562 3.19781,-8.67848 5.69478,-11.96186 l 4.53994,-5.96985 5.83153,8.12309 c 6.64785,9.26018 5.27465,11.70328 -7.93021,14.1084 -8.7355,1.59113 -9.22183,1.33409 -8.13604,-4.29978 z m -380.96005,-22.61183 -11.71839,-5.12974 -0.50598,-19.43899 c -0.27842,-10.69148 -1.7539,-20.20401 -3.2791,-21.139 -1.97903,-1.21319 -1.96155,-2.19747 0.061,-3.4373 4.19518,-2.57168 7.42413,0.27164 13.31477,11.72428 2.90729,5.65251 7.50014,10.85161 10.20628,11.5535 6.10748,1.58417 6.33675,4.68091 0.51072,6.89844 -3.77211,1.43572 -3.86461,2.01291 -0.64019,3.99307 2.1675,1.3311 3.76935,6.12989 3.76935,11.29224 0,4.93754 0,8.94046 0,8.89531 0,-0.0453 -5.27329,-2.39044 -11.71843,-5.21181 z m 356.13514,-13.604 c 0,-2.17788 -1.44041,-3.67404 -3.20092,-3.3248 -1.76048,0.34924 -3.20088,-1.04783 -3.20088,-3.1046 0,-2.4478 3.96662,-4.4112 11.4832,-5.68395 9.62786,-1.63025 12.29412,-1.14005 16.50237,3.03402 6.07515,6.0258 5.21537,7.12964 -6.55487,8.41621 -5.01179,0.54777 -10.44358,1.81201 -12.07064,2.80939 -1.75402,1.07529 -2.95826,0.20155 -2.95826,-2.14627 z M 241.18873,586.83173 c -0.0225,-3.14313 1.11313,-5.71478 2.52152,-5.71478 3.20839,0 3.20839,2.69544 0,7.61973 -2.00728,3.08081 -2.48981,2.71624 -2.52152,-1.90495 z m 386.62937,-4.68264 c 0,-1.96463 -1.4404,-3.66529 -3.2009,-3.77925 -1.7605,-0.11391 0.67821,-1.8859 5.4193,-3.93771 9.94432,-4.30354 10.89881,-3.94309 8.96652,3.38604 -1.63517,6.20203 -11.18492,9.89983 -11.18492,4.33092 z M 464.41956,579.212 c 1.08831,-5.60513 5.64257,-5.48317 6.74224,0.18063 0.50452,2.59843 -0.81924,4.26423 -3.38867,4.26423 -2.6374,0 -3.89337,-1.66464 -3.35357,-4.44484 z m -51.70185,0.1448 c 0,-2.84741 5.41644,-8.39945 8.19429,-8.39945 1.12671,0 2.04856,1.71445 2.04856,3.80985 0,2.09543 -0.48193,3.80985 -1.07092,3.80985 -0.58899,0 -2.89364,0.6938 -5.12141,1.54173 -2.22783,0.8479 -4.05052,0.50502 -4.05052,-0.76198 z m 62.84696,-3.14414 c -0.81031,-1.30044 -0.30214,-3.08232 1.12925,-3.95977 1.43136,-0.87743 2.60247,0.18658 2.60247,2.36441 0,4.46141 -1.53658,5.11833 -3.73172,1.59536 z m -11.6326,-7.33434 c 0,-3.06961 4.85821,-6.64845 6.63407,-4.88703 0.64454,0.6393 -0.58447,2.60813 -2.73111,4.3752 -2.43367,2.00334 -3.90296,2.19607 -3.90296,0.51183 z m -110.30882,-32.00077 5.8163,-6.14084 -6.01011,-1.13301 c -3.30557,-0.62316 -0.60454,-1.28864 6.00221,-1.4789 6.60674,-0.19024 12.72446,-1.48886 13.59489,-2.88581 1.94548,-3.12222 14.08397,-3.39585 14.08397,-0.31749 0,1.92595 -11.55744,5.80857 -19.20538,6.45187 -1.40842,0.11839 -4.66094,2.78705 -7.22784,5.9302 -2.56693,3.14312 -6.51284,5.71479 -8.7687,5.71479 -3.28882,0 -2.94909,-1.21686 1.71466,-6.14081 z m -84.30583,-15.68539 c 0,-2.83143 17.12207,-16.13195 20.85197,-16.19799 2.31401,-0.0409 4.87057,-1.78889 5.68127,-3.88429 0.81069,-2.09545 3.52668,-3.71965 6.03556,-3.60935 2.68268,0.11791 3.24317,0.7282 1.36075,1.48161 -1.76048,0.70458 -3.20089,3.47177 -3.20089,6.14922 0,2.67752 -1.66753,4.8682 -3.70562,4.8682 -2.03804,0 -8.952,2.76687 -15.36431,6.14863 -6.41229,3.38171 -11.65873,5.65154 -11.65873,5.04397 z m -20.35941,-12.31159 c -1.68384,-2.01241 -4.89478,-2.96111 -7.13541,-2.10831 -2.98048,1.13446 -3.52073,0.58266 -2.01279,-2.05589 1.48794,-2.60356 0.86713,-2.49647 -2.2324,0.3851 -2.65541,2.46862 -7.18959,3.56999 -11.88395,2.88661 -9.46267,-1.37758 -9.62634,-3.81599 -0.54845,-8.17185 5.6444,-2.70839 6.15448,-3.58208 2.57017,-4.40203 -3.56177,-0.81479 -3.93428,-2.01926 -1.83044,-5.91835 1.89161,-3.50577 1.81116,-4.89538 -0.2834,-4.89538 -1.66207,0 -2.22706,-1.80342 -1.30872,-4.17718 0.90189,-2.33117 -0.23855,-6.20969 -2.58024,-8.77636 -3.12873,-3.42912 -3.7542,-7.05121 -2.45858,-14.23716 0.95573,-5.30087 1.72779,-13.61 1.71568,-18.4647 -0.0225,-8.72028 2.90137,-12.64785 9.46956,-12.7236 2.2164,-0.0254 2.81412,1.70909 1.74268,5.05751 -1.21604,3.80029 -0.12016,5.70517 4.30868,7.49002 l 5.93948,2.39364 -5.76161,1.69588 c -6.48136,1.90773 -7.80934,6.18323 -1.92054,6.18323 2.11258,0 3.84107,1.14296 3.84107,2.53991 0,1.39694 -2.40066,2.53992 -5.33482,2.53992 -3.14634,0 -4.88438,1.3024 -4.23679,3.17487 0.64345,1.86052 5.53367,3.17488 11.81232,3.17488 11.69021,0 17.46276,4.97378 12.56545,10.82672 -3.54761,4.23987 3.77031,14.80877 15.3658,22.1921 11.60869,7.39171 11.7679,10.38544 0.49559,9.31919 -8.02112,-0.75869 -9.97315,-0.003 -11.38437,4.40721 -1.99655,6.2395 -4.66823,6.73824 -8.91397,1.66402 z m 186.89625,-34.27278 c -4.03928,-7.48608 -3.24286,-8.28857 3.72897,-3.75751 3.50894,2.28039 5.74554,5.16415 4.97033,6.40827 -2.29675,3.68608 -5.86715,2.59816 -8.6993,-2.65076 z m 122.82442,1.41694 c 0,-2.35577 1.7782,-4.96004 3.95152,-5.78725 6.21365,-2.365 6.8154,0.40571 1.18561,5.45924 -4.68792,4.20801 -5.13713,4.23669 -5.13713,0.32801 z M 692.57934,449.0367 c -0.36855,-5.22526 0.63584,-7.61468 3.20088,-7.61468 2.05593,0 3.73799,-1.14296 3.73799,-2.53989 0,-3.8937 5.00077,-3.02246 9.76275,1.70082 3.68683,3.65685 3.74981,4.41456 0.45729,5.50312 -2.10006,0.69431 -4.0841,0.78615 -4.40907,0.20408 -0.325,-0.58206 -2.40692,1.51334 -4.62649,4.65648 -5.41964,7.67471 -7.4815,7.18996 -8.12335,-1.90998 z M 205.29947,419.30022 c 0,-3.20807 9.94248,-15.97559 12.44072,-15.97559 1.00438,0 1.82615,2.28591 1.82615,5.07981 0,2.79388 -1.10275,5.07981 -2.45054,5.07981 -1.34781,0 -4.55785,1.89156 -7.13346,4.20354 -2.5756,2.31188 -4.68287,3.03754 -4.68287,1.61243 z m 101.68246,-23.61176 c -1.71905,-6.52015 0.59624,-22.45094 3.52368,-24.24551 4.48101,-2.74693 7.42595,8.37073 4.51014,17.02657 -3.87902,11.51539 -6.32226,13.71081 -8.03382,7.21894 z m 194.3829,-2.92914 c -1.85721,-9.21055 -0.30807,-12.04557 4.16031,-7.61355 2.422,2.40233 4.03531,1.83767 7.40346,-2.59129 4.13778,-5.44101 4.19855,-5.19462 1.55045,6.28359 -3.34289,14.48975 -10.54876,16.64436 -13.11422,3.92125 z M 227.5657,388.23033 c 0.75766,-2.87373 0.17327,-5.22499 -1.29889,-5.22499 -4.59852,0 -10.57595,-7.58817 -9.06134,-11.50308 1.57814,-4.0792 12.52545,-5.13823 14.83295,-1.43489 0.78875,1.26579 3.60749,1.7377 6.26394,1.04868 2.65643,-0.68903 5.43035,-0.28911 6.16424,0.88873 1.34142,2.15276 -6.26657,11.94832 -14.08153,18.13046 -3.65503,2.89135 -4.01907,2.64544 -2.81937,-1.90491 z m 247.1702,-15.38464 c 0.12048,-4.20296 1.62547,-7.6197 3.35627,-7.6197 4.06712,0 9.46259,-6.49969 10.05294,-12.11032 0.60411,-5.74173 6.3697,-19.35992 7.65621,-18.08382 0.54855,0.54404 -0.23461,6.7031 -1.74045,13.6867 -1.50575,6.98368 -2.72833,15.84071 -2.71684,19.68232 0.0144,5.03681 -1.26271,6.98476 -4.58186,6.98476 -2.53156,0 -5.31498,1.14296 -6.18541,2.5399 -3.10482,4.98283 -6.05572,2.41641 -5.84086,-5.07984 z m 28.61336,-6.55748 c 0.85489,-2.20967 1.55432,-7.52788 1.55432,-11.81821 l 0,-7.80063 5.00883,5.72828 c 4.6351,5.30088 4.70866,6.18268 0.98585,11.81822 -4.49577,6.80563 -9.9606,8.30582 -7.549,2.07234 z m -18.93142,-48.20039 c 0,-2.17788 1.15232,-3.25339 2.56071,-2.39004 1.40841,0.86336 2.56072,2.64528 2.56072,3.95978 0,1.3145 -1.15231,2.39001 -2.56072,2.39001 -1.40839,0 -2.56071,-1.78191 -2.56071,-3.95975 z M 323.47192,288.21221 c -2.65089,-3.16821 -2.4022,-4.32748 1.39918,-6.52092 4.31437,-2.48948 4.32385,-2.67286 0.1419,-2.74494 -2.46469,-0.0424 -4.48127,1.06572 -4.48127,2.46267 0,3.31026 -6.91124,3.29204 -8.97728,-0.0225 -0.87856,-1.41 1.92697,-4.55315 6.23447,-6.98475 9.62901,-5.43564 9.71838,-6.5237 0.82231,-10.01044 -6.98111,-2.73614 -6.95662,-2.76234 2.83467,-3.03019 7.66438,-0.20972 9.54651,-1.1236 8.4027,-4.08006 -0.81068,-2.09543 -0.49889,-3.80987 0.69283,-3.80987 1.19173,0 3.60134,1.71444 5.35464,3.80987 1.75327,2.0954 4.77519,3.80984 6.71532,3.80984 1.94015,0 3.52754,2.35337 3.52754,5.22974 0,2.87631 1.15232,4.52334 2.56073,3.65995 1.40839,-0.86338 2.5607,0.11709 2.5607,2.17836 0,2.06144 -1.44041,4.32779 -3.20089,5.03632 -2.52741,1.01722 -2.50188,1.77697 0.12128,3.61077 2.68614,1.8779 2.60731,2.91088 -0.41168,5.39609 -6.28686,5.17521 -20.6546,6.36453 -24.29715,2.01124 z m 255.69251,-5.36453 c 0,-2.07342 -3.00235,-3.98721 -6.9731,-4.44484 l -6.9731,-0.80367 7.29523,-4.71275 c 5.16609,-3.3373 7.82148,-3.86815 9.09835,-1.8189 0.99173,1.59158 3.72757,2.16136 6.07968,1.2661 6.16432,-2.34622 5.36555,3.73288 -1.23671,9.41244 -6.62544,5.69954 -7.29035,5.8 -7.29035,1.10162 z M 425.42578,270.48611 c -3.46844,-1.39975 -8.32285,-2.30027 -10.78754,-2.00119 -2.46469,0.29916 -4.48126,-0.44232 -4.48126,-1.64771 0,-4.03983 6.09106,-8.28737 11.88424,-8.28737 3.15619,0 6.43998,-1.12576 7.29731,-2.50163 0.96633,-1.55087 -1.40063,-1.91462 -6.22742,-0.95709 l -7.78624,1.54457 2.90906,-8.56757 c 3.97615,-11.71048 7.38977,-15.48327 12.75109,-14.09264 2.49763,0.64781 6.58178,-0.30216 9.07596,-2.11111 5.09384,-3.69444 21.45519,-2.14726 24.47206,2.31413 3.12501,4.62133 2.19576,9.1319 -1.88131,9.1319 -2.11262,0 -3.84111,1.71445 -3.84111,3.80987 0,2.09543 0.86425,3.8188 1.92055,3.82966 3.42392,0.0353 7.69609,12.11503 5.51991,15.6076 -1.67701,2.69141 -2.75305,2.73739 -5.28525,0.22584 -4.24605,-4.21154 -13.61972,-4.00459 -17.28986,0.38169 -4.21736,5.04032 -10.95299,6.26606 -18.25019,3.32108 z m 67.22566,-1.47107 c 1.12722,-5.80566 8.89771,-6.52471 11.82018,-1.09375 2.11638,3.93295 1.38343,4.63804 -5.06683,4.87442 -5.61374,0.20577 -7.33976,-0.76051 -6.75335,-3.78067 z m -4.35689,-17.14245 c -2.29419,-2.27553 -3.52882,-5.7979 -2.74364,-7.82747 0.78522,-2.02953 1.42764,-6.42467 1.42764,-9.76691 0,-4.1831 2.39396,-7.30473 7.68214,-10.0171 8.31425,-4.26455 9.12493,-3.60992 4.99899,4.03678 -2.03738,3.77597 -1.72922,5.91902 1.28038,8.90414 4.51279,4.47609 5.18953,8.6483 1.40281,8.6483 -1.4084,0 -2.56074,2.2859 -2.56074,5.07981 0,6.13923 -5.77089,6.61268 -11.48758,0.94245 z M 394.79267,219.5059 c 0,-2.10208 -4.06502,-4.12997 -10.24288,-5.10982 -10.7129,-1.69914 -14.88684,-9.1843 -5.12145,-9.1843 3.4143,0 5.12145,-1.69327 5.12145,-5.07978 0,-5.53648 6.58925,-7.04282 8.33271,-1.90496 0.83988,2.47517 2.01563,2.4066 5.33481,-0.31101 3.72537,-3.05017 4.25752,-2.8418 4.25752,1.66716 0,3.87857 1.24919,4.82903 5.05095,3.84294 4.94106,-1.28167 4.95501,-1.08364 0.64017,9.10159 -4.27062,10.08087 -13.37328,14.83066 -13.37328,6.97818 z"
       style="fill:#333333;fill-opacity:1;stroke:#333333;stroke-width:0;stroke-miterlimit:4;stroke-opacity:1;stroke-dasharray:none"
       inkscape:connector-curvature="0" />
  </g>
  <g
     inkscape:groupmode="layer"
     id="layer3"
     inkscape:label="Légende"
     transform="translate(-202.71498,-189.07581)"
     style="display:inline" />
</svg>
