<?xml version="1.0" encoding="UTF-8" standalone="no"?>
<svg
   xmlns:dc="http://purl.org/dc/elements/1.1/"
   xmlns:cc="http://creativecommons.org/ns#"
   xmlns:rdf="http://www.w3.org/1999/02/22-rdf-syntax-ns#"
   xmlns:svg="http://www.w3.org/2000/svg"
   xmlns="http://www.w3.org/2000/svg"
   style="fill:#000000"
   version="1.1"
   id="svg2"
   width="100"
   viewBox="0 0 100 100"
   height="100">
  <metadata
     id="metadata12">
    <rdf:RDF>
      <cc:Work
         rdf:about="">
        <dc:format>image/svg+xml</dc:format>
        <dc:type
           rdf:resource="http://purl.org/dc/dcmitype/StillImage" />
        <dc:title></dc:title>
      </cc:Work>
    </rdf:RDF>
  </metadata>
  <defs
     id="defs10" />
  <path
     id="path4"
     d="m 71.469411,62.893082 -4.516867,0 -1.600914,-1.54374 C 70.954831,54.831332 74.328188,46.369354 74.328188,37.164094 74.328188,16.638079 57.690109,0 37.164094,0 16.638079,0 0,16.638079 0,37.164094 c 0,20.526015 16.638079,37.164094 37.164094,37.164094 9.20526,0 17.667238,-3.373357 24.185248,-8.976558 l 1.54374,1.600914 0,4.516867 L 91.480846,100 100,91.480846 71.469411,62.893082 Z m -34.305317,0 c -14.236707,0 -25.728988,-11.492282 -25.728988,-25.728988 0,-14.236707 11.492281,-25.728988 25.728988,-25.728988 14.236706,0 25.728988,11.492281 25.728988,25.728988 0,14.236706 -11.492282,25.728988 -25.728988,25.728988 z" />
  <path
     style="fill:none"
     id="path6"
     d="m 0,76 24,0 0,24 -24,0 z" />
  <g
     transform="matrix(0.39999999,0,0,0.39999999,17.165001,17.165)"
     id="g4242">
    <path
       style="fill:#000000;fill-opacity:1"
       d="M 99.948648,63.728115 C 98.62184,52.189066 67.267921,53.783164 66.128704,55.078137 c 0.684524,0.200647 1.401348,0.461611 2.129354,0.790278 3.213907,1.451306 5.385499,3.573487 4.851298,4.730592 -0.536687,1.164491 -3.574183,0.931839 -6.786848,-0.521928 -0.82615,-0.37052 -1.580244,-0.789048 -2.239921,-1.223578 0.894478,10.591208 10.613224,13.492588 18.511957,14.290252 6.693672,0.896141 18.270946,-3.447928 17.354104,-9.415638 z"
       id="path6-6" />
    <path
       style="fill:#000000;fill-opacity:1"
       d="M 79.534685,91.462947 C 85.988589,81.771574 60.902223,63.060933 59.190292,63.332976 c 0.393819,0.589632 0.775214,1.242042 1.121824,1.958463 1.525581,3.15742 1.817529,6.162201 0.658435,6.713673 -1.162821,0.552702 -3.341867,-1.558399 -4.866206,-4.714589 -0.393818,-0.814898 -0.703158,-1.611331 -0.92802,-2.362218 -6.168168,8.689369 -0.592591,17.094385 4.953169,22.728504 4.550654,4.939855 16.245947,8.967567 19.405191,3.806138 z"
       id="path8" />
    <path
       style="fill:#000000;fill-opacity:1"
       d="m 45.917241,99.762101 c 11.228177,-3.332217 4.094719,-33.627453 2.605165,-34.511284 -0.07827,0.70288 -0.208711,1.447613 -0.404999,2.216965 -0.8746,3.391303 -2.595227,5.884004 -3.845011,5.568877 -1.244814,-0.315126 -1.554154,-3.321139 -0.678312,-6.70998 0.223619,-0.872753 0.504386,-1.680265 0.819938,-2.401609 -10.362273,2.743816 -11.523851,12.739238 -10.917595,20.585397 0.294433,6.681668 6.657646,17.205173 12.420814,15.251634 z"
       id="path10" />
    <path
       style="fill:#000000;fill-opacity:1"
       d="m 14.757125,84.764046 c 10.770999,4.580414 24.913682,-23.197502 24.34221,-24.819911 -0.516809,0.487461 -1.099462,0.976153 -1.747958,1.441457 -2.864813,2.048323 -5.799196,2.868145 -6.552047,1.830443 -0.752852,-1.032778 0.957836,-3.535327 3.822648,-5.579956 0.73546,-0.528084 1.474646,-0.968769 2.184016,-1.320824 C 27.077309,51.834549 19.71899,58.764872 15.102492,65.164649 11.002804,70.48241 9.0722236,82.59755 14.757125,84.764046 Z"
       id="path12" />
    <path
       style="fill:#000000;fill-opacity:1"
       d="M 0.56474916,53.452035 C 5.8632858,63.81059 34.692791,51.492341 35.30526,49.884703 c -0.711855,0.04678 -1.473403,0.05047 -2.274706,-0.0037 -3.520763,-0.253578 -6.302339,-1.488234 -6.211649,-2.76105 0.09193,-1.272816 3.023831,-2.104947 6.545836,-1.853831 0.908143,0.06278 1.760381,0.196954 2.531868,0.376675 -4.561835,-9.61997 -14.694277,-8.9811 -22.380572,-7.004174 -6.5868323,1.46854 -15.9117598,9.538734 -12.95128784,14.813412 z"
       id="path14" />
    <path
       style="fill:#000000;fill-opacity:1"
       d="M 9.9455815,20.409289 C 7.3019037,31.724303 37.396101,40.598317 38.905531,39.753876 c -0.573956,-0.416065 -1.16282,-0.898603 -1.739261,-1.450075 -2.540565,-2.432383 -3.873585,-5.147888 -2.977865,-6.066186 0.893235,-0.915837 3.683508,0.30651 6.219103,2.738893 0.654708,0.625329 1.223695,1.269123 1.70075,1.896914 C 44.835172,26.59488 36.649461,20.644403 29.475006,17.276488 23.469584,14.217545 11.087283,14.480971 9.9455815,20.409289 Z"
       id="path16" />
    <path
       style="fill:#000000;fill-opacity:1"
       d="m 38.532833,1.02285 c -9.351017,7.0017187 7.990665,32.936882 9.696384,33.247085 -0.175169,-0.684415 -0.310583,-1.429148 -0.400031,-2.215734 -0.373941,-3.482395 0.362761,-6.410856 1.643603,-6.547493 1.279599,-0.136637 2.626285,2.575175 2.998984,6.055108 0.0969,0.89491 0.115537,1.747968 0.07702,2.534553 8.747244,-6.152354 6.319732,-15.918816 2.994015,-23.064557 C 52.917769,4.86961 43.247474,-2.7968288 38.532833,1.02285 Z"
       id="path18" />
    <path
       style="fill:#000000;fill-opacity:1"
       d="M 73.013696,4.3218314 C 61.309707,3.7494335 57.821245,34.667536 58.930645,35.992053 c 0.309341,-0.636408 0.684524,-1.293743 1.128036,-1.956001 1.966608,-2.907535 4.426421,-4.688739 5.497309,-3.976011 1.069646,0.706573 0.345368,3.64242 -1.618755,6.551186 -0.504386,0.747195 -1.042315,1.415608 -1.582729,1.991699 10.691491,0.840747 15.153939,-8.195753 17.231115,-15.788334 1.974062,-6.401009 -0.47954,-18.4262886 -6.571925,-18.4927606 z"
       id="path20" />
    <path
       style="fill:#000000;fill-opacity:1"
       d="m 97.33106,28.769991 c -8.605619,-7.879395 -31.299257,13.62307 -31.305469,15.341495 0.650981,-0.290507 1.361593,-0.556396 2.131838,-0.780431 3.39156,-0.982308 6.432784,-0.782892 6.793059,0.440685 0.362761,1.223577 -2.092083,3.01586 -5.482401,3.995707 -0.872116,0.254809 -1.7169,0.42222 -2.507022,0.52439 7.662691,7.441172 16.934198,3.344527 23.442764,-1.162029 C 96.057672,43.47754 101.95998,32.69184 97.33106,28.769991 Z"
       id="path22" />
    <ellipse
       style="fill:#000000;fill-opacity:1"
       cx="56.402504"
       cy="39.638165"
       id="circle24"
       rx="3.6425109"
       ry="3.609184" />
    <ellipse
       style="fill:#000000;fill-opacity:1"
       cx="61.969383"
       cy="46.037945"
       id="circle26"
       rx="3.6735692"
       ry="3.6399581" />
    <ellipse
       style="fill:#000000;fill-opacity:1"
       cx="61.283619"
       cy="54.666992"
       id="circle28"
       rx="3.6748114"
       ry="3.6411891" />
    <ellipse
       style="fill:#000000;fill-opacity:1"
       cx="54.603611"
       cy="60.246952"
       id="circle30"
       rx="3.6735692"
       ry="3.6399581" />
    <path
       style="fill:#000000;fill-opacity:1"
       d="m 42.232491,59.360658 c 0.05218,-2.007701 1.738019,-3.595644 3.767986,-3.543943 2.027482,0.05047 3.630088,1.722117 3.57791,3.731049 -0.05342,2.008932 -1.739262,3.598106 -3.767987,3.545174 -2.026239,-0.04678 -3.63133,-1.723348 -3.577909,-3.73228 z"
       id="path32" />
    <ellipse
       style="fill:#000000;fill-opacity:1"
       cx="40.361542"
       cy="52.766388"
       id="circle34"
       rx="3.6735692"
       ry="3.6399581" />
    <ellipse
       style="fill:#000000;fill-opacity:1"
       cx="41.269688"
       cy="44.15826"
       id="circle36"
       rx="3.6735692"
       ry="3.6399581" />
    <ellipse
       style="fill:#000000;fill-opacity:1"
       cx="48.091316"
       cy="38.750645"
       id="circle38"
       rx="3.6735692"
       ry="3.6399581" />
    <path
       style="fill:#000000;fill-opacity:1"
       d="m 58.20761,50.175211 c -0.393819,-0.185876 -0.764033,-0.425914 -1.078343,-0.744733 -0.715582,-0.717652 -1.108158,-1.669186 -1.099462,-2.678576 0.0012,-0.582246 0.151565,-1.13741 0.405,-1.644567 -0.372699,0.120634 -0.760306,0.201878 -1.171517,0.201878 -1.523096,0 -2.827543,-0.893679 -3.440011,-2.173881 -0.154049,0.210495 -0.327975,0.409911 -0.52799,0.592093 -0.703159,0.637639 -1.616272,0.987233 -2.571623,0.987233 -0.642285,0 -1.260965,-0.17849 -1.816286,-0.477614 0.109325,0.375444 0.177653,0.76689 0.161503,1.178032 -0.06336,1.663031 -1.197606,3.01586 -2.733126,3.462699 0.359033,0.182183 0.695705,0.40868 0.975229,0.70288 1.125551,1.18788 1.310658,2.909997 0.605015,4.287445 0.337913,-0.09232 0.685766,-0.157563 1.054738,-0.157563 1.115612,0.02585 2.064752,0.461611 2.766668,1.192803 0.419907,0.439454 0.706886,0.91953 0.8746,1.447613 0.180138,-0.328667 0.398788,-0.642563 0.684524,-0.917068 1.145428,-1.090633 2.918233,-1.288818 4.314611,-0.640101 -0.08075,-0.323743 -0.135414,-0.65241 -0.131687,-0.994618 0.02112,-1.676572 1.175244,-3.140187 2.728157,-3.623955 z"
       id="path40" />
  </g>
</svg>
